M48
;Layer_Color=9474304
;FILE_FORMAT=4:4
METRIC,LZ
;TYPE=PLATED
T1F00S00C0.2000
T2F00S00C0.3000
T3F00S00C5.0000
;TYPE=NON_PLATED
T4F00S00C0.5500
%
T01
X0073Y00015
X00719Y00061
Y0012
Y00165
X00725Y00219
X00725152Y00244848
X00725Y00271
X00848Y0027
Y00245
X00845Y001825
X00805Y00193
X00806Y00154
X0078Y00174
X00807Y00096
Y00074
X00814Y00029
X008225Y00015
X00788Y00019
X00784Y00027
X0067Y00015
X00665Y00041
Y00067
Y00098
Y00111
Y00173
X00636Y00213
X0063
Y00244
X00624
X0063Y00256
Y00269
X00595Y00245
X00589
X00544Y00248
X00539Y00264
X0052Y0029
X0049Y00288
X00482Y00272
Y00264
X00474
X00466Y00272
X00458
X0045Y00256
X00442
X00434
Y00241
Y00232
X00442
Y00224
Y00216
X00434
Y00224
X00418
Y00216
Y00232
X00414Y00247
X0041Y00255
Y00264
X00418
X00426
X00402
X00394
Y00272
X00402
X00369999Y00279999
X00358Y00272
X00346
Y0028875
Y00227
Y00221
X00361Y00216
X0037Y00224
X00385999Y00216
X00386Y00208
X00394
X00394Y00192
X00385999Y00184
X00378Y00184
X00377999Y00192
X0037788Y0017591
X00386Y00176
X00378Y0016
X00362Y00168
X00342Y0015
Y00113
X00329
X00394
X0039Y00105
X00414Y00113
X00418Y00176
X00426
X00423Y00191
X00419Y00199
X00455Y002
X00451Y00208
X00474
Y002
Y00224
X00466
X00474Y00232
X00465999Y0024
X00466Y00248
X00459Y00242
X00447Y00241
X00482Y00256
X0049
X00482Y00176
X00449999Y00176
X0045Y00168
X0051Y001575
X004875Y001175
X00489Y00037
X00445Y00014
X0043
X00415
X004
X00385
X0037
X00355
X00339998
X00393999Y00231999
X00562Y00187
X00569Y00184
X00588Y00133
X00595
X00579Y00288
X00192Y0029075
X00136Y00284
X00132Y00272
X00142
X0012Y00276
Y00284
X00106Y00281
Y00291
X00092Y00288
Y00278
Y00269
Y0026
X0008
X0008Y00275999
X00072Y00268
Y00284
X00064Y00276
Y00292
X00080297
X00049Y00284
X00048Y00262
Y00256
X00062
Y00248
X00062Y00232
X00072Y00228
X0008Y00236
X0009Y00232
X0009Y00248
X00111Y00248
X0012Y00251999
X0012Y00244
X0012Y0026
X00106Y00264
X00105848Y00256152
X00111152Y00232152
X0012Y00228
X00111Y00216
X0011Y002
X0009
X0009Y00216
X00062
Y002
X00072Y00204
Y00196
X00064Y0018
X0005
X0005Y0019
X00054Y00166
Y00156
X0005Y00135
X00076Y00145
X0009Y001175
X00087864Y00179863
X00112Y0018
X00119Y0017475
X00129
X00136Y0018
X00128Y00188
X00138758Y0020005
X00138Y00216
X00128Y00212
X0013825Y00232
X00138Y00248
X00159Y0024675
X00169
X0015Y00194
Y00184
X00205Y001175
X00255
X00194Y00071
X00192Y00058
X00175Y00015
X00152Y00028
X00095
X000175Y000375
Y001075
Y0017
X00019Y00212
X00049Y00294
X00061Y00307
X00071
Y003
X00086Y00325
X00094Y00321
X00111Y003
X00119Y00307
X00128848Y00307152
X00128Y00299999
X00136Y003
X00184Y0029375
X001925Y00385
X00214Y0044
Y00454
X002525Y00445
X00259Y00427
Y00417
X00292Y00423
X00284Y0047
X00259Y00468
Y00478
X002075Y005175
X000825
X00059Y00468
X0005Y003675
X0002Y003925
Y003375
X00308Y00423
X00296Y0045
X0032Y00466
X00341Y00476
X00354Y0047
X00355Y00454
X00367999Y00473999
X0038Y00476
Y00466
X00406Y00472
X00435Y00485
X00406Y00426
X0038085Y00425
Y00415
X00368Y00418
Y0041
X00348Y00412
Y00418
X00328Y00442
X00305Y00522
X002955Y00514
X00365Y005175
X0038Y00365
X00386Y0030225
X00378Y00297
X0037Y00302
X00363Y0029715
X00394Y00297
X00402Y00302
X0041Y00297
X004775Y003025
X00466Y00329
X00466Y00412
X004825Y004175
X0048Y00402
X005775Y00425
X00595Y004525
X00595Y00363
X00593Y0035
X00574Y00304
X0054Y00305
X00662Y00393
X00715Y00405
X0075Y0034
X00725Y00297
X00848Y00321
X007725Y004525
T02
X0056Y00024
X00174Y00114
X00158
X00142
X0013
X00118
Y00102
X0008Y00084
X0007
X00062Y00072
Y00054
Y00042
X00074
X00082Y00393
X00099
X00116
X00111Y00431
X00099
X00082
X00065
X00041Y00432
X00065Y00393
X00096Y00458
X00086Y0048
X00129Y00505
X00144
X00161
X00178
Y00467
X00161
X00144
X00192Y0047
X00456
Y00459
X00468Y0047
Y0043
X0048
X0049
X00533Y00424
X00544
X00554
X00528Y0045
X00555Y005
Y0052
X00645
Y005
X00656Y0047
X00656Y00459
Y00441
X00668Y0043
X0069
X00668Y0047
X00667Y00326
Y00314
X00658Y00306
X00646
X00632
X00445Y005
Y0052
X00755
Y005
X00728Y0045
X00733Y00424
X00744
X00754
X00726Y00378
X00714
X00726Y00366
Y0035
X00718Y00336
X00708
T03
X0081Y0049
T04
X0048Y004885
X0052
X0068
X0072
M30
