G04*
G04 #@! TF.GenerationSoftware,Altium Limited,Altium Designer,20.0.13 (296)*
G04*
G04 Layer_Physical_Order=1*
G04 Layer_Color=255*
%FSLAX44Y44*%
%MOMM*%
G71*
G01*
G75*
%ADD10C,0.2000*%
%ADD12C,0.4000*%
%ADD15C,0.3000*%
G04:AMPARAMS|DCode=16|XSize=1.3mm|YSize=1.1mm|CornerRadius=0.275mm|HoleSize=0mm|Usage=FLASHONLY|Rotation=90.000|XOffset=0mm|YOffset=0mm|HoleType=Round|Shape=RoundedRectangle|*
%AMROUNDEDRECTD16*
21,1,1.3000,0.5500,0,0,90.0*
21,1,0.7500,1.1000,0,0,90.0*
1,1,0.5500,0.2750,0.3750*
1,1,0.5500,0.2750,-0.3750*
1,1,0.5500,-0.2750,-0.3750*
1,1,0.5500,-0.2750,0.3750*
%
%ADD16ROUNDEDRECTD16*%
%ADD17R,1.1000X1.3000*%
%ADD18C,0.3500*%
G04:AMPARAMS|DCode=19|XSize=1.525mm|YSize=0.65mm|CornerRadius=0.1625mm|HoleSize=0mm|Usage=FLASHONLY|Rotation=180.000|XOffset=0mm|YOffset=0mm|HoleType=Round|Shape=RoundedRectangle|*
%AMROUNDEDRECTD19*
21,1,1.5250,0.3250,0,0,180.0*
21,1,1.2000,0.6500,0,0,180.0*
1,1,0.3250,-0.6000,0.1625*
1,1,0.3250,0.6000,0.1625*
1,1,0.3250,0.6000,-0.1625*
1,1,0.3250,-0.6000,-0.1625*
%
%ADD19ROUNDEDRECTD19*%
%ADD20R,1.5250X0.6500*%
%ADD21R,0.6000X1.1000*%
%ADD22O,0.6000X1.1000*%
%ADD23R,0.9000X0.7500*%
%ADD24R,0.7500X0.9000*%
%ADD25R,4.0000X1.5000*%
%ADD26R,1.1000X0.7500*%
%ADD27R,1.1000X0.7000*%
%ADD28R,1.8000X1.1000*%
%ADD29R,1.3500X1.9000*%
%ADD30R,1.0000X1.2000*%
%ADD31R,1.3500X1.5500*%
%ADD32R,1.2700X3.1800*%
G04:AMPARAMS|DCode=33|XSize=1.27mm|YSize=3.18mm|CornerRadius=0.3175mm|HoleSize=0mm|Usage=FLASHONLY|Rotation=0.000|XOffset=0mm|YOffset=0mm|HoleType=Round|Shape=RoundedRectangle|*
%AMROUNDEDRECTD33*
21,1,1.2700,2.5450,0,0,0.0*
21,1,0.6350,3.1800,0,0,0.0*
1,1,0.6350,0.3175,-1.2725*
1,1,0.6350,-0.3175,-1.2725*
1,1,0.6350,-0.3175,1.2725*
1,1,0.6350,0.3175,1.2725*
%
%ADD33ROUNDEDRECTD33*%
%ADD34R,0.3000X1.3500*%
%ADD35R,0.4000X1.3500*%
%ADD36R,1.9000X1.9000*%
G04:AMPARAMS|DCode=37|XSize=1.27mm|YSize=3.18mm|CornerRadius=0.3175mm|HoleSize=0mm|Usage=FLASHONLY|Rotation=90.000|XOffset=0mm|YOffset=0mm|HoleType=Round|Shape=RoundedRectangle|*
%AMROUNDEDRECTD37*
21,1,1.2700,2.5450,0,0,90.0*
21,1,0.6350,3.1800,0,0,90.0*
1,1,0.6350,1.2725,0.3175*
1,1,0.6350,1.2725,-0.3175*
1,1,0.6350,-1.2725,-0.3175*
1,1,0.6350,-1.2725,0.3175*
%
%ADD37ROUNDEDRECTD37*%
%ADD38R,3.1800X1.2700*%
%ADD39R,2.8100X1.1800*%
%ADD40R,0.8000X0.8000*%
%ADD41R,1.1000X0.6000*%
%ADD42O,1.1000X0.6000*%
%ADD43R,0.9000X1.3000*%
%ADD44R,1.3000X0.9000*%
%ADD45C,1.0000*%
%ADD48C,0.4500*%
%ADD78C,0.1100*%
%ADD79C,0.3500*%
%ADD80C,0.1200*%
%ADD81C,0.5000*%
%ADD82C,0.0900*%
%ADD83C,0.6000*%
%ADD84C,1.2000*%
%ADD85C,0.1410*%
%ADD86C,0.2750*%
%ADD87C,0.6500*%
G36*
X762000Y522000D02*
Y496000D01*
X758000Y492000D01*
X721113D01*
X720000Y492221D01*
X718887Y492000D01*
X681113D01*
X680000Y492221D01*
X678887Y492000D01*
X640000D01*
X636000Y496000D01*
Y522000D01*
X640000Y526000D01*
X758000D01*
X762000Y522000D01*
D02*
G37*
G36*
X562000D02*
Y496000D01*
X558000Y492000D01*
X521113D01*
X520000Y492221D01*
X518887Y492000D01*
X481113D01*
X480000Y492221D01*
X478887Y492000D01*
X440000D01*
X436000Y496000D01*
Y522000D01*
X440000Y526000D01*
X558000D01*
X562000Y522000D01*
D02*
G37*
G36*
X196000Y460000D02*
X126974D01*
Y461623D01*
X126865Y461885D01*
X126810Y462164D01*
X126727Y462220D01*
X126689Y462312D01*
X126426Y462421D01*
X126190Y462579D01*
X125358Y462744D01*
X124391Y463391D01*
X123744Y464358D01*
X123740Y464380D01*
X123829Y471768D01*
X124391Y472609D01*
X125358Y473256D01*
X126190Y473422D01*
X126426Y473579D01*
X126689Y473688D01*
X126727Y473780D01*
X126810Y473836D01*
X126865Y474114D01*
X126974Y474377D01*
Y477350D01*
X126689Y478039D01*
X126000Y478324D01*
X124574D01*
Y486000D01*
X196000D01*
Y460000D01*
D02*
G37*
G36*
X762150Y456150D02*
X728150D01*
X726150Y458150D01*
Y462150D01*
X722150Y466150D01*
X710150D01*
Y474150D01*
X762150D01*
Y456150D01*
D02*
G37*
G36*
X562000Y456000D02*
X528000D01*
X526000Y458000D01*
Y462000D01*
X522000Y466000D01*
X510000D01*
Y474000D01*
X562000D01*
Y456000D01*
D02*
G37*
G36*
X690000Y463476D02*
X687800D01*
X686278Y463174D01*
X684988Y462312D01*
X684126Y461022D01*
X683824Y459500D01*
X684126Y457978D01*
X684988Y456688D01*
X686278Y455826D01*
X687800Y455524D01*
X690000D01*
Y452000D01*
X650000D01*
Y474000D01*
X690000D01*
Y463476D01*
D02*
G37*
G36*
X490000D02*
X487800D01*
X486278Y463174D01*
X484988Y462312D01*
X484126Y461022D01*
X483824Y459500D01*
X484126Y457978D01*
X484988Y456688D01*
X486278Y455826D01*
X487800Y455524D01*
X490000D01*
Y452000D01*
X450000D01*
Y474000D01*
X490000D01*
Y463476D01*
D02*
G37*
G36*
X762150Y420150D02*
X724150D01*
Y446024D01*
X726719D01*
X728000Y445769D01*
X729619Y446091D01*
X729708Y446150D01*
X762150D01*
Y420150D01*
D02*
G37*
G36*
X562000Y420000D02*
X524000D01*
Y446000D01*
X526837D01*
X528000Y445769D01*
X529163Y446000D01*
X562000D01*
Y420000D01*
D02*
G37*
G36*
X196000Y488000D02*
X124000D01*
X124177Y487823D01*
X123691Y486650D01*
X123600D01*
Y477350D01*
X126000D01*
Y474377D01*
X124978Y474174D01*
X123688Y473312D01*
X122826Y472022D01*
X122524Y470500D01*
Y465500D01*
X122826Y463978D01*
X123688Y462688D01*
X124978Y461826D01*
X126000Y461623D01*
Y448377D01*
X124978Y448174D01*
X123688Y447312D01*
X122826Y446022D01*
X122524Y444500D01*
Y439500D01*
X122826Y437978D01*
X123688Y436688D01*
X124978Y435826D01*
X126000Y435623D01*
Y414000D01*
X54000D01*
Y440000D01*
X103600D01*
Y435600D01*
X111400D01*
Y448400D01*
X110000D01*
Y462480D01*
X110312Y462688D01*
X111174Y463978D01*
X111476Y465500D01*
Y470500D01*
X111174Y472022D01*
X110312Y473312D01*
X110000Y473520D01*
Y514000D01*
X196000D01*
Y488000D01*
D02*
G37*
G36*
X698150Y426150D02*
X660150D01*
X650150Y436150D01*
Y446150D01*
X698150D01*
Y426150D01*
D02*
G37*
G36*
X498000Y426000D02*
X460000D01*
X450000Y436000D01*
Y446000D01*
X498000D01*
Y426000D01*
D02*
G37*
G36*
X184000Y388000D02*
X54000D01*
Y412000D01*
X184000D01*
Y388000D01*
D02*
G37*
G36*
X730000Y358000D02*
X702000D01*
Y382000D01*
X730000D01*
Y358000D01*
D02*
G37*
G36*
Y340000D02*
X722000Y332000D01*
X680000D01*
Y356000D01*
X730000D01*
Y340000D01*
D02*
G37*
G36*
X672000Y302000D02*
X652000D01*
Y332000D01*
X672000D01*
Y302000D01*
D02*
G37*
G36*
X650000D02*
X628000D01*
Y312000D01*
X606000D01*
Y330000D01*
X628000D01*
Y344000D01*
X650000D01*
Y302000D01*
D02*
G37*
G36*
X162000Y264000D02*
X150000D01*
X150000Y269000D01*
X150000Y318000D01*
X162000D01*
Y264000D01*
D02*
G37*
G36*
X136000Y92000D02*
X112000D01*
X112000Y118000D01*
X136000D01*
X136000Y92000D01*
D02*
G37*
G36*
X180000Y92000D02*
X160000D01*
Y78000D01*
X138000D01*
Y118000D01*
X180000D01*
Y92000D01*
D02*
G37*
G36*
X110000Y64000D02*
X56000D01*
Y78000D01*
X68000Y90000D01*
X110000D01*
Y64000D01*
D02*
G37*
G36*
X86000Y38000D02*
X56000D01*
Y62000D01*
X86000D01*
Y38000D01*
D02*
G37*
D10*
X460000Y8000D02*
X471000Y19000D01*
Y71000D01*
X489000Y89000D01*
X595000Y119000D02*
Y133000D01*
X497000Y111000D02*
X587000D01*
X595000Y119000D01*
X489000Y103000D02*
X497000Y111000D01*
X489000Y89000D02*
Y103000D01*
X333000Y8000D02*
X460000D01*
X8000Y446000D02*
X42000Y480000D01*
X86000D01*
X244000Y496000D02*
X364000D01*
X367999Y473999D02*
Y492001D01*
X364000Y496000D02*
X367999Y492001D01*
X348000Y470000D02*
X354000D01*
X354000Y470000D01*
X542700Y75400D02*
Y102700D01*
X517300Y75400D02*
Y102300D01*
X713000Y469250D02*
Y483250D01*
X513000Y469261D02*
Y483250D01*
X50000Y404000D02*
X51000Y403000D01*
X50000Y404000D02*
Y446000D01*
X96000Y446000D02*
Y458000D01*
X117000Y28000D02*
X128000D01*
X96000Y446000D02*
X100000Y442000D01*
X107500D01*
X50000Y446000D02*
X59000Y455000D01*
X636760Y394000D02*
X637880Y392880D01*
X45000Y39000D02*
X70000Y14000D01*
X113000D02*
X117000Y18000D01*
X70000Y14000D02*
X113000D01*
X45000Y39000D02*
Y104000D01*
X8000Y141000D02*
Y446000D01*
Y141000D02*
X45000Y104000D01*
X179050Y44950D02*
X203500Y20500D01*
X320500D01*
X333000Y8000D01*
X149120Y44950D02*
X179050D01*
X595000Y245000D02*
Y324000D01*
X587000Y332000D02*
Y381000D01*
Y332000D02*
X595000Y324000D01*
X587000Y381000D02*
X610000Y404000D01*
X686000Y393000D02*
Y393750D01*
X683250Y396500D02*
X686000Y393750D01*
X682500Y396500D02*
X683250D01*
X675000Y404000D02*
X682500Y396500D01*
X610000Y404000D02*
X675000D01*
X339999Y78000D02*
Y104999D01*
X374000Y139000D02*
X430000D01*
X339999Y104999D02*
X374000Y139000D01*
X370000Y78000D02*
Y105000D01*
X378000Y113000D02*
X394000D01*
X370000Y105000D02*
X378000Y113000D01*
X355000Y78000D02*
Y105000D01*
X383000Y133000D02*
X440000D01*
X355000Y105000D02*
X383000Y133000D01*
X445000Y78000D02*
X453000D01*
X474000Y99000D02*
Y138000D01*
X453000Y78000D02*
X474000Y99000D01*
X470000Y107000D02*
Y138000D01*
X446000Y96000D02*
X459000D01*
X470000Y107000D01*
X439000Y104000D02*
X455000D01*
X466000Y115000D01*
Y138000D01*
X414000Y113000D02*
X451000D01*
X462000Y124000D02*
Y138000D01*
X451000Y113000D02*
X462000Y124000D01*
X458000Y130000D02*
Y138500D01*
X414000Y122000D02*
X450000D01*
X458000Y130000D01*
X408000Y116000D02*
X414000Y122000D01*
X430000Y164000D02*
X434000Y160000D01*
Y143000D02*
Y160000D01*
X430000Y139000D02*
X434000Y143000D01*
X438000Y164000D02*
X442000Y160000D01*
Y135000D02*
Y160000D01*
X440000Y133000D02*
X442000Y135000D01*
X400000Y78000D02*
Y119000D01*
X409000Y128000D01*
X446000D01*
X450000Y132000D02*
Y138000D01*
X446000Y128000D02*
X450000Y132000D01*
X408000Y72172D02*
Y116000D01*
X430000Y78000D02*
Y95000D01*
X439000Y104000D01*
X438000Y75000D02*
Y88000D01*
X446000Y96000D01*
X798000Y206000D02*
X805000Y213000D01*
X798599Y295401D02*
X805000Y289000D01*
Y213000D02*
Y289000D01*
X777602Y295401D02*
X798599D01*
X749000Y206000D02*
X798000D01*
X237000Y454000D02*
Y489000D01*
Y440000D02*
Y454000D01*
Y489000D02*
X244000Y496000D01*
X630000Y244000D02*
X639000D01*
X675000Y280000D02*
Y359000D01*
X639000Y244000D02*
X675000Y280000D01*
X637880Y376050D02*
X657950D01*
X675000Y359000D01*
X117000Y28000D02*
X117000Y28000D01*
X117000Y18000D02*
Y28000D01*
X466000Y329000D02*
Y378000D01*
X466000Y329000D02*
X466000Y329000D01*
Y378000D02*
X480000D01*
X388000Y69000D02*
X404828D01*
X408000Y72172D01*
X385000Y72000D02*
X388000Y69000D01*
X385000Y72000D02*
Y78000D01*
X433000Y70000D02*
X438000Y75000D01*
X417000Y70000D02*
X433000D01*
X415000Y72000D02*
Y78000D01*
Y72000D02*
X417000Y70000D01*
X569000Y184000D02*
X708000D01*
X718000Y174000D02*
X729000D01*
X708000Y184000D02*
X718000Y174000D01*
X622000Y213000D02*
X630000D01*
X637880Y376050D02*
Y392880D01*
X682000Y363350D02*
X692120D01*
X677000Y368350D02*
Y383250D01*
Y368350D02*
X682000Y363350D01*
X686000Y392250D02*
Y393000D01*
X677000Y383250D02*
X686000Y392250D01*
X617000Y363000D02*
X617350Y363350D01*
X637880D01*
X617650Y350650D02*
X637880D01*
X616000Y338000D02*
Y349000D01*
X617650Y350650D01*
X170000Y71000D02*
X171000Y72000D01*
X169350Y70350D02*
X170000Y71000D01*
X171000Y72000D02*
Y83000D01*
X149120Y70350D02*
X169350D01*
X149120Y57650D02*
X169650D01*
X170000Y58000D01*
X117000Y28000D02*
X118000Y29000D01*
Y51000D01*
X94880Y57650D02*
X111350D01*
X118000Y51000D01*
X59000Y455000D02*
X67000D01*
X83000Y468000D02*
X107500D01*
X83000Y455000D02*
Y468000D01*
X445000Y38000D02*
Y62000D01*
X430000Y38000D02*
Y62000D01*
X415000Y38000D02*
Y62000D01*
X400000Y38000D02*
Y62000D01*
X385000Y38000D02*
Y62000D01*
X370000Y38000D02*
Y62000D01*
X355000Y38000D02*
Y62000D01*
X339998Y38000D02*
Y61999D01*
X339999Y62000D01*
X749199Y320801D02*
X777602D01*
X749000Y284000D02*
X754550D01*
X768549Y270001D01*
X777602D01*
X749000Y284000D02*
Y297000D01*
X777602Y219201D02*
X780177Y221776D01*
X795776D01*
X799000Y225000D01*
Y253000D01*
X749000Y258000D02*
X794000D01*
X799000Y253000D01*
X749000Y258000D02*
Y271000D01*
Y245000D02*
X749399Y244601D01*
X777602D01*
X749000Y232000D02*
Y245000D01*
Y206000D02*
Y219000D01*
X745000Y174000D02*
X756000D01*
X756000Y155400D02*
Y174000D01*
X756000Y174000D02*
X756000Y174000D01*
X494000Y276000D02*
X518000D01*
X519000Y275000D01*
X494000Y284000D02*
X546500D01*
X550000Y287500D01*
X568000Y264500D02*
Y265500D01*
X558500Y275000D02*
X568000Y265500D01*
X535000Y275000D02*
X558500D01*
X552000Y289500D02*
Y304000D01*
X550000Y287500D02*
X552000Y289500D01*
X568000Y250000D02*
Y264500D01*
X566000Y248000D02*
X568000Y250000D01*
X462000Y276000D02*
Y276000D01*
Y276000D02*
X466000Y272000D01*
D12*
X289000Y513000D02*
X290000Y514000D01*
X295500D01*
X305000Y517500D02*
Y522000D01*
X304500Y517000D02*
X305000Y517500D01*
X304500Y517000D02*
X307000Y514500D01*
X466000Y248000D02*
X470000Y252000D01*
X466000Y248000D02*
Y248000D01*
X489000Y37000D02*
Y43000D01*
X406000Y464000D02*
Y472000D01*
X466000Y394000D02*
Y412000D01*
Y394000D02*
X466000Y394000D01*
X171000Y99000D02*
X195000D01*
X165000D02*
X171000D01*
X51000Y403000D02*
X65000D01*
X41000D02*
X51000D01*
X41000Y403000D02*
X41000Y403000D01*
X446000Y180000D02*
X449999Y176001D01*
Y176000D02*
Y176001D01*
X446000Y172000D02*
X450000Y168000D01*
X450000D01*
X465999Y240000D02*
X465999D01*
X49865Y180000D02*
X50000D01*
X49615Y179750D02*
X49865Y180000D01*
X64000Y180000D02*
X68000Y184000D01*
X43000Y178000D02*
X44750Y179750D01*
X49615D01*
Y190250D02*
X49865Y190000D01*
X50000D01*
X44750Y190250D02*
X49615D01*
X43000Y192000D02*
X44750Y190250D01*
X54385Y166250D02*
X59250D01*
X54000Y166000D02*
X54135D01*
X54385Y166250D01*
X62000Y248000D02*
X68000D01*
X68000Y248000D02*
X68000Y248000D01*
X62000Y256000D02*
X68000D01*
X386000Y184000D02*
X390000Y188000D01*
X385999Y184000D02*
X386000D01*
X140000Y258000D02*
X148000Y266000D01*
X154000D01*
X124000Y248000D02*
X134000Y258000D01*
X140000D01*
X814000Y29000D02*
Y40450D01*
X342000Y113000D02*
Y121000D01*
X342000Y121000D02*
X342000Y121000D01*
X828705Y244904D02*
X847904D01*
X848000Y245000D01*
X828402Y270000D02*
X848000D01*
X848000Y270000D01*
X847801Y320801D02*
X847904Y320904D01*
X828402Y320801D02*
X828505Y320904D01*
X847904D01*
X848000Y321000D01*
X828402Y320801D02*
X847801D01*
X665000Y67000D02*
X673000D01*
X292000Y423000D02*
Y430000D01*
X120000Y244000D02*
X124000Y240000D01*
X132000Y232000D02*
X138250D01*
X129000Y174615D02*
Y174750D01*
X118750Y168750D02*
Y174365D01*
X119000Y174615D01*
X129250Y168750D02*
Y174365D01*
X119000Y174615D02*
Y174750D01*
X129000Y174615D02*
X129250Y174365D01*
X150000Y184000D02*
X150135D01*
X150385Y183750D02*
X155250D01*
X157000Y182000D01*
X150135Y184000D02*
X150385Y183750D01*
X111000Y216000D02*
X116000D01*
X94000Y316500D02*
Y321000D01*
X86000Y325000D02*
Y329500D01*
X90000Y314000D02*
X91500D01*
X94000Y316500D01*
X88500Y332000D02*
X90000D01*
X86000Y329500D02*
X88500Y332000D01*
X84000Y248000D02*
X90000D01*
X90000Y248000D01*
X132000Y216000D02*
X138000D01*
X132000Y200000D02*
X138708D01*
X138758Y200050D01*
X84000Y183862D02*
Y184000D01*
Y183862D02*
X87864Y179999D01*
Y179863D02*
Y179999D01*
X169000Y246750D02*
Y246885D01*
X169250Y247135D01*
Y251250D01*
X171000Y253000D01*
X72000Y196000D02*
X76000Y192000D01*
X72000Y204000D02*
X76000Y208000D01*
X150135Y194000D02*
X150385Y194250D01*
X150000Y194000D02*
X150135D01*
X124000Y208000D02*
X128000Y212000D01*
Y212000D01*
X84000Y216000D02*
X90000D01*
X188000Y283000D02*
X189500D01*
X173750D02*
X188000D01*
X59250Y166250D02*
X61000Y168000D01*
X732924Y244924D02*
X733000Y245000D01*
X725152Y244848D02*
X725228Y244924D01*
X732924D01*
X616000Y301000D02*
X616000Y301000D01*
X616000Y301000D02*
Y322000D01*
X622000Y256000D02*
X630000D01*
X622000Y269000D02*
X630000D01*
X148000Y84170D02*
X149120Y83050D01*
X654000Y393000D02*
X662000D01*
X595000Y363000D02*
X603000D01*
X593000Y350000D02*
X601000D01*
X662000Y393000D02*
X670000D01*
X692120Y376050D02*
X707000D01*
X83050Y44950D02*
X94880D01*
X144000Y28000D02*
X152000D01*
X95000D02*
X103000D01*
X186000Y71000D02*
X194000D01*
X184000Y58000D02*
X192000D01*
X41000Y432000D02*
Y447000D01*
X59000Y468000D02*
X67000D01*
X329000Y113000D02*
Y121000D01*
X329000Y113000D02*
X329000Y113000D01*
X480000Y394000D02*
Y402000D01*
X445000Y14000D02*
Y22000D01*
X430000Y14000D02*
Y22000D01*
X415000Y14000D02*
Y22000D01*
X400000Y14000D02*
Y22000D01*
X385000Y14000D02*
Y22000D01*
X370000Y14000D02*
Y22000D01*
X355000Y14000D02*
Y22000D01*
X339998Y14000D02*
Y22000D01*
X828402Y270001D02*
X828402Y270000D01*
X828402Y244601D02*
X828705Y244904D01*
X805000Y193000D02*
X813000D01*
X725000Y297000D02*
X733000D01*
X725000Y271000D02*
X733000D01*
X725000Y219000D02*
X733000D01*
X665000Y98000D02*
X673000D01*
X673000Y98000D01*
X665000Y98000D02*
X665000Y98000D01*
X817475Y96025D02*
X817500Y96050D01*
X807000Y96000D02*
X807025Y96025D01*
X817475D01*
X673000Y41000D02*
X673000Y41000D01*
X665000Y41000D02*
X673000D01*
X665000Y41000D02*
X665000Y41000D01*
Y111000D02*
X673000D01*
X665000Y111000D02*
X665000Y111000D01*
X673000Y173000D02*
X673000Y173000D01*
X665000Y173000D02*
X673000D01*
X665000Y173000D02*
X665000Y173000D01*
X817475Y74025D02*
X817500Y74050D01*
X807025Y74025D02*
X817475D01*
X807000Y74000D02*
X807025Y74025D01*
X815900Y154000D02*
X816250Y153650D01*
X806000Y154000D02*
X815900D01*
X719000Y155400D02*
X719000Y155400D01*
X719000Y155400D02*
Y165000D01*
X709250Y120400D02*
X709650Y120000D01*
X719000D01*
X709250Y60700D02*
X709550Y61000D01*
X719000D01*
X814000Y40450D02*
X814000Y40450D01*
X795000Y21500D02*
Y23000D01*
X792500Y19000D02*
X795000Y21500D01*
X788000Y19000D02*
X792500D01*
X777000Y23000D02*
Y24500D01*
X779500Y27000D01*
X784000D01*
X772000Y174000D02*
X780000D01*
X342000Y150000D02*
Y158000D01*
X486000Y284000D02*
X490000Y288000D01*
X490000D01*
X552000Y248000D02*
X552000Y248000D01*
X544000Y248000D02*
X552000D01*
X544000Y248000D02*
X544000Y248000D01*
X549500Y264000D02*
X550000Y264500D01*
X539000Y264000D02*
X549500D01*
X568000Y287500D02*
X568500Y288000D01*
X579000D01*
X566000Y304000D02*
X566000Y304000D01*
X574000D01*
X574000Y304000D01*
X381235Y414750D02*
X385250D01*
X380850Y415000D02*
X380985D01*
X381235Y414750D01*
X422000Y260000D02*
X426000Y264000D01*
X426000D01*
X458000Y272000D02*
Y272000D01*
X406000Y418000D02*
Y426000D01*
X214000Y440000D02*
X221000D01*
X214000Y454000D02*
X221000D01*
X252000Y429000D02*
X253750Y427250D01*
X258615D01*
X258865Y427000D01*
X259000D01*
X252000Y415000D02*
X253750Y416750D01*
X258615D01*
X258865Y417000D01*
X259000D01*
X252000Y480000D02*
X253750Y478250D01*
X258615D01*
X258865Y478000D01*
X259000D01*
X252000Y466000D02*
X253750Y467750D01*
X258615D01*
X258865Y468000D01*
X259000D01*
X385250Y476250D02*
X387000Y478000D01*
X380385Y476250D02*
X385250D01*
X380135Y476000D02*
X380385Y476250D01*
X380000Y476000D02*
X380135D01*
Y466000D02*
X380385Y465750D01*
X380000Y466000D02*
X380135D01*
X385250Y465750D02*
X387000Y464000D01*
X380385Y465750D02*
X385250D01*
X385250Y414750D02*
X387000Y413000D01*
X307000Y513000D02*
Y514500D01*
X184000Y293750D02*
Y299000D01*
X132000Y280000D02*
X136000Y284000D01*
X62000Y200000D02*
X68000D01*
X62000Y216000D02*
X68000D01*
X111000Y248000D02*
X116000D01*
X120000Y228000D02*
X124000Y224000D01*
X72000Y228000D02*
X76000Y224000D01*
X64000Y276000D02*
X68000Y272000D01*
X132000Y248000D02*
X138000D01*
X138000Y248000D01*
X158750Y247135D02*
Y251250D01*
Y247135D02*
X159000Y246885D01*
Y246750D02*
Y246885D01*
X192000Y285500D02*
Y290750D01*
X132000Y296000D02*
X136000Y300000D01*
Y300000D01*
X129250Y307689D02*
Y312250D01*
X128848Y307152D02*
Y307287D01*
X129250Y307689D01*
X64000Y292000D02*
X68000Y288000D01*
X43750Y294250D02*
X48615D01*
X48865Y294000D01*
X49000D01*
X189500Y283000D02*
X192000Y285500D01*
X390000Y196000D02*
X394000Y192000D01*
X394000D01*
X394000Y208000D02*
X394000D01*
X390000Y212000D02*
X394000Y208000D01*
X150385Y194250D02*
X155250D01*
X157000Y253000D02*
X158750Y251250D01*
X111152Y232152D02*
X111247Y232056D01*
X115944D02*
X116000Y232000D01*
X111247Y232056D02*
X115944D01*
X62000Y232000D02*
X68000D01*
X62000Y232000D02*
X62000Y232000D01*
X76000Y152000D02*
X76000Y152000D01*
Y145000D02*
Y152000D01*
X110000Y200000D02*
X116000D01*
X132000Y184000D02*
X136000Y180000D01*
X129250Y168750D02*
X131000Y167000D01*
X84000Y200000D02*
X90000D01*
X124000Y192000D02*
X128000Y188000D01*
X155250Y194250D02*
X157000Y196000D01*
X84000Y232000D02*
X90000D01*
X76000Y240000D02*
X80000Y236000D01*
X172500Y271500D02*
Y284250D01*
X172000Y284750D02*
X172500Y284250D01*
X173750Y283000D01*
X172000Y284750D02*
Y285000D01*
X172500Y271500D02*
X173000Y271000D01*
X172500Y299750D02*
Y311500D01*
X172000Y299250D02*
X172500Y299750D01*
X173750Y301000D01*
X188000D01*
X172000Y299000D02*
Y299250D01*
X172500Y311500D02*
X173000Y312000D01*
X129250Y312250D02*
X131000Y314000D01*
X117000D02*
X118750Y312250D01*
Y307385D02*
Y312250D01*
Y307385D02*
X119000Y307135D01*
Y307000D02*
Y307135D01*
X59000Y314000D02*
X60750Y312250D01*
Y307385D02*
Y312250D01*
Y307385D02*
X61000Y307135D01*
Y307000D02*
Y307135D01*
X71000Y307000D02*
Y307135D01*
X71250Y307385D02*
Y312250D01*
X71000Y307135D02*
X71250Y307385D01*
Y312250D02*
X73000Y314000D01*
X42000Y296000D02*
X43750Y294250D01*
X42000Y282000D02*
X43750Y283750D01*
X48615D01*
X48865Y284000D01*
X49000D01*
X19000Y212000D02*
X28000D01*
X59250Y155750D02*
X61000Y154000D01*
X54385Y155750D02*
X59250D01*
X54135Y156000D02*
X54385Y155750D01*
X54000Y156000D02*
X54135D01*
X117000Y167000D02*
X118750Y168750D01*
X112000Y180000D02*
X116000Y184000D01*
X84000Y232000D02*
X84000Y232000D01*
X470000Y260000D02*
Y260000D01*
X474000Y264000D02*
X474000D01*
X470000Y260000D02*
X474000Y264000D01*
X414000Y268000D02*
X418000Y264000D01*
X418000D01*
X434000Y256000D02*
X434000D01*
X478000Y268000D02*
X482000Y264000D01*
Y264000D02*
Y264000D01*
Y272000D02*
X486000Y276000D01*
X482000Y272000D02*
Y272000D01*
X478000Y260000D02*
X482000Y256000D01*
Y256000D02*
Y256000D01*
X470000Y236000D02*
X474000Y232000D01*
X465999Y240000D02*
X470000Y244000D01*
Y228000D02*
X474000Y224000D01*
X466000D02*
X470000Y220000D01*
Y196000D02*
X474000Y200000D01*
Y200000D01*
X470000Y204000D02*
X474000Y208000D01*
X382000Y212000D02*
X386000Y208000D01*
X386000D01*
X382000Y180000D02*
Y180000D01*
X386000Y176000D02*
X386000D01*
X382000Y180000D02*
X386000Y176000D01*
X374000Y172000D02*
X377880Y175880D01*
Y175910D01*
X374000Y164000D02*
X378000Y160000D01*
X378000D01*
X362000Y168000D02*
X366000Y164000D01*
X362000Y168000D02*
Y168000D01*
X426000Y176000D02*
X430000Y180000D01*
X438000Y212000D02*
X442000Y216000D01*
X442000D01*
X438000Y220000D02*
X442000Y224000D01*
X442000D01*
X438000Y228000D02*
X442000Y232000D01*
X442000D01*
X430000Y212000D02*
X434000Y216000D01*
X434000D01*
X430000Y220000D02*
X434000Y224000D01*
X434000D01*
X430000Y228000D02*
X434000Y232000D01*
X434000D01*
X418000Y216000D02*
X422000Y212000D01*
X418000Y216000D02*
Y216000D01*
Y224000D02*
X422000Y220000D01*
X418000Y224000D02*
Y224000D01*
Y232000D02*
X422000Y228000D01*
X418000Y232000D02*
Y232000D01*
D15*
X687000Y468000D02*
Y483250D01*
X487000Y467000D02*
Y483250D01*
D16*
X568000Y264500D02*
D03*
D17*
Y287500D02*
D03*
X550000D02*
D03*
Y264500D02*
D03*
D18*
X276000Y414000D02*
D03*
Y422000D02*
D03*
Y478000D02*
D03*
Y486000D02*
D03*
X284000Y414000D02*
D03*
Y422000D02*
D03*
Y478000D02*
D03*
Y486000D02*
D03*
X292000Y430000D02*
D03*
Y438000D02*
D03*
Y446000D02*
D03*
Y454000D02*
D03*
Y462000D02*
D03*
Y470000D02*
D03*
X300000Y430000D02*
D03*
Y438000D02*
D03*
Y446000D02*
D03*
Y454000D02*
D03*
Y462000D02*
D03*
Y470000D02*
D03*
X308000Y430000D02*
D03*
Y438000D02*
D03*
Y446000D02*
D03*
Y454000D02*
D03*
Y462000D02*
D03*
Y470000D02*
D03*
X316000Y430000D02*
D03*
Y438000D02*
D03*
Y446000D02*
D03*
Y454000D02*
D03*
Y462000D02*
D03*
Y470000D02*
D03*
X324000Y430000D02*
D03*
Y438000D02*
D03*
Y446000D02*
D03*
Y454000D02*
D03*
Y462000D02*
D03*
Y470000D02*
D03*
X332000Y430000D02*
D03*
Y438000D02*
D03*
Y446000D02*
D03*
Y454000D02*
D03*
Y462000D02*
D03*
Y470000D02*
D03*
X340000Y430000D02*
D03*
Y438000D02*
D03*
Y446000D02*
D03*
Y454000D02*
D03*
Y462000D02*
D03*
Y470000D02*
D03*
X348000Y430000D02*
D03*
Y438000D02*
D03*
Y446000D02*
D03*
Y454000D02*
D03*
Y462000D02*
D03*
Y470000D02*
D03*
X356000Y414000D02*
D03*
Y422000D02*
D03*
Y486000D02*
D03*
X364000Y414000D02*
D03*
Y422000D02*
D03*
Y478000D02*
D03*
Y486000D02*
D03*
X132000Y184000D02*
D03*
X124000D02*
D03*
X116000D02*
D03*
X84000D02*
D03*
X76000D02*
D03*
X68000D02*
D03*
X132000Y192000D02*
D03*
X124000D02*
D03*
X116000D02*
D03*
X84000D02*
D03*
X76000D02*
D03*
X68000D02*
D03*
X132000Y200000D02*
D03*
X124000D02*
D03*
X116000D02*
D03*
X84000D02*
D03*
X76000D02*
D03*
X68000D02*
D03*
X132000Y208000D02*
D03*
X124000D02*
D03*
X116000D02*
D03*
X84000D02*
D03*
X76000D02*
D03*
X68000D02*
D03*
X132000Y216000D02*
D03*
X124000D02*
D03*
X116000D02*
D03*
X84000D02*
D03*
X76000D02*
D03*
X68000D02*
D03*
X132000Y224000D02*
D03*
X124000D02*
D03*
X116000D02*
D03*
X84000D02*
D03*
X76000D02*
D03*
X68000D02*
D03*
X132000Y232000D02*
D03*
X124000D02*
D03*
X116000D02*
D03*
X84000D02*
D03*
X76000D02*
D03*
X68000D02*
D03*
X132000Y240000D02*
D03*
X124000D02*
D03*
X116000D02*
D03*
X84000D02*
D03*
X76000D02*
D03*
X68000D02*
D03*
X132000Y248000D02*
D03*
X124000D02*
D03*
X116000D02*
D03*
X84000D02*
D03*
X76000D02*
D03*
X68000D02*
D03*
X124000Y256000D02*
D03*
X116000D02*
D03*
X84000D02*
D03*
X76000D02*
D03*
X68000D02*
D03*
X132000Y264000D02*
D03*
X124000D02*
D03*
X116000D02*
D03*
X84000D02*
D03*
X76000D02*
D03*
X124000Y272000D02*
D03*
X116000D02*
D03*
X84000D02*
D03*
X76000D02*
D03*
X68000D02*
D03*
X132000Y280000D02*
D03*
X124000D02*
D03*
X116000D02*
D03*
X84000D02*
D03*
X76000D02*
D03*
X124000Y288000D02*
D03*
X116000D02*
D03*
X84000D02*
D03*
X76000D02*
D03*
X68000D02*
D03*
X132000Y296000D02*
D03*
X124000D02*
D03*
X116000D02*
D03*
X84000D02*
D03*
X76000D02*
D03*
X366000Y156000D02*
D03*
X374000D02*
D03*
X382000D02*
D03*
X390000D02*
D03*
X398000D02*
D03*
X406000D02*
D03*
X414000D02*
D03*
X422000D02*
D03*
X430000D02*
D03*
X438000D02*
D03*
X446000D02*
D03*
X454000D02*
D03*
X462000D02*
D03*
X470000D02*
D03*
X478000D02*
D03*
X486000D02*
D03*
X494000D02*
D03*
X366000Y164000D02*
D03*
X374000D02*
D03*
X382000D02*
D03*
X390000D02*
D03*
X398000D02*
D03*
X406000D02*
D03*
X414000D02*
D03*
X422000D02*
D03*
X430000D02*
D03*
X438000D02*
D03*
X446000D02*
D03*
X454000D02*
D03*
X462000D02*
D03*
X470000D02*
D03*
X478000D02*
D03*
X486000D02*
D03*
X494000D02*
D03*
X366000Y172000D02*
D03*
X374000D02*
D03*
X382000D02*
D03*
X390000D02*
D03*
X398000D02*
D03*
X406000D02*
D03*
X414000D02*
D03*
X422000D02*
D03*
X430000D02*
D03*
X438000D02*
D03*
X446000D02*
D03*
X454000D02*
D03*
X462000D02*
D03*
X470000D02*
D03*
X478000D02*
D03*
X486000D02*
D03*
X494000D02*
D03*
X366000Y180000D02*
D03*
X374000D02*
D03*
X382000D02*
D03*
X390000D02*
D03*
X398000D02*
D03*
X406000D02*
D03*
X414000D02*
D03*
X422000D02*
D03*
X430000D02*
D03*
X438000D02*
D03*
X446000D02*
D03*
X454000D02*
D03*
X462000D02*
D03*
X470000D02*
D03*
X478000D02*
D03*
X486000D02*
D03*
X494000D02*
D03*
X366000Y188000D02*
D03*
X374000D02*
D03*
X382000D02*
D03*
X390000D02*
D03*
X470000D02*
D03*
X478000D02*
D03*
X486000D02*
D03*
X494000D02*
D03*
X366000Y196000D02*
D03*
X374000D02*
D03*
X382000D02*
D03*
X390000D02*
D03*
X470000D02*
D03*
X478000D02*
D03*
X486000D02*
D03*
X494000D02*
D03*
X366000Y204000D02*
D03*
X374000D02*
D03*
X382000D02*
D03*
X390000D02*
D03*
X470000D02*
D03*
X478000D02*
D03*
X486000D02*
D03*
X494000D02*
D03*
X366000Y212000D02*
D03*
X374000D02*
D03*
X382000D02*
D03*
X390000D02*
D03*
X422000D02*
D03*
X430000D02*
D03*
X438000D02*
D03*
X470000D02*
D03*
X478000D02*
D03*
X486000D02*
D03*
X494000D02*
D03*
X366000Y220000D02*
D03*
X374000D02*
D03*
X382000D02*
D03*
X390000D02*
D03*
X422000D02*
D03*
X430000D02*
D03*
X438000D02*
D03*
X470000D02*
D03*
X478000D02*
D03*
X486000D02*
D03*
X494000D02*
D03*
X366000Y228000D02*
D03*
X374000D02*
D03*
X382000D02*
D03*
X390000D02*
D03*
X422000D02*
D03*
X430000D02*
D03*
X438000D02*
D03*
X470000D02*
D03*
X478000D02*
D03*
X486000D02*
D03*
X494000D02*
D03*
X366000Y236000D02*
D03*
X374000D02*
D03*
X382000D02*
D03*
X390000D02*
D03*
X470000D02*
D03*
X478000D02*
D03*
X486000D02*
D03*
X494000D02*
D03*
X366000Y244000D02*
D03*
X374000D02*
D03*
X382000D02*
D03*
X390000D02*
D03*
X470000D02*
D03*
X478000D02*
D03*
X486000D02*
D03*
X494000D02*
D03*
X366000Y252000D02*
D03*
X374000D02*
D03*
X382000D02*
D03*
X390000D02*
D03*
X470000D02*
D03*
X478000D02*
D03*
X486000D02*
D03*
X494000D02*
D03*
X366000Y260000D02*
D03*
X374000D02*
D03*
X382000D02*
D03*
X390000D02*
D03*
X398000D02*
D03*
X406000D02*
D03*
X414000D02*
D03*
X422000D02*
D03*
X430000D02*
D03*
X438000D02*
D03*
X446000D02*
D03*
X454000D02*
D03*
X462000D02*
D03*
X470000D02*
D03*
X478000D02*
D03*
X486000D02*
D03*
X494000D02*
D03*
X366000Y268000D02*
D03*
X374000D02*
D03*
X382000D02*
D03*
X390000D02*
D03*
X398000D02*
D03*
X406000D02*
D03*
X414000D02*
D03*
X422000D02*
D03*
X430000D02*
D03*
X438000D02*
D03*
X446000D02*
D03*
X454000D02*
D03*
X462000D02*
D03*
X470000D02*
D03*
X478000D02*
D03*
X486000D02*
D03*
X494000D02*
D03*
X366000Y276000D02*
D03*
X374000D02*
D03*
X382000D02*
D03*
X390000D02*
D03*
X398000D02*
D03*
X406000D02*
D03*
X414000D02*
D03*
X422000D02*
D03*
X430000D02*
D03*
X438000D02*
D03*
X446000D02*
D03*
X454000D02*
D03*
X462000D02*
D03*
X470000D02*
D03*
X478000D02*
D03*
X486000D02*
D03*
X494000D02*
D03*
X366000Y284000D02*
D03*
X374000D02*
D03*
X382000D02*
D03*
X390000D02*
D03*
X398000D02*
D03*
X406000D02*
D03*
X414000D02*
D03*
X422000D02*
D03*
X430000D02*
D03*
X438000D02*
D03*
X446000D02*
D03*
X454000D02*
D03*
X462000D02*
D03*
X470000D02*
D03*
X478000D02*
D03*
X486000D02*
D03*
X494000D02*
D03*
D19*
X637880Y337950D02*
D03*
Y350650D02*
D03*
Y363350D02*
D03*
Y376050D02*
D03*
X692120D02*
D03*
Y363350D02*
D03*
Y350650D02*
D03*
X149120Y83050D02*
D03*
Y70350D02*
D03*
Y57650D02*
D03*
Y44950D02*
D03*
X94880D02*
D03*
Y57650D02*
D03*
Y70350D02*
D03*
D20*
X692120Y337950D02*
D03*
X94880Y83050D02*
D03*
D21*
X107500Y442000D02*
D03*
D22*
X117000D02*
D03*
X126500D02*
D03*
X107500Y468000D02*
D03*
X126500D02*
D03*
D23*
X445000Y62000D02*
D03*
Y78000D02*
D03*
X430000Y62000D02*
D03*
Y78000D02*
D03*
X415000Y62000D02*
D03*
Y78000D02*
D03*
X400000Y62000D02*
D03*
Y78000D02*
D03*
X385000Y62000D02*
D03*
Y78000D02*
D03*
X370000Y62000D02*
D03*
Y78000D02*
D03*
X355000Y62000D02*
D03*
Y78000D02*
D03*
X339999Y62000D02*
D03*
Y78000D02*
D03*
X543000Y103000D02*
D03*
Y119000D02*
D03*
X518000Y103000D02*
D03*
Y119000D02*
D03*
X489000Y27000D02*
D03*
Y43000D02*
D03*
X479000Y331000D02*
D03*
Y315000D02*
D03*
X492000Y331000D02*
D03*
Y315000D02*
D03*
X511000Y331000D02*
D03*
Y315000D02*
D03*
X524000Y331000D02*
D03*
Y315000D02*
D03*
X406000Y402000D02*
D03*
Y418000D02*
D03*
X406000Y448000D02*
D03*
Y464000D02*
D03*
X76000Y152000D02*
D03*
Y168000D02*
D03*
X480000Y394000D02*
D03*
Y378000D02*
D03*
X466000D02*
D03*
Y394000D02*
D03*
X616000Y338000D02*
D03*
Y322000D02*
D03*
X171000Y83000D02*
D03*
Y99000D02*
D03*
X387000Y413000D02*
D03*
Y427000D02*
D03*
X387000Y478000D02*
D03*
Y464000D02*
D03*
X252000Y480000D02*
D03*
Y466000D02*
D03*
Y415000D02*
D03*
Y429000D02*
D03*
X61000Y168000D02*
D03*
Y154000D02*
D03*
X157000Y196000D02*
D03*
Y182000D02*
D03*
X42000Y296000D02*
D03*
Y282000D02*
D03*
X43000Y192000D02*
D03*
Y178000D02*
D03*
X129000Y496000D02*
D03*
Y482000D02*
D03*
X342000Y158000D02*
D03*
Y174000D02*
D03*
X342000Y121000D02*
D03*
Y137000D02*
D03*
X329000Y137000D02*
D03*
Y121000D02*
D03*
D24*
X745000Y174000D02*
D03*
X729000D02*
D03*
X689000Y160000D02*
D03*
X673000D02*
D03*
X688999Y28001D02*
D03*
X672999D02*
D03*
X689000Y142000D02*
D03*
X673000D02*
D03*
X689000Y54000D02*
D03*
X673000D02*
D03*
X688999Y85001D02*
D03*
X672999D02*
D03*
X689000Y124000D02*
D03*
X673000D02*
D03*
X756000Y174000D02*
D03*
X772000D02*
D03*
X689000Y173000D02*
D03*
X673000D02*
D03*
X689000Y41000D02*
D03*
X673000D02*
D03*
X689000Y67000D02*
D03*
X673000D02*
D03*
X689000Y98000D02*
D03*
X673000D02*
D03*
X689000Y111000D02*
D03*
X673000D02*
D03*
X749000Y321000D02*
D03*
X733000D02*
D03*
X749000Y206000D02*
D03*
X733000D02*
D03*
X749000Y284000D02*
D03*
X733000D02*
D03*
X749000Y232000D02*
D03*
X733000D02*
D03*
X749000Y258000D02*
D03*
X733000D02*
D03*
X749000Y219000D02*
D03*
X733000D02*
D03*
X749000Y297000D02*
D03*
X733000D02*
D03*
X749000Y245000D02*
D03*
X733000D02*
D03*
X749000Y271000D02*
D03*
X733000D02*
D03*
X829000Y193000D02*
D03*
X813000D02*
D03*
X221000Y440000D02*
D03*
X237000D02*
D03*
X407000Y390000D02*
D03*
X391000D02*
D03*
X237000Y454000D02*
D03*
X221000D02*
D03*
X173000Y312000D02*
D03*
X157000D02*
D03*
Y271000D02*
D03*
X173000D02*
D03*
X28000Y212000D02*
D03*
X44000D02*
D03*
X535000Y275000D02*
D03*
X519000D02*
D03*
X622000Y256000D02*
D03*
X606000D02*
D03*
X606000Y269000D02*
D03*
X622000D02*
D03*
X622000Y213000D02*
D03*
X606000D02*
D03*
X638000Y393000D02*
D03*
X654000D02*
D03*
X601000Y350000D02*
D03*
X617000D02*
D03*
X686000Y393000D02*
D03*
X670000D02*
D03*
X67000Y468000D02*
D03*
X83000D02*
D03*
X186000Y71000D02*
D03*
X170000D02*
D03*
X67000Y455000D02*
D03*
X83000D02*
D03*
X128000Y28000D02*
D03*
X144000D02*
D03*
X172000Y299000D02*
D03*
X158000D02*
D03*
Y285000D02*
D03*
X172000D02*
D03*
X157000Y253000D02*
D03*
X171000D02*
D03*
X131000Y167000D02*
D03*
X117000D02*
D03*
X73000Y314000D02*
D03*
X59000D02*
D03*
X117000D02*
D03*
X131000D02*
D03*
X566000Y304000D02*
D03*
X552000D02*
D03*
Y248000D02*
D03*
X566000D02*
D03*
X603000Y363000D02*
D03*
X617000D02*
D03*
X184000Y58000D02*
D03*
X170000D02*
D03*
X103000Y28000D02*
D03*
X117000D02*
D03*
D25*
X162000Y405000D02*
D03*
Y441000D02*
D03*
D26*
X817500Y129050D02*
D03*
Y118050D02*
D03*
Y107050D02*
D03*
Y96050D02*
D03*
Y85050D02*
D03*
Y74050D02*
D03*
Y63050D02*
D03*
D27*
Y52550D02*
D03*
D28*
X814000Y39000D02*
D03*
D29*
X709250Y60700D02*
D03*
Y120400D02*
D03*
D30*
X719000Y155400D02*
D03*
X756000D02*
D03*
D31*
X816250Y153650D02*
D03*
D32*
X517300Y24600D02*
D03*
D33*
Y75400D02*
D03*
X542700Y24600D02*
D03*
Y75400D02*
D03*
D34*
X513000Y483250D02*
D03*
X487000D02*
D03*
X713000D02*
D03*
X687000D02*
D03*
D35*
X506500D02*
D03*
X500000D02*
D03*
X493500D02*
D03*
X706500D02*
D03*
X700000D02*
D03*
X693500D02*
D03*
D36*
X539500Y510000D02*
D03*
X512000D02*
D03*
X488000D02*
D03*
X460500D02*
D03*
X739500D02*
D03*
X712000D02*
D03*
X688000D02*
D03*
X660500D02*
D03*
D37*
X777602Y320801D02*
D03*
X828402D02*
D03*
X777602Y295401D02*
D03*
X828402D02*
D03*
X777602Y270001D02*
D03*
X828402D02*
D03*
X777602Y244601D02*
D03*
X828402D02*
D03*
X777602Y219201D02*
D03*
D38*
X828402D02*
D03*
D39*
X543000Y465850D02*
D03*
Y436150D02*
D03*
X743000Y465850D02*
D03*
Y436150D02*
D03*
D40*
X445000Y22000D02*
D03*
Y38000D02*
D03*
X430000Y22000D02*
D03*
Y38000D02*
D03*
X415000Y22000D02*
D03*
Y38000D02*
D03*
X400000Y22000D02*
D03*
Y38000D02*
D03*
X385000Y22000D02*
D03*
Y38000D02*
D03*
X370000Y22000D02*
D03*
Y38000D02*
D03*
X355000Y22000D02*
D03*
Y38000D02*
D03*
X339998Y22000D02*
D03*
Y38000D02*
D03*
D41*
X516300Y440500D02*
D03*
X716300D02*
D03*
D42*
X516300Y450000D02*
D03*
Y459500D02*
D03*
X490300Y440500D02*
D03*
Y459500D02*
D03*
X716300Y450000D02*
D03*
Y459500D02*
D03*
X690300Y440500D02*
D03*
Y459500D02*
D03*
D43*
X795000Y23000D02*
D03*
X777000D02*
D03*
X307000Y513000D02*
D03*
X289000D02*
D03*
X657000Y320000D02*
D03*
X639000D02*
D03*
X130000Y101000D02*
D03*
X148000D02*
D03*
D44*
X468000Y459000D02*
D03*
Y441000D02*
D03*
X668000Y459000D02*
D03*
Y441000D02*
D03*
X188000Y301000D02*
D03*
Y283000D02*
D03*
X90000Y332000D02*
D03*
Y314000D02*
D03*
X713000Y367000D02*
D03*
Y349000D02*
D03*
X74000Y54000D02*
D03*
Y72000D02*
D03*
X65000Y421000D02*
D03*
Y403000D02*
D03*
X82000Y421000D02*
D03*
Y403000D02*
D03*
X99000Y421000D02*
D03*
Y403000D02*
D03*
X116000Y421000D02*
D03*
Y403000D02*
D03*
X144000Y495000D02*
D03*
Y477000D02*
D03*
X161000Y495000D02*
D03*
Y477000D02*
D03*
X178000Y495000D02*
D03*
Y477000D02*
D03*
D45*
X195000Y99000D02*
D03*
X616000Y301000D02*
D03*
X41000Y403000D02*
D03*
Y447000D02*
D03*
D48*
X48000Y262000D02*
D03*
Y256000D02*
D03*
X295500Y514000D02*
D03*
X305000Y522000D02*
D03*
X341000Y476000D02*
D03*
X402000Y302000D02*
D03*
X386000Y302250D02*
D03*
X370000Y302000D02*
D03*
X466000Y248000D02*
D03*
X459000Y242000D02*
D03*
X489000Y37000D02*
D03*
X175000Y15000D02*
D03*
X17500Y37500D02*
D03*
Y107500D02*
D03*
Y170000D02*
D03*
X50000Y135000D02*
D03*
X90000Y117500D02*
D03*
X205000D02*
D03*
X255000D02*
D03*
X390000Y105000D02*
D03*
X487500Y117500D02*
D03*
X845000Y182500D02*
D03*
X822500Y15000D02*
D03*
X730000D02*
D03*
X670000D02*
D03*
X510000Y157500D02*
D03*
X750000Y340000D02*
D03*
X772500Y452500D02*
D03*
X715000Y405000D02*
D03*
X540000Y305000D02*
D03*
X520000Y290000D02*
D03*
X595000Y452500D02*
D03*
X577500Y425000D02*
D03*
X435000Y485000D02*
D03*
X482500Y417500D02*
D03*
X477500Y302500D02*
D03*
X380000Y365000D02*
D03*
X252500Y445000D02*
D03*
X365000Y517500D02*
D03*
X207500D02*
D03*
X192500Y385000D02*
D03*
X82500Y517500D02*
D03*
X20000Y392500D02*
D03*
X50000Y367500D02*
D03*
X20000Y337500D02*
D03*
X406000Y472000D02*
D03*
X466000Y412000D02*
D03*
X368000Y418000D02*
D03*
Y410000D02*
D03*
X348000Y418000D02*
D03*
Y412000D02*
D03*
X367999Y473999D02*
D03*
X354000Y470000D02*
D03*
X624000Y244000D02*
D03*
X636000Y213000D02*
D03*
X562000Y187000D02*
D03*
X589000Y245000D02*
D03*
X588000Y133000D02*
D03*
X385999Y216000D02*
D03*
X449999Y176000D02*
D03*
X450000Y168000D02*
D03*
X465999Y240000D02*
D03*
X50000Y180000D02*
D03*
X64000D02*
D03*
X50000Y190000D02*
D03*
X54000Y166000D02*
D03*
X92000Y269000D02*
D03*
X62000Y248000D02*
D03*
Y256000D02*
D03*
X385999Y184000D02*
D03*
X393999Y231999D02*
D03*
X106000Y264000D02*
D03*
X120000Y251999D02*
D03*
X814000Y29000D02*
D03*
X346000Y227000D02*
D03*
Y221000D02*
D03*
X342000Y150000D02*
D03*
X361000Y216000D02*
D03*
X595000Y133000D02*
D03*
Y245000D02*
D03*
X342000Y113000D02*
D03*
X394000D02*
D03*
X414000D02*
D03*
X482000Y176000D02*
D03*
X665000Y67000D02*
D03*
X284000Y470000D02*
D03*
X292000Y423000D02*
D03*
X328000Y442000D02*
D03*
X410000Y297000D02*
D03*
X394000D02*
D03*
X378000D02*
D03*
X120000Y244000D02*
D03*
X138250Y232000D02*
D03*
X129000Y174750D02*
D03*
X119000D02*
D03*
X150000Y184000D02*
D03*
X111000Y216000D02*
D03*
X86000Y325000D02*
D03*
X94000Y321000D02*
D03*
X90000Y248000D02*
D03*
X92000Y260000D02*
D03*
Y278000D02*
D03*
Y288000D02*
D03*
X358000Y272000D02*
D03*
X346000Y288750D02*
D03*
X138000Y216000D02*
D03*
X87864Y179863D02*
D03*
X630000Y244000D02*
D03*
X72000Y204000D02*
D03*
Y196000D02*
D03*
X150000Y194000D02*
D03*
X138758Y200050D02*
D03*
X128000Y212000D02*
D03*
X90000Y216000D02*
D03*
X466000Y329000D02*
D03*
X569000Y184000D02*
D03*
X725152Y244848D02*
D03*
X355000Y454000D02*
D03*
X111000Y300000D02*
D03*
X369999Y279999D02*
D03*
X346000Y272000D02*
D03*
X132000D02*
D03*
X142000D02*
D03*
X630000Y213000D02*
D03*
X630000Y256000D02*
D03*
Y269000D02*
D03*
X593000Y350000D02*
D03*
X595000Y363000D02*
D03*
X662000Y393000D02*
D03*
X152000Y28000D02*
D03*
X95000D02*
D03*
X192000Y58000D02*
D03*
X194000Y71000D02*
D03*
X59000Y468000D02*
D03*
X329000Y113000D02*
D03*
X480000Y402000D02*
D03*
X445000Y14000D02*
D03*
X430000D02*
D03*
X415000D02*
D03*
X400000D02*
D03*
X385000D02*
D03*
X370000D02*
D03*
X355000D02*
D03*
X339998D02*
D03*
X848000Y321000D02*
D03*
Y245000D02*
D03*
Y270000D02*
D03*
X805000Y193000D02*
D03*
X725000Y219000D02*
D03*
Y271000D02*
D03*
Y297000D02*
D03*
X665000Y98000D02*
D03*
X807000Y96000D02*
D03*
X665000Y173000D02*
D03*
Y111000D02*
D03*
Y41000D02*
D03*
X807000Y74000D02*
D03*
X788000Y19000D02*
D03*
X784000Y27000D02*
D03*
X806000Y154000D02*
D03*
X719000Y61000D02*
D03*
Y120000D02*
D03*
Y165000D02*
D03*
X780000Y174000D02*
D03*
X490000Y288000D02*
D03*
X544000Y248000D02*
D03*
X539000Y264000D02*
D03*
X574000Y304000D02*
D03*
X579000Y288000D02*
D03*
X466000Y272000D02*
D03*
X296000Y450000D02*
D03*
X308000Y423000D02*
D03*
X380850Y425000D02*
D03*
Y415000D02*
D03*
X426000Y264000D02*
D03*
X320000Y466000D02*
D03*
X458000Y272000D02*
D03*
X406000Y426000D02*
D03*
X214000Y454000D02*
D03*
Y440000D02*
D03*
X380000Y466000D02*
D03*
Y476000D02*
D03*
X259000Y417000D02*
D03*
Y427000D02*
D03*
Y478000D02*
D03*
Y468000D02*
D03*
X363000Y297150D02*
D03*
X410000Y264000D02*
D03*
X184000Y293750D02*
D03*
X136000Y284000D02*
D03*
X62000Y200000D02*
D03*
Y216000D02*
D03*
X105848Y256152D02*
D03*
X111000Y248000D02*
D03*
X120000Y228000D02*
D03*
X72000D02*
D03*
X64000Y276000D02*
D03*
X370000Y224000D02*
D03*
X138000Y248000D02*
D03*
X159000Y246750D02*
D03*
X169000D02*
D03*
X106000Y281000D02*
D03*
Y291000D02*
D03*
X192000Y290750D02*
D03*
X128000Y299999D02*
D03*
X136000Y300000D02*
D03*
X128848Y307152D02*
D03*
X80000Y275999D02*
D03*
X71000Y300000D02*
D03*
X80297Y292000D02*
D03*
X64000D02*
D03*
X49000Y294000D02*
D03*
X120000Y284000D02*
D03*
X394000Y272000D02*
D03*
Y264000D02*
D03*
X120000Y260000D02*
D03*
X394000Y192000D02*
D03*
X394000Y208000D02*
D03*
X111152Y232152D02*
D03*
X62000Y232000D02*
D03*
X76000Y145000D02*
D03*
X110000Y200000D02*
D03*
X136000Y180000D02*
D03*
X90000Y200000D02*
D03*
X128000Y188000D02*
D03*
X377999Y192000D02*
D03*
X90000Y232000D02*
D03*
X72000Y284000D02*
D03*
Y268000D02*
D03*
X80000Y260000D02*
D03*
X120000Y276000D02*
D03*
X80000Y236000D02*
D03*
X71000Y307000D02*
D03*
X119000D02*
D03*
X61000D02*
D03*
X49000Y284000D02*
D03*
X19000Y212000D02*
D03*
X54000Y156000D02*
D03*
X112000Y180000D02*
D03*
X402000Y272000D02*
D03*
X378000Y184000D02*
D03*
X386000Y208000D02*
D03*
X402000Y264000D02*
D03*
X447000Y241000D02*
D03*
X474000Y264000D02*
D03*
X418000D02*
D03*
X482000D02*
D03*
X386000Y176000D02*
D03*
X377880Y175910D02*
D03*
X418000Y216000D02*
D03*
Y224000D02*
D03*
Y232000D02*
D03*
X414000Y247000D02*
D03*
X410000Y255000D02*
D03*
X455000Y200000D02*
D03*
X451000Y208000D02*
D03*
X466000Y224000D02*
D03*
X423000Y191000D02*
D03*
X490000Y256000D02*
D03*
X474000Y208000D02*
D03*
Y200000D02*
D03*
X482000Y256000D02*
D03*
X362000Y168000D02*
D03*
X378000Y160000D02*
D03*
X434000Y241000D02*
D03*
X450000Y256000D02*
D03*
X442000D02*
D03*
X419000Y199000D02*
D03*
X442000Y216000D02*
D03*
Y224000D02*
D03*
Y232000D02*
D03*
X434000Y216000D02*
D03*
Y224000D02*
D03*
Y232000D02*
D03*
X474000D02*
D03*
Y224000D02*
D03*
X418000Y176000D02*
D03*
X426000D02*
D03*
X482000Y272000D02*
D03*
X434000Y256000D02*
D03*
D78*
X63000Y263000D02*
X69584D01*
X74070Y258514D01*
X62200Y263000D02*
X63000D01*
X74070Y257844D02*
X75914Y256000D01*
X74070Y257844D02*
Y258514D01*
X60650Y266370D02*
X61425Y265595D01*
X59100Y266370D02*
X60650D01*
X61425Y263775D02*
X62200Y263000D01*
X61425Y263775D02*
Y265595D01*
X58325D02*
X59100Y266370D01*
X58325Y263775D02*
Y265595D01*
X57550Y263000D02*
X58325Y263775D01*
X57000Y263000D02*
X57550D01*
X55035D02*
X57000D01*
X52345Y260310D02*
X55035Y263000D01*
X48674Y262000D02*
X50309Y260366D01*
X48000Y262000D02*
X48674D01*
X50344Y260310D02*
X52345D01*
X68499Y260380D02*
X71450Y257429D01*
Y255399D02*
Y257429D01*
X56120Y260380D02*
X68499D01*
X76000Y248000D02*
Y250849D01*
X71450Y255399D02*
X76000Y250849D01*
X53430Y257690D02*
X56120Y260380D01*
X50344Y257690D02*
X53430D01*
X48654Y256000D02*
X50344Y257690D01*
X48000Y256000D02*
X48654D01*
X351915Y225310D02*
X363310D01*
X346000Y227000D02*
X346654D01*
X363310Y225310D02*
X366000Y228000D01*
X351915Y225310D02*
X351915Y225310D01*
X346654Y227000D02*
X348344Y225310D01*
X351915D01*
X353000Y222690D02*
X353000Y222690D01*
X363310D01*
X348344Y222690D02*
X353000D01*
X363310Y222690D02*
X366000Y220000D01*
X346654Y221000D02*
X348344Y222690D01*
X346000Y221000D02*
X346654D01*
D79*
X340000Y470000D02*
Y474729D01*
X341000Y475729D01*
Y476000D01*
X284000Y470000D02*
X292000D01*
X292000Y470000D01*
X324000Y438000D02*
X328000Y442000D01*
X446000Y260000D02*
X450000Y256000D01*
X348000Y454000D02*
X355000D01*
X308000Y423000D02*
Y430000D01*
X296000Y450000D02*
X300000Y446000D01*
X296000Y450000D02*
Y450000D01*
X316000Y462000D02*
X320000Y466000D01*
Y466000D01*
X454000Y276000D02*
X458000Y272000D01*
X438000Y260000D02*
X442000Y256000D01*
X430000Y260000D02*
X434000Y256000D01*
D80*
X322000Y490000D02*
X332000Y480000D01*
X336453Y457547D02*
Y471547D01*
X332000Y476000D02*
X336453Y471547D01*
X332000Y476000D02*
Y480000D01*
X402000Y280000D02*
Y302000D01*
X386000Y272000D02*
Y302250D01*
X370000Y288000D02*
Y302000D01*
X132000Y264000D02*
X139369Y271369D01*
X140000Y272000D01*
X142000D01*
X137000Y269000D02*
X139369Y271369D01*
X323419Y354122D02*
X328642Y359345D01*
X405550Y363777D02*
X406850Y362477D01*
X404250Y372468D02*
X405550Y371168D01*
X406850Y362477D02*
X409450D01*
X412050Y372000D02*
X413367D01*
X389950Y363777D02*
Y371168D01*
X399050Y362477D02*
X400350Y363777D01*
X401650Y372468D02*
X404250D01*
X389950Y371168D02*
X391250Y372468D01*
X393850D02*
X395150Y371168D01*
X383450Y372000D02*
X384750Y370700D01*
Y363777D02*
X386050Y362477D01*
X395150Y363777D02*
X396450Y362477D01*
X410750Y363777D02*
Y370700D01*
X378950Y369539D02*
X381410Y372000D01*
X386050Y362477D02*
X388650D01*
X381410Y372000D02*
X383450D01*
X410750Y370700D02*
X412050Y372000D01*
X396450Y362477D02*
X399050D01*
X384750Y363777D02*
Y370700D01*
X400350Y363777D02*
Y371168D01*
X391250Y372468D02*
X393850D01*
X395150Y363777D02*
Y371168D01*
X413367Y372000D02*
X413967D01*
X400350Y371168D02*
X401650Y372468D01*
X388650Y362477D02*
X389950Y363777D01*
X409450Y362477D02*
X410750Y363777D01*
X405550D02*
Y371168D01*
X326473Y379527D02*
X328937Y377063D01*
X320275Y391763D02*
X331985D01*
X319100Y390588D02*
X320275Y391763D01*
X331985Y382364D02*
X333160Y383539D01*
X326473Y379527D02*
Y381189D01*
X319100Y397638D02*
X320275Y396464D01*
X319100Y388238D02*
X320275Y387063D01*
Y396464D02*
X331985D01*
X326473Y381189D02*
X327648Y382364D01*
X319100Y388238D02*
Y390588D01*
X331985Y396464D02*
X333160Y395289D01*
X321825Y401163D02*
X323000Y402338D01*
X319100Y399989D02*
X320275Y401163D01*
Y387063D02*
X331985D01*
X333160Y392938D02*
Y395289D01*
X327648Y382364D02*
X331985D01*
X320275Y401163D02*
X321825D01*
X323000Y402338D02*
Y404212D01*
X331985Y387063D02*
X333160Y385888D01*
X331985Y391763D02*
X333160Y392938D01*
Y383539D02*
Y385888D01*
X319100Y397638D02*
Y399989D01*
X436699Y326308D02*
X438360D01*
X421203Y325767D02*
X422864D01*
X434496Y312473D02*
X436158D01*
X434056Y330312D02*
Y331974D01*
X439552Y314205D02*
X440000Y313757D01*
X427850Y319120D02*
X429511D01*
X411424Y342576D02*
X413086D01*
X419541Y327429D02*
Y329090D01*
X414556Y332414D02*
X416218D01*
X412894Y335737D02*
X419903Y342746D01*
X432835Y314135D02*
X434496Y312473D01*
X424086Y340282D02*
X425748D01*
X429511Y319120D02*
X436699Y326308D01*
X416580Y346069D02*
X418241D01*
X432835Y315797D02*
X440022Y322984D01*
X411000Y343000D02*
X411424Y342576D01*
X412894Y334076D02*
Y335737D01*
Y334076D02*
X414556Y332414D01*
X430733Y333635D02*
X432395D01*
X427410Y336959D02*
Y338621D01*
X419541Y329090D02*
X427410Y336959D01*
X438360Y326308D02*
X440022Y324646D01*
X426188Y320782D02*
X427850Y319120D01*
X432835Y314135D02*
Y315797D01*
X416218Y332414D02*
X424086Y340282D01*
X422864Y325767D02*
X430733Y333635D01*
X440000Y312909D02*
Y313757D01*
X426188Y322444D02*
X434056Y330312D01*
X418241Y346069D02*
X419903Y344407D01*
X432395Y333635D02*
X434056Y331974D01*
X419541Y327429D02*
X421203Y325767D01*
X436158Y312473D02*
X437890Y314205D01*
X425748Y340282D02*
X427410Y338621D01*
X437890Y314205D02*
X439552D01*
X413086Y342576D02*
X416580Y346069D01*
X440022Y322984D02*
Y324646D01*
X419903Y342746D02*
Y344407D01*
X426188Y320782D02*
Y322444D01*
X390878Y349325D02*
X391928Y348275D01*
X384579Y339602D02*
X386679D01*
X387729Y340652D01*
X370928Y348275D02*
X371978Y349325D01*
X400328Y342050D02*
X401378Y341000D01*
X370928Y342050D02*
Y348275D01*
X369278Y341000D02*
X369879D01*
X391928Y340652D02*
Y348275D01*
X399278Y349325D02*
X400328Y348275D01*
X383529Y340652D02*
X384579Y339602D01*
X379328Y340652D02*
Y348275D01*
X388778Y349325D02*
X390878D01*
X395079Y339602D02*
X396128Y340652D01*
X383529D02*
Y348275D01*
X392978Y339602D02*
X395079D01*
X400328Y342050D02*
Y348275D01*
X371978Y349325D02*
X374078D01*
X382478D02*
X383529Y348275D01*
X369879Y341000D02*
X370928Y342050D01*
X380378Y349325D02*
X382478D01*
X374078D02*
X375129Y348275D01*
X376179Y339602D02*
X378279D01*
X379328Y340652D01*
X396128Y348275D02*
X397178Y349325D01*
X375129Y340652D02*
Y348275D01*
X401378Y341000D02*
X402230D01*
X397178Y349325D02*
X399278D01*
X391928Y340652D02*
X392978Y339602D01*
X387729Y340652D02*
Y348275D01*
X375129Y340652D02*
X376179Y339602D01*
X396128Y340652D02*
Y348275D01*
X379328D02*
X380378Y349325D01*
X387729Y348275D02*
X388778Y349325D01*
X300283Y355172D02*
X308453Y363342D01*
X309192Y344777D02*
Y346262D01*
X327011Y326959D02*
X328496Y325474D01*
X327011Y328443D02*
X335182Y336614D01*
X322557Y331413D02*
X324041D01*
X332212Y339584D01*
X297313Y358142D02*
X305483Y366312D01*
X321072Y332898D02*
Y334383D01*
X341121Y330674D02*
Y332159D01*
X335182Y336614D02*
Y338099D01*
X304738Y349232D02*
X306222D01*
X333697Y339584D02*
X335182Y338099D01*
X298903Y371612D02*
X298904Y373097D01*
X306222Y349232D02*
X314393Y357403D01*
X291373Y364081D02*
X298903Y371612D01*
X326272Y345523D02*
X327757D01*
X335921Y319534D02*
X343451Y327064D01*
X309192Y346262D02*
X317363Y354433D01*
X316617Y337353D02*
X318102D01*
X317363Y354433D02*
Y355918D01*
X321072Y332898D02*
X322557Y331413D01*
X323302Y348493D02*
X323302Y349978D01*
X327757Y345523D02*
X329242Y344038D01*
X312162Y343293D02*
X320333Y351463D01*
X297806Y374194D02*
X298230Y373770D01*
X344936Y327064D02*
X345360Y326640D01*
X318102Y337353D02*
X326272Y345523D01*
X303253Y352202D02*
X311423Y360373D01*
X309938Y363342D02*
X311423Y361857D01*
X343451Y327064D02*
X344936Y327064D01*
X314393Y357403D02*
X315878D01*
X291373Y362597D02*
X292858Y361112D01*
X310677Y343293D02*
X312162D01*
X305483Y366312D02*
Y367797D01*
X321072Y334383D02*
X329242Y342553D01*
X297313Y356657D02*
Y358142D01*
X315132Y338838D02*
X316617Y337353D01*
X315132Y338838D02*
Y340323D01*
X298230Y373770D02*
X298904Y373097D01*
X344936Y327064D02*
X344936Y327064D01*
X303998Y369282D02*
X305483Y367797D01*
X303253Y350717D02*
X304738Y349232D01*
X332951Y321019D02*
Y322504D01*
X292858Y361112D02*
X294343D01*
X315132Y340323D02*
X323302Y348493D01*
X298798Y355172D02*
X300283D01*
X339636Y333644D02*
X341121Y332159D01*
X329981Y325474D02*
X338152Y333644D01*
X327011Y326959D02*
Y328443D01*
X320333Y351463D02*
X321818Y351463D01*
X311423Y360373D02*
Y361857D01*
X332951Y321019D02*
X334436Y319534D01*
X328496Y325474D02*
X329981D01*
X338152Y333644D02*
X339636D01*
X332951Y322504D02*
X341121Y330674D01*
X321818Y351463D02*
X323302Y349978D01*
X302514Y369282D02*
X303998D01*
X308453Y363342D02*
X309938D01*
X329242Y342553D02*
Y344038D01*
X303253Y350717D02*
Y352202D01*
X291373Y362597D02*
Y364081D01*
X294343Y361112D02*
X302514Y369282D01*
X297313Y356657D02*
X298798Y355172D01*
X334436Y319534D02*
X335921D01*
X332212Y339584D02*
X333697D01*
X315878Y357403D02*
X317363Y355918D01*
X297806Y374194D02*
X297806D01*
X309192Y344777D02*
X310677Y343293D01*
X288000Y408300D02*
X289050Y407250D01*
X278890Y403050D02*
X293346D01*
X277840Y374700D02*
Y376800D01*
X278890Y386250D02*
X293346D01*
X277840Y391500D02*
X278890Y390450D01*
X293346D01*
X294396Y395700D02*
Y397800D01*
Y404100D02*
Y406200D01*
X277840Y399900D02*
Y402000D01*
X293346Y386250D02*
X294396Y387300D01*
X277840Y376800D02*
X278890Y377850D01*
X277840Y402000D02*
X278890Y403050D01*
X293346Y394650D02*
X294396Y395700D01*
X277840Y399900D02*
X278890Y398850D01*
X293346D02*
X294396Y397800D01*
X293346Y390450D02*
X294396Y389400D01*
X293346Y382050D02*
X294396Y381000D01*
X277840Y393600D02*
X278890Y394650D01*
X293346Y377850D02*
X294396Y378900D01*
X293346Y403050D02*
X294396Y404100D01*
Y378900D02*
Y381000D01*
X278890Y373650D02*
X286950D01*
X278890Y394650D02*
X293346D01*
X288000Y408300D02*
Y411000D01*
X278890Y377850D02*
X293346D01*
X278890Y382050D02*
X293346D01*
X277840Y385200D02*
X278890Y386250D01*
X289050Y407250D02*
X293346D01*
X294396Y387300D02*
Y389400D01*
X277840Y383100D02*
Y385200D01*
Y391500D02*
Y393600D01*
X293346Y407250D02*
X294396Y406200D01*
X277840Y383100D02*
X278890Y382050D01*
X277840Y374700D02*
X278890Y373650D01*
X288000Y372000D02*
Y372600D01*
X286950Y373650D02*
X288000Y372600D01*
X278890Y398850D02*
X293346D01*
X302249Y395950D02*
X303299Y397000D01*
X302945Y387945D02*
X303250Y388250D01*
X302980Y412750D02*
X304030Y413800D01*
X300688Y408550D02*
X302249D01*
X303299Y407500D01*
X304030Y413800D02*
Y415900D01*
X299639Y401200D02*
X300688Y400150D01*
X299639Y392800D02*
Y394900D01*
X300688Y391750D02*
X302200D01*
X300688Y421150D02*
X302200D01*
X299639Y392800D02*
X300688Y391750D01*
X299639Y409600D02*
Y411700D01*
Y418000D02*
Y420100D01*
X303250Y388250D02*
Y390700D01*
X300688Y404350D02*
X302249D01*
X299639Y411700D02*
X300688Y412750D01*
X299639Y409600D02*
X300688Y408550D01*
X303299Y405400D02*
Y407500D01*
X300688Y400150D02*
X302249D01*
X303299Y399100D01*
X300688Y395950D02*
X302249D01*
X299639Y420100D02*
X300688Y421150D01*
X302980Y416950D02*
X304030Y415900D01*
X299639Y403300D02*
X300688Y404350D01*
X303299Y397000D02*
Y399100D01*
X299639Y401200D02*
Y403300D01*
X303250Y422200D02*
Y427000D01*
X302200Y421150D02*
X303250Y422200D01*
X299639Y418000D02*
X300688Y416950D01*
X302980D01*
X302249Y404350D02*
X303299Y405400D01*
X299639Y394900D02*
X300688Y395950D01*
X302200Y391750D02*
X303250Y390700D01*
X300688Y412750D02*
X302980D01*
X305350Y400600D02*
Y402700D01*
X306400Y391150D02*
X311277D01*
X314900Y413200D02*
Y415300D01*
X305350Y411100D02*
X306400Y412150D01*
Y403750D02*
X313850D01*
X306400Y412150D02*
X313850D01*
X306400Y407950D02*
X313850D01*
X312327Y417400D02*
Y418000D01*
X305350Y400600D02*
X306400Y399550D01*
X305350Y392200D02*
X306400Y391150D01*
X313377Y416350D02*
X313850D01*
X314900Y404800D02*
Y406900D01*
Y396400D02*
Y398500D01*
X313850Y412150D02*
X314900Y413200D01*
X313850Y416350D02*
X314900Y415300D01*
X305350Y394300D02*
X306400Y395350D01*
X311277Y391150D02*
X312327Y390100D01*
X305350Y409000D02*
Y411100D01*
Y392200D02*
Y394300D01*
Y402700D02*
X306400Y403750D01*
Y395350D02*
X313850D01*
Y403750D02*
X314900Y404800D01*
X313850Y395350D02*
X314900Y396400D01*
X305350Y409000D02*
X306400Y407950D01*
X313850Y399550D02*
X314900Y398500D01*
X313850Y407950D02*
X314900Y406900D01*
X306400Y399550D02*
X313850D01*
X312327Y417400D02*
X313377Y416350D01*
X312327Y386324D02*
Y390100D01*
X344000Y390151D02*
X345050Y389101D01*
X356001Y367384D02*
Y368869D01*
X348308Y389389D02*
X349793Y387904D01*
X344122Y380748D02*
X349793Y386419D01*
X357486Y365899D02*
X358971D01*
X346823Y389389D02*
X348308D01*
X364613Y370056D02*
X366098Y368571D01*
X344122Y379263D02*
Y380748D01*
X346535Y389101D02*
X346823Y389389D01*
X344000Y390151D02*
Y391000D01*
X353031Y371839D02*
X357598Y376405D01*
X345607Y377779D02*
X347091D01*
X359082Y376405D02*
X360568Y374920D01*
X347091Y377779D02*
X351245Y381932D01*
X366098Y367086D02*
X366098Y368571D01*
X351245Y381932D02*
X352730Y381932D01*
X356001Y368869D02*
X360568Y373435D01*
X361941Y362929D02*
X366098Y367086D01*
X364911Y359959D02*
X367733Y362782D01*
X360568Y373435D02*
Y374920D01*
X354215Y378962D02*
X354215Y380447D01*
X352730Y381932D02*
X354215Y380447D01*
X358971Y365899D02*
X363128Y370056D01*
X367733Y362782D02*
X369218D01*
X345050Y389101D02*
X346535D01*
X351546Y371839D02*
X353031D01*
X361941Y361445D02*
X363426Y359959D01*
X369218Y362782D02*
X373000Y359000D01*
X344122Y379263D02*
X345607Y377779D01*
X350061Y373324D02*
X351546Y371839D01*
X350061Y374809D02*
X354215Y378962D01*
X363128Y370056D02*
X364613Y370056D01*
X363426Y359959D02*
X364911D01*
X357598Y376405D02*
X359082D01*
X356001Y367384D02*
X357486Y365899D01*
X361941Y361445D02*
Y362929D01*
X350061Y373324D02*
Y374809D01*
X349793Y386419D02*
Y387904D01*
X346038Y353000D02*
X350853Y357815D01*
X337128Y361909D02*
X341943Y366724D01*
X334159Y364879D02*
X338974Y369694D01*
X361381Y341000D02*
X364585D01*
X359762Y348905D02*
X361247Y348905D01*
X340098Y357454D02*
Y358939D01*
X336004Y372664D02*
X337489Y372664D01*
X353823Y354845D02*
X355308Y354845D01*
X362732Y345935D02*
X362732Y347420D01*
X341583Y355970D02*
X343068D01*
X343428Y366724D02*
X344913Y365239D01*
X351978Y345575D02*
Y347060D01*
X349008Y350030D02*
X353823Y354845D01*
X361247Y348905D02*
X362732Y347420D01*
X360332Y343535D02*
X362732Y345935D01*
X360332Y342050D02*
X360332Y343535D01*
X356793Y351875D02*
X356793Y353360D01*
X346038Y351515D02*
X347523Y350030D01*
X334159Y363394D02*
Y364879D01*
X330427Y368573D02*
X331912D01*
X350853Y357815D02*
X350853Y359300D01*
X335643Y361909D02*
X337128D01*
X344913Y363754D02*
X344913Y365239D01*
X343068Y355970D02*
X347883Y360784D01*
X347523Y350030D02*
X349008D01*
X347883Y360784D02*
X349368Y360784D01*
X337489Y372664D02*
X338974Y371179D01*
X353462Y344090D02*
X354947D01*
X349368Y360784D02*
X350853Y359300D01*
X334159Y363394D02*
X335643Y361909D01*
X355308Y354845D02*
X356793Y353360D01*
X341943Y366724D02*
X343428Y366724D01*
X340098Y357454D02*
X341583Y355970D01*
X338974Y369694D02*
X338974Y371179D01*
X328285Y370715D02*
X330427Y368573D01*
X354947Y344090D02*
X359762Y348905D01*
X346038Y351515D02*
Y353000D01*
X331912Y368573D02*
X336004Y372664D01*
X360332Y342050D02*
X361381Y341000D01*
X351978Y345575D02*
X353462Y344090D01*
X351978Y347060D02*
X356793Y351875D01*
X340098Y358939D02*
X344913Y363754D01*
X400300Y381024D02*
X401600Y382324D01*
X405500Y380300D02*
Y381024D01*
X389900D02*
X391200Y382324D01*
X393800D02*
X395100Y381024D01*
X404200Y382324D02*
X405500Y381024D01*
Y380300D02*
X406800Y379000D01*
X409000D01*
X395100Y376923D02*
X396400Y375623D01*
X388600Y379000D02*
X389900Y380300D01*
Y381024D01*
X388000Y379000D02*
X388600D01*
X391200Y382324D02*
X393800D01*
X401600D02*
X404200D01*
X396400Y375623D02*
X399000D01*
X400300Y376923D02*
Y381024D01*
X395100Y376923D02*
Y381024D01*
X399000Y375623D02*
X400300Y376923D01*
X436337Y395687D02*
X438175Y393849D01*
X415516Y382220D02*
X417355Y380382D01*
X442724Y374497D02*
X444562D01*
X445529Y384656D02*
Y386495D01*
X433901Y365674D02*
X442724Y374497D01*
X448609Y350966D02*
X450902Y353260D01*
X453740Y363452D02*
Y365290D01*
X424708Y373028D02*
X426547D01*
X444932Y352805D02*
X446770Y350966D01*
X415516Y384059D02*
X430821Y399364D01*
X417355Y380382D02*
X419193D01*
X422870Y374866D02*
Y376705D01*
X426547Y373028D02*
X441852Y388333D01*
X443691D01*
X450063Y367129D02*
X451902D01*
X444932Y354643D02*
X453740Y363452D01*
X439416Y358320D02*
X441255D01*
X413603Y389500D02*
X427144Y403041D01*
X428983D01*
X415516Y382220D02*
Y384059D01*
X430224Y367513D02*
Y369351D01*
X437578Y361997D02*
X446401Y370821D01*
X437578Y360159D02*
Y361997D01*
X430821Y399364D02*
Y401203D01*
X441255Y358320D02*
X450063Y367129D01*
X446770Y350966D02*
X448609D01*
X422870Y376705D02*
X438175Y392010D01*
X430224Y369351D02*
X445529Y384656D01*
X432062Y365674D02*
X433901D01*
X444932Y352805D02*
Y354643D01*
X437578Y360159D02*
X439416Y358320D01*
X434498Y395687D02*
X436337D01*
X412755Y389500D02*
X413603D01*
X430224Y367513D02*
X432062Y365674D01*
X419193Y380382D02*
X434498Y395687D01*
X428983Y403041D02*
X430821Y401203D01*
X450902Y353260D02*
X452740Y353260D01*
X438175Y392010D02*
Y393849D01*
X443691Y388333D02*
X445529Y386495D01*
X446401Y370821D02*
Y372659D01*
X451902Y367129D02*
X453740Y365290D01*
X452740Y353260D02*
X453500Y352500D01*
X422870Y374866D02*
X424708Y373028D01*
X444562Y374497D02*
X446401Y372659D01*
X424786Y419684D02*
X437283Y432181D01*
X417263Y441576D02*
X422576Y446888D01*
X437283Y432181D02*
X439122D01*
X421109Y421522D02*
X422948Y419684D01*
X415594Y427038D02*
X417433Y427038D01*
X421109Y423361D02*
X433606Y435858D01*
X444637Y424827D02*
X446476D01*
X415000Y442000D02*
X415424Y441576D01*
X417263D01*
X439122Y432181D02*
X440960Y430342D01*
X448314Y421150D02*
Y422988D01*
X433606Y435858D02*
Y437696D01*
X421109Y421522D02*
X421109Y423361D01*
X443001Y413999D02*
X445000Y412000D01*
X426253Y443212D02*
Y445050D01*
X432140Y412330D02*
X444637Y424827D01*
X422948Y419684D02*
X424786Y419684D01*
X413755Y428876D02*
X415594Y427038D01*
X413755Y428876D02*
X413756Y430714D01*
X426253Y443212D01*
X422576Y446888D02*
X424414D01*
X431768Y439535D02*
X433606Y437696D01*
X417433Y427038D02*
X429930Y439535D01*
X440960Y428504D02*
Y430342D01*
X428463Y414168D02*
X430302Y412330D01*
X428463Y416007D02*
X440960Y428504D01*
X428463Y414168D02*
X428463Y416007D01*
X446476Y424827D02*
X448314Y422988D01*
X443001Y415837D02*
X448314Y421150D01*
X443001Y413999D02*
Y415837D01*
X424414Y446888D02*
X426253Y445050D01*
X430302Y412330D02*
X432140Y412330D01*
X429930Y439535D02*
X431768D01*
X411426Y489412D02*
X414050Y492037D01*
X430597Y477329D02*
X432435Y475491D01*
X409163Y489837D02*
X409588Y489412D01*
X411426D01*
X429118Y462981D02*
X431649Y465512D01*
X425081Y481006D02*
Y482845D01*
X410733Y479527D02*
Y481366D01*
X421404Y484683D02*
X423243D01*
X425441Y464819D02*
Y466658D01*
X418087Y472173D02*
Y474012D01*
X431649Y465512D02*
X433488Y465512D01*
X414050Y492037D02*
X415889D01*
X418087Y474012D02*
X425081Y481006D01*
X432435Y473652D02*
Y475491D01*
X425441Y464819D02*
X427279Y462981D01*
X429118D01*
X410733Y481366D02*
X417727Y488360D01*
X419925Y470335D02*
X421764D01*
X410733Y479527D02*
X412572Y477689D01*
X417727Y488360D02*
Y490198D01*
X428758Y477329D02*
X430597D01*
X418087Y472173D02*
X419925Y470335D01*
X421764D02*
X428758Y477329D01*
X415889Y492037D02*
X417727Y490198D01*
X414410Y477689D02*
X421404Y484683D01*
X423243D02*
X425081Y482845D01*
X425441Y466658D02*
X432435Y473652D01*
X433488Y465512D02*
X435171Y463829D01*
X412572Y477689D02*
X414410D01*
X202300Y141300D02*
X203600Y140000D01*
X176300Y138530D02*
Y141498D01*
X193200Y137230D02*
X195800D01*
X177600Y142798D02*
X180200D01*
X164600Y140000D02*
X165900Y141300D01*
X175000Y137230D02*
X176300Y138530D01*
X186700D02*
Y141498D01*
X165900D02*
X167200Y142798D01*
X181500Y138530D02*
X182800Y137230D01*
X197100Y141498D02*
X198400Y142798D01*
X191900Y138530D02*
X193200Y137230D01*
X195800D02*
X197100Y138530D01*
X191900D02*
Y141498D01*
X188000Y142798D02*
X190600D01*
X169800D02*
X171100Y141498D01*
X180200Y142798D02*
X181500Y141498D01*
X167200Y142798D02*
X169800D01*
X171100Y138530D02*
Y141498D01*
X198400Y142798D02*
X201000D01*
X186700Y141498D02*
X188000Y142798D01*
X185400Y137230D02*
X186700Y138530D01*
X176300Y141498D02*
X177600Y142798D01*
X197100Y138530D02*
Y141498D01*
X201000Y142798D02*
X202300Y141498D01*
X171100Y138530D02*
X172400Y137230D01*
X165900Y141300D02*
Y141498D01*
X164000Y140000D02*
X164600D01*
X190600Y142798D02*
X191900Y141498D01*
X202300Y141300D02*
Y141498D01*
X181500Y138530D02*
Y141498D01*
X203600Y140000D02*
X227242D01*
X182800Y137230D02*
X185400D01*
X172400D02*
X175000D01*
X315019Y169207D02*
Y171045D01*
X323644Y184482D02*
X325482D01*
X296635Y152661D02*
X298473D01*
X320535Y174722D02*
X322373Y176561D01*
X313181Y167369D02*
X315019Y169207D01*
X319673Y182939D02*
X319673Y181100D01*
X310860Y175205D02*
X315019Y171045D01*
X292958Y147145D02*
Y148984D01*
X289281Y145307D02*
X291119D01*
X281444Y147628D02*
X283283Y149467D01*
X318696Y174722D02*
X320535D01*
X307666Y161853D02*
Y163692D01*
X311343Y167369D02*
X313181D01*
X274090Y138436D02*
X275844Y136682D01*
X288798Y154982D02*
X288798Y153144D01*
X300312Y154499D02*
Y156338D01*
X303506Y169690D02*
X303506Y167852D01*
X319673Y181100D02*
X322373Y178399D01*
X288798Y154982D02*
X290636Y156821D01*
X303989Y160015D02*
X305827D01*
X281444Y147628D02*
X281444Y145790D01*
X322373Y176561D02*
Y178399D01*
X283283Y149467D02*
X285121Y149467D01*
X290636Y156821D02*
X292475Y156821D01*
X310860Y177044D02*
X312698Y178882D01*
X325482Y184482D02*
X328400Y187400D01*
X305344Y171528D02*
X307183Y171528D01*
X277767Y142113D02*
X281927Y137953D01*
X281444Y145790D02*
X285604Y141630D01*
X312698Y178882D02*
X314537Y178882D01*
X319673Y182939D02*
X321511Y184777D01*
X307183Y171528D02*
X311343Y167369D01*
X285121Y149467D02*
X289281Y145307D01*
X297990Y164174D02*
X299829Y164174D01*
X303989Y160015D01*
X285604Y139791D02*
Y141630D01*
X296152Y162336D02*
X296152Y160497D01*
X274090Y140274D02*
X274090Y138436D01*
X275419Y134419D02*
X275844Y134844D01*
X314537Y178882D02*
X318696Y174722D01*
X281927Y137953D02*
X283765D01*
X292475Y156821D02*
X296635Y152661D01*
X303506Y167852D02*
X307666Y163692D01*
X303506Y169690D02*
X305344Y171528D01*
X323350Y184777D02*
X323644Y184482D01*
X288798Y153144D02*
X292958Y148984D01*
X275844Y134844D02*
Y136682D01*
X298473Y152661D02*
X300312Y154499D01*
X310860Y177044D02*
X310860Y175205D01*
X296152Y162336D02*
X297990Y164174D01*
X275929Y142113D02*
X277767Y142113D01*
X291119Y145307D02*
X292958Y147145D01*
X283765Y137953D02*
X285604Y139791D01*
X274090Y140274D02*
X275929Y142113D01*
X305827Y160015D02*
X307666Y161853D01*
X296152Y160497D02*
X300312Y156338D01*
X321511Y184777D02*
X323350Y184777D01*
X296415Y188761D02*
Y190600D01*
X281708Y174053D02*
Y175892D01*
X274354Y168538D02*
X276192Y170376D01*
X295832Y181991D02*
X297670Y181991D01*
X290900Y185084D02*
X292738D01*
X296415Y190600D02*
X298254Y192438D01*
X302684Y191684D02*
X306500Y195500D01*
X268838Y163023D02*
X270677D01*
X289062Y181407D02*
Y183246D01*
X292155Y178314D02*
X292155Y176476D01*
X298254Y192438D02*
X300092D01*
X289062Y181407D02*
X292155Y178314D01*
X278031Y170376D02*
X281124Y167283D01*
X281708Y175892D02*
X283546Y177730D01*
X285385D02*
X288478Y174637D01*
X274354Y166700D02*
Y168538D01*
X276192Y170376D02*
X278031D01*
X282962Y167283D02*
X284801Y169122D01*
X297670Y181991D02*
X299509Y183830D01*
X290316Y174637D02*
X292155Y176476D01*
X299509Y185668D02*
X299509Y183830D01*
X267000Y159346D02*
X267754Y158592D01*
X281708Y174053D02*
X284801Y170960D01*
X292738Y185084D02*
X295832Y181991D01*
X267000Y161184D02*
X268838Y163023D01*
X267000Y159346D02*
Y161184D01*
X281124Y167283D02*
X282962Y167283D01*
X277447Y163606D02*
X277447Y161768D01*
X275608Y159929D02*
X277447Y161768D01*
X270677Y163023D02*
X273770Y159929D01*
X300092Y192438D02*
X300846Y191684D01*
X267754Y158592D02*
X267754Y156754D01*
X289062Y183246D02*
X290900Y185084D01*
X273770Y159929D02*
X275608Y159929D01*
X283546Y177730D02*
X285385D01*
X296415Y188761D02*
X299509Y185668D01*
X284801Y170960D02*
X284801Y169122D01*
X300846Y191684D02*
X302684Y191684D01*
X288478Y174637D02*
X290316Y174637D01*
X274354Y166700D02*
X277447Y163606D01*
X267329Y156329D02*
X267754Y156754D01*
X151000Y152177D02*
X153600D01*
X195200D02*
X196500Y153477D01*
X186100Y158307D02*
X187400Y159607D01*
X148400D02*
X149700Y158307D01*
X191300Y153477D02*
Y158307D01*
X232900Y153477D02*
X234200Y152177D01*
X222500Y153477D02*
Y158307D01*
X175700D02*
X177000Y159607D01*
X223800Y152177D02*
X226400D01*
X197800Y159607D02*
X200400D01*
X212100Y153477D02*
X213400Y152177D01*
X238100Y156700D02*
X239400Y158000D01*
X227700Y153477D02*
Y158307D01*
X144500D02*
X145800Y159607D01*
X221200D02*
X222500Y158307D01*
X175700Y153477D02*
Y158307D01*
X170500Y153477D02*
Y158307D01*
X153600Y152177D02*
X154900Y153477D01*
X238100D02*
Y156700D01*
X143200Y152177D02*
X144500Y153477D01*
X160100D02*
Y158307D01*
X161400Y152177D02*
X164000D01*
X229000Y159607D02*
X231600D01*
X170500Y153477D02*
X171800Y152177D01*
X149700Y153477D02*
X151000Y152177D01*
X232900Y153477D02*
Y158307D01*
X218600Y159607D02*
X221200D01*
X200400D02*
X201700Y158307D01*
X156200Y159607D02*
X158800D01*
X196500Y153477D02*
Y158307D01*
X154900D02*
X156200Y159607D01*
X179600D02*
X180900Y158307D01*
X130200Y153351D02*
X132800D01*
X134100Y154651D02*
Y158307D01*
X128900Y154651D02*
X130200Y153351D01*
X138000Y159607D02*
X139300Y158307D01*
X191300Y153477D02*
X192600Y152177D01*
X206900Y153477D02*
Y158307D01*
X182200Y152177D02*
X184800D01*
X135400Y159607D02*
X138000D01*
X134100Y158307D02*
X135400Y159607D01*
X231600D02*
X232900Y158307D01*
X166600Y159607D02*
X169200D01*
X149700Y153477D02*
Y158307D01*
X205600Y152177D02*
X206900Y153477D01*
X187400Y159607D02*
X190000D01*
X158800D02*
X160100Y158307D01*
X128900Y154651D02*
Y156700D01*
X217300Y158307D02*
X218600Y159607D01*
X160100Y153477D02*
X161400Y152177D01*
X239400Y158000D02*
X240000D01*
X174400Y152177D02*
X175700Y153477D01*
X212100D02*
Y158307D01*
X208200Y159607D02*
X210800D01*
X127600Y158000D02*
X128900Y156700D01*
X123079Y158000D02*
X127600D01*
X180900Y153477D02*
Y158307D01*
X140600Y152177D02*
X143200D01*
X213400D02*
X216000D01*
X132800Y153351D02*
X134100Y154651D01*
X196500Y158307D02*
X197800Y159607D01*
X165300Y153477D02*
Y158307D01*
X192600Y152177D02*
X195200D01*
X201700Y153477D02*
X203000Y152177D01*
X186100Y153477D02*
Y158307D01*
X180900Y153477D02*
X182200Y152177D01*
X145800Y159607D02*
X148400D01*
X234200Y152177D02*
X236800D01*
X226400D02*
X227700Y153477D01*
X190000Y159607D02*
X191300Y158307D01*
X165300D02*
X166600Y159607D01*
X144500Y153477D02*
Y158307D01*
X236800Y152177D02*
X238100Y153477D01*
X177000Y159607D02*
X179600D01*
X216000Y152177D02*
X217300Y153477D01*
X227700Y158307D02*
X229000Y159607D01*
X201700Y153477D02*
Y158307D01*
X139300Y153477D02*
Y158307D01*
Y153477D02*
X140600Y152177D01*
X217300Y153477D02*
Y158307D01*
X210800Y159607D02*
X212100Y158307D01*
X171800Y152177D02*
X174400D01*
X222500Y153477D02*
X223800Y152177D01*
X206900Y158307D02*
X208200Y159607D01*
X154900Y153477D02*
Y158307D01*
X203000Y152177D02*
X205600D01*
X169200Y159607D02*
X170500Y158307D01*
X184800Y152177D02*
X186100Y153477D01*
X164000Y152177D02*
X165300Y153477D01*
X234493Y186033D02*
X234493Y184195D01*
X248617Y186617D02*
X248617Y184778D01*
X234493Y186033D02*
X236331Y187871D01*
X248617Y186617D02*
X249495Y187495D01*
X250100Y181456D02*
Y183294D01*
X234493Y184195D02*
X239424Y179263D01*
Y177424D02*
Y179263D01*
X236331Y187871D02*
X238170Y187871D01*
X246424Y179618D01*
X239000Y177000D02*
X239424Y177424D01*
X246424Y179618D02*
X248262D01*
X250100Y181456D01*
X248617Y184778D02*
X250100Y183294D01*
X169500Y168779D02*
X170800Y167479D01*
X231900Y168779D02*
X233200Y167479D01*
X235800D01*
X237100Y168779D02*
Y175100D01*
X216300Y176885D02*
X217600Y178185D01*
X190300Y168779D02*
X191600Y167479D01*
X189000Y178185D02*
X190300Y176885D01*
X164300Y168779D02*
Y176885D01*
X217600Y178185D02*
X220200D01*
X211100Y168779D02*
Y176885D01*
X226700Y168779D02*
Y176885D01*
X168200Y178185D02*
X169500Y176885D01*
X195500D02*
X196800Y178185D01*
X195500Y168779D02*
Y176885D01*
X194200Y167479D02*
X195500Y168779D01*
X160400Y167479D02*
X163000D01*
X215000D02*
X216300Y168779D01*
X211100D02*
X212400Y167479D01*
X191600D02*
X194200D01*
X169500Y168779D02*
Y176885D01*
X205900D02*
X207200Y178185D01*
X209800D02*
X211100Y176885D01*
X163000Y167479D02*
X164300Y168779D01*
X176000Y178185D02*
X178600D01*
X181200Y167479D02*
X183800D01*
X220200Y178185D02*
X221500Y176885D01*
Y168779D02*
Y176885D01*
X157800Y175000D02*
X159100Y173700D01*
X186400Y178185D02*
X189000D01*
X165600D02*
X168200D01*
X185100Y168779D02*
Y176885D01*
X221500Y168779D02*
X222800Y167479D01*
X226700Y176885D02*
X228000Y178185D01*
X225400Y167479D02*
X226700Y168779D01*
X164300Y176885D02*
X165600Y178185D01*
X207200D02*
X209800D01*
X159100Y168779D02*
X160400Y167479D01*
X212400D02*
X215000D01*
X205900Y168779D02*
Y176885D01*
X179900Y168779D02*
X181200Y167479D01*
X190300Y168779D02*
Y176885D01*
X231900Y168779D02*
Y176885D01*
X174700D02*
X176000Y178185D01*
X152000Y175000D02*
X157800D01*
X200700Y168779D02*
X202000Y167479D01*
X173400D02*
X174700Y168779D01*
X179900D02*
Y176885D01*
X185100D02*
X186400Y178185D01*
X199400D02*
X200700Y176885D01*
X216300Y168779D02*
Y176885D01*
X159100Y168779D02*
Y173700D01*
X230600Y178185D02*
X231900Y176885D01*
X196800Y178185D02*
X199400D01*
X202000Y167479D02*
X204600D01*
X205900Y168779D01*
X235800Y167479D02*
X237100Y168779D01*
X228000Y178185D02*
X230600D01*
X222800Y167479D02*
X225400D01*
X170800D02*
X173400D01*
X237100Y175100D02*
X239000Y177000D01*
X183800Y167479D02*
X185100Y168779D01*
X174700D02*
Y176885D01*
X178600Y178185D02*
X179900Y176885D01*
X200700Y168779D02*
Y176885D01*
X205329Y207400D02*
Y208700D01*
X165029Y211340D02*
X167629D01*
X188429D02*
X189729Y210040D01*
X168929Y207400D02*
Y210040D01*
X194929Y210238D02*
X196229Y211537D01*
X148129Y207400D02*
X149429Y206100D01*
X153329Y207400D02*
Y210040D01*
X194929Y207400D02*
Y210238D01*
X159829Y206100D02*
X162429D01*
X154629Y211340D02*
X157229D01*
X170229Y206100D02*
X172829D01*
X158529Y207400D02*
Y210040D01*
X200129Y207400D02*
Y210238D01*
Y207400D02*
X201429Y206100D01*
X204029D02*
X205329Y207400D01*
X189729D02*
Y210040D01*
X193629Y206100D02*
X194929Y207400D01*
X157229Y211340D02*
X158529Y210040D01*
X196229Y211537D02*
X198829D01*
X174129Y210040D02*
X175429Y211340D01*
X201429Y206100D02*
X204029D01*
X146829Y210000D02*
X148129Y208700D01*
X167629Y211340D02*
X168929Y210040D01*
X184529D02*
X185829Y211340D01*
X152029Y206100D02*
X153329Y207400D01*
X183229Y206100D02*
X184529Y207400D01*
X158529D02*
X159829Y206100D01*
X172829D02*
X174129Y207400D01*
X179329D02*
Y210040D01*
X175429Y211340D02*
X178029D01*
X206629Y210000D02*
X207385D01*
X163729Y210040D02*
X165029Y211340D01*
X178029D02*
X179329Y210040D01*
X148129Y207400D02*
Y208700D01*
X163729Y207400D02*
Y210040D01*
X174129Y207400D02*
Y210040D01*
X184529Y207400D02*
Y210040D01*
X205329Y208700D02*
X206629Y210000D01*
X180629Y206100D02*
X183229D01*
X189729Y207400D02*
X191029Y206100D01*
X185829Y211340D02*
X188429D01*
X141029Y210000D02*
X146829D01*
X153329Y210040D02*
X154629Y211340D01*
X168929Y207400D02*
X170229Y206100D01*
X162429D02*
X163729Y207400D01*
X179329D02*
X180629Y206100D01*
X149429D02*
X152029D01*
X198829Y211537D02*
X200129Y210238D01*
X191029Y206100D02*
X193629D01*
X169100Y195036D02*
X170400Y193736D01*
X205500Y203302D02*
X206800Y204602D01*
X188600Y204329D02*
X189900Y203029D01*
X200300Y195036D02*
X201600Y193736D01*
X170400D02*
X173000D01*
X178200Y204329D02*
X179500Y203029D01*
X209400Y204602D02*
X210700Y203302D01*
X195100Y203029D02*
X196400Y204329D01*
X173000Y193736D02*
X174300Y195036D01*
X184700D02*
Y203029D01*
X189900Y195036D02*
Y203029D01*
X205500Y195036D02*
Y203302D01*
X206800Y204602D02*
X209400D01*
X215900Y203403D02*
X217200Y204702D01*
X174300Y203029D02*
X175600Y204329D01*
X179500Y195036D02*
Y203029D01*
X201600Y193736D02*
X204200D01*
X219800Y204702D02*
X221100Y203403D01*
X179500Y195036D02*
X180800Y193736D01*
X174300Y195036D02*
Y203029D01*
X226300Y199913D02*
Y202700D01*
X210700Y195036D02*
X212000Y193736D01*
X225000Y198613D02*
X226300Y199913D01*
X210700Y195036D02*
Y203302D01*
X196400Y204329D02*
X199000D01*
X162000Y204000D02*
X167800D01*
X199000Y204329D02*
X200300Y203029D01*
X186000Y204329D02*
X188600D01*
X169100Y195036D02*
Y202700D01*
X204200Y193736D02*
X205500Y195036D01*
X222400Y198613D02*
X225000D01*
X221100Y199913D02*
Y203403D01*
X227600Y204000D02*
X231126D01*
X217200Y204702D02*
X219800D01*
X175600Y204329D02*
X178200D01*
X180800Y193736D02*
X183400D01*
X215900Y195036D02*
Y203403D01*
X167800Y204000D02*
X169100Y202700D01*
X183400Y193736D02*
X184700Y195036D01*
X212000Y193736D02*
X214600D01*
X215900Y195036D01*
X184700Y203029D02*
X186000Y204329D01*
X200300Y195036D02*
Y203029D01*
X221100Y199913D02*
X222400Y198613D01*
X195100Y195036D02*
Y203029D01*
X189900Y195036D02*
X191200Y193736D01*
X226300Y202700D02*
X227600Y204000D01*
X193800Y193736D02*
X195100Y195036D01*
X191200Y193736D02*
X193800D01*
X222696Y222053D02*
X234351Y210398D01*
X230050Y229407D02*
X241705Y217752D01*
X234324Y234324D02*
X234324Y232486D01*
X234324Y234324D02*
X237000Y237000D01*
X220858Y222053D02*
X222696D01*
X219019Y218376D02*
Y220214D01*
X234351Y210398D02*
X236189Y210398D01*
X226699Y208858D02*
Y210696D01*
X214101Y214101D02*
X215940Y214101D01*
X228212Y229407D02*
X230050D01*
X236189Y210398D02*
X238028Y212237D01*
X223022Y207019D02*
X224860D01*
X234324Y232486D02*
X245382Y221429D01*
X226373Y225730D02*
Y227568D01*
X228212Y229407D01*
X224860Y207019D02*
X226699Y208858D01*
X245382Y221429D02*
X245382Y219591D01*
X219019Y218376D02*
X226699Y210696D01*
X210000Y210000D02*
X214101Y214101D01*
X237000Y237000D02*
X237917D01*
X243543Y217752D02*
X245382Y219591D01*
X215940Y214101D02*
X223022Y207019D01*
X226373Y225730D02*
X238028Y214075D01*
X219019Y220214D02*
X220858Y222053D01*
X238028Y214075D02*
X238028Y212237D01*
X241705Y217752D02*
X243543Y217752D01*
X281500Y233758D02*
Y236474D01*
X282800Y237775D01*
X307500Y233853D02*
X308800Y232553D01*
X311400D02*
X312700Y233853D01*
X297100Y233758D02*
X298400Y232458D01*
X271100Y236474D02*
X272400Y237775D01*
X250300Y236474D02*
X251600Y237775D01*
X255500Y233758D02*
Y236474D01*
X260700Y233758D02*
Y236474D01*
X297100Y233758D02*
Y236474D01*
X282800Y237775D02*
X285400D01*
X291900Y236474D02*
X293200Y237775D01*
X260700Y236474D02*
X262000Y237775D01*
X271100Y233758D02*
Y236474D01*
X312700Y233853D02*
Y235700D01*
X301000Y232458D02*
X302300Y233758D01*
X286700D02*
X288000Y232458D01*
X290600D02*
X291900Y233758D01*
X275000Y237775D02*
X276300Y236474D01*
X264600Y237775D02*
X265900Y236474D01*
Y233758D02*
Y236474D01*
X238000Y237000D02*
X243800D01*
X276300Y233758D02*
X277600Y232458D01*
X245100Y233758D02*
X246400Y232458D01*
X312700Y235700D02*
X314000Y237000D01*
X262000Y237775D02*
X264600D01*
X256800Y232458D02*
X259400D01*
X288000D02*
X290600D01*
X243800Y237000D02*
X245100Y235700D01*
X251600Y237775D02*
X254200D01*
X249000Y232458D02*
X250300Y233758D01*
X303600Y237775D02*
X306200D01*
X314000Y237000D02*
X317009D01*
X272400Y237775D02*
X275000D01*
X298400Y232458D02*
X301000D01*
X255500Y233758D02*
X256800Y232458D01*
X269800D02*
X271100Y233758D01*
X302300D02*
Y236474D01*
X307500Y233853D02*
Y236474D01*
X302300D02*
X303600Y237775D01*
X254200D02*
X255500Y236474D01*
X277600Y232458D02*
X280200D01*
X293200Y237775D02*
X295800D01*
X250300Y233758D02*
Y236474D01*
X308800Y232553D02*
X311400D01*
X245100Y233758D02*
Y235700D01*
X295800Y237775D02*
X297100Y236474D01*
X267200Y232458D02*
X269800D01*
X280200D02*
X281500Y233758D01*
X286700D02*
Y236474D01*
X285400Y237775D02*
X286700Y236474D01*
X265900Y233758D02*
X267200Y232458D01*
X276300Y233758D02*
Y236474D01*
X306200Y237775D02*
X307500Y236474D01*
X259400Y232458D02*
X260700Y233758D01*
X291900D02*
Y236474D01*
X246400Y232458D02*
X249000D01*
X219457Y241000D02*
X221295Y241000D01*
X207025Y231370D02*
Y233209D01*
X203348Y227693D02*
X212579Y218462D01*
X216256Y222139D02*
X216256Y220300D01*
X214418Y218462D02*
X216256Y220300D01*
X219933Y225816D02*
X221772Y225816D01*
X218055Y242401D02*
X219457Y241000D01*
X210702Y235047D02*
X219933Y225816D01*
X199671Y225855D02*
X201509Y227693D01*
X214379Y240563D02*
X216217Y242401D01*
X207025Y233209D02*
X208863Y235047D01*
X200424Y223263D02*
X200424Y221424D01*
X199671Y224016D02*
X200424Y223263D01*
X201509Y227693D02*
X203348D01*
X207025Y231370D02*
X216256Y222139D01*
X221772Y225816D02*
X223610Y227654D01*
X216217Y242401D02*
X218055D01*
X223610Y229493D02*
X223610Y227654D01*
X212579Y218462D02*
X214418Y218462D01*
X214379Y238724D02*
Y240563D01*
X200000Y221000D02*
X200424Y221424D01*
X199671Y224016D02*
Y225855D01*
X214379Y238724D02*
X223610Y229493D01*
X221295Y241000D02*
X223000D01*
X208863Y235047D02*
X210702D01*
X273216Y182613D02*
Y184452D01*
X274922Y202970D02*
X276760D01*
X284247Y195483D02*
X286086D01*
X258375Y184585D02*
X260561Y182399D01*
X267568Y195616D02*
X269406D01*
X280437Y206647D02*
Y208485D01*
X260214Y188262D02*
X262052D01*
X273083Y199293D02*
Y201131D01*
X265729Y191939D02*
X273216Y184452D01*
X269406Y195616D02*
X276893Y188129D01*
X278732D02*
X280570Y189967D01*
X287924Y197321D02*
Y199159D01*
X291815Y209977D02*
X293274Y208517D01*
X273083Y199293D02*
X280570Y191805D01*
X273083Y201131D02*
X274922Y202970D01*
X291815Y211815D02*
X294000Y214000D01*
X265729Y191939D02*
Y193777D01*
X260137Y180137D02*
X260561Y180561D01*
Y182399D01*
X262052Y188262D02*
X269540Y180775D01*
X271378D02*
X273216Y182613D01*
X280437Y206647D02*
X287924Y199159D01*
X284114Y210324D02*
X289597Y204840D01*
X282276Y210324D02*
X284114D01*
X291815Y211815D02*
X291815Y209977D01*
X280437Y208485D02*
X282276Y210324D01*
X291436Y204840D02*
X293274Y206679D01*
X276760Y202970D02*
X284247Y195483D01*
X276893Y188129D02*
X278732D01*
X280570Y189967D02*
Y191805D01*
X286086Y195483D02*
X287924Y197321D01*
X258375Y186423D02*
X260214Y188262D01*
X289597Y204840D02*
X291436D01*
X269540Y180775D02*
X271378D01*
X265729Y193777D02*
X267568Y195616D01*
X258375Y184585D02*
Y186423D01*
X293274Y206679D02*
Y208517D01*
X170074Y213100D02*
X172674D01*
X177874Y220481D02*
X179174Y219181D01*
Y214400D02*
X180474Y213100D01*
X149274D02*
X151874D01*
X146674Y220000D02*
X147974Y218700D01*
Y214400D02*
Y218700D01*
X162274Y213100D02*
X163574Y214400D01*
X164874Y220481D02*
X167474D01*
X168774Y214400D02*
Y219181D01*
X173974D02*
X175274Y220481D01*
X153174Y219181D02*
X154474Y220481D01*
X147974Y214400D02*
X149274Y213100D01*
X163574Y219181D02*
X164874Y220481D01*
X184374Y214400D02*
Y219181D01*
X168774Y214400D02*
X170074Y213100D01*
X189574Y214400D02*
Y219181D01*
X196074Y220000D02*
X198793D01*
X157074Y220481D02*
X158374Y219181D01*
X194774Y218700D02*
X196074Y220000D01*
X184374Y219181D02*
X185674Y220481D01*
X188274D02*
X189574Y219181D01*
Y214400D02*
X190874Y213100D01*
X179174Y214400D02*
Y219181D01*
X154474Y220481D02*
X157074D01*
X173974Y214400D02*
Y219181D01*
X158374Y214400D02*
Y219181D01*
X183074Y213100D02*
X184374Y214400D01*
X172674Y213100D02*
X173974Y214400D01*
X140874Y220000D02*
X146674D01*
X151874Y213100D02*
X153174Y214400D01*
X158374D02*
X159674Y213100D01*
X162274D01*
X163574Y214400D02*
Y219181D01*
X167474Y220481D02*
X168774Y219181D01*
X175274Y220481D02*
X177874D01*
X180474Y213100D02*
X183074D01*
X185674Y220481D02*
X188274D01*
X190874Y213100D02*
X193474D01*
X153174Y214400D02*
Y219181D01*
X193474Y213100D02*
X194774Y214400D01*
Y218700D01*
X256851Y200156D02*
X258690Y200156D01*
X265630Y222631D02*
X268000Y225000D01*
X237629Y194629D02*
X238053Y195053D01*
X243965Y207526D02*
X245804Y209365D01*
X251319Y214880D02*
X253158Y216719D01*
X266043Y207510D02*
X267882Y209348D01*
X251319Y213042D02*
X260528Y203833D01*
X254996Y216719D02*
X264205Y207510D01*
X240288Y202011D02*
X249497Y192802D01*
X258673Y220396D02*
Y222234D01*
X249497Y192802D02*
X251336Y192802D01*
X263792Y222631D02*
X265630D01*
X247642Y209365D02*
X256851Y200156D01*
X243965Y205688D02*
Y207526D01*
X267882Y211187D02*
X267882Y209348D01*
X236611Y198334D02*
Y200173D01*
X260511Y224073D02*
X262350D01*
X238450Y202011D02*
X240288D01*
X264205Y207510D02*
X266043Y207510D01*
X236611Y200173D02*
X238450Y202011D01*
X251336Y192802D02*
X253174Y194641D01*
X243965Y205688D02*
X253174Y196479D01*
X258690Y200156D02*
X260528Y201994D01*
X251319Y213042D02*
Y214880D01*
X258673Y220396D02*
X267882Y211187D01*
X253158Y216719D02*
X254996D01*
X260528Y203833D02*
X260528Y201994D01*
X262350Y224073D02*
X263792Y222631D01*
X245804Y209365D02*
X247642D01*
X238053Y195053D02*
Y196892D01*
X258673Y222234D02*
X260511Y224073D01*
X253174Y196479D02*
X253174Y194641D01*
X236611Y198334D02*
X238053Y196892D01*
X186000Y190428D02*
X188600D01*
X191200Y181725D02*
X193800D01*
X200300Y183025D02*
X201600Y181725D01*
X193800D02*
X195100Y183025D01*
X215900D02*
Y189128D01*
X225000Y181725D02*
X226300Y183025D01*
X219800Y190428D02*
X221100Y189128D01*
Y183025D02*
X222400Y181725D01*
X167800Y189000D02*
X169100Y187700D01*
X175600Y190428D02*
X178200D01*
X206800D02*
X209400D01*
X205500Y183025D02*
Y189128D01*
X221100Y183025D02*
Y189128D01*
X174300D02*
X175600Y190428D01*
X227600Y189000D02*
X229272D01*
X196400Y190428D02*
X199000D01*
X215900Y189128D02*
X217200Y190428D01*
X184700Y183025D02*
Y189128D01*
X189900Y183025D02*
X191200Y181725D01*
X217200Y190428D02*
X219800D01*
X169100Y183025D02*
Y187700D01*
X178200Y190428D02*
X179500Y189128D01*
X209400Y190428D02*
X210700Y189128D01*
X170400Y181725D02*
X173000D01*
X174300Y183025D01*
X226300Y187700D02*
X227600Y189000D01*
X174300Y183025D02*
Y189128D01*
X201600Y181725D02*
X204200D01*
X226300Y183025D02*
Y187700D01*
X199000Y190428D02*
X200300Y189128D01*
X195100D02*
X196400Y190428D01*
X184700Y189128D02*
X186000Y190428D01*
X183400Y181725D02*
X184700Y183025D01*
X180800Y181725D02*
X183400D01*
X189900Y183025D02*
Y189128D01*
X169100Y183025D02*
X170400Y181725D01*
X222400D02*
X225000D01*
X179500Y183025D02*
Y189128D01*
X162000Y189000D02*
X167800D01*
X204200Y181725D02*
X205500Y183025D01*
X195100D02*
Y189128D01*
X200300Y183025D02*
Y189128D01*
X179500Y183025D02*
X180800Y181725D01*
X205500Y189128D02*
X206800Y190428D01*
X212000Y181725D02*
X214600D01*
X215900Y183025D01*
X188600Y190428D02*
X189900Y189128D01*
X210700Y183025D02*
X212000Y181725D01*
X210700Y183025D02*
Y189128D01*
X34300Y266100D02*
X39950D01*
Y271300D02*
X41250Y270000D01*
X39950Y266100D02*
X41250Y267400D01*
X33000Y272600D02*
Y274000D01*
Y272600D02*
X34300Y271300D01*
X41250Y267400D02*
Y270000D01*
X33000Y260000D02*
Y264800D01*
X34300Y271300D02*
X39950D01*
X33000Y260000D02*
X34000Y259000D01*
X33000Y264800D02*
X34300Y266100D01*
X222868Y264729D02*
Y270700D01*
X243668Y264729D02*
Y271155D01*
X260567Y272455D02*
X263167D01*
X243668Y264729D02*
X244967Y263429D01*
X283967Y272455D02*
X285267Y271155D01*
X233267Y264729D02*
Y271155D01*
X295667Y264729D02*
X296967Y263429D01*
X231968Y272455D02*
X233267Y271155D01*
X274867Y264729D02*
X276167Y263429D01*
X237167D02*
X238468Y264729D01*
X265767Y263429D02*
X268367D01*
X285267Y264729D02*
Y271155D01*
X242367Y272455D02*
X243668Y271155D01*
X291767Y272455D02*
X294367D01*
X221567Y272000D02*
X222868Y270700D01*
X226768Y263429D02*
X228067Y264729D01*
X239767Y272455D02*
X242367D01*
X274867Y264729D02*
Y271155D01*
X215767Y271767D02*
X216000Y272000D01*
X247568Y263429D02*
X248867Y264729D01*
X263167Y272455D02*
X264467Y271155D01*
X280067Y264729D02*
Y271155D01*
X233267Y264729D02*
X234568Y263429D01*
X276167D02*
X278767D01*
X300867Y264729D02*
Y270700D01*
X264467Y264729D02*
X265767Y263429D01*
X238468Y271155D02*
X239767Y272455D01*
X222868Y264729D02*
X224167Y263429D01*
X289167D02*
X290467Y264729D01*
X244967Y263429D02*
X247568D01*
X285267Y264729D02*
X286567Y263429D01*
X254067Y264729D02*
X255368Y263429D01*
X264467Y264729D02*
Y271155D01*
X216000Y272000D02*
X221567D01*
X268367Y263429D02*
X269667Y264729D01*
X296967Y263429D02*
X299567D01*
X228067Y264729D02*
Y271155D01*
X250168Y272455D02*
X252768D01*
X294367D02*
X295667Y271155D01*
X254067Y264729D02*
Y271155D01*
X295667Y264729D02*
Y271155D01*
X290467Y264729D02*
Y271155D01*
X259268D02*
X260567Y272455D01*
X234568Y263429D02*
X237167D01*
X286567D02*
X289167D01*
X278767D02*
X280067Y264729D01*
X257967Y263429D02*
X259268Y264729D01*
X238468D02*
Y271155D01*
X224167Y263429D02*
X226768D01*
X229368Y272455D02*
X231968D01*
X299567Y263429D02*
X300867Y264729D01*
X248867Y271155D02*
X250168Y272455D01*
X255368Y263429D02*
X257967D01*
X252768Y272455D02*
X254067Y271155D01*
X290467D02*
X291767Y272455D01*
X228067Y271155D02*
X229368Y272455D01*
X259268Y264729D02*
Y271155D01*
X269667D02*
X270967Y272455D01*
X281367D02*
X283967D01*
X270967D02*
X273567D01*
X280067Y271155D02*
X281367Y272455D01*
X248867Y264729D02*
Y271155D01*
X273567Y272455D02*
X274867Y271155D01*
X300867Y270700D02*
X302167Y272000D01*
X269667Y264729D02*
Y271155D01*
X302167Y272000D02*
X303951D01*
X244000Y340400D02*
X245300Y339100D01*
X244000Y340400D02*
Y344632D01*
X249200D02*
X250500Y345933D01*
X240100D02*
X242700D01*
X233600Y340400D02*
X234900Y339100D01*
X226500Y341000D02*
X227100D01*
X228400Y344632D02*
X229700Y345933D01*
X249200Y340400D02*
Y344632D01*
X255700Y341000D02*
X264500D01*
X228400Y342300D02*
Y344632D01*
X233600Y340400D02*
Y344632D01*
X238800D02*
X240100Y345933D01*
X238800Y340400D02*
Y344632D01*
X254400Y342300D02*
Y344632D01*
X253100Y345933D02*
X254400Y344632D01*
X227100Y341000D02*
X228400Y342300D01*
X229700Y345933D02*
X232300D01*
X233600Y344632D01*
X247900Y339100D02*
X249200Y340400D01*
X234900Y339100D02*
X237500D01*
X238800Y340400D01*
X250500Y345933D02*
X253100D01*
X242700D02*
X244000Y344632D01*
X245300Y339100D02*
X247900D01*
X254400Y342300D02*
X255700Y341000D01*
X209193Y297915D02*
X210493Y296615D01*
X198663Y301815D02*
X199963Y303115D01*
X209193D01*
X199003Y281015D02*
X200303Y282315D01*
X199000Y275215D02*
X199000Y275815D01*
X200303Y282315D02*
X209193D01*
Y308315D02*
X210493Y307015D01*
Y294015D02*
Y296615D01*
X199017Y309615D02*
X200317Y308315D01*
X210493Y304415D02*
Y307015D01*
X199000Y275815D02*
X199003Y281015D01*
X199017Y309615D02*
X199018Y310418D01*
X209193Y292715D02*
X210493Y294015D01*
Y283615D02*
Y286215D01*
X198663Y291415D02*
X199963Y292715D01*
X209193Y287515D02*
X210493Y286215D01*
X199963Y297915D02*
X209193D01*
X198663Y299215D02*
X199963Y297915D01*
X198663Y288815D02*
Y291415D01*
Y299215D02*
Y301815D01*
Y288815D02*
X199963Y287515D01*
X209193Y303115D02*
X210493Y304415D01*
X200317Y308315D02*
X209193D01*
X199018Y310418D02*
X199018Y311018D01*
X199963Y287515D02*
X209193D01*
Y282315D02*
X210493Y283615D01*
X199963Y292715D02*
X209193D01*
X192843Y255260D02*
X204421Y243682D01*
X185489Y249744D02*
X187327Y251583D01*
X202582Y240005D02*
X204421Y241843D01*
X185489Y247906D02*
X197067Y236328D01*
X189166Y251583D02*
X200744Y240005D01*
X202809Y252648D02*
X204648D01*
X192843Y257098D02*
X194681Y258937D01*
X184000Y232000D02*
X184424Y232424D01*
X195229Y232651D02*
X197067Y234489D01*
X181812Y244229D02*
X193390Y232651D01*
X185489Y247906D02*
Y249744D01*
X184424Y232424D02*
Y234263D01*
X197067Y234489D02*
Y236328D01*
X178135Y240552D02*
X184424Y234263D01*
X200744Y240005D02*
X202582D01*
X204648Y252648D02*
X207499Y255499D01*
X187327Y251583D02*
X189166D01*
X192843Y255260D02*
Y257098D01*
X194681Y258937D02*
X196520D01*
X202809Y252648D01*
X179974Y244229D02*
X181812D01*
X204421Y241843D02*
Y243682D01*
X178135Y242390D02*
X179974Y244229D01*
X193390Y232651D02*
X195229D01*
X178135Y240552D02*
Y242390D01*
X297100Y244761D02*
X299700D01*
X224300D02*
X226900D01*
X280200Y260352D02*
X281500Y261652D01*
X234700Y244761D02*
X237300D01*
X238600Y260352D02*
X239900Y261652D01*
X254200Y246061D02*
Y260352D01*
X249000D02*
X250300Y261652D01*
X317900Y247000D02*
X318900D01*
X290600Y246061D02*
Y260352D01*
X289300Y244761D02*
X290600Y246061D01*
X223000D02*
Y260352D01*
X264600Y246061D02*
Y260352D01*
X316600Y248300D02*
X317900Y247000D01*
X259400Y260352D02*
X260700Y261652D01*
X301000Y260352D02*
X302300Y261652D01*
X243800Y246061D02*
X245100Y244761D01*
X247700D02*
X249000Y246061D01*
X233400D02*
Y260352D01*
X223000Y246061D02*
X224300Y244761D01*
X301000Y246061D02*
Y260352D01*
X229500Y261652D02*
X232100D01*
X252900D02*
X254200Y260352D01*
X269800Y246061D02*
Y260352D01*
X316600Y248300D02*
Y253464D01*
X284100Y261652D02*
X285400Y260352D01*
X275000Y246061D02*
Y260352D01*
X285400Y246061D02*
X286700Y244761D01*
X306200Y246061D02*
Y260352D01*
X286700Y244761D02*
X289300D01*
X226900D02*
X228200Y246061D01*
X265900Y244761D02*
X268500D01*
X281500Y261652D02*
X284100D01*
X295800Y246061D02*
X297100Y244761D01*
X291900Y261652D02*
X294500D01*
X276300Y244761D02*
X278900D01*
X219100Y261652D02*
X221700D01*
X294500D02*
X295800Y260352D01*
X216500Y247000D02*
X217800Y248300D01*
X249000Y246061D02*
Y260352D01*
X306200Y246061D02*
X307500Y244761D01*
X232100Y261652D02*
X233400Y260352D01*
X260700Y261652D02*
X263300D01*
X237300Y244761D02*
X238600Y246061D01*
X271100Y261652D02*
X273700D01*
X299700Y244761D02*
X301000Y246061D01*
X221700Y261652D02*
X223000Y260352D01*
X280200Y246061D02*
Y260352D01*
X264600Y246061D02*
X265900Y244761D01*
X304900Y261652D02*
X306200Y260352D01*
X311400Y246061D02*
Y253464D01*
X255500Y244761D02*
X258100D01*
X217800Y260352D02*
X219100Y261652D01*
X242500D02*
X243800Y260352D01*
X245100Y244761D02*
X247700D01*
X275000Y246061D02*
X276300Y244761D01*
X273700Y261652D02*
X275000Y260352D01*
X228200D02*
X229500Y261652D01*
X233400Y246061D02*
X234700Y244761D01*
X250300Y261652D02*
X252900D01*
X269800Y260352D02*
X271100Y261652D01*
X311400Y253464D02*
X312700Y254764D01*
X215900Y247000D02*
X216500D01*
X307500Y244761D02*
X310100D01*
X312700Y254764D02*
X315300D01*
X217800Y248300D02*
Y260352D01*
X258100Y244761D02*
X259400Y246061D01*
X278900Y244761D02*
X280200Y246061D01*
X228200D02*
Y260352D01*
X238600Y246061D02*
Y260352D01*
X268500Y244761D02*
X269800Y246061D01*
X285400D02*
Y260352D01*
X302300Y261652D02*
X304900D01*
X239900D02*
X242500D01*
X259400Y246061D02*
Y260352D01*
X243800Y246061D02*
Y260352D01*
X290600D02*
X291900Y261652D01*
X295800Y246061D02*
Y260352D01*
X263300Y261652D02*
X264600Y260352D01*
X254200Y246061D02*
X255500Y244761D01*
X310100D02*
X311400Y246061D01*
X315300Y254764D02*
X316600Y253464D01*
X218739Y295229D02*
X221339D01*
X226539Y274920D02*
X227839Y276220D01*
X233039D02*
X234339Y274920D01*
X279839Y293929D02*
X281138Y295229D01*
X288939Y274920D02*
X290238Y276220D01*
X231739Y295229D02*
X233039Y293929D01*
X281138Y295229D02*
X283738D01*
X238239Y276220D02*
Y293929D01*
X279839Y276220D02*
Y293929D01*
X262938Y295229D02*
X264238Y293929D01*
X227839D02*
X229139Y295229D01*
X252539D02*
X253839Y293929D01*
X216139Y283000D02*
X217439Y284300D01*
X273339Y295229D02*
X274639Y293929D01*
X260338Y295229D02*
X262938D01*
X233039Y276220D02*
Y293929D01*
X221339Y295229D02*
X222639Y293929D01*
X234339Y274920D02*
X236939D01*
X275938D02*
X278538D01*
X223939D02*
X226539D01*
X286339D02*
X288939D01*
X269438Y293929D02*
X270739Y295229D01*
X248639Y276220D02*
Y293929D01*
X255139Y274920D02*
X257738D01*
X259039Y276220D02*
Y293929D01*
X222639Y276220D02*
Y293929D01*
X236939Y274920D02*
X238239Y276220D01*
X227839D02*
Y293929D01*
X215539Y283000D02*
X216139D01*
X268139Y274920D02*
X269438Y276220D01*
X239539Y295229D02*
X242139D01*
X243439Y276220D02*
X244739Y274920D01*
X283738Y295229D02*
X285039Y293929D01*
X247339Y274920D02*
X248639Y276220D01*
X229139Y295229D02*
X231739D01*
X291539Y283000D02*
X293080D01*
X253839Y276220D02*
Y293929D01*
X217439Y284300D02*
Y293929D01*
X249939Y295229D02*
X252539D01*
X278538Y274920D02*
X279839Y276220D01*
X274639D02*
X275938Y274920D01*
X217439Y293929D02*
X218739Y295229D01*
X265539Y274920D02*
X268139D01*
X244739D02*
X247339D01*
X285039Y276220D02*
Y293929D01*
X290238Y281700D02*
X291539Y283000D01*
X253839Y276220D02*
X255139Y274920D01*
X285039Y276220D02*
X286339Y274920D01*
X257738D02*
X259039Y276220D01*
X243439D02*
Y293929D01*
X264238Y276220D02*
Y293929D01*
X274639Y276220D02*
Y293929D01*
X259039D02*
X260338Y295229D01*
X264238Y276220D02*
X265539Y274920D01*
X248639Y293929D02*
X249939Y295229D01*
X290238Y276220D02*
Y281700D01*
X269438Y276220D02*
Y293929D01*
X242139Y295229D02*
X243439Y293929D01*
X238239D02*
X239539Y295229D01*
X270739D02*
X273339D01*
X222639Y276220D02*
X223939Y274920D01*
X120156Y329300D02*
Y329387D01*
X142256Y330687D02*
X144856D01*
X146156Y322610D02*
X147456Y321310D01*
X152656Y330687D02*
X155256D01*
X130556Y329387D02*
X131856Y330687D01*
X140956Y322610D02*
Y329387D01*
X156556Y322610D02*
Y329387D01*
X131856Y330687D02*
X134456D01*
X172156Y324812D02*
Y326700D01*
X134456Y330687D02*
X135756Y329387D01*
X173456Y328000D02*
X177824D01*
X135756Y322610D02*
X137056Y321310D01*
X125357Y322610D02*
X126657Y321310D01*
X137056D02*
X139656D01*
X140956Y329387D02*
X142256Y330687D01*
X160456Y321310D02*
X161756Y322610D01*
X144856Y330687D02*
X146156Y329387D01*
X150056Y321310D02*
X151356Y322610D01*
X165656Y330687D02*
X166956Y329387D01*
X156556Y322610D02*
X157856Y321310D01*
X125357Y322610D02*
Y329387D01*
X118856Y328000D02*
X120156Y329300D01*
X151356Y322610D02*
Y329387D01*
X163056Y330687D02*
X165656D01*
X147456Y321310D02*
X150056D01*
X129256D02*
X130556Y322610D01*
X172156Y326700D02*
X173456Y328000D01*
X151356Y329387D02*
X152656Y330687D01*
X121456D02*
X124057D01*
X157856Y321310D02*
X160456D01*
X124057Y330687D02*
X125357Y329387D01*
X139656Y321310D02*
X140956Y322610D01*
X166956Y324812D02*
X168256Y323512D01*
X120156Y329387D02*
X121456Y330687D01*
X135756Y322610D02*
Y329387D01*
X126657Y321310D02*
X129256D01*
X155256Y330687D02*
X156556Y329387D01*
X130556Y322610D02*
Y329387D01*
X161756Y322610D02*
Y329387D01*
X163056Y330687D01*
X168256Y323512D02*
X170856D01*
X172156Y324812D01*
X166956D02*
Y329387D01*
X146156Y322610D02*
Y329387D01*
X118256Y328000D02*
X118856D01*
X188706Y273335D02*
X192601Y269440D01*
X186867Y273335D02*
X188706D01*
X185029Y269659D02*
X188924Y265763D01*
X185029Y269659D02*
Y271497D01*
X188924Y263924D02*
Y265763D01*
X194440Y269440D02*
X198000Y273000D01*
X185029Y271497D02*
X186867Y273335D01*
X188500Y263500D02*
X188924Y263924D01*
X192601Y269440D02*
X194440D01*
X171700Y229400D02*
Y238190D01*
X149600Y231000D02*
X150900Y232300D01*
X162600Y239489D02*
X165200D01*
X166500Y229400D02*
X167800Y228100D01*
X149000Y231000D02*
X149600D01*
X173000Y239489D02*
X175600D01*
X170400Y228100D02*
X171700Y229400D01*
X176900Y232300D02*
X178200Y231000D01*
X152200Y237930D02*
X154800D01*
X156100Y229400D02*
X157400Y228100D01*
X165200Y239489D02*
X166500Y238190D01*
X157400Y228100D02*
X160000D01*
X167800D02*
X170400D01*
X150900Y232300D02*
Y236630D01*
X161300Y238190D02*
X162600Y239489D01*
X175600D02*
X176900Y238190D01*
X156100Y229400D02*
Y236630D01*
X176900Y232300D02*
Y238190D01*
X166500Y229400D02*
Y238190D01*
X178200Y231000D02*
X182000D01*
X161300Y229400D02*
Y238190D01*
X154800Y237930D02*
X156100Y236630D01*
X171700Y238190D02*
X173000Y239489D01*
X150900Y236630D02*
X152200Y237930D01*
X160000Y228100D02*
X161300Y229400D01*
X58901Y327555D02*
X60740D01*
X62578Y329394D02*
Y331232D01*
X37601Y317601D02*
X39440Y317601D01*
X42524Y323709D02*
X44363Y325547D01*
X51547Y320201D02*
X53386D01*
X42525Y321870D02*
X47870Y316525D01*
X46032Y312848D02*
X47870Y314686D01*
X42524Y323709D02*
X42525Y321870D01*
X44363Y325547D02*
X46202Y325547D01*
X57824Y337824D02*
X57825Y335986D01*
X44193Y312848D02*
X46032D01*
X49878Y331063D02*
X51717Y332901D01*
X33500Y313500D02*
X37601Y317601D01*
X39440Y317601D02*
X44193Y312848D01*
X49879Y329224D02*
X55224Y323878D01*
X49878Y331063D02*
X49879Y329224D01*
X60740Y327555D02*
X62578Y329394D01*
X55224Y322040D02*
Y323878D01*
X46202Y325547D02*
X51547Y320201D01*
X57825Y335986D02*
X62578Y331232D01*
X57824Y337824D02*
X59000Y339000D01*
X47870Y314686D02*
Y316525D01*
X53386Y320201D02*
X55224Y322040D01*
X53555Y332901D02*
X58901Y327555D01*
X51717Y332901D02*
X53555Y332901D01*
X112000Y140000D02*
X164000D01*
X267000D02*
X326000Y199000D01*
X353154D01*
X227242Y140000D02*
X267000D01*
X247663Y297727D02*
X248963Y299027D01*
X242463Y313080D02*
X243763Y311780D01*
Y299027D02*
Y311780D01*
X228163D02*
X229463Y313080D01*
X265863Y297727D02*
X268463D01*
X215863Y313000D02*
X221663D01*
X264563Y299027D02*
X265863Y297727D01*
X229463Y313080D02*
X232063D01*
X233363Y299027D02*
X234663Y297727D01*
X237263D02*
X238563Y299027D01*
X245063Y297727D02*
X247663D01*
X260663Y313080D02*
X263263D01*
X269763Y299027D02*
Y311700D01*
X255463Y297727D02*
X258063D01*
X224263D02*
X226863D01*
X239863Y313080D02*
X242463D01*
X233363Y299027D02*
Y311780D01*
X248963D02*
X250263Y313080D01*
X259363Y311780D02*
X260663Y313080D01*
X254163Y299027D02*
Y311780D01*
Y299027D02*
X255463Y297727D01*
X222963Y299027D02*
Y311700D01*
X277000Y313000D02*
X277000Y313000D01*
X232063Y313080D02*
X233363Y311780D01*
X248963Y299027D02*
Y311780D01*
X264563Y299027D02*
Y311780D01*
X268463Y297727D02*
X269763Y299027D01*
X228163D02*
Y311780D01*
X238563Y299027D02*
Y311780D01*
X239863Y313080D01*
X269763Y311700D02*
X271063Y313000D01*
X258063Y297727D02*
X259363Y299027D01*
X250263Y313080D02*
X252863D01*
X226863Y297727D02*
X228163Y299027D01*
X234663Y297727D02*
X237263D01*
X271063Y313000D02*
X277000D01*
X221663D02*
X222963Y311700D01*
Y299027D02*
X224263Y297727D01*
X243763Y299027D02*
X245063Y297727D01*
X259363Y299027D02*
Y311780D01*
X263263Y313080D02*
X264563Y311780D01*
X252863Y313080D02*
X254163Y311780D01*
X213339Y321254D02*
Y332026D01*
X238039Y319954D02*
X239338Y321254D01*
X254939D02*
Y332026D01*
X261439Y333326D02*
X264039D01*
X196439Y328400D02*
X197739Y329700D01*
X218539Y321254D02*
Y332026D01*
X234139Y321254D02*
Y332026D01*
X232838Y333326D02*
X234139Y332026D01*
X194600Y328400D02*
X196439D01*
X219839Y333326D02*
X222439D01*
X228939Y332026D02*
X230239Y333326D01*
X235438Y319954D02*
X238039D01*
X249739Y321254D02*
Y332026D01*
X209439Y333326D02*
X212039D01*
X260138Y321254D02*
Y332026D01*
X249739D02*
X251038Y333326D01*
X212039D02*
X213339Y332026D01*
X260138D02*
X261439Y333326D01*
X227639Y319954D02*
X228939Y321254D01*
X265338Y326300D02*
X266639Y325000D01*
X194000Y329000D02*
X194600Y328400D01*
X239338Y321254D02*
Y332026D01*
X240639Y333326D02*
X243239D01*
X199039D02*
X201639D01*
X213339Y321254D02*
X214639Y319954D01*
X223739Y321254D02*
X225039Y319954D01*
X251038Y333326D02*
X253638D01*
X258839Y319954D02*
X260138Y321254D01*
X266639Y325000D02*
X273066D01*
X230239Y333326D02*
X232838D01*
X264039D02*
X265338Y332026D01*
X225039Y319954D02*
X227639D01*
X214639D02*
X217239D01*
X208139Y321254D02*
Y332026D01*
X202939Y321254D02*
Y332026D01*
X222439Y333326D02*
X223739Y332026D01*
X228939Y321254D02*
Y332026D01*
X204239Y319954D02*
X206839D01*
X256238D02*
X258839D01*
X239338Y332026D02*
X240639Y333326D01*
X202939Y321254D02*
X204239Y319954D01*
X197739Y332026D02*
X199039Y333326D01*
X248438Y319954D02*
X249739Y321254D01*
X265338Y326300D02*
Y332026D01*
X243239Y333326D02*
X244538Y332026D01*
X217239Y319954D02*
X218539Y321254D01*
Y332026D02*
X219839Y333326D01*
X223739Y321254D02*
Y332026D01*
X253638Y333326D02*
X254939Y332026D01*
X208139D02*
X209439Y333326D01*
X244538Y321254D02*
X245839Y319954D01*
X201639Y333326D02*
X202939Y332026D01*
X206839Y319954D02*
X208139Y321254D01*
X254939D02*
X256238Y319954D01*
X245839D02*
X248438D01*
X234139Y321254D02*
X235438Y319954D01*
X197739Y329700D02*
Y332026D01*
X244538Y321254D02*
Y332026D01*
X554000Y150000D02*
X612000D01*
X633000Y129000D01*
Y91000D02*
Y129000D01*
X512000Y192000D02*
X554000Y150000D01*
X492000Y192000D02*
X512000D01*
X537000Y232000D02*
X644000D01*
X505000Y264000D02*
X537000Y232000D01*
X644000D02*
X687000Y275000D01*
X490000Y264000D02*
X505000D01*
X486000Y268000D02*
X490000Y264000D01*
X346000Y474000D02*
X358000D01*
X344000Y472000D02*
X346000Y474000D01*
X344000Y466000D02*
Y472000D01*
X358000Y474000D02*
X362000Y470000D01*
X340000Y462000D02*
X344000Y466000D01*
X365000Y466000D02*
X383000Y448000D01*
X406000D01*
X376000Y406000D02*
X386000D01*
X374000Y408000D02*
X376000Y406000D01*
X386000D02*
X390500Y401500D01*
X374000Y408000D02*
Y416000D01*
X390500Y390000D02*
Y401500D01*
X368000Y418000D02*
X372000D01*
X374000Y416000D01*
X367269Y424731D02*
X374860D01*
X360000Y425297D02*
X360703Y426000D01*
X360000Y406703D02*
Y425297D01*
X360703Y426000D02*
X366000D01*
X367269Y424731D01*
X360000Y406703D02*
X360703Y406000D01*
X360740D01*
X363140Y403600D01*
X382103Y398400D02*
X383403Y399700D01*
X365989Y398400D02*
X382103D01*
Y403600D02*
X383403Y402300D01*
X369800Y393200D02*
X384000Y379000D01*
X364689Y394500D02*
X365989Y393200D01*
X364689Y397100D02*
X365989Y398400D01*
X363140Y403600D02*
X382103D01*
X365989Y393200D02*
X369800D01*
X383403Y399700D02*
Y402300D01*
X364689Y394500D02*
Y397100D01*
X376160Y426031D02*
Y428631D01*
X357140Y445531D02*
X374860D01*
Y450731D02*
X376160Y449431D01*
Y436431D02*
Y439031D01*
X374860Y424731D02*
X376160Y426031D01*
X355840Y431231D02*
X357140Y429931D01*
X355840Y444231D02*
X357140Y445531D01*
X355840Y431231D02*
Y433831D01*
X368000Y452031D02*
Y454000D01*
X357140Y435131D02*
X374860D01*
Y440331D02*
X376160Y439031D01*
X374860Y429931D02*
X376160Y428631D01*
X368000Y452031D02*
X369300Y450731D01*
X355840Y433831D02*
X357140Y435131D01*
X374860Y445531D02*
X376160Y446831D01*
X357140Y429931D02*
X374860D01*
X369300Y450731D02*
X374860D01*
X376160Y446831D02*
Y449431D01*
X374860Y435131D02*
X376160Y436431D01*
X355840Y441631D02*
X357140Y440331D01*
X374860D01*
X355840Y441631D02*
Y444231D01*
X348000Y418000D02*
Y430000D01*
X352000Y408000D02*
Y434000D01*
Y408000D02*
X360000Y400000D01*
X348000Y438000D02*
X352000Y434000D01*
X344000Y391000D02*
Y448000D01*
X326741Y408699D02*
X340431D01*
X341481Y407649D01*
Y405549D02*
Y407649D01*
X340431Y404499D02*
X341481Y405549D01*
X326741Y404499D02*
X340431D01*
X325691Y409749D02*
X326741Y408699D01*
X325691Y403450D02*
X326741Y404499D01*
X325691Y401349D02*
Y403450D01*
Y409749D02*
Y411849D01*
X326741Y412899D01*
X325691Y401349D02*
X326741Y400299D01*
Y412899D02*
X340431D01*
X326741Y400299D02*
X334950D01*
X336000Y399249D01*
Y383000D02*
Y399249D01*
X340431Y412899D02*
X341481Y413949D01*
X336000Y383000D02*
X364000Y355000D01*
X342000Y450000D02*
X344000Y448000D01*
X338000Y450000D02*
X342000D01*
X384000Y379000D02*
X388000D01*
X362000Y470000D02*
X372000D01*
X374000Y472000D01*
Y486500D01*
X378500Y491000D01*
X408000D01*
X344000Y463000D02*
X347000Y466000D01*
X365000D01*
X59000Y345000D02*
X221000D01*
X29000Y315000D02*
X59000Y345000D01*
X221000D02*
X225000Y341000D01*
X57000Y350000D02*
X271000D01*
X344000Y277000D01*
X25000Y318000D02*
X57000Y350000D01*
X542700Y102700D02*
X543000Y103000D01*
X517300Y102300D02*
X518000Y103000D01*
X543000Y119000D02*
X544000Y120000D01*
Y126000D01*
X497000Y132000D02*
X538000D01*
X544000Y126000D01*
X498000Y119000D02*
X518000D01*
X484000Y224000D02*
X503000D01*
X482000Y226000D02*
Y230000D01*
Y226000D02*
X484000Y224000D01*
X478440Y233560D02*
Y235560D01*
Y233560D02*
X482000Y230000D01*
X482202Y233798D02*
Y236776D01*
X484000Y232000D02*
X502000D01*
X482202Y233798D02*
X484000Y232000D01*
X478440Y240538D02*
X482202Y236776D01*
X478000Y244000D02*
X478440Y243560D01*
Y240538D02*
Y243560D01*
X390000Y220000D02*
X390000D01*
X385999Y216000D02*
X390000Y220000D01*
X385999Y216000D02*
X385999D01*
X84000Y272000D02*
X87000Y269000D01*
X92000D01*
X177824Y328000D02*
X188000D01*
X387000Y248000D02*
X394000D01*
X398000Y228560D02*
Y244000D01*
X393440Y224000D02*
X398000Y228560D01*
X394000Y248000D02*
X398000Y244000D01*
X386000Y224000D02*
X393440D01*
X390000Y228000D02*
X393999Y231999D01*
X106000Y264000D02*
X116000D01*
X120000Y251999D02*
Y252000D01*
X124000Y256000D01*
X377479Y380946D02*
X377479D01*
X375648Y380946D02*
X377479Y380946D01*
X379607Y378818D02*
Y378818D01*
Y377558D02*
Y378818D01*
X329000Y137000D02*
X351000D01*
X300000Y385000D02*
X302945Y387945D01*
X305184Y382816D02*
X307117Y380883D01*
X300000Y381703D02*
Y385000D01*
X300703Y381000D02*
X302000D01*
X300000Y381703D02*
X300703Y381000D01*
X303816Y382816D02*
X305184D01*
X302000Y381000D02*
X303816Y382816D01*
X359090Y328911D02*
X365000Y323000D01*
X321934Y354122D02*
X323419D01*
X349625Y325386D02*
X351110Y323901D01*
X331612Y356375D02*
Y357860D01*
X320449Y357092D02*
X325672Y362315D01*
X346461Y341526D02*
X347946D01*
X308570Y368971D02*
X313793Y374194D01*
X349431Y338556D02*
Y340041D01*
X324187Y365284D02*
X325672Y363800D01*
X349625Y326871D02*
X355370Y332616D01*
X343956Y331596D02*
X343956Y333081D01*
X345441Y330111D02*
X346926Y330111D01*
X332328Y343727D02*
X333813Y342242D01*
X326389Y351152D02*
X331612Y356375D01*
X314509Y361546D02*
X315994Y360061D01*
X337551Y350435D02*
Y351920D01*
X343956Y333081D02*
X349431Y338556D01*
X326389Y349667D02*
X327874Y348182D01*
X347946Y341526D02*
X349431Y340041D01*
X310823Y377164D02*
X312308D01*
X346926Y330111D02*
X352401Y335586D01*
X302630Y374911D02*
X307117Y379398D01*
X353885Y335586D02*
X355370Y334101D01*
X308570Y367486D02*
Y368971D01*
X307117Y379398D02*
X307117Y380883D01*
X310055Y366001D02*
X311539D01*
X352401Y335586D02*
X353885D01*
X338268Y339272D02*
X343491Y344496D01*
X316763Y371224D02*
X318247D01*
X326389Y349667D02*
Y351152D01*
X349625Y325386D02*
Y326871D01*
X305600Y371941D02*
X310823Y377164D01*
X332328Y345212D02*
X337551Y350435D01*
X351110Y323901D02*
X352595D01*
X327874Y348182D02*
X329358D01*
X352595Y323901D02*
X357604Y328910D01*
X355370Y332616D02*
Y334101D01*
X328642Y359345D02*
X330127D01*
X313793Y374194D02*
Y375679D01*
X343956Y331596D02*
X345441Y330111D01*
X338268Y337788D02*
X339753Y336303D01*
X318247Y371224D02*
X319732Y369739D01*
X342006Y347465D02*
X343491Y345980D01*
X340521Y347465D02*
X342006D01*
X335298Y342242D02*
X340521Y347465D01*
X311539Y366001D02*
X316763Y371224D01*
X333813Y342242D02*
X335298D01*
X332328Y343727D02*
Y345212D01*
X334582Y353405D02*
X336067D01*
X320449Y355607D02*
X321934Y354122D01*
X304115Y371941D02*
X305600D01*
X320449Y355607D02*
Y357092D01*
X319732Y368254D02*
Y369739D01*
X308570Y367486D02*
X310055Y366001D01*
X325672Y362315D02*
Y363800D01*
X314509Y363031D02*
X319732Y368254D01*
X315994Y360061D02*
X317479D01*
X314509Y361546D02*
Y363031D01*
X338268Y337788D02*
Y339272D01*
X322702Y365284D02*
X324187D01*
X341238Y336303D02*
X346461Y341526D01*
X339753Y336303D02*
X341238D01*
X357604Y328910D02*
X359090Y328911D01*
X302630Y373426D02*
X304115Y371941D01*
X336067Y353405D02*
X337551Y351920D01*
X329358Y348182D02*
X334582Y353405D01*
X317479Y360061D02*
X322702Y365284D01*
X343491Y344496D02*
Y345980D01*
X312308Y377164D02*
X313793Y375679D01*
X330127Y359345D02*
X331612Y357860D01*
X302630Y373426D02*
Y374911D01*
X405714Y331950D02*
X406950D01*
X404478Y326752D02*
Y330714D01*
X405714Y331950D01*
X406950D02*
X407000Y332000D01*
X387678Y326752D02*
Y336705D01*
X369828Y325702D02*
X370878Y326752D01*
X375078D02*
Y336764D01*
X379278Y326752D02*
Y336705D01*
X401328Y325702D02*
X403428D01*
X400278Y326752D02*
X401328Y325702D01*
X396078Y336705D02*
X397128Y337755D01*
X391878Y326752D02*
X392928Y325702D01*
X383478Y326752D02*
X384528Y325702D01*
X371928Y337814D02*
X374028D01*
X396078Y326752D02*
Y336705D01*
X384528Y325702D02*
X386628D01*
X399228Y337755D02*
X400278Y336705D01*
X403428Y325702D02*
X404478Y326752D01*
X365628Y333000D02*
X366678Y331950D01*
X387678Y336705D02*
X388728Y337755D01*
X376128Y325702D02*
X378228D01*
X386628D02*
X387678Y326752D01*
X367728Y325702D02*
X369828D01*
X390828Y337755D02*
X391878Y336705D01*
X374028Y337814D02*
X375078Y336764D01*
X382428Y337755D02*
X383478Y336705D01*
X397128Y337755D02*
X399228D01*
X370878Y336764D02*
X371928Y337814D01*
X375078Y326752D02*
X376128Y325702D01*
X392928D02*
X395028D01*
X380328Y337755D02*
X382428D01*
X366678Y326752D02*
Y331950D01*
X383478Y326752D02*
Y336705D01*
X400278Y326752D02*
Y336705D01*
X366678Y326752D02*
X367728Y325702D01*
X395028D02*
X396078Y326752D01*
X378228Y325702D02*
X379278Y326752D01*
Y336705D02*
X380328Y337755D01*
X388728D02*
X390828D01*
X391878Y326752D02*
Y336705D01*
X370878Y326752D02*
Y336764D01*
X303250Y427000D02*
Y432750D01*
X365000Y323000D02*
X411000D01*
X297000Y375000D02*
Y427000D01*
Y375000D02*
X297806Y374194D01*
X345360Y326640D02*
X353000Y319000D01*
X366000Y456000D02*
X368000Y454000D01*
X515000Y212000D02*
X546000D01*
X563000Y195000D02*
X675000D01*
X546000Y212000D02*
X563000Y195000D01*
X568000Y203000D02*
X667000D01*
X519000Y215000D02*
X556000D01*
X568000Y203000D01*
X686000Y206000D02*
X733000D01*
X675000Y195000D02*
X686000Y206000D01*
X654000Y227000D02*
X699000Y272000D01*
Y279000D02*
X704000Y284000D01*
X699000Y272000D02*
Y279000D01*
X704000Y284000D02*
X733000D01*
X532000Y227000D02*
X654000D01*
X687000Y275000D02*
Y301000D01*
X665000Y223000D02*
X700000Y258000D01*
X529000Y223000D02*
X665000D01*
X700000Y258000D02*
X733000D01*
X699000Y127000D02*
Y131000D01*
X702000Y134000D02*
X725000D01*
X699000Y131000D02*
X702000Y134000D01*
X696000Y124000D02*
X699000Y127000D01*
X458000Y156641D02*
X461809Y160450D01*
X458000Y138500D02*
Y156641D01*
X450000Y138000D02*
Y158000D01*
X452000Y160000D02*
X456000D01*
X450000Y158000D02*
X452000Y160000D01*
X456000D02*
X458750Y162750D01*
X466000Y138000D02*
Y160000D01*
X470000Y164000D01*
X474000Y138000D02*
Y164596D01*
X470000Y138000D02*
X470000Y138000D01*
X489673Y139327D02*
X497000Y132000D01*
X489673Y139327D02*
Y181327D01*
X482000Y185000D02*
Y189000D01*
X478146Y192854D02*
Y195854D01*
Y192854D02*
X482000Y189000D01*
Y185000D02*
X483000Y184000D01*
X487000D02*
X489673Y181327D01*
X483000Y184000D02*
X487000D01*
X476000Y168000D02*
X481000D01*
X474000Y170000D02*
Y184000D01*
X482000Y135000D02*
X498000Y119000D01*
X482000Y135000D02*
Y167000D01*
X481000Y168000D02*
X482000Y167000D01*
X474000Y170000D02*
X476000Y168000D01*
X696000Y232000D02*
X733000D01*
X667000Y203000D02*
X696000Y232000D01*
X485000Y240000D02*
X503000D01*
X525000Y218000D01*
X588000D01*
X593000Y213000D02*
X606000D01*
X588000Y218000D02*
X593000Y213000D01*
X504000Y248000D02*
X529000Y223000D01*
X490000Y248000D02*
X504000D01*
X499000Y260000D02*
X532000Y227000D01*
X494000Y260000D02*
X499000D01*
X707000Y321000D02*
X733000D01*
X687000Y301000D02*
X707000Y321000D01*
X539000Y236000D02*
X596000D01*
X606000Y246000D02*
Y256000D01*
X596000Y236000D02*
X606000Y246000D01*
X507000Y268000D02*
X539000Y236000D01*
X494000Y268000D02*
X507000D01*
X478000Y180000D02*
X482000Y176000D01*
X488000Y192000D02*
X489673Y190327D01*
Y186327D02*
Y190327D01*
Y186327D02*
X492000Y184000D01*
X507000D01*
X486146Y200854D02*
X490000Y197000D01*
Y194000D02*
Y197000D01*
Y194000D02*
X492000Y192000D01*
X487000Y208000D02*
X490000Y205000D01*
Y201703D02*
Y205000D01*
Y201703D02*
X491703Y200000D01*
X497000D01*
X501000Y196000D01*
X516000D01*
X489462Y211560D02*
X493022Y208000D01*
X499000D01*
X507000Y200000D01*
X507000Y184000D02*
X551000Y140000D01*
X607000D01*
X484000Y192000D02*
X488000D01*
X486146Y200854D02*
Y203854D01*
X486000Y204000D02*
X486146Y203854D01*
X516000Y196000D02*
X556000Y156000D01*
X618000D01*
X482000Y208000D02*
X487000D01*
X486440Y211560D02*
X489462D01*
X486000Y212000D02*
X486440Y211560D01*
X470146Y168450D02*
X474000Y164596D01*
X478000Y180000D02*
X478000D01*
X631000Y170000D02*
X659000Y142000D01*
X526030Y204000D02*
X560030Y170000D01*
X631000D01*
X639000Y178000D02*
X657000Y160000D01*
X562000Y178000D02*
X639000D01*
X657000Y160000D02*
X673000D01*
X644000Y94000D02*
Y130000D01*
X652999Y85001D02*
X672999D01*
X644000Y94000D02*
X652999Y85001D01*
X654000Y54000D02*
X673000D01*
X623000Y85000D02*
X654000Y54000D01*
X607000Y140000D02*
X623000Y124000D01*
Y85000D02*
Y124000D01*
X649000Y75000D02*
X680297D01*
X633000Y91000D02*
X649000Y75000D01*
X618000Y156000D02*
X644000Y130000D01*
X657000Y124000D02*
X673000D01*
X653000Y128000D02*
X657000Y124000D01*
X625000Y162000D02*
X653000Y134000D01*
Y128000D02*
Y134000D01*
X558000Y162000D02*
X625000D01*
X520000Y200000D02*
X558000Y162000D01*
X511000Y204000D02*
X526030D01*
X532000Y208000D02*
X562000Y178000D01*
X513000Y208000D02*
X532000D01*
X659000Y142000D02*
X673000D01*
X505000Y216000D02*
X513000Y208000D01*
X474000Y216000D02*
X505000D01*
X503000Y212000D02*
X511000Y204000D01*
X507000Y200000D02*
X520000D01*
X478000Y212000D02*
X482000Y208000D01*
X482000Y194000D02*
X484000Y192000D01*
X482000Y194000D02*
Y200000D01*
X478000Y204000D02*
X482000Y200000D01*
X710000Y146000D02*
X794000D01*
X696000Y160000D02*
X710000Y146000D01*
X794000D02*
X798000Y142000D01*
X827000D01*
X689000Y142000D02*
X691000Y140000D01*
X732000D01*
X734000Y138000D01*
X824000D01*
X731000Y128000D02*
X816450D01*
X725000Y134000D02*
X731000Y128000D01*
X824000Y138000D02*
X830000Y132000D01*
X826000Y85000D02*
X830000Y89000D01*
Y132000D01*
X827000Y142000D02*
X837000Y132000D01*
X689000Y67000D02*
X696000D01*
X736000Y107000D02*
X809000D01*
X696000Y67000D02*
X736000Y107000D01*
X689000Y98000D02*
X712000D01*
X731000Y117000D02*
X816450D01*
X712000Y98000D02*
X731000Y117000D01*
X336000Y315000D02*
X409000D01*
X288000Y363000D02*
Y372000D01*
Y363000D02*
X336000Y315000D01*
X270000Y374000D02*
X335000Y309000D01*
X418000Y274000D02*
Y298000D01*
X407000Y309000D02*
X418000Y298000D01*
X335000Y309000D02*
X407000D01*
X288000Y411000D02*
Y440000D01*
X409000Y315000D02*
X423000Y301000D01*
Y289000D02*
Y301000D01*
X426950Y289490D02*
Y302050D01*
X353000Y319000D02*
X410000D01*
X426950Y302050D01*
X434000Y280000D02*
Y305000D01*
X407000Y332000D02*
X434000Y305000D01*
X430000Y284000D02*
Y304000D01*
X411000Y323000D02*
X430000Y304000D01*
X360312Y333000D02*
X365628D01*
X312327Y380985D02*
Y386324D01*
Y380985D02*
X360312Y333000D01*
X364585Y341000D02*
X369278D01*
X402230D02*
X403000D01*
X437000Y307000D01*
X362000Y352000D02*
X402000D01*
X338000Y376000D02*
X362000Y352000D01*
X402000D02*
X411000Y343000D01*
X414000Y355000D02*
X442953Y326047D01*
X364000Y355000D02*
X414000D01*
X373000Y359000D02*
X416000D01*
X446000Y329000D01*
X298000Y475000D02*
X311000D01*
X312327Y473673D01*
X336000Y436000D02*
Y448000D01*
X329501Y425499D02*
X340431D01*
X334000Y434000D02*
X336000Y436000D01*
X329000Y434000D02*
X334000D01*
X328000Y427000D02*
Y433000D01*
X329000Y434000D01*
X328000Y427000D02*
X329501Y425499D01*
X340431D02*
X341481Y424449D01*
X325691Y418149D02*
Y420249D01*
Y418149D02*
X326741Y417099D01*
Y421299D02*
X340431D01*
X341481Y422349D01*
Y413949D02*
Y416049D01*
X340431Y417099D02*
X341481Y416049D01*
X326741Y417099D02*
X340431D01*
X341481Y422349D02*
Y424449D01*
X325691Y420249D02*
X326741Y421299D01*
X279250Y463750D02*
Y480250D01*
X281000Y482000D02*
X324000D01*
X279250Y480250D02*
X281000Y482000D01*
X324000D02*
X328000Y478000D01*
X296497Y473497D02*
X298000Y475000D01*
X296497Y465503D02*
Y473497D01*
Y465503D02*
X300000Y462000D01*
X292000Y462000D02*
X292000Y462000D01*
X281000Y462000D02*
X292000D01*
X279250Y463750D02*
X281000Y462000D01*
X312327Y461077D02*
Y473673D01*
X328000Y459352D02*
Y478000D01*
X270000Y374000D02*
Y487000D01*
X312327Y418000D02*
Y439673D01*
X317000Y382000D02*
X328285Y370715D01*
X440000Y289000D02*
Y312909D01*
X437000Y288000D02*
Y307000D01*
X323000Y404212D02*
Y422000D01*
X328937Y377063D02*
X330000Y376000D01*
X338000D01*
X317000Y382000D02*
Y422000D01*
X442953Y290053D02*
Y326047D01*
X446000Y284000D02*
Y329000D01*
X445000Y412000D02*
X449000Y408000D01*
X409900Y447100D02*
X415000Y442000D01*
X449000Y373000D02*
Y408000D01*
X406750Y451000D02*
X409900Y447850D01*
Y447100D02*
Y447850D01*
X409000Y379000D02*
X415000D01*
X413967Y372000D02*
X416000Y372000D01*
X374440Y365030D02*
X378950Y369539D01*
X408000Y491000D02*
X409163Y489837D01*
X435171Y463829D02*
X436000Y463000D01*
Y444000D02*
X456000Y424000D01*
Y371000D02*
X461000Y366000D01*
X456000Y371000D02*
Y424000D01*
X449000Y373000D02*
X458000Y364000D01*
Y289000D02*
Y364000D01*
X407500Y389500D02*
X412755D01*
X436000Y444000D02*
Y463000D01*
X453500Y352500D02*
X455000Y351000D01*
Y290000D02*
Y351000D01*
X415000Y379000D02*
X451900Y342100D01*
Y289700D02*
Y342100D01*
X424219Y364005D02*
X426057D01*
X440765Y349297D02*
X442604Y347458D01*
X426441Y353357D02*
X428279Y353357D01*
X435250Y352974D02*
Y354812D01*
X428279Y353357D02*
X431573Y356651D01*
X439310Y342326D02*
X442604Y345620D01*
Y347458D01*
X419087Y360711D02*
X420925Y360711D01*
X426057Y364005D02*
X427896Y362166D01*
X441149Y338649D02*
X442987Y338649D01*
X433411Y356651D02*
X435250Y354812D01*
X438927Y349297D02*
X440765D01*
X431956Y349680D02*
X435250Y352974D01*
X447088Y340912D02*
X449000Y339000D01*
X439310Y340488D02*
X439310Y342326D01*
X449000Y289100D02*
Y339000D01*
X427896Y360328D02*
Y362166D01*
X424602Y357034D02*
X427896Y360328D01*
X431956Y347842D02*
X433795Y346003D01*
X435633Y346003D02*
X438927Y349297D01*
X445250Y340912D02*
X447088Y340912D01*
X439310Y340488D02*
X441149Y338649D01*
X417248Y362550D02*
X419087Y360711D01*
X424602Y355196D02*
X424602Y357034D01*
X424602Y355196D02*
X426441Y353357D01*
X431573Y356651D02*
X433411D01*
X449000Y289100D02*
X449100Y289000D01*
X431956Y347842D02*
X431956Y349680D01*
X433795Y346003D02*
X435633Y346003D01*
X442987Y338649D02*
X445250Y340912D01*
X420925Y360711D02*
X424219Y364005D01*
X370502Y367129D02*
X372602Y365030D01*
X370502Y367129D02*
Y368446D01*
X379318Y377261D02*
Y377268D01*
X370502Y368446D02*
X379318Y377261D01*
Y377268D02*
X379607Y377558D01*
X377479Y380946D02*
X379256Y379169D01*
X372602Y365030D02*
X374440Y365030D01*
X379256Y379169D02*
X379607Y378818D01*
X367086Y372384D02*
X375648Y380946D01*
X363410Y376061D02*
X371968Y384619D01*
X370125Y388299D02*
X371964Y386461D01*
X371964Y384622D02*
X371964Y386461D01*
X359733Y379738D02*
X368291Y388296D01*
X368287Y388299D02*
X370125Y388299D01*
X356055Y381576D02*
X357894Y379738D01*
X356056Y383414D02*
X362901Y390260D01*
X360000Y395000D02*
X362901Y392099D01*
X362901Y390260D02*
X362901Y392099D01*
X363409Y374222D02*
X363410Y376061D01*
X365248Y372384D02*
X367086Y372384D01*
X360000Y395000D02*
Y400000D01*
X363409Y374222D02*
X365248Y372384D01*
X356055Y381576D02*
X356056Y383414D01*
X357894Y379738D02*
X359733Y379738D01*
X417248Y362550D02*
X417248Y364388D01*
X416000Y372000D02*
X419511Y368489D01*
X417248Y364388D02*
X419511Y366651D01*
X419511Y368489D01*
X460000Y287142D02*
X461000Y288142D01*
Y366000D01*
X454000Y289000D02*
X455000Y290000D01*
X454000Y284000D02*
Y289000D01*
X451200Y289000D02*
X451900Y289700D01*
X366000Y456000D02*
Y456000D01*
X407000Y390000D02*
Y401000D01*
X406000Y402000D02*
X407000Y401000D01*
X446000Y284000D02*
X446000Y284000D01*
X442900Y290000D02*
X442953Y290053D01*
X437000Y288000D02*
X438000Y287000D01*
Y284000D02*
Y287000D01*
X438000Y284000D02*
X438000Y284000D01*
X426900Y289440D02*
X426950Y289490D01*
X430000Y284000D02*
X430000Y284000D01*
X434000Y280000D02*
X438000Y276000D01*
X270000Y487000D02*
X273000Y490000D01*
X292978Y442000D02*
X296537Y438440D01*
X288000Y440000D02*
X290000Y442000D01*
X292978D01*
X298000Y442000D02*
X310000D01*
X292000Y446000D02*
X292310Y445690D01*
X294310D01*
X298000Y442000D01*
X297000Y427000D02*
X300000Y430000D01*
X320375Y453029D02*
X323404Y450000D01*
X320375Y453029D02*
Y455625D01*
X336375Y451625D02*
Y454221D01*
X314943Y457250D02*
X318750D01*
X320375Y455625D01*
X334000Y450000D02*
X336000Y448000D01*
X336375Y451625D02*
X338000Y450000D01*
X323404D02*
X334000D01*
X328000Y459352D02*
X330102Y457250D01*
X333346D01*
X312327Y461077D02*
X314240Y459163D01*
Y457953D02*
X314943Y457250D01*
X314240Y457953D02*
Y459163D01*
X310000Y442000D02*
X312327Y439673D01*
X311625Y444375D02*
Y448375D01*
X314000Y442000D02*
X317000D01*
X311625Y444375D02*
X314000Y442000D01*
X306000Y450000D02*
X310000D01*
X311625Y448375D01*
X313524Y450476D02*
X317524D01*
X319500Y442500D02*
Y448500D01*
X317524Y450476D02*
X319500Y448500D01*
X311547Y452453D02*
Y458453D01*
Y452453D02*
X313524Y450476D01*
X273000Y490000D02*
X322000D01*
X344000Y277000D02*
X351000D01*
X264500Y341000D02*
X274000D01*
X340000Y275000D01*
Y272000D02*
Y275000D01*
X423496Y271100D02*
X426000D01*
X422046Y272550D02*
X423496Y271100D01*
X419450Y272550D02*
X422046D01*
X418000Y274000D02*
X419450Y272550D01*
X433192Y265808D02*
X435000Y264000D01*
X446978D01*
X453560Y260440D02*
X454000Y260000D01*
X450537Y260440D02*
X453560D01*
X446978Y264000D02*
X450537Y260440D01*
X398000Y276000D02*
X402000Y280000D01*
X410000Y280000D02*
Y297000D01*
X406000Y276000D02*
X410000Y280000D01*
X394000Y280000D02*
Y297000D01*
X378000Y280000D02*
Y297000D01*
Y280000D02*
X382000Y276000D01*
X345000Y264000D02*
X350000D01*
X342000Y261000D02*
X350000D01*
X351000Y260000D02*
X366000D01*
X350000Y261000D02*
X351000Y260000D01*
X339000Y258000D02*
X349000D01*
X278000Y325000D02*
X342000Y261000D01*
X349000Y258000D02*
X350000Y257000D01*
X280000Y317000D02*
X339000Y258000D01*
X197000Y265000D02*
X201000D01*
X214000Y278000D02*
Y282000D01*
X201000Y265000D02*
X214000Y278000D01*
X174000Y242000D02*
X197000Y265000D01*
X277000Y313000D02*
X335100Y254900D01*
X201000Y313000D02*
X215863D01*
X293080Y283000D02*
X301000D01*
X215000D02*
X215539D01*
X215000Y247000D02*
X215900D01*
X145000Y226000D02*
X194000D01*
X215000Y247000D01*
X318900D02*
X349000D01*
X303951Y272000D02*
X306000D01*
X214000Y270000D02*
X215767Y271767D01*
X107000Y321000D02*
X114000Y328000D01*
X118256D01*
X33000Y274000D02*
Y313000D01*
X34000Y259000D02*
X53000Y240000D01*
X207499Y255499D02*
X214084Y262084D01*
X33000Y164000D02*
X74000Y123000D01*
X280000D02*
X327000Y170000D01*
X74000Y123000D02*
X280000D01*
X33000Y164000D02*
Y196000D01*
X15000Y200000D02*
X29000D01*
X33000Y196000D01*
X13000Y202000D02*
X15000Y200000D01*
X13000Y202000D02*
Y218000D01*
X225000Y341000D02*
X226500D01*
X25000Y247000D02*
X45000Y227000D01*
X25000Y247000D02*
Y318000D01*
X29000Y254000D02*
X47000Y236000D01*
X216000Y337000D02*
X272000D01*
X345000Y264000D01*
X213000Y340000D02*
X216000Y337000D01*
X199000Y317000D02*
X280000D01*
X273066Y325000D02*
X278000D01*
X188000Y328000D02*
X199000Y317000D01*
X59000Y339000D02*
X60000Y340000D01*
X33000Y313000D02*
X33500Y313500D01*
X60000Y340000D02*
X213000D01*
X100000Y325000D02*
X109000Y334000D01*
X189000D01*
X194000Y329000D01*
X100000Y307000D02*
Y325000D01*
X198000Y273000D02*
X199000Y274000D01*
X187000Y262000D02*
X188500Y263500D01*
X199000Y274000D02*
X199000Y275215D01*
X199018Y311018D02*
X201000Y313000D01*
X155000Y262000D02*
X187000D01*
X214000Y282000D02*
X215000Y283000D01*
X306000Y272000D02*
X328900Y249100D01*
X214000Y262169D02*
Y270000D01*
Y262169D02*
X214084Y262084D01*
X301000Y283000D02*
X332000Y252000D01*
X183000Y231000D02*
X184000Y232000D01*
X152000Y242000D02*
X174000D01*
X182000Y231000D02*
X183000D01*
X143750D02*
X149000D01*
X123050Y236000D02*
X146000D01*
X152000Y242000D01*
X132000Y240000D02*
X140000D01*
X150000Y257000D02*
X155000Y262000D01*
X140000Y240000D02*
X150000Y250000D01*
Y257000D01*
X45000Y227000D02*
X65000D01*
X47000Y236000D02*
X72000D01*
X29000Y254000D02*
Y315000D01*
X15500Y220500D02*
X80500D01*
X13000Y218000D02*
X15500Y220500D01*
X355000Y185000D02*
X362000Y192000D01*
X327000Y174000D02*
X338000Y185000D01*
X327000Y170000D02*
Y174000D01*
X338000Y185000D02*
X355000D01*
X132000Y224000D02*
X143000D01*
X145000Y226000D01*
X231126Y204000D02*
X235000D01*
X261000Y230000D02*
X325000D01*
X235000Y204000D02*
X261000Y230000D01*
X232000Y189000D02*
X237629Y194629D01*
X268000Y225000D02*
X268000Y225000D01*
X249495Y187495D02*
X252495D01*
X285000Y220000D02*
X327000D01*
X252495Y187495D02*
X285000Y220000D01*
X244000Y164000D02*
X260137Y180137D01*
X294000Y214000D02*
X295000Y215000D01*
X255000Y158000D02*
X306000Y209000D01*
X240000Y158000D02*
X255000D01*
X306000Y209000D02*
X334000D01*
X328400Y187400D02*
X333000Y192000D01*
X273000Y132000D02*
X275419Y134419D01*
X110000Y132000D02*
X273000D01*
X354000Y192000D02*
X366000Y204000D01*
X333000Y192000D02*
X354000D01*
X362000D02*
X369000D01*
X92000Y150000D02*
X110000Y132000D01*
X92000Y150000D02*
Y184000D01*
X96000Y156000D02*
X112000Y140000D01*
X93000Y204000D02*
X101000Y196000D01*
Y161000D02*
X115000Y147000D01*
X101000Y161000D02*
Y196000D01*
X96000Y156000D02*
Y187000D01*
X258000Y147000D02*
X267329Y156329D01*
X306500Y195500D02*
X315000Y204000D01*
X115000Y147000D02*
X258000D01*
X315000Y204000D02*
X354000D01*
X111673Y158000D02*
X123079D01*
X107000Y187000D02*
X109000Y189000D01*
X107000Y162673D02*
Y187000D01*
X109000Y189000D02*
X113000D01*
X116000Y192000D01*
X107000Y162673D02*
X111673Y158000D01*
X334000Y209000D02*
X337000Y212000D01*
X366000D01*
X354000Y204000D02*
X358900Y208900D01*
X295000Y215000D02*
X333000D01*
X146000Y164000D02*
X244000D01*
X130000Y180000D02*
X146000Y164000D01*
X149000Y175000D02*
X152000D01*
X229272Y189000D02*
X232000D01*
X268000Y225000D02*
X326000D01*
X144000Y189000D02*
X162000D01*
X136700Y196300D02*
X144000Y189000D01*
X325000Y230000D02*
X333200Y238200D01*
X109000Y204000D02*
X162000D01*
X317009Y237000D02*
X327000D01*
X237917D02*
X238000D01*
X134000Y210000D02*
X141029D01*
X132000Y208000D02*
X134000Y210000D01*
X207385D02*
X210000D01*
X326000Y225000D02*
X336950Y235950D01*
X223000Y241000D02*
X326000D01*
X199000Y220000D02*
X200000Y221000D01*
X92997Y226003D02*
X111000Y208000D01*
X92997Y226003D02*
Y226997D01*
X95003Y229003D01*
X95997D01*
X105000Y220000D01*
X198793D02*
X199000D01*
X105000D02*
X140874D01*
X111000Y208000D02*
X116000D01*
X80052Y191102D02*
Y193554D01*
X81749Y195251D01*
X81750Y195250D02*
X87750D01*
X81749Y195251D02*
X81750Y195250D01*
X71500Y188500D02*
X77450D01*
X68000Y192000D02*
X71500Y188500D01*
X340000Y272000D02*
X345000Y267000D01*
X65000Y227000D02*
X68000Y224000D01*
X53000Y240000D02*
X68000D01*
X96000Y303000D02*
X100000Y307000D01*
X107000Y303000D02*
Y321000D01*
X102000Y227000D02*
Y298000D01*
X107000Y303000D01*
X102000Y227000D02*
X105000Y224000D01*
X96000Y246000D02*
Y303000D01*
X84000Y240000D02*
X90000D01*
X96000Y246000D01*
X88440Y256440D02*
X92000Y260000D01*
X84440Y256440D02*
X88440D01*
X89650Y285650D02*
X92000Y288000D01*
X86000Y278000D02*
X92000D01*
X84000Y280000D02*
X86000Y278000D01*
X128750Y227250D02*
X140000D01*
X143750Y231000D01*
X328900Y249100D02*
X349900D01*
X332000Y252000D02*
X366000D01*
X335100Y254900D02*
X350000D01*
X345000Y267000D02*
X350000D01*
X366000Y252000D02*
X366000Y252000D01*
X354000Y268000D02*
X366000D01*
X350000Y272000D02*
X354000Y268000D01*
X346000Y287000D02*
X352500Y280500D01*
X346000Y287000D02*
Y288750D01*
X369000Y192000D02*
X370000Y193000D01*
Y204000D01*
X360000Y233000D02*
X360100Y232900D01*
X340000Y233000D02*
X360000D01*
X342900Y230900D02*
X350100D01*
X327000Y220000D02*
X340000Y233000D01*
X352000Y229000D02*
X360000D01*
X350100Y230900D02*
X352000Y229000D01*
X333200Y238200D02*
X363604D01*
X364354Y238950D01*
X336950Y235950D02*
X365950D01*
X329000Y244000D02*
X366000D01*
X326000Y241000D02*
X329000Y244000D01*
X340000Y222000D02*
Y228000D01*
X333000Y215000D02*
X340000Y222000D01*
Y228000D02*
X342900Y230900D01*
X327000Y237000D02*
X331000Y241000D01*
X361000D01*
X124000Y232000D02*
X128750Y227250D01*
X366000Y244000D02*
X366000Y244000D01*
X349900Y249100D02*
X350000Y249000D01*
X119490Y239560D02*
X123050Y236000D01*
X130750Y196300D02*
X136700D01*
X87750Y195250D02*
X96000Y187000D01*
X84000Y192000D02*
X92000Y184000D01*
X68000Y208000D02*
X68440Y208440D01*
X71462D02*
X75022Y212000D01*
X68440Y208440D02*
X71462D01*
X127490Y199560D02*
X130750Y196300D01*
X132000Y192000D02*
X149000Y175000D01*
X462000Y138000D02*
Y156000D01*
X837000Y57000D02*
Y132000D01*
X833000Y53000D02*
X837000Y57000D01*
X680297Y75000D02*
X681000Y74297D01*
Y31000D02*
Y74297D01*
X673000Y124000D02*
X673000Y124000D01*
X606000Y256000D02*
Y269000D01*
X360000Y462000D02*
X366000Y456000D01*
X111000Y293000D02*
Y300000D01*
X369999Y279999D02*
X374597D01*
X346000Y272000D02*
X350000D01*
X124000Y264000D02*
X132000Y272000D01*
X365950Y235950D02*
X366000Y236000D01*
X116000Y240000D02*
X116440Y239560D01*
X119490D01*
X357000Y143000D02*
Y169000D01*
X351000Y137000D02*
X357000Y143000D01*
X461809Y160450D02*
Y163809D01*
X461854Y171854D02*
X462000Y172000D01*
X461854Y168450D02*
Y171854D01*
X458750Y165346D02*
X461854Y168450D01*
X458750Y162750D02*
Y165346D01*
X461809Y163809D02*
X462000Y164000D01*
X474000Y184000D02*
X478000Y188000D01*
X749000Y321000D02*
X749199Y320801D01*
X503000Y224000D02*
X515000Y212000D01*
X678001Y28001D02*
X681000Y31000D01*
X672999Y28001D02*
X678001D01*
X817500Y52550D02*
X817950Y53000D01*
X833000D01*
X689000Y160000D02*
X696000D01*
X689000D02*
Y173000D01*
X817500Y85050D02*
X817550Y85000D01*
X826000D01*
X816450Y128000D02*
X817500Y129050D01*
X689000Y124000D02*
X696000D01*
X689000Y111000D02*
X689000Y111000D01*
X689000Y111000D02*
Y124000D01*
X816450Y117000D02*
X817500Y118050D01*
X688999Y85001D02*
Y97999D01*
X689000Y98000D01*
X809050Y107050D02*
X817500D01*
X809000Y107000D02*
X809050Y107050D01*
X689000Y54000D02*
Y67000D01*
X816450Y62000D02*
X817500Y63050D01*
X769000Y62000D02*
X816450D01*
X689000Y41000D02*
X748000D01*
X769000Y62000D01*
X688999Y28001D02*
Y40999D01*
X689000Y41000D01*
X370750Y176750D02*
X374000Y180000D01*
X364750Y176750D02*
X370750D01*
X357000Y169000D02*
X364750Y176750D01*
X352000Y174000D02*
X366000Y188000D01*
X342000Y174000D02*
X352000D01*
X470000Y172000D02*
X470146Y171854D01*
X470000Y138000D02*
Y156000D01*
X470146Y168450D02*
Y171854D01*
X478000Y196000D02*
X478146Y195854D01*
X470000Y212000D02*
X474000Y216000D01*
X494000Y212000D02*
X503000D01*
X478000Y236000D02*
X478440Y235560D01*
X502000Y232000D02*
X519000Y215000D01*
X482000Y243000D02*
Y248000D01*
Y243000D02*
X485000Y240000D01*
X478000Y252000D02*
X482000Y248000D01*
X486000Y252000D02*
X490000Y248000D01*
X295250Y457250D02*
X301346D01*
X303673Y454923D01*
Y452327D02*
Y454923D01*
Y452327D02*
X306000Y450000D01*
X292000Y454000D02*
X295250Y457250D01*
X340000Y454000D02*
Y454000D01*
X336453Y457547D02*
X340000Y454000D01*
X344000Y453404D02*
Y463000D01*
X347854Y446146D02*
X348000Y446000D01*
X347854Y446146D02*
Y449550D01*
X344000Y453404D02*
X347854Y449550D01*
X348000Y462000D02*
X360000D01*
X302000Y434000D02*
X303250Y432750D01*
X296000Y434000D02*
X302000D01*
X292000Y438000D02*
X296000Y434000D01*
X299560Y438440D02*
X300000Y438000D01*
X296537Y438440D02*
X299560D01*
X308000Y462000D02*
X311547Y458453D01*
X333346Y457250D02*
X336375Y454221D01*
X382000Y276000D02*
Y276000D01*
X378000Y272000D02*
Y276596D01*
X374597Y279999D02*
X378000Y276596D01*
X352500Y280500D02*
X361500D01*
X366000Y276000D01*
X378000Y272000D02*
X382000Y268000D01*
X363000Y287000D02*
Y297150D01*
Y287000D02*
X366000Y284000D01*
X370000Y288000D02*
X374000Y284000D01*
X386000Y272000D02*
X390000Y268000D01*
Y276000D02*
X394000Y280000D01*
X120000Y276000D02*
X124000Y280000D01*
X120000Y268000D02*
X124000Y272000D01*
X120000Y260000D02*
Y268000D01*
X106000Y256000D02*
X116000D01*
X106000Y290500D02*
X116000Y280500D01*
X106000Y290500D02*
Y291000D01*
Y276000D02*
Y281000D01*
X110000Y272000D02*
X116000D01*
X106000Y276000D02*
X110000Y272000D01*
X120000Y292000D02*
X124000Y296000D01*
X120000Y284000D02*
Y292000D01*
X124000Y288000D02*
X128000Y292000D01*
Y299999D01*
X111000Y293000D02*
X116000Y288000D01*
X86350Y285650D02*
X89650D01*
X84000Y288000D02*
X86350Y285650D01*
X80000Y260000D02*
X84000Y264000D01*
X72000Y268000D02*
X76000Y264000D01*
X76000Y272000D02*
X80000Y275999D01*
X80000D01*
X72000Y284000D02*
X76000Y280000D01*
X76149Y288000D02*
X80148Y292000D01*
X80297D01*
X75500Y296000D02*
X76000D01*
X71500Y300000D02*
X75500Y296000D01*
X71000Y300000D02*
X71500D01*
X370000Y224000D02*
Y224000D01*
X410500Y263500D02*
X414000Y260000D01*
X398000D02*
Y260000D01*
X394000Y264000D02*
X398000Y260000D01*
X394000Y272000D02*
X398000Y268000D01*
Y268000D02*
Y268000D01*
X77450Y188500D02*
X80052Y191102D01*
X75022Y212000D02*
X101000D01*
X109000Y204000D01*
X370000Y224000D02*
X374000Y228000D01*
X72000Y212000D02*
X76000Y216000D01*
X44000Y212000D02*
X72000D01*
X378000Y256000D02*
X383000D01*
X386000Y253000D01*
Y249000D02*
Y253000D01*
Y249000D02*
X387000Y248000D01*
X382000Y220000D02*
X386000Y224000D01*
X72000Y236000D02*
X76000Y232000D01*
X105000Y224000D02*
X116000D01*
X80000Y204000D02*
X93000D01*
X76000Y200000D02*
X80000Y204000D01*
X76000Y216000D02*
X76440Y216440D01*
X80500Y220500D02*
X84000Y224000D01*
X123000Y180000D02*
X130000D01*
X120500Y182500D02*
X123000Y180000D01*
X107000Y195000D02*
X112048D01*
X112298Y195250D01*
X117346D01*
X120500Y192096D01*
Y182500D02*
Y192096D01*
X84000Y208000D02*
X94000D01*
X107000Y195000D01*
X124000Y200000D02*
X124440Y199560D01*
X127490D01*
X76000Y168000D02*
Y184000D01*
X374000Y196000D02*
Y196000D01*
Y196000D02*
X377999Y192000D01*
Y192000D02*
Y192000D01*
X382000Y268000D02*
Y268000D01*
X390000Y268000D02*
Y268000D01*
X402000Y272000D02*
X406000Y268000D01*
X378000Y184000D02*
X382000Y188000D01*
X378000Y184000D02*
Y184000D01*
X374000Y228000D02*
Y228000D01*
X406000Y268000D02*
Y268000D01*
Y260000D02*
Y260000D01*
X402000Y264000D02*
X406000Y260000D01*
D81*
X489000Y27000D02*
X514900D01*
X517300Y24600D01*
X829000Y193000D02*
Y218603D01*
Y192000D02*
Y193000D01*
X542000Y24000D02*
X560000D01*
X828402Y219201D02*
X829000Y218603D01*
X539600Y469250D02*
X543000Y465850D01*
X528750Y469250D02*
X539600D01*
D82*
X390500Y390000D02*
X391000D01*
X472000Y280000D02*
X474000Y278000D01*
X467000Y280000D02*
X472000D01*
X457100Y288100D02*
X458000Y289000D01*
X457100Y281971D02*
Y288100D01*
X458900Y286042D02*
X460000Y287142D01*
X458900Y282716D02*
Y286042D01*
Y282716D02*
X460716Y280900D01*
X407000Y390000D02*
X407500Y389500D01*
X451050Y285434D02*
Y289000D01*
X449100Y269900D02*
Y289000D01*
X450900Y271100D02*
Y285284D01*
X451050Y285434D01*
X449100Y269900D02*
X450000Y269000D01*
Y264527D02*
Y269000D01*
Y264527D02*
X450527Y264000D01*
X458000D01*
X462000Y260000D01*
X462000D01*
X442900Y279100D02*
Y290000D01*
X441100Y274716D02*
Y287900D01*
X440000Y289000D02*
X441100Y287900D01*
X426900Y279100D02*
Y289440D01*
X425100Y275900D02*
Y286900D01*
X423000Y289000D02*
X425100Y286900D01*
X320900Y426100D02*
Y441100D01*
Y426100D02*
X323000Y424000D01*
Y422000D02*
Y424000D01*
X319100Y426000D02*
Y439900D01*
X317000Y423900D02*
X319100Y426000D01*
X317000Y422000D02*
Y423900D01*
X426000Y271100D02*
X431284D01*
X433100Y266108D02*
Y269284D01*
X431284Y271100D02*
X433100Y269284D01*
Y272900D02*
X438000Y268000D01*
X428100Y272900D02*
X433100D01*
X425100Y275900D02*
X428100Y272900D01*
X350000Y264000D02*
X350900Y263100D01*
X370900D01*
X370000Y204000D02*
Y205000D01*
X374000Y209000D02*
Y212000D01*
X370000Y205000D02*
X374000Y209000D01*
X353154Y199000D02*
X361254Y207100D01*
X370900Y263100D02*
X374000Y260000D01*
X350000Y267000D02*
X352100Y264900D01*
X377100D01*
X382000Y260000D01*
X358000Y272000D02*
X358974D01*
X364479Y271100D02*
X367284D01*
X369100Y268527D02*
Y269284D01*
X369627Y268000D02*
X374000D01*
X360774Y270200D02*
X363579D01*
X358974Y272000D02*
X360774Y270200D01*
X363579D02*
X364479Y271100D01*
X369100Y268527D02*
X369627Y268000D01*
X367284Y271100D02*
X369100Y269284D01*
X351000Y277000D02*
X359473D01*
X386393Y232393D02*
X390000Y236000D01*
X386393Y228009D02*
Y232393D01*
X382516Y224900D02*
X383284D01*
X378900Y221284D02*
X382516Y224900D01*
X369100Y210716D02*
Y215100D01*
X370900Y216900D02*
X375284D01*
X369100Y215100D02*
X370900Y216900D01*
X358900Y208900D02*
X367284D01*
X361254Y207100D02*
X368100D01*
X370900Y209900D01*
Y213284D01*
X367284Y208900D02*
X369100Y210716D01*
X377100Y231100D02*
X382000Y236000D01*
X363396Y231100D02*
X377100D01*
X360100Y232900D02*
X367598D01*
X360000Y229000D02*
X361296D01*
X363396Y231100D01*
X364460Y238844D02*
X364716Y239100D01*
X361000Y241000D02*
X361100Y240900D01*
X370900D01*
X374000Y244000D01*
X364716Y239100D02*
X385100D01*
X362092Y247000D02*
X362192Y247100D01*
X375284D01*
X349000Y247000D02*
X362092D01*
X375284Y247100D02*
X378384Y244000D01*
X350000Y255000D02*
X362592D01*
X350100Y248900D02*
X367284D01*
X367484Y249100D01*
X350000Y249000D02*
X350100Y248900D01*
X362592Y255000D02*
X362692Y255100D01*
X375284D01*
X378384Y252000D01*
X350000Y257000D02*
X350100Y256900D01*
X377100D01*
X457100Y281971D02*
X459970Y279100D01*
X463284D01*
X466384Y276000D01*
X460716Y280900D02*
X466100D01*
X467000Y280000D01*
X466384Y276000D02*
X470000D01*
Y268000D02*
X474000Y272000D01*
Y278000D01*
X319500Y442500D02*
X320900Y441100D01*
X317000Y442000D02*
X319100Y439900D01*
X426900Y279100D02*
X430000Y276000D01*
X450900Y271100D02*
X454000Y268000D01*
X441000Y273000D02*
X446000Y268000D01*
X441000Y273000D02*
Y274616D01*
X441100Y274716D01*
X442900Y279100D02*
X446000Y276000D01*
X363354Y272900D02*
X370100D01*
X371764Y271236D01*
X360000Y276255D02*
Y276473D01*
X359473Y277000D02*
X360000Y276473D01*
Y276255D02*
X363354Y272900D01*
X385000Y264000D02*
X386000Y263000D01*
X378000Y267616D02*
Y268473D01*
X375236Y271236D02*
X378000Y268473D01*
X371764Y271236D02*
X375236D01*
X381616Y264000D02*
X385000D01*
X378000Y267616D02*
X381616Y264000D01*
X386000Y256000D02*
Y263000D01*
X370384Y220000D02*
X374000D01*
X366384Y216000D02*
X370384Y220000D01*
X370900Y213284D02*
X372716Y215100D01*
X375284D01*
X375319Y215065D02*
X376065D01*
X378900Y217900D01*
X375284Y215100D02*
X375319Y215065D01*
X378900Y217900D02*
Y221284D01*
X375284Y216900D02*
X377100Y218716D01*
Y223100D02*
X382000Y228000D01*
X377100Y218716D02*
Y223100D01*
X361000Y216000D02*
X366384D01*
X383284Y224900D02*
X386393Y228009D01*
X377100Y256900D02*
X378000Y256000D01*
X386000Y256000D02*
X390000Y252000D01*
X385100Y239100D02*
X390000Y244000D01*
X378384Y252000D02*
X382000D01*
Y188000D02*
Y188000D01*
X367484Y249100D02*
X371100D01*
X378384Y244000D02*
X382000D01*
X371100Y249100D02*
X374000Y252000D01*
X367598Y232900D02*
X370698Y236000D01*
X374000D01*
D83*
X126500Y442000D02*
X138000D01*
X716300Y450000D02*
X728000D01*
X516300D02*
X528000D01*
D84*
X138000Y442000D02*
X161000D01*
D85*
X501835Y460326D02*
Y471165D01*
X500000Y473000D02*
Y483250D01*
Y473000D02*
X501835Y471165D01*
X505000Y471000D02*
X506500Y472500D01*
X505000Y460326D02*
Y471000D01*
X506500Y472500D02*
Y483250D01*
X505826Y459500D02*
X512500D01*
X505000Y460326D02*
X505826Y459500D01*
X706500Y473500D02*
Y483250D01*
X704765Y460326D02*
Y471765D01*
X706500Y473500D01*
X700000Y473436D02*
X701835Y471601D01*
Y460326D02*
Y471601D01*
X518965Y405965D02*
X525000Y412000D01*
X518965Y334871D02*
Y405965D01*
X525000Y412000D02*
X697214D01*
X704765Y419551D01*
X518965Y334871D02*
X519791Y334045D01*
X520955D01*
X524000Y331000D01*
X704765Y460326D02*
X705591Y459500D01*
X704765Y450465D02*
X713800Y459500D01*
X705591D02*
X713800D01*
X704765Y419551D02*
Y450465D01*
X516035Y334871D02*
Y407179D01*
X523786Y414930D01*
X696000D01*
X701835Y420765D01*
X511000Y331000D02*
X514045Y334045D01*
X515209D01*
X516035Y334871D01*
X690300Y459500D02*
X692800D01*
X701835Y450465D01*
X692800Y459500D02*
X701009D01*
X701835Y460326D01*
Y420765D02*
Y450465D01*
X700000Y473436D02*
Y483250D01*
X504765Y372765D02*
Y450465D01*
X486965Y354965D02*
X504765Y372765D01*
X484035Y356179D02*
X501835Y373979D01*
Y450465D01*
X488955Y334045D02*
X492000Y331000D01*
X487791Y334045D02*
X488955D01*
X486965Y334871D02*
Y354965D01*
Y334871D02*
X487791Y334045D01*
X513800Y459500D02*
X516300D01*
X504765Y450465D02*
X513800Y459500D01*
X501009D02*
X501835Y460326D01*
X492800Y459500D02*
X501009D01*
X492800D02*
X501835Y450465D01*
X490300Y459500D02*
X492800D01*
X484035Y334871D02*
Y356179D01*
X483209Y334045D02*
X484035Y334871D01*
X482045Y334045D02*
X483209D01*
X479000Y331000D02*
X482045Y334045D01*
X520955Y311955D02*
X524000Y315000D01*
X514045Y311955D02*
X515209D01*
X516035Y304035D02*
Y311129D01*
X482395Y283650D02*
Y291395D01*
X488000Y297000D01*
X478400Y279655D02*
X482395Y283650D01*
X478000Y276000D02*
X478400Y276400D01*
Y279655D01*
X486787Y299930D02*
X511930D01*
X479465Y285871D02*
Y292608D01*
X486787Y299930D01*
X478000Y284406D02*
X479465Y285871D01*
X478000Y284000D02*
Y284406D01*
X518965Y311129D02*
X519791Y311955D01*
X520955D01*
X488000Y297000D02*
X513144D01*
X511930Y299930D02*
X516035Y304035D01*
X518965Y302821D02*
Y311129D01*
X511000Y315000D02*
X514045Y311955D01*
X515209D02*
X516035Y311129D01*
X513144Y297000D02*
X518965Y302821D01*
X464535Y315722D02*
X473294Y324481D01*
X464535Y286535D02*
Y315722D01*
X467465Y286535D02*
Y314508D01*
X482045Y318045D02*
X483209D01*
X484035Y318871D01*
Y320725D01*
X487791Y318045D02*
X488955D01*
X486965Y318871D02*
X487791Y318045D01*
X486965Y318871D02*
Y321939D01*
X484423Y324481D02*
X486965Y321939D01*
X462000Y284000D02*
X464535Y286535D01*
X483209Y321551D02*
X484035Y320725D01*
X474508Y321551D02*
X483209D01*
X467465Y314508D02*
X474508Y321551D01*
X467465Y286535D02*
X470000Y284000D01*
X488955Y318045D02*
X492000Y315000D01*
X473294Y324481D02*
X484423D01*
X479000Y315000D02*
X482045Y318045D01*
D86*
X520000Y488500D02*
D03*
X480000D02*
D03*
X720000D02*
D03*
X680000D02*
D03*
D87*
X86000Y480000D02*
D03*
X560000Y24000D02*
D03*
X192000Y470000D02*
D03*
X690000Y430000D02*
D03*
X490000D02*
D03*
X668000D02*
D03*
X468000D02*
D03*
X744000Y424000D02*
D03*
X668000Y470000D02*
D03*
X468000D02*
D03*
X544000Y424000D02*
D03*
X74000Y42000D02*
D03*
X62000D02*
D03*
X118000Y102000D02*
D03*
X130000Y114000D02*
D03*
X714000Y378000D02*
D03*
X726000D02*
D03*
X658000Y306000D02*
D03*
X656000Y470000D02*
D03*
X456000D02*
D03*
X718000Y336000D02*
D03*
X70000Y84000D02*
D03*
X80000D02*
D03*
X708000Y336000D02*
D03*
X646000Y306000D02*
D03*
X142000Y114000D02*
D03*
X174000D02*
D03*
X96000Y458000D02*
D03*
X755000Y500000D02*
D03*
Y520000D02*
D03*
X645000Y500000D02*
D03*
Y520000D02*
D03*
X555000Y500000D02*
D03*
Y520000D02*
D03*
X445000D02*
D03*
Y500000D02*
D03*
X728000Y450000D02*
D03*
X754000Y424000D02*
D03*
X733000D02*
D03*
X656000Y459000D02*
D03*
Y441000D02*
D03*
X528000Y450000D02*
D03*
X554000Y424000D02*
D03*
X533000D02*
D03*
X456000Y459000D02*
D03*
X480000Y430000D02*
D03*
X667000Y326000D02*
D03*
Y314000D02*
D03*
X632000Y306000D02*
D03*
X726000Y350000D02*
D03*
Y366000D02*
D03*
X62000Y54000D02*
D03*
Y72000D02*
D03*
X158000Y114000D02*
D03*
X118000D02*
D03*
X41000Y432000D02*
D03*
X116000Y393000D02*
D03*
X99000D02*
D03*
X82000D02*
D03*
X65000D02*
D03*
X111000Y431000D02*
D03*
X99000D02*
D03*
X82000D02*
D03*
X65000D02*
D03*
X178000Y467000D02*
D03*
X161000D02*
D03*
X144000D02*
D03*
X161000Y505000D02*
D03*
X144000D02*
D03*
X129000D02*
D03*
X178000D02*
D03*
M02*
