G04*
G04 #@! TF.GenerationSoftware,Altium Limited,Altium Designer,20.0.13 (296)*
G04*
G04 Layer_Color=16711833*
%FSLAX44Y44*%
%MOMM*%
G71*
G01*
G75*
%ADD10C,0.2000*%
%ADD14C,0.2540*%
%ADD81C,0.5000*%
%ADD147C,0.8000*%
%ADD148C,0.1524*%
D10*
X800000Y490000D02*
X820000D01*
X810000Y480000D02*
Y500000D01*
D14*
X0Y-50000D02*
X15240Y-44920D01*
X0Y-50000D02*
X15240Y-55080D01*
X844760D02*
X860000Y-50000D01*
X844760Y-44920D02*
X860000Y-50000D01*
X0D02*
X374897D01*
X476975D02*
X860000D01*
X0Y-52540D02*
Y24960D01*
X860000Y-52540D02*
Y24960D01*
X-50000Y540000D02*
X-44920Y524760D01*
X-55080D02*
X-50000Y540000D01*
X-55080Y15240D02*
X-50000Y-0D01*
X-44920Y15240D01*
X-50000Y316975D02*
Y540000D01*
Y-0D02*
Y214897D01*
X-52540Y540000D02*
X24960D01*
X-52540Y-0D02*
X24960D01*
X827678Y507678D02*
X834862Y522046D01*
X827678Y507678D02*
X842046Y514862D01*
X827678Y507678D02*
X830000Y510000D01*
X871231Y551231D01*
X785138Y457954D02*
X792322Y472322D01*
X777954Y465138D02*
X792322Y472322D01*
X774362Y454362D02*
X792322Y472322D01*
X-5582Y538397D02*
X8787Y531213D01*
X1603Y545582D02*
X8787Y531213D01*
X-50623Y590623D02*
X8787Y531213D01*
X-80007Y590623D02*
X-50623D01*
X51213Y488787D02*
X65582Y481603D01*
X51213Y488787D02*
X58397Y474418D01*
X51213Y488787D02*
X69174Y470826D01*
X734920Y505240D02*
X740000Y490000D01*
X745080Y505240D01*
X740000Y540000D02*
X745080Y524760D01*
X734920D02*
X740000Y540000D01*
Y490000D02*
Y515000D01*
Y540000D01*
X737460Y490000D02*
X796460D01*
X737460Y540000D02*
X824960D01*
X810000Y420000D02*
X825240Y425080D01*
X810000Y420000D02*
X825240Y414920D01*
X844760D02*
X860000Y420000D01*
X844760Y425080D02*
X860000Y420000D01*
X810000D02*
X835000D01*
X860000D01*
X810000Y417460D02*
Y476460D01*
X860000Y417460D02*
Y504960D01*
D81*
X30000Y540000D02*
G03*
X0Y510000I0J-30000D01*
G01*
X860000D02*
G03*
X830000Y540000I-30000J0D01*
G01*
X0Y30000D02*
G03*
X30000Y0I30000J0D01*
G01*
X830000D02*
G03*
X860000Y30000I0J30000D01*
G01*
X835000Y490000D02*
G03*
X835000Y490000I-25000J0D01*
G01*
X860000Y30000D02*
Y510000D01*
X-0Y30000D02*
X-0Y510000D01*
X30000Y-0D02*
X830000Y0D01*
X30000Y540000D02*
X830000Y540000D01*
D147*
X-113000Y708316D02*
Y668329D01*
X-86342D01*
X-73013D02*
X-59684D01*
X-66348D01*
Y694987D01*
X-73013D01*
X-39690Y668329D02*
Y694987D01*
X-19697D01*
X-13032Y688323D01*
Y668329D01*
X297Y694987D02*
Y674994D01*
X6961Y668329D01*
X26955D01*
Y694987D01*
X40284D02*
X66942Y668329D01*
X53613Y681658D01*
X66942Y694987D01*
X40284Y668329D01*
X146916Y701652D02*
X140251Y708316D01*
X126922D01*
X120258Y701652D01*
Y674994D01*
X126922Y668329D01*
X140251D01*
X146916Y674994D01*
X166910Y694987D02*
X180238D01*
X186903Y688323D01*
Y668329D01*
X166910D01*
X160245Y674994D01*
X166910Y681658D01*
X186903D01*
X200232Y655000D02*
Y694987D01*
X220226D01*
X226890Y688323D01*
Y674994D01*
X220226Y668329D01*
X200232D01*
X246884Y694987D02*
X260213D01*
X266877Y688323D01*
Y668329D01*
X246884D01*
X240219Y674994D01*
X246884Y681658D01*
X266877D01*
X280206Y708316D02*
Y668329D01*
X300200D01*
X306864Y674994D01*
Y681658D01*
Y688323D01*
X300200Y694987D01*
X280206D01*
X320193Y668329D02*
X333522D01*
X326858D01*
Y708316D01*
X320193D01*
X373509Y668329D02*
X360180D01*
X353516Y674994D01*
Y688323D01*
X360180Y694987D01*
X373509D01*
X380174Y688323D01*
Y681658D01*
X353516D01*
X433490Y708316D02*
Y668329D01*
X453484D01*
X460148Y674994D01*
Y681658D01*
X453484Y688323D01*
X433490D01*
X453484D01*
X460148Y694987D01*
Y701652D01*
X453484Y708316D01*
X433490D01*
X473477Y694987D02*
Y674994D01*
X480141Y668329D01*
X500135D01*
Y694987D01*
X513464Y668329D02*
X533458D01*
X540122Y674994D01*
X533458Y681658D01*
X520129D01*
X513464Y688323D01*
X520129Y694987D01*
X540122D01*
X553451Y668329D02*
X566780D01*
X560116D01*
Y694987D01*
X553451D01*
X586774Y668329D02*
Y694987D01*
X606767D01*
X613432Y688323D01*
Y668329D01*
X646754D02*
X633425D01*
X626761Y674994D01*
Y688323D01*
X633425Y694987D01*
X646754D01*
X653419Y688323D01*
Y681658D01*
X626761D01*
X666748Y668329D02*
X686741D01*
X693406Y674994D01*
X686741Y681658D01*
X673412D01*
X666748Y688323D01*
X673412Y694987D01*
X693406D01*
X706735Y668329D02*
X726728D01*
X733393Y674994D01*
X726728Y681658D01*
X713399D01*
X706735Y688323D01*
X713399Y694987D01*
X733393D01*
X813367Y701652D02*
X806703Y708316D01*
X793373D01*
X786709Y701652D01*
Y674994D01*
X793373Y668329D01*
X806703D01*
X813367Y674994D01*
X833361Y694987D02*
X846690D01*
X853354Y688323D01*
Y668329D01*
X833361D01*
X826696Y674994D01*
X833361Y681658D01*
X853354D01*
X866683Y694987D02*
Y668329D01*
Y681658D01*
X873348Y688323D01*
X880012Y694987D01*
X886677D01*
X933328Y708316D02*
Y668329D01*
X913335D01*
X906670Y674994D01*
Y688323D01*
X913335Y694987D01*
X933328D01*
X283000Y608000D02*
Y647987D01*
X302994D01*
X309658Y641322D01*
Y627994D01*
X302994Y621329D01*
X283000D01*
X296329D02*
X309658Y608000D01*
X342981D02*
X329652D01*
X322987Y614664D01*
Y627994D01*
X329652Y634658D01*
X342981D01*
X349645Y627994D01*
Y621329D01*
X322987D01*
X362974Y634658D02*
X376303Y608000D01*
X389632Y634658D01*
X442948Y608000D02*
Y634658D01*
X456277Y647987D01*
X469606Y634658D01*
Y608000D01*
Y627994D01*
X442948D01*
D148*
X378961Y-46446D02*
X381500Y-43906D01*
X386579D01*
X389118Y-46446D01*
Y-48985D01*
X386579Y-51524D01*
X389118Y-54063D01*
Y-56602D01*
X386579Y-59142D01*
X381500D01*
X378961Y-56602D01*
Y-54063D01*
X381500Y-51524D01*
X378961Y-48985D01*
Y-46446D01*
X381500Y-51524D02*
X386579D01*
X404353Y-43906D02*
X399275Y-46446D01*
X394196Y-51524D01*
Y-56602D01*
X396735Y-59142D01*
X401814D01*
X404353Y-56602D01*
Y-54063D01*
X401814Y-51524D01*
X394196D01*
X429745Y-59142D02*
X424666Y-54063D01*
Y-48985D01*
X429745Y-43906D01*
X437362Y-59142D02*
Y-48985D01*
X439902D01*
X442441Y-51524D01*
Y-59142D01*
Y-51524D01*
X444980Y-48985D01*
X447519Y-51524D01*
Y-59142D01*
X452597D02*
Y-48985D01*
X455137D01*
X457676Y-51524D01*
Y-59142D01*
Y-51524D01*
X460215Y-48985D01*
X462754Y-51524D01*
Y-59142D01*
X467832D02*
X472911Y-54063D01*
Y-48985D01*
X467832Y-43906D01*
X-56094Y229118D02*
Y218961D01*
X-48476D01*
X-51015Y224039D01*
Y226579D01*
X-48476Y229118D01*
X-43398D01*
X-40858Y226579D01*
Y221500D01*
X-43398Y218961D01*
X-40858Y241814D02*
X-56094D01*
X-48476Y234196D01*
Y244353D01*
X-40858Y269745D02*
X-45937Y264666D01*
X-51015D01*
X-56094Y269745D01*
X-40858Y277362D02*
X-51015D01*
Y279901D01*
X-48476Y282440D01*
X-40858D01*
X-48476D01*
X-51015Y284980D01*
X-48476Y287519D01*
X-40858D01*
Y292597D02*
X-51015D01*
Y295136D01*
X-48476Y297676D01*
X-40858D01*
X-48476D01*
X-51015Y300215D01*
X-48476Y302754D01*
X-40858D01*
Y307832D02*
X-45937Y312911D01*
X-51015D01*
X-56094Y307832D01*
X876310Y542090D02*
X881389D01*
X883928Y544629D01*
Y549707D01*
X881389Y552246D01*
X876310D01*
X873771Y549707D01*
Y544629D01*
X876310Y542090D01*
X873771D02*
X883928Y552246D01*
X914398Y557325D02*
X904241D01*
Y549707D01*
X909320Y552246D01*
X911859D01*
X914398Y549707D01*
Y544629D01*
X911859Y542090D01*
X906780D01*
X904241Y544629D01*
X939790Y542090D02*
X934711Y547168D01*
Y552246D01*
X939790Y557325D01*
X947407Y542090D02*
Y552246D01*
X949946D01*
X952486Y549707D01*
Y542090D01*
Y549707D01*
X955025Y552246D01*
X957564Y549707D01*
Y542090D01*
X962642D02*
Y552246D01*
X965182D01*
X967721Y549707D01*
Y542090D01*
Y549707D01*
X970260Y552246D01*
X972799Y549707D01*
Y542090D01*
X977877D02*
X982956Y547168D01*
Y552246D01*
X977877Y557325D01*
X-192240Y581481D02*
X-187162D01*
X-184622Y584020D01*
Y589099D01*
X-187162Y591638D01*
X-192240D01*
X-194779Y589099D01*
Y584020D01*
X-192240Y581481D01*
X-194779D02*
X-184622Y591638D01*
X-154152Y596716D02*
X-159231Y594177D01*
X-164309Y589099D01*
Y584020D01*
X-161770Y581481D01*
X-156692D01*
X-154152Y584020D01*
Y586559D01*
X-156692Y589099D01*
X-164309D01*
X-128761Y581481D02*
X-133839Y586559D01*
Y591638D01*
X-128761Y596716D01*
X-121143Y581481D02*
Y591638D01*
X-118604D01*
X-116065Y589099D01*
Y581481D01*
Y589099D01*
X-113526Y591638D01*
X-110986Y589099D01*
Y581481D01*
X-105908D02*
Y591638D01*
X-103369D01*
X-100830Y589099D01*
Y581481D01*
Y589099D01*
X-98291Y591638D01*
X-95751Y589099D01*
Y581481D01*
X-90673D02*
X-85595Y586559D01*
Y591638D01*
X-90673Y596716D01*
X733241Y561681D02*
Y551524D01*
X740859D01*
X738319Y556602D01*
Y559142D01*
X740859Y561681D01*
X745937D01*
X748476Y559142D01*
Y554063D01*
X745937Y551524D01*
X748476Y587072D02*
X743398Y581994D01*
X738319D01*
X733241Y587072D01*
X748476Y594690D02*
X738319D01*
Y597229D01*
X740859Y599768D01*
X748476D01*
X740859D01*
X738319Y602308D01*
X740859Y604847D01*
X748476D01*
Y609925D02*
X738319D01*
Y612464D01*
X740859Y615003D01*
X748476D01*
X740859D01*
X738319Y617543D01*
X740859Y620082D01*
X748476D01*
Y625160D02*
X743398Y630238D01*
X738319D01*
X733241Y625160D01*
X881681Y426759D02*
X871524D01*
Y419142D01*
X876602Y421681D01*
X879141D01*
X881681Y419142D01*
Y414063D01*
X879141Y411524D01*
X874063D01*
X871524Y414063D01*
X907073Y411524D02*
X901994Y416602D01*
Y421681D01*
X907073Y426759D01*
X914690Y411524D02*
Y421681D01*
X917229D01*
X919768Y419142D01*
Y411524D01*
Y419142D01*
X922308Y421681D01*
X924847Y419142D01*
Y411524D01*
X929925D02*
Y421681D01*
X932464D01*
X935004Y419142D01*
Y411524D01*
Y419142D01*
X937543Y421681D01*
X940082Y419142D01*
Y411524D01*
X945160D02*
X950238Y416602D01*
Y421681D01*
X945160Y426759D01*
M02*
