G04*
G04 #@! TF.GenerationSoftware,Altium Limited,Altium Designer,20.0.13 (296)*
G04*
G04 Layer_Color=8421504*
%FSLAX44Y44*%
%MOMM*%
G71*
G01*
G75*
G04:AMPARAMS|DCode=16|XSize=1.3mm|YSize=1.1mm|CornerRadius=0.275mm|HoleSize=0mm|Usage=FLASHONLY|Rotation=90.000|XOffset=0mm|YOffset=0mm|HoleType=Round|Shape=RoundedRectangle|*
%AMROUNDEDRECTD16*
21,1,1.3000,0.5500,0,0,90.0*
21,1,0.7500,1.1000,0,0,90.0*
1,1,0.5500,0.2750,0.3750*
1,1,0.5500,0.2750,-0.3750*
1,1,0.5500,-0.2750,-0.3750*
1,1,0.5500,-0.2750,0.3750*
%
%ADD16ROUNDEDRECTD16*%
%ADD17R,1.1000X1.3000*%
%ADD18C,0.3500*%
G04:AMPARAMS|DCode=19|XSize=1.525mm|YSize=0.65mm|CornerRadius=0.1625mm|HoleSize=0mm|Usage=FLASHONLY|Rotation=180.000|XOffset=0mm|YOffset=0mm|HoleType=Round|Shape=RoundedRectangle|*
%AMROUNDEDRECTD19*
21,1,1.5250,0.3250,0,0,180.0*
21,1,1.2000,0.6500,0,0,180.0*
1,1,0.3250,-0.6000,0.1625*
1,1,0.3250,0.6000,0.1625*
1,1,0.3250,0.6000,-0.1625*
1,1,0.3250,-0.6000,-0.1625*
%
%ADD19ROUNDEDRECTD19*%
%ADD20R,1.5250X0.6500*%
%ADD21R,0.6000X1.1000*%
%ADD22O,0.6000X1.1000*%
%ADD23R,0.9000X0.7500*%
%ADD24R,0.7500X0.9000*%
%ADD25R,4.0000X1.5000*%
%ADD26R,1.1000X0.7500*%
%ADD27R,1.1000X0.7000*%
%ADD28R,1.8000X1.1000*%
%ADD29R,1.3500X1.9000*%
%ADD30R,1.0000X1.2000*%
%ADD31R,1.3500X1.5500*%
%ADD32R,1.2700X3.1800*%
G04:AMPARAMS|DCode=33|XSize=1.27mm|YSize=3.18mm|CornerRadius=0.3175mm|HoleSize=0mm|Usage=FLASHONLY|Rotation=0.000|XOffset=0mm|YOffset=0mm|HoleType=Round|Shape=RoundedRectangle|*
%AMROUNDEDRECTD33*
21,1,1.2700,2.5450,0,0,0.0*
21,1,0.6350,3.1800,0,0,0.0*
1,1,0.6350,0.3175,-1.2725*
1,1,0.6350,-0.3175,-1.2725*
1,1,0.6350,-0.3175,1.2725*
1,1,0.6350,0.3175,1.2725*
%
%ADD33ROUNDEDRECTD33*%
%ADD34R,0.3000X1.3500*%
%ADD35R,0.4000X1.3500*%
%ADD36R,1.9000X1.9000*%
G04:AMPARAMS|DCode=37|XSize=1.27mm|YSize=3.18mm|CornerRadius=0.3175mm|HoleSize=0mm|Usage=FLASHONLY|Rotation=90.000|XOffset=0mm|YOffset=0mm|HoleType=Round|Shape=RoundedRectangle|*
%AMROUNDEDRECTD37*
21,1,1.2700,2.5450,0,0,90.0*
21,1,0.6350,3.1800,0,0,90.0*
1,1,0.6350,1.2725,0.3175*
1,1,0.6350,1.2725,-0.3175*
1,1,0.6350,-1.2725,-0.3175*
1,1,0.6350,-1.2725,0.3175*
%
%ADD37ROUNDEDRECTD37*%
%ADD38R,3.1800X1.2700*%
%ADD39R,2.8100X1.1800*%
%ADD40R,0.8000X0.8000*%
%ADD41R,1.1000X0.6000*%
%ADD42O,1.1000X0.6000*%
%ADD43R,0.9000X1.3000*%
%ADD44R,1.3000X0.9000*%
%ADD45C,1.0000*%
D16*
X568000Y264500D02*
D03*
D17*
Y287500D02*
D03*
X550000D02*
D03*
Y264500D02*
D03*
D18*
X276000Y414000D02*
D03*
Y422000D02*
D03*
Y478000D02*
D03*
Y486000D02*
D03*
X284000Y414000D02*
D03*
Y422000D02*
D03*
Y478000D02*
D03*
Y486000D02*
D03*
X292000Y430000D02*
D03*
Y438000D02*
D03*
Y446000D02*
D03*
Y454000D02*
D03*
Y462000D02*
D03*
Y470000D02*
D03*
X300000Y430000D02*
D03*
Y438000D02*
D03*
Y446000D02*
D03*
Y454000D02*
D03*
Y462000D02*
D03*
Y470000D02*
D03*
X308000Y430000D02*
D03*
Y438000D02*
D03*
Y446000D02*
D03*
Y454000D02*
D03*
Y462000D02*
D03*
Y470000D02*
D03*
X316000Y430000D02*
D03*
Y438000D02*
D03*
Y446000D02*
D03*
Y454000D02*
D03*
Y462000D02*
D03*
Y470000D02*
D03*
X324000Y430000D02*
D03*
Y438000D02*
D03*
Y446000D02*
D03*
Y454000D02*
D03*
Y462000D02*
D03*
Y470000D02*
D03*
X332000Y430000D02*
D03*
Y438000D02*
D03*
Y446000D02*
D03*
Y454000D02*
D03*
Y462000D02*
D03*
Y470000D02*
D03*
X340000Y430000D02*
D03*
Y438000D02*
D03*
Y446000D02*
D03*
Y454000D02*
D03*
Y462000D02*
D03*
Y470000D02*
D03*
X348000Y430000D02*
D03*
Y438000D02*
D03*
Y446000D02*
D03*
Y454000D02*
D03*
Y462000D02*
D03*
Y470000D02*
D03*
X356000Y414000D02*
D03*
Y422000D02*
D03*
Y486000D02*
D03*
X364000Y414000D02*
D03*
Y422000D02*
D03*
Y478000D02*
D03*
Y486000D02*
D03*
X132000Y184000D02*
D03*
X124000D02*
D03*
X116000D02*
D03*
X84000D02*
D03*
X76000D02*
D03*
X68000D02*
D03*
X132000Y192000D02*
D03*
X124000D02*
D03*
X116000D02*
D03*
X84000D02*
D03*
X76000D02*
D03*
X68000D02*
D03*
X132000Y200000D02*
D03*
X124000D02*
D03*
X116000D02*
D03*
X84000D02*
D03*
X76000D02*
D03*
X68000D02*
D03*
X132000Y208000D02*
D03*
X124000D02*
D03*
X116000D02*
D03*
X84000D02*
D03*
X76000D02*
D03*
X68000D02*
D03*
X132000Y216000D02*
D03*
X124000D02*
D03*
X116000D02*
D03*
X84000D02*
D03*
X76000D02*
D03*
X68000D02*
D03*
X132000Y224000D02*
D03*
X124000D02*
D03*
X116000D02*
D03*
X84000D02*
D03*
X76000D02*
D03*
X68000D02*
D03*
X132000Y232000D02*
D03*
X124000D02*
D03*
X116000D02*
D03*
X84000D02*
D03*
X76000D02*
D03*
X68000D02*
D03*
X132000Y240000D02*
D03*
X124000D02*
D03*
X116000D02*
D03*
X84000D02*
D03*
X76000D02*
D03*
X68000D02*
D03*
X132000Y248000D02*
D03*
X124000D02*
D03*
X116000D02*
D03*
X84000D02*
D03*
X76000D02*
D03*
X68000D02*
D03*
X124000Y256000D02*
D03*
X116000D02*
D03*
X84000D02*
D03*
X76000D02*
D03*
X68000D02*
D03*
X132000Y264000D02*
D03*
X124000D02*
D03*
X116000D02*
D03*
X84000D02*
D03*
X76000D02*
D03*
X124000Y272000D02*
D03*
X116000D02*
D03*
X84000D02*
D03*
X76000D02*
D03*
X68000D02*
D03*
X132000Y280000D02*
D03*
X124000D02*
D03*
X116000D02*
D03*
X84000D02*
D03*
X76000D02*
D03*
X124000Y288000D02*
D03*
X116000D02*
D03*
X84000D02*
D03*
X76000D02*
D03*
X68000D02*
D03*
X132000Y296000D02*
D03*
X124000D02*
D03*
X116000D02*
D03*
X84000D02*
D03*
X76000D02*
D03*
X366000Y156000D02*
D03*
X374000D02*
D03*
X382000D02*
D03*
X390000D02*
D03*
X398000D02*
D03*
X406000D02*
D03*
X414000D02*
D03*
X422000D02*
D03*
X430000D02*
D03*
X438000D02*
D03*
X446000D02*
D03*
X454000D02*
D03*
X462000D02*
D03*
X470000D02*
D03*
X478000D02*
D03*
X486000D02*
D03*
X494000D02*
D03*
X366000Y164000D02*
D03*
X374000D02*
D03*
X382000D02*
D03*
X390000D02*
D03*
X398000D02*
D03*
X406000D02*
D03*
X414000D02*
D03*
X422000D02*
D03*
X430000D02*
D03*
X438000D02*
D03*
X446000D02*
D03*
X454000D02*
D03*
X462000D02*
D03*
X470000D02*
D03*
X478000D02*
D03*
X486000D02*
D03*
X494000D02*
D03*
X366000Y172000D02*
D03*
X374000D02*
D03*
X382000D02*
D03*
X390000D02*
D03*
X398000D02*
D03*
X406000D02*
D03*
X414000D02*
D03*
X422000D02*
D03*
X430000D02*
D03*
X438000D02*
D03*
X446000D02*
D03*
X454000D02*
D03*
X462000D02*
D03*
X470000D02*
D03*
X478000D02*
D03*
X486000D02*
D03*
X494000D02*
D03*
X366000Y180000D02*
D03*
X374000D02*
D03*
X382000D02*
D03*
X390000D02*
D03*
X398000D02*
D03*
X406000D02*
D03*
X414000D02*
D03*
X422000D02*
D03*
X430000D02*
D03*
X438000D02*
D03*
X446000D02*
D03*
X454000D02*
D03*
X462000D02*
D03*
X470000D02*
D03*
X478000D02*
D03*
X486000D02*
D03*
X494000D02*
D03*
X366000Y188000D02*
D03*
X374000D02*
D03*
X382000D02*
D03*
X390000D02*
D03*
X470000D02*
D03*
X478000D02*
D03*
X486000D02*
D03*
X494000D02*
D03*
X366000Y196000D02*
D03*
X374000D02*
D03*
X382000D02*
D03*
X390000D02*
D03*
X470000D02*
D03*
X478000D02*
D03*
X486000D02*
D03*
X494000D02*
D03*
X366000Y204000D02*
D03*
X374000D02*
D03*
X382000D02*
D03*
X390000D02*
D03*
X470000D02*
D03*
X478000D02*
D03*
X486000D02*
D03*
X494000D02*
D03*
X366000Y212000D02*
D03*
X374000D02*
D03*
X382000D02*
D03*
X390000D02*
D03*
X422000D02*
D03*
X430000D02*
D03*
X438000D02*
D03*
X470000D02*
D03*
X478000D02*
D03*
X486000D02*
D03*
X494000D02*
D03*
X366000Y220000D02*
D03*
X374000D02*
D03*
X382000D02*
D03*
X390000D02*
D03*
X422000D02*
D03*
X430000D02*
D03*
X438000D02*
D03*
X470000D02*
D03*
X478000D02*
D03*
X486000D02*
D03*
X494000D02*
D03*
X366000Y228000D02*
D03*
X374000D02*
D03*
X382000D02*
D03*
X390000D02*
D03*
X422000D02*
D03*
X430000D02*
D03*
X438000D02*
D03*
X470000D02*
D03*
X478000D02*
D03*
X486000D02*
D03*
X494000D02*
D03*
X366000Y236000D02*
D03*
X374000D02*
D03*
X382000D02*
D03*
X390000D02*
D03*
X470000D02*
D03*
X478000D02*
D03*
X486000D02*
D03*
X494000D02*
D03*
X366000Y244000D02*
D03*
X374000D02*
D03*
X382000D02*
D03*
X390000D02*
D03*
X470000D02*
D03*
X478000D02*
D03*
X486000D02*
D03*
X494000D02*
D03*
X366000Y252000D02*
D03*
X374000D02*
D03*
X382000D02*
D03*
X390000D02*
D03*
X470000D02*
D03*
X478000D02*
D03*
X486000D02*
D03*
X494000D02*
D03*
X366000Y260000D02*
D03*
X374000D02*
D03*
X382000D02*
D03*
X390000D02*
D03*
X398000D02*
D03*
X406000D02*
D03*
X414000D02*
D03*
X422000D02*
D03*
X430000D02*
D03*
X438000D02*
D03*
X446000D02*
D03*
X454000D02*
D03*
X462000D02*
D03*
X470000D02*
D03*
X478000D02*
D03*
X486000D02*
D03*
X494000D02*
D03*
X366000Y268000D02*
D03*
X374000D02*
D03*
X382000D02*
D03*
X390000D02*
D03*
X398000D02*
D03*
X406000D02*
D03*
X414000D02*
D03*
X422000D02*
D03*
X430000D02*
D03*
X438000D02*
D03*
X446000D02*
D03*
X454000D02*
D03*
X462000D02*
D03*
X470000D02*
D03*
X478000D02*
D03*
X486000D02*
D03*
X494000D02*
D03*
X366000Y276000D02*
D03*
X374000D02*
D03*
X382000D02*
D03*
X390000D02*
D03*
X398000D02*
D03*
X406000D02*
D03*
X414000D02*
D03*
X422000D02*
D03*
X430000D02*
D03*
X438000D02*
D03*
X446000D02*
D03*
X454000D02*
D03*
X462000D02*
D03*
X470000D02*
D03*
X478000D02*
D03*
X486000D02*
D03*
X494000D02*
D03*
X366000Y284000D02*
D03*
X374000D02*
D03*
X382000D02*
D03*
X390000D02*
D03*
X398000D02*
D03*
X406000D02*
D03*
X414000D02*
D03*
X422000D02*
D03*
X430000D02*
D03*
X438000D02*
D03*
X446000D02*
D03*
X454000D02*
D03*
X462000D02*
D03*
X470000D02*
D03*
X478000D02*
D03*
X486000D02*
D03*
X494000D02*
D03*
D19*
X637880Y337950D02*
D03*
Y350650D02*
D03*
Y363350D02*
D03*
Y376050D02*
D03*
X692120D02*
D03*
Y363350D02*
D03*
Y350650D02*
D03*
X149120Y83050D02*
D03*
Y70350D02*
D03*
Y57650D02*
D03*
Y44950D02*
D03*
X94880D02*
D03*
Y57650D02*
D03*
Y70350D02*
D03*
D20*
X692120Y337950D02*
D03*
X94880Y83050D02*
D03*
D21*
X107500Y442000D02*
D03*
D22*
X117000D02*
D03*
X126500D02*
D03*
X107500Y468000D02*
D03*
X126500D02*
D03*
D23*
X445000Y62000D02*
D03*
Y78000D02*
D03*
X430000Y62000D02*
D03*
Y78000D02*
D03*
X415000Y62000D02*
D03*
Y78000D02*
D03*
X400000Y62000D02*
D03*
Y78000D02*
D03*
X385000Y62000D02*
D03*
Y78000D02*
D03*
X370000Y62000D02*
D03*
Y78000D02*
D03*
X355000Y62000D02*
D03*
Y78000D02*
D03*
X339999Y62000D02*
D03*
Y78000D02*
D03*
X543000Y103000D02*
D03*
Y119000D02*
D03*
X518000Y103000D02*
D03*
Y119000D02*
D03*
X489000Y27000D02*
D03*
Y43000D02*
D03*
X479000Y331000D02*
D03*
Y315000D02*
D03*
X492000Y331000D02*
D03*
Y315000D02*
D03*
X511000Y331000D02*
D03*
Y315000D02*
D03*
X524000Y331000D02*
D03*
Y315000D02*
D03*
X406000Y402000D02*
D03*
Y418000D02*
D03*
X406000Y448000D02*
D03*
Y464000D02*
D03*
X76000Y152000D02*
D03*
Y168000D02*
D03*
X480000Y394000D02*
D03*
Y378000D02*
D03*
X466000D02*
D03*
Y394000D02*
D03*
X616000Y338000D02*
D03*
Y322000D02*
D03*
X171000Y83000D02*
D03*
Y99000D02*
D03*
X387000Y413000D02*
D03*
Y427000D02*
D03*
X387000Y478000D02*
D03*
Y464000D02*
D03*
X252000Y480000D02*
D03*
Y466000D02*
D03*
Y415000D02*
D03*
Y429000D02*
D03*
X61000Y168000D02*
D03*
Y154000D02*
D03*
X157000Y196000D02*
D03*
Y182000D02*
D03*
X42000Y296000D02*
D03*
Y282000D02*
D03*
X43000Y192000D02*
D03*
Y178000D02*
D03*
X129000Y496000D02*
D03*
Y482000D02*
D03*
X342000Y158000D02*
D03*
Y174000D02*
D03*
X342000Y121000D02*
D03*
Y137000D02*
D03*
X329000Y137000D02*
D03*
Y121000D02*
D03*
D24*
X745000Y174000D02*
D03*
X729000D02*
D03*
X689000Y160000D02*
D03*
X673000D02*
D03*
X688999Y28001D02*
D03*
X672999D02*
D03*
X689000Y142000D02*
D03*
X673000D02*
D03*
X689000Y54000D02*
D03*
X673000D02*
D03*
X688999Y85001D02*
D03*
X672999D02*
D03*
X689000Y124000D02*
D03*
X673000D02*
D03*
X756000Y174000D02*
D03*
X772000D02*
D03*
X689000Y173000D02*
D03*
X673000D02*
D03*
X689000Y41000D02*
D03*
X673000D02*
D03*
X689000Y67000D02*
D03*
X673000D02*
D03*
X689000Y98000D02*
D03*
X673000D02*
D03*
X689000Y111000D02*
D03*
X673000D02*
D03*
X749000Y321000D02*
D03*
X733000D02*
D03*
X749000Y206000D02*
D03*
X733000D02*
D03*
X749000Y284000D02*
D03*
X733000D02*
D03*
X749000Y232000D02*
D03*
X733000D02*
D03*
X749000Y258000D02*
D03*
X733000D02*
D03*
X749000Y219000D02*
D03*
X733000D02*
D03*
X749000Y297000D02*
D03*
X733000D02*
D03*
X749000Y245000D02*
D03*
X733000D02*
D03*
X749000Y271000D02*
D03*
X733000D02*
D03*
X829000Y193000D02*
D03*
X813000D02*
D03*
X221000Y440000D02*
D03*
X237000D02*
D03*
X407000Y390000D02*
D03*
X391000D02*
D03*
X237000Y454000D02*
D03*
X221000D02*
D03*
X173000Y312000D02*
D03*
X157000D02*
D03*
Y271000D02*
D03*
X173000D02*
D03*
X28000Y212000D02*
D03*
X44000D02*
D03*
X535000Y275000D02*
D03*
X519000D02*
D03*
X622000Y256000D02*
D03*
X606000D02*
D03*
X606000Y269000D02*
D03*
X622000D02*
D03*
X622000Y213000D02*
D03*
X606000D02*
D03*
X638000Y393000D02*
D03*
X654000D02*
D03*
X601000Y350000D02*
D03*
X617000D02*
D03*
X686000Y393000D02*
D03*
X670000D02*
D03*
X67000Y468000D02*
D03*
X83000D02*
D03*
X186000Y71000D02*
D03*
X170000D02*
D03*
X67000Y455000D02*
D03*
X83000D02*
D03*
X128000Y28000D02*
D03*
X144000D02*
D03*
X172000Y299000D02*
D03*
X158000D02*
D03*
Y285000D02*
D03*
X172000D02*
D03*
X157000Y253000D02*
D03*
X171000D02*
D03*
X131000Y167000D02*
D03*
X117000D02*
D03*
X73000Y314000D02*
D03*
X59000D02*
D03*
X117000D02*
D03*
X131000D02*
D03*
X566000Y304000D02*
D03*
X552000D02*
D03*
Y248000D02*
D03*
X566000D02*
D03*
X603000Y363000D02*
D03*
X617000D02*
D03*
X184000Y58000D02*
D03*
X170000D02*
D03*
X103000Y28000D02*
D03*
X117000D02*
D03*
D25*
X162000Y405000D02*
D03*
Y441000D02*
D03*
D26*
X817500Y129050D02*
D03*
Y118050D02*
D03*
Y107050D02*
D03*
Y96050D02*
D03*
Y85050D02*
D03*
Y74050D02*
D03*
Y63050D02*
D03*
D27*
Y52550D02*
D03*
D28*
X814000Y39000D02*
D03*
D29*
X709250Y60700D02*
D03*
Y120400D02*
D03*
D30*
X719000Y155400D02*
D03*
X756000D02*
D03*
D31*
X816250Y153650D02*
D03*
D32*
X517300Y24600D02*
D03*
D33*
Y75400D02*
D03*
X542700Y24600D02*
D03*
Y75400D02*
D03*
D34*
X513000Y483250D02*
D03*
X487000D02*
D03*
X713000D02*
D03*
X687000D02*
D03*
D35*
X506500D02*
D03*
X500000D02*
D03*
X493500D02*
D03*
X706500D02*
D03*
X700000D02*
D03*
X693500D02*
D03*
D36*
X539500Y510000D02*
D03*
X512000D02*
D03*
X488000D02*
D03*
X460500D02*
D03*
X739500D02*
D03*
X712000D02*
D03*
X688000D02*
D03*
X660500D02*
D03*
D37*
X777602Y320801D02*
D03*
X828402D02*
D03*
X777602Y295401D02*
D03*
X828402D02*
D03*
X777602Y270001D02*
D03*
X828402D02*
D03*
X777602Y244601D02*
D03*
X828402D02*
D03*
X777602Y219201D02*
D03*
D38*
X828402D02*
D03*
D39*
X543000Y465850D02*
D03*
Y436150D02*
D03*
X743000Y465850D02*
D03*
Y436150D02*
D03*
D40*
X445000Y22000D02*
D03*
Y38000D02*
D03*
X430000Y22000D02*
D03*
Y38000D02*
D03*
X415000Y22000D02*
D03*
Y38000D02*
D03*
X400000Y22000D02*
D03*
Y38000D02*
D03*
X385000Y22000D02*
D03*
Y38000D02*
D03*
X370000Y22000D02*
D03*
Y38000D02*
D03*
X355000Y22000D02*
D03*
Y38000D02*
D03*
X339998Y22000D02*
D03*
Y38000D02*
D03*
D41*
X516300Y440500D02*
D03*
X716300D02*
D03*
D42*
X516300Y450000D02*
D03*
Y459500D02*
D03*
X490300Y440500D02*
D03*
Y459500D02*
D03*
X716300Y450000D02*
D03*
Y459500D02*
D03*
X690300Y440500D02*
D03*
Y459500D02*
D03*
D43*
X795000Y23000D02*
D03*
X777000D02*
D03*
X307000Y513000D02*
D03*
X289000D02*
D03*
X657000Y320000D02*
D03*
X639000D02*
D03*
X130000Y101000D02*
D03*
X148000D02*
D03*
D44*
X468000Y459000D02*
D03*
Y441000D02*
D03*
X668000Y459000D02*
D03*
Y441000D02*
D03*
X188000Y301000D02*
D03*
Y283000D02*
D03*
X90000Y332000D02*
D03*
Y314000D02*
D03*
X713000Y367000D02*
D03*
Y349000D02*
D03*
X74000Y54000D02*
D03*
Y72000D02*
D03*
X65000Y421000D02*
D03*
Y403000D02*
D03*
X82000Y421000D02*
D03*
Y403000D02*
D03*
X99000Y421000D02*
D03*
Y403000D02*
D03*
X116000Y421000D02*
D03*
Y403000D02*
D03*
X144000Y495000D02*
D03*
Y477000D02*
D03*
X161000Y495000D02*
D03*
Y477000D02*
D03*
X178000Y495000D02*
D03*
Y477000D02*
D03*
D45*
X195000Y99000D02*
D03*
X616000Y301000D02*
D03*
X41000Y403000D02*
D03*
Y447000D02*
D03*
M02*
