G04*
G04 #@! TF.GenerationSoftware,Altium Limited,Altium Designer,20.0.13 (296)*
G04*
G04 Layer_Physical_Order=4*
G04 Layer_Color=16711680*
%FSLAX44Y44*%
%MOMM*%
G71*
G01*
G75*
%ADD10C,0.2000*%
%ADD12C,0.4000*%
%ADD23R,0.9000X0.7500*%
%ADD24R,0.7500X0.9000*%
%ADD43R,0.9000X1.3000*%
%ADD48C,0.4500*%
%ADD78C,0.1100*%
%ADD80C,0.1200*%
%ADD86C,0.2750*%
%ADD87C,0.6500*%
G04:AMPARAMS|DCode=88|XSize=0.9mm|YSize=0.75mm|CornerRadius=0mm|HoleSize=0mm|Usage=FLASHONLY|Rotation=135.000|XOffset=0mm|YOffset=0mm|HoleType=Round|Shape=Rectangle|*
%AMROTATEDRECTD88*
4,1,4,0.5834,-0.0530,0.0530,-0.5834,-0.5834,0.0530,-0.0530,0.5834,0.5834,-0.0530,0.0*
%
%ADD88ROTATEDRECTD88*%

G36*
X835834Y529231D02*
X839473Y527724D01*
X842749Y525535D01*
X845535Y522749D01*
X847724Y519473D01*
X849231Y515834D01*
X850000Y511970D01*
Y510000D01*
Y30000D01*
Y28030D01*
X849231Y24166D01*
X847724Y20526D01*
X845535Y17251D01*
X842749Y14465D01*
X839473Y12276D01*
X835834Y10769D01*
X831970Y10000D01*
X28030D01*
X24166Y10769D01*
X20526Y12276D01*
X17251Y14465D01*
X14465Y17251D01*
X12276Y20526D01*
X10769Y24166D01*
X10000Y28030D01*
Y30000D01*
Y510000D01*
Y511970D01*
X10769Y515834D01*
X12276Y519474D01*
X14465Y522749D01*
X17251Y525535D01*
X20526Y527724D01*
X24166Y529231D01*
X28030Y530000D01*
X831970D01*
X835834Y529231D01*
D02*
G37*
%LPC*%
G36*
X295500Y517212D02*
X294271Y516967D01*
X293229Y516271D01*
X292533Y515229D01*
X292288Y514000D01*
X292533Y512771D01*
X293229Y511729D01*
X294271Y511033D01*
X295500Y510788D01*
X296729Y511033D01*
X297771Y511729D01*
X298467Y512771D01*
X298712Y514000D01*
X298467Y515229D01*
X297771Y516271D01*
X296729Y516967D01*
X295500Y517212D01*
D02*
G37*
G36*
X720000Y492221D02*
X718576Y491938D01*
X717368Y491132D01*
X716562Y489924D01*
X716279Y488500D01*
X716562Y487076D01*
X717368Y485868D01*
X718576Y485062D01*
X720000Y484779D01*
X721424Y485062D01*
X722632Y485868D01*
X723438Y487076D01*
X723721Y488500D01*
X723438Y489924D01*
X722632Y491132D01*
X721424Y491938D01*
X720000Y492221D01*
D02*
G37*
G36*
X680000D02*
X678576Y491938D01*
X677368Y491132D01*
X676562Y489924D01*
X676279Y488500D01*
X676562Y487076D01*
X677368Y485868D01*
X678576Y485062D01*
X680000Y484779D01*
X681424Y485062D01*
X682632Y485868D01*
X683438Y487076D01*
X683721Y488500D01*
X683438Y489924D01*
X682632Y491132D01*
X681424Y491938D01*
X680000Y492221D01*
D02*
G37*
G36*
X520000D02*
X518576Y491938D01*
X517369Y491132D01*
X516562Y489924D01*
X516278Y488500D01*
X516562Y487076D01*
X517369Y485868D01*
X518576Y485062D01*
X520000Y484779D01*
X521424Y485062D01*
X522631Y485868D01*
X523438Y487076D01*
X523722Y488500D01*
X523438Y489924D01*
X522631Y491132D01*
X521424Y491938D01*
X520000Y492221D01*
D02*
G37*
G36*
X480000D02*
X478576Y491938D01*
X477369Y491132D01*
X476562Y489924D01*
X476278Y488500D01*
X476562Y487076D01*
X477369Y485868D01*
X478576Y485062D01*
X480000Y484779D01*
X481424Y485062D01*
X482631Y485868D01*
X483438Y487076D01*
X483722Y488500D01*
X483438Y489924D01*
X482631Y491132D01*
X481424Y491938D01*
X480000Y492221D01*
D02*
G37*
G36*
X341000Y479212D02*
X339771Y478967D01*
X338729Y478271D01*
X338033Y477229D01*
X337788Y476000D01*
X338033Y474771D01*
X338729Y473729D01*
X339771Y473033D01*
X341000Y472788D01*
X342229Y473033D01*
X343271Y473729D01*
X343967Y474771D01*
X344212Y476000D01*
X343967Y477229D01*
X343271Y478271D01*
X342229Y478967D01*
X341000Y479212D01*
D02*
G37*
G36*
X367999Y477211D02*
X366770Y476966D01*
X365728Y476270D01*
X365032Y475228D01*
X364788Y473999D01*
X364866Y473605D01*
X363198Y471937D01*
X356494D01*
X356271Y472271D01*
X355229Y472967D01*
X354000Y473212D01*
X352771Y472967D01*
X351729Y472271D01*
X351033Y471229D01*
X350788Y470000D01*
X351033Y468771D01*
X351729Y467729D01*
X352771Y467033D01*
X354000Y466788D01*
X355229Y467033D01*
X356271Y467729D01*
X356494Y468063D01*
X364000D01*
X364000Y468063D01*
X364742Y468210D01*
X365370Y468630D01*
X367606Y470866D01*
X367999Y470787D01*
X369228Y471032D01*
X370270Y471728D01*
X370966Y472770D01*
X371211Y473999D01*
X370966Y475228D01*
X370270Y476270D01*
X369228Y476966D01*
X367999Y477211D01*
D02*
G37*
G36*
X406000Y475212D02*
X404771Y474967D01*
X403729Y474271D01*
X403033Y473229D01*
X402788Y472000D01*
X403033Y470771D01*
X403729Y469729D01*
X404771Y469033D01*
X406000Y468788D01*
X407229Y469033D01*
X408271Y469729D01*
X408967Y470771D01*
X409212Y472000D01*
X408967Y473229D01*
X408271Y474271D01*
X407229Y474967D01*
X406000Y475212D01*
D02*
G37*
G36*
X192000Y474231D02*
X190381Y473909D01*
X189008Y472992D01*
X188091Y471619D01*
X187769Y470000D01*
X188091Y468381D01*
X189008Y467008D01*
X190381Y466091D01*
X192000Y465769D01*
X193619Y466091D01*
X194992Y467008D01*
X195909Y468381D01*
X196231Y470000D01*
X195909Y471619D01*
X194992Y472992D01*
X193619Y473909D01*
X192000Y474231D01*
D02*
G37*
G36*
X259000Y471212D02*
X257771Y470967D01*
X256729Y470271D01*
X256033Y469229D01*
X255788Y468000D01*
X256033Y466771D01*
X256729Y465729D01*
X257771Y465033D01*
X259000Y464788D01*
X260229Y465033D01*
X261271Y465729D01*
X261967Y466771D01*
X262212Y468000D01*
X261967Y469229D01*
X261271Y470271D01*
X260229Y470967D01*
X259000Y471212D01*
D02*
G37*
G36*
X810000Y516025D02*
X804923Y515525D01*
X800041Y514044D01*
X795541Y511639D01*
X791597Y508403D01*
X788361Y504459D01*
X785956Y499959D01*
X784475Y495077D01*
X783975Y490000D01*
X784475Y484923D01*
X785956Y480041D01*
X788361Y475541D01*
X791597Y471597D01*
X795541Y468361D01*
X800041Y465956D01*
X804923Y464475D01*
X810000Y463975D01*
X815077Y464475D01*
X819959Y465956D01*
X824459Y468361D01*
X828403Y471597D01*
X831639Y475541D01*
X834044Y480041D01*
X835525Y484923D01*
X836025Y490000D01*
X835525Y495077D01*
X834044Y499959D01*
X831639Y504459D01*
X828403Y508403D01*
X824459Y511639D01*
X819959Y514044D01*
X815077Y515525D01*
X810000Y516025D01*
D02*
G37*
G36*
X380000Y469212D02*
X378771Y468967D01*
X377729Y468271D01*
X377033Y467229D01*
X376788Y466000D01*
X377033Y464771D01*
X377729Y463729D01*
X378771Y463033D01*
X380000Y462788D01*
X381229Y463033D01*
X382271Y463729D01*
X382967Y464771D01*
X383212Y466000D01*
X382967Y467229D01*
X382271Y468271D01*
X381229Y468967D01*
X380000Y469212D01*
D02*
G37*
G36*
X320000D02*
X318771Y468967D01*
X317729Y468271D01*
X317033Y467229D01*
X316788Y466000D01*
X317033Y464771D01*
X317729Y463729D01*
X318771Y463033D01*
X320000Y462788D01*
X321229Y463033D01*
X322271Y463729D01*
X322967Y464771D01*
X323212Y466000D01*
X322967Y467229D01*
X322271Y468271D01*
X321229Y468967D01*
X320000Y469212D01*
D02*
G37*
G36*
X178000Y471231D02*
X176381Y470909D01*
X175008Y469992D01*
X174091Y468619D01*
X173769Y467000D01*
X174091Y465381D01*
X175008Y464008D01*
X176381Y463091D01*
X178000Y462769D01*
X179619Y463091D01*
X180992Y464008D01*
X181909Y465381D01*
X182231Y467000D01*
X181909Y468619D01*
X180992Y469992D01*
X179619Y470909D01*
X178000Y471231D01*
D02*
G37*
G36*
X161000D02*
X159381Y470909D01*
X158008Y469992D01*
X157091Y468619D01*
X156769Y467000D01*
X157091Y465381D01*
X158008Y464008D01*
X159381Y463091D01*
X161000Y462769D01*
X162619Y463091D01*
X163992Y464008D01*
X164909Y465381D01*
X165231Y467000D01*
X164909Y468619D01*
X163992Y469992D01*
X162619Y470909D01*
X161000Y471231D01*
D02*
G37*
G36*
X144000D02*
X142381Y470909D01*
X141008Y469992D01*
X140091Y468619D01*
X139769Y467000D01*
X140091Y465381D01*
X141008Y464008D01*
X142381Y463091D01*
X144000Y462769D01*
X145619Y463091D01*
X146992Y464008D01*
X147909Y465381D01*
X148231Y467000D01*
X147909Y468619D01*
X146992Y469992D01*
X145619Y470909D01*
X144000Y471231D01*
D02*
G37*
G36*
X86000Y484231D02*
X84381Y483909D01*
X83008Y482992D01*
X82091Y481619D01*
X81769Y480000D01*
X82091Y478381D01*
X83008Y477008D01*
X84063Y476303D01*
Y468000D01*
X84063Y468000D01*
X84210Y467259D01*
X84630Y466630D01*
X92016Y459244D01*
X91769Y458000D01*
X92091Y456381D01*
X93008Y455008D01*
X94381Y454091D01*
X96000Y453769D01*
X97619Y454091D01*
X98992Y455008D01*
X99909Y456381D01*
X100231Y458000D01*
X99909Y459619D01*
X98992Y460992D01*
X97619Y461909D01*
X96000Y462231D01*
X94756Y461984D01*
X87937Y468802D01*
Y476303D01*
X88992Y477008D01*
X89909Y478381D01*
X90231Y480000D01*
X89909Y481619D01*
X88992Y482992D01*
X87619Y483909D01*
X86000Y484231D01*
D02*
G37*
G36*
X214000Y457212D02*
X212771Y456967D01*
X211729Y456271D01*
X211033Y455229D01*
X210788Y454000D01*
X211033Y452771D01*
X211729Y451729D01*
X212771Y451033D01*
X214000Y450788D01*
X215229Y451033D01*
X216271Y451729D01*
X216967Y452771D01*
X217212Y454000D01*
X216967Y455229D01*
X216271Y456271D01*
X215229Y456967D01*
X214000Y457212D01*
D02*
G37*
G36*
X296000Y453212D02*
X294771Y452967D01*
X293729Y452271D01*
X293033Y451229D01*
X292788Y450000D01*
X293033Y448771D01*
X293729Y447729D01*
X294771Y447033D01*
X296000Y446788D01*
X297229Y447033D01*
X298271Y447729D01*
X298967Y448771D01*
X299212Y450000D01*
X298967Y451229D01*
X298271Y452271D01*
X297229Y452967D01*
X296000Y453212D01*
D02*
G37*
G36*
X656000Y445231D02*
X654381Y444909D01*
X653008Y443992D01*
X652091Y442619D01*
X651769Y441000D01*
X652091Y439381D01*
X653008Y438008D01*
X654381Y437091D01*
X656000Y436769D01*
X657619Y437091D01*
X658992Y438008D01*
X659909Y439381D01*
X660231Y441000D01*
X659909Y442619D01*
X658992Y443992D01*
X657619Y444909D01*
X656000Y445231D01*
D02*
G37*
G36*
X690000Y434231D02*
X688381Y433909D01*
X687008Y432992D01*
X686091Y431619D01*
X685769Y430000D01*
X686091Y428381D01*
X687008Y427008D01*
X688381Y426091D01*
X690000Y425769D01*
X691619Y426091D01*
X692992Y427008D01*
X693909Y428381D01*
X694231Y430000D01*
X693909Y431619D01*
X692992Y432992D01*
X691619Y433909D01*
X690000Y434231D01*
D02*
G37*
G36*
X668000D02*
X666381Y433909D01*
X665008Y432992D01*
X664091Y431619D01*
X663769Y430000D01*
X664091Y428381D01*
X665008Y427008D01*
X666381Y426091D01*
X668000Y425769D01*
X669619Y426091D01*
X670992Y427008D01*
X671909Y428381D01*
X672231Y430000D01*
X671909Y431619D01*
X670992Y432992D01*
X669619Y433909D01*
X668000Y434231D01*
D02*
G37*
G36*
X490000D02*
X488381Y433909D01*
X487008Y432992D01*
X486091Y431619D01*
X485769Y430000D01*
X486091Y428381D01*
X487008Y427008D01*
X488381Y426091D01*
X490000Y425769D01*
X491619Y426091D01*
X492992Y427008D01*
X493909Y428381D01*
X494231Y430000D01*
X493909Y431619D01*
X492992Y432992D01*
X491619Y433909D01*
X490000Y434231D01*
D02*
G37*
G36*
X480000D02*
X478381Y433909D01*
X477008Y432992D01*
X476091Y431619D01*
X475769Y430000D01*
X476091Y428381D01*
X477008Y427008D01*
X478381Y426091D01*
X480000Y425769D01*
X481619Y426091D01*
X482992Y427008D01*
X483909Y428381D01*
X484231Y430000D01*
X483909Y431619D01*
X482992Y432992D01*
X481619Y433909D01*
X480000Y434231D01*
D02*
G37*
G36*
X468000D02*
X466381Y433909D01*
X465008Y432992D01*
X464091Y431619D01*
X463769Y430000D01*
X464091Y428381D01*
X465008Y427008D01*
X466381Y426091D01*
X468000Y425769D01*
X469619Y426091D01*
X470992Y427008D01*
X471909Y428381D01*
X472231Y430000D01*
X471909Y431619D01*
X470992Y432992D01*
X469619Y433909D01*
X468000Y434231D01*
D02*
G37*
G36*
X259000Y430212D02*
X257771Y429967D01*
X256729Y429271D01*
X256033Y428229D01*
X255788Y427000D01*
X256033Y425771D01*
X256729Y424729D01*
X257771Y424033D01*
X259000Y423788D01*
X260229Y424033D01*
X261271Y424729D01*
X261967Y425771D01*
X262212Y427000D01*
X261967Y428229D01*
X261271Y429271D01*
X260229Y429967D01*
X259000Y430212D01*
D02*
G37*
G36*
X406000Y429212D02*
X404771Y428967D01*
X403729Y428271D01*
X403033Y427229D01*
X402788Y426000D01*
X403033Y424771D01*
X403729Y423729D01*
X404771Y423033D01*
X406000Y422788D01*
X407229Y423033D01*
X408271Y423729D01*
X408967Y424771D01*
X409212Y426000D01*
X408967Y427229D01*
X408271Y428271D01*
X407229Y428967D01*
X406000Y429212D01*
D02*
G37*
G36*
X380850Y428212D02*
X379621Y427967D01*
X378579Y427271D01*
X377883Y426229D01*
X377638Y425000D01*
X377883Y423771D01*
X378579Y422729D01*
X379621Y422033D01*
X380850Y421788D01*
X382079Y422033D01*
X383121Y422729D01*
X383817Y423771D01*
X384062Y425000D01*
X383817Y426229D01*
X383121Y427271D01*
X382079Y427967D01*
X380850Y428212D01*
D02*
G37*
G36*
X308000Y426212D02*
X306771Y425967D01*
X305729Y425271D01*
X305033Y424229D01*
X304788Y423000D01*
X305033Y421771D01*
X305729Y420729D01*
X306771Y420033D01*
X308000Y419788D01*
X309229Y420033D01*
X310271Y420729D01*
X310967Y421771D01*
X311212Y423000D01*
X310967Y424229D01*
X310271Y425271D01*
X309229Y425967D01*
X308000Y426212D01*
D02*
G37*
G36*
X754000Y428231D02*
X752381Y427909D01*
X751008Y426992D01*
X750091Y425619D01*
X749769Y424000D01*
X750091Y422381D01*
X751008Y421008D01*
X752381Y420091D01*
X754000Y419769D01*
X755619Y420091D01*
X756992Y421008D01*
X757909Y422381D01*
X758231Y424000D01*
X757909Y425619D01*
X756992Y426992D01*
X755619Y427909D01*
X754000Y428231D01*
D02*
G37*
G36*
X744000D02*
X742381Y427909D01*
X741008Y426992D01*
X740091Y425619D01*
X739769Y424000D01*
X740091Y422381D01*
X741008Y421008D01*
X742381Y420091D01*
X744000Y419769D01*
X745619Y420091D01*
X746992Y421008D01*
X747909Y422381D01*
X748231Y424000D01*
X747909Y425619D01*
X746992Y426992D01*
X745619Y427909D01*
X744000Y428231D01*
D02*
G37*
G36*
X733000D02*
X731381Y427909D01*
X730008Y426992D01*
X729091Y425619D01*
X728769Y424000D01*
X729091Y422381D01*
X730008Y421008D01*
X731381Y420091D01*
X733000Y419769D01*
X734619Y420091D01*
X735992Y421008D01*
X736909Y422381D01*
X737231Y424000D01*
X736909Y425619D01*
X735992Y426992D01*
X734619Y427909D01*
X733000Y428231D01*
D02*
G37*
G36*
X554000D02*
X552381Y427909D01*
X551008Y426992D01*
X550091Y425619D01*
X549769Y424000D01*
X550091Y422381D01*
X551008Y421008D01*
X552381Y420091D01*
X554000Y419769D01*
X555619Y420091D01*
X556992Y421008D01*
X557909Y422381D01*
X558231Y424000D01*
X557909Y425619D01*
X556992Y426992D01*
X555619Y427909D01*
X554000Y428231D01*
D02*
G37*
G36*
X544000D02*
X542381Y427909D01*
X541008Y426992D01*
X540091Y425619D01*
X539769Y424000D01*
X540091Y422381D01*
X541008Y421008D01*
X542381Y420091D01*
X544000Y419769D01*
X545619Y420091D01*
X546992Y421008D01*
X547909Y422381D01*
X548231Y424000D01*
X547909Y425619D01*
X546992Y426992D01*
X545619Y427909D01*
X544000Y428231D01*
D02*
G37*
G36*
X533000D02*
X531381Y427909D01*
X530008Y426992D01*
X529091Y425619D01*
X528769Y424000D01*
X529091Y422381D01*
X530008Y421008D01*
X531381Y420091D01*
X533000Y419769D01*
X534619Y420091D01*
X535992Y421008D01*
X536909Y422381D01*
X537231Y424000D01*
X536909Y425619D01*
X535992Y426992D01*
X534619Y427909D01*
X533000Y428231D01*
D02*
G37*
G36*
X368000Y421212D02*
X366771Y420967D01*
X365729Y420271D01*
X365296Y419624D01*
X350704D01*
X350271Y420271D01*
X349229Y420967D01*
X348000Y421212D01*
X346771Y420967D01*
X345729Y420271D01*
X345033Y419229D01*
X344788Y418000D01*
X345033Y416771D01*
X345729Y415729D01*
X346771Y415033D01*
X348000Y414788D01*
X349229Y415033D01*
X350271Y415729D01*
X350704Y416376D01*
X365296D01*
X365729Y415729D01*
X366771Y415033D01*
X368000Y414788D01*
X369229Y415033D01*
X370271Y415729D01*
X370967Y416771D01*
X371212Y418000D01*
X370967Y419229D01*
X370271Y420271D01*
X369229Y420967D01*
X368000Y421212D01*
D02*
G37*
G36*
X466000Y415212D02*
X464771Y414967D01*
X463729Y414271D01*
X463033Y413229D01*
X462788Y412000D01*
X463033Y410771D01*
X463729Y409729D01*
X464771Y409033D01*
X466000Y408788D01*
X467229Y409033D01*
X468271Y409729D01*
X468967Y410771D01*
X469212Y412000D01*
X468967Y413229D01*
X468271Y414271D01*
X467229Y414967D01*
X466000Y415212D01*
D02*
G37*
G36*
X662000Y396212D02*
X660771Y395967D01*
X659729Y395271D01*
X659033Y394229D01*
X658788Y393000D01*
X659033Y391771D01*
X659729Y390729D01*
X660771Y390033D01*
X662000Y389788D01*
X663229Y390033D01*
X664271Y390729D01*
X664967Y391771D01*
X665212Y393000D01*
X664967Y394229D01*
X664271Y395271D01*
X663229Y395967D01*
X662000Y396212D01*
D02*
G37*
G36*
X116000Y397231D02*
X114381Y396909D01*
X113008Y395992D01*
X112091Y394619D01*
X111769Y393000D01*
X112091Y391381D01*
X113008Y390008D01*
X114381Y389091D01*
X116000Y388769D01*
X117619Y389091D01*
X118992Y390008D01*
X119909Y391381D01*
X120231Y393000D01*
X119909Y394619D01*
X118992Y395992D01*
X117619Y396909D01*
X116000Y397231D01*
D02*
G37*
G36*
X99000D02*
X97381Y396909D01*
X96008Y395992D01*
X95091Y394619D01*
X94769Y393000D01*
X95091Y391381D01*
X96008Y390008D01*
X97381Y389091D01*
X99000Y388769D01*
X100619Y389091D01*
X101992Y390008D01*
X102909Y391381D01*
X103231Y393000D01*
X102909Y394619D01*
X101992Y395992D01*
X100619Y396909D01*
X99000Y397231D01*
D02*
G37*
G36*
X82000D02*
X80381Y396909D01*
X79008Y395992D01*
X78091Y394619D01*
X77769Y393000D01*
X78091Y391381D01*
X79008Y390008D01*
X80381Y389091D01*
X82000Y388769D01*
X83619Y389091D01*
X84992Y390008D01*
X85909Y391381D01*
X86231Y393000D01*
X85909Y394619D01*
X84992Y395992D01*
X83619Y396909D01*
X82000Y397231D01*
D02*
G37*
G36*
X65000D02*
X63381Y396909D01*
X62008Y395992D01*
X61091Y394619D01*
X60769Y393000D01*
X61091Y391381D01*
X62008Y390008D01*
X63381Y389091D01*
X65000Y388769D01*
X66619Y389091D01*
X67992Y390008D01*
X68909Y391381D01*
X69231Y393000D01*
X68909Y394619D01*
X67992Y395992D01*
X66619Y396909D01*
X65000Y397231D01*
D02*
G37*
G36*
X726000Y354231D02*
X724381Y353909D01*
X723008Y352992D01*
X722091Y351619D01*
X721769Y350000D01*
X722091Y348381D01*
X723008Y347008D01*
X724381Y346091D01*
X726000Y345769D01*
X727619Y346091D01*
X728992Y347008D01*
X729909Y348381D01*
X730231Y350000D01*
X729909Y351619D01*
X728992Y352992D01*
X727619Y353909D01*
X726000Y354231D01*
D02*
G37*
G36*
X718000Y340231D02*
X716381Y339909D01*
X715008Y338992D01*
X714091Y337619D01*
X713769Y336000D01*
X714091Y334381D01*
X715008Y333008D01*
X716381Y332091D01*
X718000Y331769D01*
X719619Y332091D01*
X720992Y333008D01*
X721909Y334381D01*
X722231Y336000D01*
X721909Y337619D01*
X720992Y338992D01*
X719619Y339909D01*
X718000Y340231D01*
D02*
G37*
G36*
X708000D02*
X706381Y339909D01*
X705008Y338992D01*
X704091Y337619D01*
X703769Y336000D01*
X704091Y334381D01*
X705008Y333008D01*
X706381Y332091D01*
X708000Y331769D01*
X709619Y332091D01*
X710992Y333008D01*
X711909Y334381D01*
X712231Y336000D01*
X711909Y337619D01*
X710992Y338992D01*
X709619Y339909D01*
X708000Y340231D01*
D02*
G37*
G36*
X646000Y310231D02*
X644381Y309909D01*
X643008Y308992D01*
X642091Y307619D01*
X641769Y306000D01*
X642091Y304381D01*
X643008Y303008D01*
X644381Y302091D01*
X646000Y301769D01*
X647619Y302091D01*
X648992Y303008D01*
X649909Y304381D01*
X650231Y306000D01*
X649909Y307619D01*
X648992Y308992D01*
X647619Y309909D01*
X646000Y310231D01*
D02*
G37*
G36*
X632000D02*
X630381Y309909D01*
X629008Y308992D01*
X628091Y307619D01*
X627769Y306000D01*
X628091Y304381D01*
X629008Y303008D01*
X630381Y302091D01*
X632000Y301769D01*
X633619Y302091D01*
X634992Y303008D01*
X635909Y304381D01*
X636231Y306000D01*
X635909Y307619D01*
X634992Y308992D01*
X633619Y309909D01*
X632000Y310231D01*
D02*
G37*
G36*
X725000Y300212D02*
X723771Y299967D01*
X722729Y299271D01*
X722033Y298229D01*
X721788Y297000D01*
X722033Y295771D01*
X722729Y294729D01*
X723771Y294033D01*
X725000Y293788D01*
X726229Y294033D01*
X727271Y294729D01*
X727967Y295771D01*
X728212Y297000D01*
X727967Y298229D01*
X727271Y299271D01*
X726229Y299967D01*
X725000Y300212D01*
D02*
G37*
G36*
X459250Y267974D02*
X429292D01*
X429151Y267916D01*
X428998Y267929D01*
X428819Y267778D01*
X428603Y267689D01*
X428545Y267547D01*
X428427Y267449D01*
X427768Y266179D01*
X427756Y266038D01*
X427677Y265920D01*
X427725Y265680D01*
X427704Y265436D01*
X427795Y265328D01*
X427822Y265189D01*
X428050Y264849D01*
X428218Y264000D01*
X428050Y263151D01*
X427569Y262431D01*
X427459Y262358D01*
X427403Y262275D01*
X427311Y262237D01*
X427202Y261974D01*
X427045Y261738D01*
X427064Y261640D01*
X427026Y261548D01*
Y253000D01*
X427311Y252311D01*
X428000Y252026D01*
X455000D01*
X455689Y252311D01*
X460404Y257026D01*
X464000D01*
X464689Y257311D01*
X464705Y257350D01*
X465400D01*
Y266650D01*
X461247D01*
X459859Y267761D01*
X459548Y267850D01*
X459250Y267974D01*
D02*
G37*
G36*
X725000Y274212D02*
X723771Y273967D01*
X722729Y273271D01*
X722033Y272229D01*
X721788Y271000D01*
X722033Y269771D01*
X722729Y268729D01*
X723771Y268033D01*
X725000Y267788D01*
X726229Y268033D01*
X727271Y268729D01*
X727967Y269771D01*
X728212Y271000D01*
X727967Y272229D01*
X727271Y273271D01*
X726229Y273967D01*
X725000Y274212D01*
D02*
G37*
G36*
X630000Y272212D02*
X628771Y271967D01*
X627729Y271271D01*
X627033Y270229D01*
X626788Y269000D01*
X627033Y267771D01*
X627729Y266729D01*
X628771Y266033D01*
X630000Y265788D01*
X631229Y266033D01*
X632271Y266729D01*
X632967Y267771D01*
X633212Y269000D01*
X632967Y270229D01*
X632271Y271271D01*
X631229Y271967D01*
X630000Y272212D01*
D02*
G37*
G36*
X466000Y332212D02*
X464771Y331967D01*
X463729Y331271D01*
X463033Y330229D01*
X462788Y329000D01*
X463033Y327771D01*
X463729Y326729D01*
X464063Y326506D01*
Y274494D01*
X463729Y274271D01*
X463033Y273229D01*
X462788Y272000D01*
X463033Y270771D01*
X463729Y269729D01*
X464771Y269033D01*
X466000Y268788D01*
X466756Y268939D01*
X468026Y268154D01*
Y268000D01*
X468311Y267311D01*
X469000Y267026D01*
X477009D01*
X477026Y267000D01*
Y262650D01*
X477311Y261961D01*
X478000Y261676D01*
X478426D01*
Y254324D01*
X478000D01*
X477311Y254039D01*
X477026Y253350D01*
Y252974D01*
X474000D01*
X473311Y252689D01*
X473026Y252000D01*
Y244974D01*
X465400D01*
X464711Y244689D01*
X464560Y244324D01*
X463000D01*
X462311Y244039D01*
X462026Y243350D01*
Y238974D01*
X456000D01*
X455311Y238689D01*
X455026Y238000D01*
Y204403D01*
X453224Y202602D01*
X452729Y202271D01*
X452398Y201775D01*
X451311Y200689D01*
X451026Y200000D01*
Y196000D01*
X451311Y195311D01*
X452000Y195026D01*
X470000D01*
X470689Y195311D01*
X470974Y196000D01*
Y212076D01*
X472000Y213026D01*
X488000D01*
X488689Y213311D01*
X488974Y214000D01*
Y227000D01*
X488689Y227689D01*
X488000Y227974D01*
X472000D01*
X470974Y228924D01*
Y237026D01*
X476600D01*
X477289Y237311D01*
X477440Y237676D01*
X487400D01*
X487518Y237725D01*
X487645Y237707D01*
X487851Y237863D01*
X488089Y237961D01*
X488138Y238079D01*
X488240Y238157D01*
X488840Y239178D01*
X488876Y239433D01*
X488974Y239671D01*
Y253548D01*
X488936Y253640D01*
X488955Y253738D01*
X488797Y253974D01*
X488689Y254237D01*
X488597Y254275D01*
X488541Y254358D01*
X488431Y254431D01*
X487950Y255151D01*
X487781Y256000D01*
X487950Y256849D01*
X488431Y257569D01*
X489151Y258050D01*
X490000Y258218D01*
X490849Y258050D01*
X491569Y257569D01*
X491642Y257459D01*
X491725Y257403D01*
X491763Y257311D01*
X492026Y257202D01*
X492262Y257045D01*
X492360Y257064D01*
X492452Y257026D01*
X500000D01*
X500689Y257311D01*
X500974Y258000D01*
Y267000D01*
X500689Y267689D01*
X500000Y267974D01*
X497400D01*
Y268650D01*
X486974D01*
Y277000D01*
X486689Y277689D01*
X486000Y277974D01*
X469000D01*
X467937Y278909D01*
Y326506D01*
X468271Y326729D01*
X468967Y327771D01*
X469212Y329000D01*
X468967Y330229D01*
X468271Y331271D01*
X467229Y331967D01*
X466000Y332212D01*
D02*
G37*
G36*
X340000Y380000D02*
X80000D01*
X20000Y320000D01*
Y180000D01*
X76000Y124000D01*
X302000D01*
X358000Y180000D01*
X375000Y180000D01*
Y180451D01*
X376130Y181045D01*
X377026Y180443D01*
Y179098D01*
X377135Y178835D01*
X377190Y178557D01*
X377273Y178501D01*
X377311Y178409D01*
X377574Y178300D01*
X377810Y178142D01*
X378729Y177960D01*
X379449Y177479D01*
X379930Y176759D01*
X380118Y175810D01*
X380276Y175574D01*
X380385Y175311D01*
X380477Y175273D01*
X380533Y175190D01*
X380811Y175135D01*
X381074Y175026D01*
X382788D01*
X383293Y173860D01*
Y169750D01*
X383350Y169464D01*
Y162600D01*
X392650D01*
Y173400D01*
X389207D01*
Y175023D01*
X389212Y175026D01*
X414788D01*
X415051Y175135D01*
X415330Y175190D01*
X415385Y175273D01*
X415477Y175311D01*
X415586Y175574D01*
X415744Y175810D01*
X415950Y176849D01*
X416431Y177569D01*
X417151Y178050D01*
X418000Y178218D01*
X418849Y178050D01*
X419569Y177569D01*
X420050Y176849D01*
X420256Y175810D01*
X420414Y175574D01*
X420523Y175311D01*
X420615Y175273D01*
X420671Y175190D01*
X420949Y175135D01*
X421026Y175103D01*
Y162000D01*
X421311Y161311D01*
X422000Y161026D01*
X436000D01*
X436689Y161311D01*
X437311D01*
X438000Y161026D01*
X464000D01*
X464689Y161311D01*
X464974Y162000D01*
Y184000D01*
X464689Y184689D01*
X464000Y184974D01*
X438000D01*
X437311Y184689D01*
X436689D01*
X436000Y184974D01*
X421924D01*
X420974Y186000D01*
X420974Y186244D01*
Y189936D01*
X420936Y190028D01*
X420955Y190126D01*
X420782Y191000D01*
X420955Y191874D01*
X420936Y191972D01*
X420974Y192064D01*
Y196531D01*
X421271Y196729D01*
X421967Y197771D01*
X422212Y199000D01*
X421967Y200229D01*
X421271Y201271D01*
X420974Y201469D01*
Y214806D01*
X421212Y216000D01*
X420974Y217194D01*
Y222806D01*
X421212Y224000D01*
X420974Y225194D01*
Y230806D01*
X421212Y232000D01*
X420974Y233194D01*
Y242000D01*
X420689Y242689D01*
X420000Y242974D01*
X412704D01*
X411932Y244244D01*
X412232Y244821D01*
X412244Y244962D01*
X412323Y245080D01*
X412275Y245320D01*
X412296Y245564D01*
X412205Y245672D01*
X412178Y245811D01*
X411950Y246151D01*
X411782Y247000D01*
X411950Y247849D01*
X412431Y248569D01*
X413151Y249050D01*
X414000Y249219D01*
X414140Y249191D01*
X414176Y249198D01*
X414208Y249180D01*
X414537Y249270D01*
X414871Y249336D01*
X414892Y249366D01*
X414927Y249376D01*
X416197Y250361D01*
X416229Y250417D01*
X416289Y250442D01*
X416410Y250734D01*
X416566Y251008D01*
X416549Y251071D01*
X416574Y251131D01*
Y257426D01*
X422000D01*
X422689Y257711D01*
X422974Y258400D01*
Y280000D01*
X422689Y280689D01*
X422000Y280974D01*
X420589D01*
X420000Y282000D01*
Y300000D01*
X340000Y380000D01*
D02*
G37*
G36*
X725152Y248060D02*
X723923Y247816D01*
X722881Y247119D01*
X722184Y246077D01*
X721940Y244848D01*
X722184Y243619D01*
X722881Y242577D01*
X723923Y241881D01*
X725152Y241637D01*
X726381Y241881D01*
X727423Y242577D01*
X728119Y243619D01*
X728363Y244848D01*
X728119Y246077D01*
X727423Y247119D01*
X726381Y247816D01*
X725152Y248060D01*
D02*
G37*
G36*
X725000Y222212D02*
X723771Y221967D01*
X722729Y221271D01*
X722033Y220229D01*
X721788Y219000D01*
X722033Y217771D01*
X722729Y216729D01*
X723771Y216033D01*
X725000Y215788D01*
X726229Y216033D01*
X727271Y216729D01*
X727967Y217771D01*
X728212Y219000D01*
X727967Y220229D01*
X727271Y221271D01*
X726229Y221967D01*
X725000Y222212D01*
D02*
G37*
G36*
X630000Y247212D02*
X628771Y246967D01*
X627729Y246271D01*
X627033Y245229D01*
X626788Y244000D01*
X627033Y242771D01*
X627729Y241729D01*
X628063Y241506D01*
Y215494D01*
X627729Y215271D01*
X627033Y214229D01*
X626788Y213000D01*
X627033Y211771D01*
X627729Y210729D01*
X628771Y210033D01*
X630000Y209788D01*
X631229Y210033D01*
X632271Y210729D01*
X632967Y211771D01*
X633212Y213000D01*
X632967Y214229D01*
X632271Y215271D01*
X631937Y215494D01*
Y241506D01*
X632271Y241729D01*
X632967Y242771D01*
X633212Y244000D01*
X632967Y245229D01*
X632271Y246271D01*
X631229Y246967D01*
X630000Y247212D01*
D02*
G37*
G36*
X805000Y196212D02*
X803771Y195967D01*
X802729Y195271D01*
X802033Y194229D01*
X801788Y193000D01*
X802033Y191771D01*
X802729Y190729D01*
X803771Y190033D01*
X805000Y189788D01*
X806229Y190033D01*
X807271Y190729D01*
X807967Y191771D01*
X808212Y193000D01*
X807967Y194229D01*
X807271Y195271D01*
X806229Y195967D01*
X805000Y196212D01*
D02*
G37*
G36*
X569000Y187212D02*
X567771Y186967D01*
X566729Y186271D01*
X566033Y185229D01*
X565788Y184000D01*
X565867Y183606D01*
X560198Y177937D01*
X484494D01*
X484271Y178271D01*
X483229Y178967D01*
X482000Y179212D01*
X480771Y178967D01*
X479729Y178271D01*
X479033Y177229D01*
X478788Y176000D01*
X479033Y174771D01*
X479729Y173729D01*
X480771Y173033D01*
X482000Y172788D01*
X483229Y173033D01*
X484271Y173729D01*
X484494Y174063D01*
X561000D01*
X561000Y174063D01*
X561741Y174210D01*
X562370Y174630D01*
X568606Y180867D01*
X569000Y180788D01*
X570229Y181033D01*
X571271Y181729D01*
X571967Y182771D01*
X572212Y184000D01*
X571967Y185229D01*
X571271Y186271D01*
X570229Y186967D01*
X569000Y187212D01*
D02*
G37*
G36*
X780000Y177212D02*
X778771Y176967D01*
X777729Y176271D01*
X777033Y175229D01*
X776788Y174000D01*
X777033Y172771D01*
X777729Y171729D01*
X778771Y171033D01*
X780000Y170788D01*
X781229Y171033D01*
X782271Y171729D01*
X782967Y172771D01*
X783212Y174000D01*
X782967Y175229D01*
X782271Y176271D01*
X781229Y176967D01*
X780000Y177212D01*
D02*
G37*
G36*
X665000Y176212D02*
X663771Y175967D01*
X662729Y175271D01*
X662033Y174229D01*
X661788Y173000D01*
X662033Y171771D01*
X662729Y170729D01*
X663771Y170033D01*
X665000Y169788D01*
X666229Y170033D01*
X667271Y170729D01*
X667967Y171771D01*
X668212Y173000D01*
X667967Y174229D01*
X667271Y175271D01*
X666229Y175967D01*
X665000Y176212D01*
D02*
G37*
G36*
X362000Y171212D02*
X360771Y170967D01*
X359729Y170271D01*
X359033Y169229D01*
X358788Y168000D01*
X359033Y166771D01*
X359729Y165729D01*
X360771Y165033D01*
X362000Y164788D01*
X363229Y165033D01*
X364271Y165729D01*
X364967Y166771D01*
X365212Y168000D01*
X364967Y169229D01*
X364271Y170271D01*
X363229Y170967D01*
X362000Y171212D01*
D02*
G37*
G36*
X595000Y248212D02*
X593771Y247967D01*
X592729Y247271D01*
X592033Y246229D01*
X591788Y245000D01*
X592033Y243771D01*
X592729Y242729D01*
X593063Y242506D01*
Y135494D01*
X592729Y135271D01*
X592033Y134229D01*
X591788Y133000D01*
X592033Y131771D01*
X592729Y130729D01*
X593771Y130033D01*
X595000Y129788D01*
X596229Y130033D01*
X597271Y130729D01*
X597967Y131771D01*
X598212Y133000D01*
X597967Y134229D01*
X597271Y135271D01*
X596937Y135494D01*
Y242506D01*
X597271Y242729D01*
X597967Y243771D01*
X598212Y245000D01*
X597967Y246229D01*
X597271Y247271D01*
X596229Y247967D01*
X595000Y248212D01*
D02*
G37*
G36*
X414000Y116212D02*
X412771Y115967D01*
X411729Y115271D01*
X411506Y114937D01*
X396494D01*
X396271Y115271D01*
X395229Y115967D01*
X394000Y116212D01*
X392771Y115967D01*
X391729Y115271D01*
X391033Y114229D01*
X390788Y113000D01*
X391033Y111771D01*
X391729Y110729D01*
X392771Y110033D01*
X394000Y109788D01*
X395229Y110033D01*
X396271Y110729D01*
X396494Y111063D01*
X411506D01*
X411729Y110729D01*
X412771Y110033D01*
X414000Y109788D01*
X415229Y110033D01*
X416271Y110729D01*
X416967Y111771D01*
X417212Y113000D01*
X416967Y114229D01*
X416271Y115271D01*
X415229Y115967D01*
X414000Y116212D01*
D02*
G37*
G36*
X329000D02*
X327771Y115967D01*
X326729Y115271D01*
X326033Y114229D01*
X325788Y113000D01*
X326033Y111771D01*
X326729Y110729D01*
X327771Y110033D01*
X329000Y109788D01*
X330229Y110033D01*
X331271Y110729D01*
X331967Y111771D01*
X332212Y113000D01*
X331967Y114229D01*
X331271Y115271D01*
X330229Y115967D01*
X329000Y116212D01*
D02*
G37*
G36*
X174000Y118231D02*
X172381Y117909D01*
X171008Y116992D01*
X170091Y115619D01*
X169769Y114000D01*
X170091Y112381D01*
X171008Y111008D01*
X172381Y110091D01*
X174000Y109769D01*
X175619Y110091D01*
X176992Y111008D01*
X177909Y112381D01*
X178231Y114000D01*
X177909Y115619D01*
X176992Y116992D01*
X175619Y117909D01*
X174000Y118231D01*
D02*
G37*
G36*
X158000D02*
X156381Y117909D01*
X155008Y116992D01*
X154091Y115619D01*
X153769Y114000D01*
X154091Y112381D01*
X155008Y111008D01*
X156381Y110091D01*
X158000Y109769D01*
X159619Y110091D01*
X160992Y111008D01*
X161909Y112381D01*
X162231Y114000D01*
X161909Y115619D01*
X160992Y116992D01*
X159619Y117909D01*
X158000Y118231D01*
D02*
G37*
G36*
X142000D02*
X140381Y117909D01*
X139008Y116992D01*
X138091Y115619D01*
X137769Y114000D01*
X138091Y112381D01*
X139008Y111008D01*
X140381Y110091D01*
X142000Y109769D01*
X143619Y110091D01*
X144992Y111008D01*
X145909Y112381D01*
X146231Y114000D01*
X145909Y115619D01*
X144992Y116992D01*
X143619Y117909D01*
X142000Y118231D01*
D02*
G37*
G36*
X665000Y114212D02*
X663771Y113967D01*
X662729Y113271D01*
X662033Y112229D01*
X661788Y111000D01*
X662033Y109771D01*
X662729Y108729D01*
X663771Y108033D01*
X665000Y107788D01*
X666229Y108033D01*
X667271Y108729D01*
X667967Y109771D01*
X668212Y111000D01*
X667967Y112229D01*
X667271Y113271D01*
X666229Y113967D01*
X665000Y114212D01*
D02*
G37*
G36*
Y101212D02*
X663771Y100967D01*
X662729Y100271D01*
X662033Y99229D01*
X661788Y98000D01*
X662033Y96771D01*
X662729Y95729D01*
X663771Y95033D01*
X665000Y94788D01*
X666229Y95033D01*
X667271Y95729D01*
X667967Y96771D01*
X668212Y98000D01*
X667967Y99229D01*
X667271Y100271D01*
X666229Y100967D01*
X665000Y101212D01*
D02*
G37*
G36*
X807000Y99212D02*
X805771Y98967D01*
X804729Y98271D01*
X804033Y97229D01*
X803788Y96000D01*
X804033Y94771D01*
X804729Y93729D01*
X805771Y93033D01*
X807000Y92788D01*
X808229Y93033D01*
X809271Y93729D01*
X809967Y94771D01*
X810212Y96000D01*
X809967Y97229D01*
X809271Y98271D01*
X808229Y98967D01*
X807000Y99212D01*
D02*
G37*
G36*
X80000Y88231D02*
X78381Y87909D01*
X77008Y86992D01*
X76091Y85619D01*
X75769Y84000D01*
X76091Y82381D01*
X77008Y81008D01*
X78381Y80091D01*
X80000Y79769D01*
X81619Y80091D01*
X82992Y81008D01*
X83909Y82381D01*
X84231Y84000D01*
X83909Y85619D01*
X82992Y86992D01*
X81619Y87909D01*
X80000Y88231D01*
D02*
G37*
G36*
X70000D02*
X68381Y87909D01*
X67008Y86992D01*
X66091Y85619D01*
X65769Y84000D01*
X66091Y82381D01*
X67008Y81008D01*
X68381Y80091D01*
X70000Y79769D01*
X71619Y80091D01*
X72992Y81008D01*
X73909Y82381D01*
X74231Y84000D01*
X73909Y85619D01*
X72992Y86992D01*
X71619Y87909D01*
X70000Y88231D01*
D02*
G37*
G36*
X62000Y76231D02*
X60381Y75909D01*
X59008Y74992D01*
X58091Y73619D01*
X57769Y72000D01*
X58091Y70381D01*
X59008Y69008D01*
X60381Y68091D01*
X62000Y67769D01*
X63619Y68091D01*
X64992Y69008D01*
X65909Y70381D01*
X66231Y72000D01*
X65909Y73619D01*
X64992Y74992D01*
X63619Y75909D01*
X62000Y76231D01*
D02*
G37*
G36*
X665000Y70212D02*
X663771Y69967D01*
X662729Y69271D01*
X662033Y68229D01*
X661788Y67000D01*
X662033Y65771D01*
X662729Y64729D01*
X663771Y64033D01*
X665000Y63788D01*
X666229Y64033D01*
X667271Y64729D01*
X667967Y65771D01*
X668212Y67000D01*
X667967Y68229D01*
X667271Y69271D01*
X666229Y69967D01*
X665000Y70212D01*
D02*
G37*
G36*
Y44212D02*
X663771Y43967D01*
X662729Y43271D01*
X662033Y42229D01*
X661788Y41000D01*
X662033Y39771D01*
X662729Y38729D01*
X663771Y38033D01*
X665000Y37788D01*
X666229Y38033D01*
X667271Y38729D01*
X667967Y39771D01*
X668212Y41000D01*
X667967Y42229D01*
X667271Y43271D01*
X666229Y43967D01*
X665000Y44212D01*
D02*
G37*
G36*
X489000Y40212D02*
X487771Y39967D01*
X486729Y39271D01*
X486033Y38229D01*
X485788Y37000D01*
X486033Y35771D01*
X486729Y34729D01*
X487771Y34033D01*
X489000Y33788D01*
X490229Y34033D01*
X491271Y34729D01*
X491967Y35771D01*
X492212Y37000D01*
X491967Y38229D01*
X491271Y39271D01*
X490229Y39967D01*
X489000Y40212D01*
D02*
G37*
G36*
X152000Y31212D02*
X150771Y30967D01*
X149729Y30271D01*
X149033Y29229D01*
X148788Y28000D01*
X149033Y26771D01*
X149729Y25729D01*
X150771Y25033D01*
X152000Y24788D01*
X153229Y25033D01*
X154271Y25729D01*
X154967Y26771D01*
X155212Y28000D01*
X154967Y29229D01*
X154271Y30271D01*
X153229Y30967D01*
X152000Y31212D01*
D02*
G37*
G36*
X784000Y30212D02*
X782771Y29967D01*
X781729Y29271D01*
X781033Y28229D01*
X780788Y27000D01*
X781033Y25771D01*
X781729Y24729D01*
X782771Y24033D01*
X784000Y23788D01*
X785229Y24033D01*
X786271Y24729D01*
X786967Y25771D01*
X787212Y27000D01*
X786967Y28229D01*
X786271Y29271D01*
X785229Y29967D01*
X784000Y30212D01*
D02*
G37*
%LPD*%
G36*
X464000Y263200D02*
Y258000D01*
X460000D01*
X455000Y253000D01*
X428000D01*
Y261548D01*
X428271Y261729D01*
X428967Y262771D01*
X429212Y264000D01*
X428967Y265229D01*
X428633Y265730D01*
X429292Y267000D01*
X459250D01*
X464000Y263200D01*
D02*
G37*
G36*
X486000Y268000D02*
X469000D01*
Y270936D01*
X469212Y272000D01*
X469000Y273064D01*
Y277000D01*
X486000D01*
Y268000D01*
D02*
G37*
G36*
X500000Y258000D02*
X492452D01*
X492271Y258271D01*
X491229Y258967D01*
X490000Y259212D01*
X488771Y258967D01*
X487729Y258271D01*
X487033Y257229D01*
X486788Y256000D01*
X487033Y254771D01*
X487729Y253729D01*
X488000Y253548D01*
Y239671D01*
X487400Y238650D01*
X476600D01*
Y238000D01*
X470000D01*
Y196000D01*
X452000D01*
Y200000D01*
X456000Y204000D01*
Y238000D01*
X463000D01*
Y243350D01*
X465400D01*
Y244000D01*
X474000D01*
Y252000D01*
X478000D01*
Y253350D01*
X479400D01*
Y262650D01*
X478000D01*
Y267000D01*
X500000D01*
Y258000D01*
D02*
G37*
G36*
X488000Y214000D02*
X472000D01*
Y227000D01*
X488000D01*
Y214000D01*
D02*
G37*
G36*
X422000Y258400D02*
X415600D01*
Y251131D01*
X414330Y250146D01*
X414000Y250212D01*
X412771Y249967D01*
X411729Y249271D01*
X411033Y248229D01*
X410788Y247000D01*
X411033Y245771D01*
X411367Y245270D01*
X410708Y244000D01*
X404000D01*
Y184000D01*
X436000D01*
Y162000D01*
X422000D01*
Y176000D01*
X421212D01*
X420967Y177229D01*
X420271Y178271D01*
X419229Y178967D01*
X418000Y179212D01*
X416771Y178967D01*
X415729Y178271D01*
X415033Y177229D01*
X414788Y176000D01*
X389212D01*
X388967Y177229D01*
X388271Y178271D01*
X387229Y178967D01*
X386000Y179212D01*
X384771Y178967D01*
X383729Y178271D01*
X383033Y177229D01*
X382788Y176000D01*
X381074D01*
X380847Y177139D01*
X380151Y178181D01*
X379109Y178877D01*
X378000Y179098D01*
Y180788D01*
X379229Y181033D01*
X380271Y181729D01*
X380967Y182771D01*
X381212Y184000D01*
X380967Y185229D01*
X380271Y186271D01*
X379229Y186967D01*
X378000Y187212D01*
Y188788D01*
X379228Y189032D01*
X380270Y189729D01*
X380966Y190770D01*
X381211Y192000D01*
X380966Y193229D01*
X380270Y194271D01*
X379228Y194967D01*
X378000Y195211D01*
Y212000D01*
X388000D01*
Y213548D01*
X388270Y213729D01*
X388966Y214771D01*
X389211Y216000D01*
X388966Y217229D01*
X388632Y217730D01*
X389291Y219000D01*
X398000D01*
Y258000D01*
X412000D01*
Y261548D01*
X412271Y261729D01*
X412967Y262771D01*
X413212Y264000D01*
X412967Y265229D01*
X412271Y266271D01*
X412000Y266452D01*
Y280000D01*
X422000D01*
Y258400D01*
D02*
G37*
G36*
X420000Y192064D02*
X419788Y191000D01*
X420000Y189936D01*
Y186000D01*
X406000D01*
Y242000D01*
X420000D01*
Y192064D01*
D02*
G37*
G36*
X464000Y162000D02*
X438000D01*
Y184000D01*
X464000D01*
Y162000D01*
D02*
G37*
%LPC*%
G36*
X394000Y211212D02*
X392771Y210967D01*
X391729Y210271D01*
X391033Y209229D01*
X390788Y208000D01*
X391033Y206771D01*
X391043Y206755D01*
Y205400D01*
X389350D01*
Y194600D01*
X390421D01*
X391100Y193330D01*
X391033Y193229D01*
X390788Y192000D01*
X391033Y190771D01*
X391729Y189729D01*
X392771Y189033D01*
X394000Y188788D01*
X395229Y189033D01*
X396271Y189729D01*
X396967Y190771D01*
X397212Y192000D01*
X396967Y193229D01*
X396900Y193330D01*
X397579Y194600D01*
X398650D01*
Y205400D01*
X396957D01*
Y206756D01*
X396967Y206771D01*
X397212Y208000D01*
X396967Y209229D01*
X396271Y210271D01*
X395229Y210967D01*
X394000Y211212D01*
D02*
G37*
G36*
X385999Y187211D02*
X384770Y186967D01*
X383728Y186271D01*
X383032Y185229D01*
X382788Y184000D01*
X383032Y182771D01*
X383728Y181729D01*
X384770Y181032D01*
X385999Y180788D01*
X387228Y181032D01*
X388270Y181729D01*
X388966Y182771D01*
X389211Y184000D01*
X388966Y185229D01*
X388270Y186271D01*
X387228Y186967D01*
X385999Y187211D01*
D02*
G37*
%LPD*%
D10*
X86000Y468000D02*
Y480000D01*
Y468000D02*
X96000Y458000D01*
X354000Y470000D02*
X364000D01*
X367999Y473999D01*
X367999D01*
X595000Y133000D02*
Y245000D01*
X394000Y113000D02*
X414000D01*
X482000Y176000D02*
X561000D01*
X569000Y184000D01*
X630000Y213000D02*
Y244000D01*
X466000Y329000D02*
X466000Y329000D01*
X466000Y272000D02*
Y329000D01*
D12*
X394000Y200000D02*
X394000Y200000D01*
X394000Y208000D02*
X394000Y208000D01*
Y200000D02*
Y208000D01*
X480250Y221750D02*
X482000Y220000D01*
X476385Y221750D02*
X480250D01*
X474135Y224000D02*
X476385Y221750D01*
X474000Y224000D02*
X474135D01*
X386250Y169750D02*
X388000Y168000D01*
X386250Y169750D02*
Y175615D01*
X386000Y175865D02*
X386250Y175615D01*
X386000Y175865D02*
Y176000D01*
X374000Y168000D02*
X375750Y169750D01*
Y173645D01*
X377880Y175775D01*
Y175910D01*
D23*
X492000Y278000D02*
D03*
Y264000D02*
D03*
X474000Y258000D02*
D03*
Y272000D02*
D03*
X444000Y190000D02*
D03*
Y176000D02*
D03*
X457000Y190000D02*
D03*
Y176000D02*
D03*
X434000Y248000D02*
D03*
Y262000D02*
D03*
X447000Y248000D02*
D03*
Y262000D02*
D03*
X460000Y248000D02*
D03*
Y262000D02*
D03*
X482000Y234000D02*
D03*
Y220000D02*
D03*
D24*
X493000Y246000D02*
D03*
X479000D02*
D03*
X374000Y168000D02*
D03*
X388000D02*
D03*
X448000Y232000D02*
D03*
X462000D02*
D03*
X448000Y219000D02*
D03*
X462000D02*
D03*
X426000Y236000D02*
D03*
X412000D02*
D03*
X426000Y223000D02*
D03*
X412000D02*
D03*
X426000Y210000D02*
D03*
X412000D02*
D03*
X415000Y168000D02*
D03*
X429000D02*
D03*
X394000Y200000D02*
D03*
X380000D02*
D03*
X430000Y274000D02*
D03*
X416000D02*
D03*
D43*
X444000Y204000D02*
D03*
X462000D02*
D03*
X430000Y195000D02*
D03*
X412000D02*
D03*
X421000Y251000D02*
D03*
X403000D02*
D03*
D48*
X48000Y262000D02*
D03*
Y256000D02*
D03*
X295500Y514000D02*
D03*
X305000Y522000D02*
D03*
X341000Y476000D02*
D03*
X402000Y302000D02*
D03*
X386000Y302250D02*
D03*
X370000Y302000D02*
D03*
X466000Y248000D02*
D03*
X459000Y242000D02*
D03*
X489000Y37000D02*
D03*
X175000Y15000D02*
D03*
X17500Y37500D02*
D03*
Y107500D02*
D03*
Y170000D02*
D03*
X50000Y135000D02*
D03*
X90000Y117500D02*
D03*
X205000D02*
D03*
X255000D02*
D03*
X390000Y105000D02*
D03*
X487500Y117500D02*
D03*
X845000Y182500D02*
D03*
X822500Y15000D02*
D03*
X730000D02*
D03*
X670000D02*
D03*
X510000Y157500D02*
D03*
X750000Y340000D02*
D03*
X772500Y452500D02*
D03*
X715000Y405000D02*
D03*
X540000Y305000D02*
D03*
X520000Y290000D02*
D03*
X595000Y452500D02*
D03*
X577500Y425000D02*
D03*
X435000Y485000D02*
D03*
X482500Y417500D02*
D03*
X477500Y302500D02*
D03*
X380000Y365000D02*
D03*
X252500Y445000D02*
D03*
X365000Y517500D02*
D03*
X207500D02*
D03*
X192500Y385000D02*
D03*
X82500Y517500D02*
D03*
X20000Y392500D02*
D03*
X50000Y367500D02*
D03*
X20000Y337500D02*
D03*
X406000Y472000D02*
D03*
X466000Y412000D02*
D03*
X368000Y418000D02*
D03*
Y410000D02*
D03*
X348000Y418000D02*
D03*
Y412000D02*
D03*
X367999Y473999D02*
D03*
X354000Y470000D02*
D03*
X624000Y244000D02*
D03*
X636000Y213000D02*
D03*
X562000Y187000D02*
D03*
X589000Y245000D02*
D03*
X588000Y133000D02*
D03*
X385999Y216000D02*
D03*
X449999Y176000D02*
D03*
X450000Y168000D02*
D03*
X465999Y240000D02*
D03*
X50000Y180000D02*
D03*
X64000D02*
D03*
X50000Y190000D02*
D03*
X54000Y166000D02*
D03*
X92000Y269000D02*
D03*
X62000Y248000D02*
D03*
Y256000D02*
D03*
X385999Y184000D02*
D03*
X393999Y231999D02*
D03*
X106000Y264000D02*
D03*
X120000Y251999D02*
D03*
X814000Y29000D02*
D03*
X346000Y227000D02*
D03*
Y221000D02*
D03*
X342000Y150000D02*
D03*
X361000Y216000D02*
D03*
X595000Y133000D02*
D03*
Y245000D02*
D03*
X342000Y113000D02*
D03*
X394000D02*
D03*
X414000D02*
D03*
X482000Y176000D02*
D03*
X665000Y67000D02*
D03*
X284000Y470000D02*
D03*
X292000Y423000D02*
D03*
X328000Y442000D02*
D03*
X410000Y297000D02*
D03*
X394000D02*
D03*
X378000D02*
D03*
X120000Y244000D02*
D03*
X138250Y232000D02*
D03*
X129000Y174750D02*
D03*
X119000D02*
D03*
X150000Y184000D02*
D03*
X111000Y216000D02*
D03*
X86000Y325000D02*
D03*
X94000Y321000D02*
D03*
X90000Y248000D02*
D03*
X92000Y260000D02*
D03*
Y278000D02*
D03*
Y288000D02*
D03*
X358000Y272000D02*
D03*
X346000Y288750D02*
D03*
X138000Y216000D02*
D03*
X87864Y179863D02*
D03*
X630000Y244000D02*
D03*
X72000Y204000D02*
D03*
Y196000D02*
D03*
X150000Y194000D02*
D03*
X138758Y200050D02*
D03*
X128000Y212000D02*
D03*
X90000Y216000D02*
D03*
X466000Y329000D02*
D03*
X569000Y184000D02*
D03*
X725152Y244848D02*
D03*
X355000Y454000D02*
D03*
X111000Y300000D02*
D03*
X369999Y279999D02*
D03*
X346000Y272000D02*
D03*
X132000D02*
D03*
X142000D02*
D03*
X630000Y213000D02*
D03*
X630000Y256000D02*
D03*
Y269000D02*
D03*
X593000Y350000D02*
D03*
X595000Y363000D02*
D03*
X662000Y393000D02*
D03*
X152000Y28000D02*
D03*
X95000D02*
D03*
X192000Y58000D02*
D03*
X194000Y71000D02*
D03*
X59000Y468000D02*
D03*
X329000Y113000D02*
D03*
X480000Y402000D02*
D03*
X445000Y14000D02*
D03*
X430000D02*
D03*
X415000D02*
D03*
X400000D02*
D03*
X385000D02*
D03*
X370000D02*
D03*
X355000D02*
D03*
X339998D02*
D03*
X848000Y321000D02*
D03*
Y245000D02*
D03*
Y270000D02*
D03*
X805000Y193000D02*
D03*
X725000Y219000D02*
D03*
Y271000D02*
D03*
Y297000D02*
D03*
X665000Y98000D02*
D03*
X807000Y96000D02*
D03*
X665000Y173000D02*
D03*
Y111000D02*
D03*
Y41000D02*
D03*
X807000Y74000D02*
D03*
X788000Y19000D02*
D03*
X784000Y27000D02*
D03*
X806000Y154000D02*
D03*
X719000Y61000D02*
D03*
Y120000D02*
D03*
Y165000D02*
D03*
X780000Y174000D02*
D03*
X490000Y288000D02*
D03*
X544000Y248000D02*
D03*
X539000Y264000D02*
D03*
X574000Y304000D02*
D03*
X579000Y288000D02*
D03*
X466000Y272000D02*
D03*
X296000Y450000D02*
D03*
X308000Y423000D02*
D03*
X380850Y425000D02*
D03*
Y415000D02*
D03*
X426000Y264000D02*
D03*
X320000Y466000D02*
D03*
X458000Y272000D02*
D03*
X406000Y426000D02*
D03*
X214000Y454000D02*
D03*
Y440000D02*
D03*
X380000Y466000D02*
D03*
Y476000D02*
D03*
X259000Y417000D02*
D03*
Y427000D02*
D03*
Y478000D02*
D03*
Y468000D02*
D03*
X363000Y297150D02*
D03*
X410000Y264000D02*
D03*
X184000Y293750D02*
D03*
X136000Y284000D02*
D03*
X62000Y200000D02*
D03*
Y216000D02*
D03*
X105848Y256152D02*
D03*
X111000Y248000D02*
D03*
X120000Y228000D02*
D03*
X72000D02*
D03*
X64000Y276000D02*
D03*
X370000Y224000D02*
D03*
X138000Y248000D02*
D03*
X159000Y246750D02*
D03*
X169000D02*
D03*
X106000Y281000D02*
D03*
Y291000D02*
D03*
X192000Y290750D02*
D03*
X128000Y299999D02*
D03*
X136000Y300000D02*
D03*
X128848Y307152D02*
D03*
X80000Y275999D02*
D03*
X71000Y300000D02*
D03*
X80297Y292000D02*
D03*
X64000D02*
D03*
X49000Y294000D02*
D03*
X120000Y284000D02*
D03*
X394000Y272000D02*
D03*
Y264000D02*
D03*
X120000Y260000D02*
D03*
X394000Y192000D02*
D03*
X394000Y208000D02*
D03*
X111152Y232152D02*
D03*
X62000Y232000D02*
D03*
X76000Y145000D02*
D03*
X110000Y200000D02*
D03*
X136000Y180000D02*
D03*
X90000Y200000D02*
D03*
X128000Y188000D02*
D03*
X377999Y192000D02*
D03*
X90000Y232000D02*
D03*
X72000Y284000D02*
D03*
Y268000D02*
D03*
X80000Y260000D02*
D03*
X120000Y276000D02*
D03*
X80000Y236000D02*
D03*
X71000Y307000D02*
D03*
X119000D02*
D03*
X61000D02*
D03*
X49000Y284000D02*
D03*
X19000Y212000D02*
D03*
X54000Y156000D02*
D03*
X112000Y180000D02*
D03*
X402000Y272000D02*
D03*
X378000Y184000D02*
D03*
X386000Y208000D02*
D03*
X402000Y264000D02*
D03*
X447000Y241000D02*
D03*
X474000Y264000D02*
D03*
X418000D02*
D03*
X482000D02*
D03*
X386000Y176000D02*
D03*
X377880Y175910D02*
D03*
X418000Y216000D02*
D03*
Y224000D02*
D03*
Y232000D02*
D03*
X414000Y247000D02*
D03*
X410000Y255000D02*
D03*
X455000Y200000D02*
D03*
X451000Y208000D02*
D03*
X466000Y224000D02*
D03*
X423000Y191000D02*
D03*
X490000Y256000D02*
D03*
X474000Y208000D02*
D03*
Y200000D02*
D03*
X482000Y256000D02*
D03*
X362000Y168000D02*
D03*
X378000Y160000D02*
D03*
X434000Y241000D02*
D03*
X450000Y256000D02*
D03*
X442000D02*
D03*
X419000Y199000D02*
D03*
X442000Y216000D02*
D03*
Y224000D02*
D03*
Y232000D02*
D03*
X434000Y216000D02*
D03*
Y224000D02*
D03*
Y232000D02*
D03*
X474000D02*
D03*
Y224000D02*
D03*
X418000Y176000D02*
D03*
X426000D02*
D03*
X482000Y272000D02*
D03*
X434000Y256000D02*
D03*
D78*
X228000Y156459D02*
X234220D01*
X216340Y172339D02*
X218365Y174364D01*
X245880Y168940D02*
Y172184D01*
X192280Y173425D02*
X195840Y176984D01*
X192280Y161104D02*
Y173425D01*
X249440Y165380D02*
X254498D01*
X216340Y160019D02*
Y172339D01*
X203000Y160019D02*
X206560Y156459D01*
X229085Y159079D02*
X233135D01*
X184180Y161104D02*
X186205Y159079D01*
X194900Y172339D02*
X196925Y174364D01*
X227060Y161104D02*
X229085Y159079D01*
X239805Y174209D02*
X243855D01*
X237780Y160019D02*
Y172184D01*
X202060Y176984D02*
X205620Y173425D01*
X181560Y160019D02*
Y172339D01*
X244940Y176829D02*
X248500Y173269D01*
X213720Y161104D02*
Y173425D01*
X175485Y174364D02*
X179535D01*
X235160Y161104D02*
Y173269D01*
X181560Y160019D02*
X185120Y156459D01*
X190255Y159079D02*
X192280Y161104D01*
X195840Y176984D02*
X202060D01*
X203000Y160019D02*
Y172339D01*
X213720Y173425D02*
X217280Y176984D01*
X248500Y170025D02*
X250525Y168000D01*
X238720Y176829D02*
X244940D01*
X237780Y172184D02*
X239805Y174209D01*
X250525Y168000D02*
X254498D01*
X173460Y168940D02*
Y172339D01*
X217280Y176984D02*
X223500D01*
X179535Y174364D02*
X181560Y172339D01*
X223500Y176984D02*
X227060Y173425D01*
X235160Y173269D02*
X238720Y176829D01*
X224440Y160019D02*
Y172339D01*
X170840Y173425D02*
X174400Y176984D01*
X218365Y174364D02*
X222415D01*
X191340Y156459D02*
X194900Y160019D01*
X180620Y176984D02*
X184180Y173425D01*
X205620Y161104D02*
Y173425D01*
X224440Y160019D02*
X228000Y156459D01*
X206560D02*
X212780D01*
X245880Y168940D02*
X249440Y165380D01*
X173460Y172339D02*
X175485Y174364D01*
X248500Y170025D02*
Y173269D01*
X185120Y156459D02*
X191340D01*
X200975Y174364D02*
X203000Y172339D01*
X168815Y168000D02*
X170840Y170025D01*
Y173425D01*
X169900Y165380D02*
X173460Y168940D01*
X211695Y159079D02*
X213720Y161104D01*
X167498Y168000D02*
X168815D01*
X205620Y161104D02*
X207645Y159079D01*
X167498Y165380D02*
X169900D01*
X233135Y159079D02*
X235160Y161104D01*
X194900Y160019D02*
Y172339D01*
X243855Y174209D02*
X245880Y172184D01*
X234220Y156459D02*
X237780Y160019D01*
X222415Y174364D02*
X224440Y172339D01*
X184180Y161104D02*
Y173425D01*
X186205Y159079D02*
X190255D01*
X212780Y156459D02*
X216340Y160019D01*
X174400Y176984D02*
X180620D01*
X196925Y174364D02*
X200975D01*
X207645Y159079D02*
X211695D01*
X227060Y161104D02*
Y173425D01*
X254498Y165380D02*
X278232D01*
X254498Y168000D02*
X277147D01*
X103915Y165380D02*
X167498D01*
X105000Y168000D02*
X167498D01*
X97380Y171915D02*
Y173000D01*
Y201000D01*
X90380Y208000D02*
X97380Y201000D01*
X64915Y222380D02*
X79295Y208000D01*
X90380D01*
X47346Y262000D02*
X48000D01*
X48915Y222380D02*
X64915D01*
X40910Y230385D02*
X48915Y222380D01*
X45656Y260310D02*
X47346Y262000D01*
X43089Y260310D02*
X45656D01*
X40910Y230385D02*
Y258131D01*
X43089Y260310D01*
X49500Y247207D02*
Y248757D01*
X48725Y249532D02*
X49500Y248757D01*
X91465Y210620D02*
X100000Y202085D01*
Y173000D02*
Y202085D01*
X66000Y225000D02*
X80380Y210620D01*
X91465D01*
X50000Y225000D02*
X66000D01*
X45656Y257690D02*
X47346Y256000D01*
X48000D01*
X44175Y257690D02*
X45656D01*
X43530Y257046D02*
X44175Y257690D01*
X43530Y250307D02*
Y252000D01*
Y257046D01*
X48725Y246432D02*
X49500Y247207D01*
X44305Y249532D02*
X48725D01*
X44305Y246432D02*
X48725D01*
X43530Y231470D02*
X50000Y225000D01*
X43530Y245657D02*
X44305Y246432D01*
X43530Y250307D02*
X44305Y249532D01*
X43530Y231470D02*
Y242007D01*
Y245657D01*
X305343Y198818D02*
X306198Y197962D01*
X278232Y165380D02*
X308051Y195198D01*
X309818Y194343D02*
X314343D01*
X308962Y195198D02*
X309818Y194343D01*
X308051Y195198D02*
X308962D01*
X305343Y198818D02*
Y203343D01*
X306198Y197051D02*
Y197962D01*
X277147Y168000D02*
X306198Y197051D01*
X100000Y173000D02*
X105000Y168000D01*
X97380Y171915D02*
X103915Y165380D01*
X333867Y220103D02*
X334292Y219678D01*
Y218936D02*
Y219678D01*
X333867Y220103D02*
Y221014D01*
X333549Y218193D02*
X334292Y218936D01*
X332807Y218193D02*
X333549D01*
X324802Y211949D02*
X331471Y218618D01*
X332382D02*
X332807Y218193D01*
X331471Y218618D02*
X332382D01*
X333867Y221014D02*
X335543Y222690D01*
X343656D01*
X334457Y225310D02*
X343656D01*
X322949Y213802D02*
X334457Y225310D01*
X343656D02*
X345346Y227000D01*
X346000D01*
X343656Y222690D02*
X345346Y221000D01*
X346000D01*
X316657Y214657D02*
X321182D01*
X322038Y213802D01*
X322949D01*
X325657Y205657D02*
Y210182D01*
X324802Y211038D02*
X325657Y210182D01*
X324802Y211038D02*
Y211949D01*
D80*
X207621Y196713D02*
X210221D01*
X185521Y198013D02*
X186821Y196713D01*
X180322Y198013D02*
Y206700D01*
X218021Y196713D02*
X220621D01*
X268721Y198300D02*
Y206700D01*
X225821Y208000D02*
X227121Y206700D01*
X192021Y208000D02*
X194621D01*
X267421D02*
X268721Y206700D01*
X195921Y198013D02*
Y206700D01*
X189421Y196713D02*
X190721Y198013D01*
X242721D02*
Y206700D01*
X231021Y196713D02*
X232321Y198013D01*
X216721D02*
Y206700D01*
X228421Y196713D02*
X231021D01*
X270021Y197000D02*
X275821D01*
X268721Y198300D02*
X270021Y197000D01*
X251821Y196713D02*
X253121Y198013D01*
X210221Y196713D02*
X211521Y198013D01*
X181621Y208000D02*
X184221D01*
X215421D02*
X216721Y206700D01*
X254421Y208000D02*
X257021D01*
X220621Y196713D02*
X221921Y198013D01*
X216721D02*
X218021Y196713D01*
X249221D02*
X251821D01*
X211521Y198013D02*
Y206700D01*
X232321Y198013D02*
Y206700D01*
X205021Y208000D02*
X206321Y206700D01*
X169921Y206076D02*
X171222Y207376D01*
X241421Y196713D02*
X242721Y198013D01*
X237521D02*
X238821Y196713D01*
X173822Y207376D02*
X175121Y206076D01*
X194621Y208000D02*
X195921Y206700D01*
X201121Y198013D02*
Y206700D01*
X227121Y198013D02*
Y206700D01*
X168622Y197000D02*
X169921Y198300D01*
Y206076D01*
X175121Y198013D02*
X176422Y196713D01*
X262221D02*
X263521Y198013D01*
X242721Y206700D02*
X244021Y208000D01*
X179021Y196713D02*
X180322Y198013D01*
X221921Y206700D02*
X223221Y208000D01*
X233621D02*
X236221D01*
X237521Y206700D01*
X263521Y198013D02*
Y206700D01*
X247921Y198013D02*
X249221Y196713D01*
X258321Y198013D02*
X259621Y196713D01*
X184221Y208000D02*
X185521Y206700D01*
X186821Y196713D02*
X189421D01*
X244021Y208000D02*
X246621D01*
X253121Y198013D02*
Y206700D01*
X159000Y197000D02*
X168622D01*
X180322Y206700D02*
X181621Y208000D01*
X232321Y206700D02*
X233621Y208000D01*
X247921Y198013D02*
Y206700D01*
X202421Y208000D02*
X205021D01*
X206321Y198013D02*
Y206700D01*
X212821Y208000D02*
X215421D01*
X201121Y206700D02*
X202421Y208000D01*
X259621Y196713D02*
X262221D01*
X197221D02*
X199821D01*
X190721Y206700D02*
X192021Y208000D01*
X227121Y198013D02*
X228421Y196713D01*
X171222Y207376D02*
X173822D01*
X206321Y198013D02*
X207621Y196713D01*
X253121Y206700D02*
X254421Y208000D01*
X175121Y198013D02*
Y206076D01*
X221921Y198013D02*
Y206700D01*
X238821Y196713D02*
X241421D01*
X176422D02*
X179021D01*
X185521Y198013D02*
Y206700D01*
X195921Y198013D02*
X197221Y196713D01*
X211521Y206700D02*
X212821Y208000D01*
X237521Y198013D02*
Y206700D01*
X246621Y208000D02*
X247921Y206700D01*
X264821Y208000D02*
X267421D01*
X223221D02*
X225821D01*
X263521Y206700D02*
X264821Y208000D01*
X258321Y198013D02*
Y206700D01*
X199821Y196713D02*
X201121Y198013D01*
X257021Y208000D02*
X258321Y206700D01*
X190721Y198013D02*
Y206700D01*
X281000Y197000D02*
X316000Y232000D01*
X158000Y197000D02*
X159000D01*
X275821D02*
X281000D01*
X149000Y206000D02*
X158000Y197000D01*
X316000Y232000D02*
X362000D01*
X109000Y206000D02*
X149000D01*
X307829Y338220D02*
Y339000D01*
X346000Y308000D02*
X360600Y293400D01*
X343000Y308000D02*
X346000D01*
X307829Y339000D02*
X308829Y340000D01*
X311000D02*
X343000Y308000D01*
X308829Y340000D02*
X311000D01*
X314242Y356000D02*
X317000D01*
X366000Y307000D01*
X379125Y309125D02*
X386000Y302250D01*
X371697Y312303D02*
X374875Y309125D01*
X379125D01*
X371697Y312303D02*
Y313697D01*
X375003Y317003D01*
X372000Y321000D02*
X375003Y317997D01*
Y317003D02*
Y317997D01*
X364794Y315860D02*
X369934Y321000D01*
X372000D01*
X377950Y297050D02*
X378000Y297000D01*
X377950Y297050D02*
Y301050D01*
X372000Y307000D02*
X377950Y301050D01*
X366000Y307000D02*
X372000D01*
X329000Y369000D02*
X396000Y302000D01*
X402000D01*
X333000Y373000D02*
X397000Y309000D01*
X403000D02*
X410000Y302000D01*
X397000Y309000D02*
X403000D01*
X410000Y297000D02*
Y302000D01*
X370000Y297000D02*
Y302000D01*
X366400Y293400D02*
X370000Y297000D01*
X105879Y344394D02*
X106409Y343864D01*
X107894D01*
X109379Y345349D02*
Y346834D01*
X101000Y341000D02*
X104394Y344394D01*
X108849Y347364D02*
X109379Y346834D01*
X104394Y344394D02*
X105879Y344394D01*
X107894Y343864D02*
X109379Y345349D01*
X108849Y348849D02*
X110000Y350000D01*
X108849Y348849D02*
X108849Y347364D01*
X141586Y318233D02*
X141586Y316748D01*
X142424Y315909D01*
X145394Y318879D02*
X146879Y318879D01*
X142000Y314000D02*
X142424Y314424D01*
X144556Y319718D02*
X145394Y318879D01*
X142424Y315909D02*
X142424Y314424D01*
X143071Y319718D02*
X144556Y319718D01*
X141586Y318233D02*
X143071Y319718D01*
X146879Y318879D02*
X151000Y323000D01*
X133843Y253200D02*
X135143Y254500D01*
X129700Y248000D02*
X131000Y246700D01*
X128269Y253200D02*
X133843D01*
X128269Y248000D02*
X129700D01*
X126969Y249300D02*
X128269Y248000D01*
X131000Y245000D02*
Y246700D01*
X126969Y251900D02*
X128269Y253200D01*
X133843Y258400D02*
X135143Y257100D01*
X126969Y249300D02*
Y251900D01*
X129000Y259000D02*
X129600Y258400D01*
X135143Y254500D02*
Y257100D01*
X129600Y258400D02*
X133843D01*
X100000Y243600D02*
X101300Y242300D01*
X101300D02*
X102600Y241000D01*
X98700Y231900D02*
X100000Y230600D01*
X96236Y231900D02*
X98700D01*
X100000Y243600D02*
Y250303D01*
X102600Y238400D02*
Y241000D01*
X100000Y215000D02*
Y230600D01*
X94936Y235800D02*
X96236Y237100D01*
X101300D02*
X102600Y238400D01*
X94936Y233200D02*
Y235800D01*
X96236Y237100D02*
X101300D01*
X101300Y242300D02*
X101300D01*
X94936Y233200D02*
X96236Y231900D01*
X40100Y289750D02*
X42700D01*
X37500Y279000D02*
X38800Y280300D01*
X45300Y279000D02*
X46900D01*
X38800Y288451D02*
X40100Y289750D01*
X42700D02*
X44000Y288451D01*
Y280300D02*
X45300Y279000D01*
X44000Y280300D02*
Y288451D01*
X38800Y280300D02*
Y288451D01*
X36900Y279000D02*
X37500D01*
X75905Y251012D02*
Y258700D01*
X77206Y260000D02*
X79190D01*
X72006Y249711D02*
X74605D01*
X69405Y260000D02*
X70705Y258700D01*
Y251012D02*
Y258700D01*
X74605Y249711D02*
X75905Y251012D01*
X61767Y263263D02*
X65030Y260000D01*
X70705Y251012D02*
X72006Y249711D01*
X75905Y258700D02*
X77206Y260000D01*
X65030D02*
X69405D01*
X72818Y320201D02*
Y322800D01*
X59419Y315000D02*
X60719Y313701D01*
X59419Y317600D02*
X60719Y318901D01*
X59419Y315000D02*
Y317600D01*
X64700Y329300D02*
X66000Y330601D01*
Y331000D02*
X66964Y331964D01*
X64700Y313701D02*
X66000Y312400D01*
X71518Y324100D02*
X72818Y322800D01*
X66000Y330601D02*
Y331000D01*
X60719Y324100D02*
X71518D01*
X59419Y328000D02*
X60719Y329300D01*
X64700D01*
X59419Y325401D02*
X60719Y324100D01*
X71518Y318901D02*
X72818Y320201D01*
X66000Y311800D02*
Y312400D01*
X60719Y318901D02*
X71518D01*
X59419Y325401D02*
Y328000D01*
X60719Y313701D02*
X64700D01*
X53700Y329800D02*
X55000Y331100D01*
X56450Y320700D02*
Y323300D01*
X49920Y318100D02*
X51220Y319400D01*
X49920Y328500D02*
X51220Y329800D01*
X53700Y303800D02*
X55000Y302500D01*
X55150Y314200D02*
X56450Y312900D01*
X49920Y315500D02*
X51220Y314200D01*
Y309000D02*
X55150D01*
X51220Y324600D02*
X55150D01*
X55000Y331100D02*
Y335894D01*
X49920Y307700D02*
X51220Y309000D01*
Y329800D02*
X53700D01*
X51220Y303800D02*
X53700D01*
X55150Y319400D02*
X56450Y320700D01*
X49920Y325900D02*
Y328500D01*
Y305100D02*
X51220Y303800D01*
X49920Y315500D02*
Y318100D01*
Y325900D02*
X51220Y324600D01*
X55150D02*
X56450Y323300D01*
X51220Y314200D02*
X55150D01*
X51220Y319400D02*
X55150D01*
X55000Y301900D02*
Y302500D01*
X55150Y309000D02*
X56450Y310300D01*
Y312900D01*
X49920Y305100D02*
Y307700D01*
X65473Y346111D02*
X67312Y346111D01*
X68626Y355827D02*
X70465Y355827D01*
X87273Y370273D02*
X88758Y371758D01*
X75980Y363181D02*
X77819Y363181D01*
X74142Y361343D02*
X74142Y359504D01*
X81496Y368697D02*
X83334Y370535D01*
X83858Y364496D02*
X83858Y362657D01*
X66788Y353989D02*
X68626Y355827D01*
X63111Y348473D02*
X65473Y346111D01*
X59272Y342272D02*
X59696Y342696D01*
X76504Y357142D02*
X76504Y355303D01*
X83334Y370535D02*
X85173Y370535D01*
X85435Y370273D02*
X87273D01*
X67312Y346111D02*
X69150Y347949D01*
X59434Y346635D02*
X59434Y344796D01*
X69150Y349788D02*
X69150Y347949D01*
X74142Y359504D02*
X76504Y357142D01*
X72827Y353465D02*
X74666Y353465D01*
X80181Y360819D02*
X82020Y360819D01*
X59434Y344796D02*
X59696Y344534D01*
X70465Y355827D02*
X72827Y353465D01*
X66788Y352150D02*
X69150Y349788D01*
X77819Y363181D02*
X80181Y360819D01*
X61273Y348474D02*
X63111Y348473D01*
X59434Y346635D02*
X61273Y348474D01*
X74666Y353465D02*
X76504Y355303D01*
X74142Y361343D02*
X75980Y363181D01*
X81496Y366858D02*
X83858Y364496D01*
X85173Y370535D02*
X85435Y370273D01*
X81496Y368697D02*
X81496Y366858D01*
X82020Y360819D02*
X83858Y362657D01*
X66788Y353989D02*
X66788Y352150D01*
X59696Y342696D02*
Y344534D01*
X66096Y339260D02*
X67934Y341098D01*
X75288Y348452D02*
X77127D01*
X80804Y352129D02*
X86014Y346919D01*
X69773Y341098D02*
X74983Y335888D01*
X76822D02*
X78660Y337726D01*
X73450Y344775D02*
X78660Y339565D01*
X73450Y344775D02*
Y346614D01*
X99593Y364593D02*
X103500Y368500D01*
X80804Y352129D02*
Y353967D01*
X89996Y363160D02*
X91834D01*
X88158Y359483D02*
X93368Y354273D01*
X91834Y363160D02*
X97045Y357950D01*
X67915Y332915D02*
X68339Y333339D01*
X82642Y355806D02*
X84481D01*
X68339Y333339D02*
Y335178D01*
X97045Y357950D02*
X98883D01*
X73450Y346614D02*
X75288Y348452D01*
X89691Y350596D02*
X91529D01*
X82337Y343242D02*
X84175D01*
X99593Y362755D02*
X100722Y361627D01*
X80804Y353967D02*
X82642Y355806D01*
X99593Y364593D02*
X99593Y362755D01*
X78660Y337726D02*
Y339565D01*
X66096Y337421D02*
Y339260D01*
X98883Y357950D02*
X100722Y359788D01*
X88158Y361321D02*
X89996Y363160D01*
X67934Y341098D02*
X69773D01*
X74983Y335888D02*
X76822D01*
X93368Y352434D02*
Y354273D01*
X86014Y345080D02*
Y346919D01*
X77127Y348452D02*
X82337Y343242D01*
X100722Y359788D02*
Y361627D01*
X88158Y359483D02*
Y361321D01*
X91529Y350596D02*
X93368Y352434D01*
X66096Y337421D02*
X68339Y335178D01*
X84175Y343242D02*
X86014Y345080D01*
X84481Y355806D02*
X89691Y350596D01*
X123300Y332762D02*
Y337780D01*
X138900Y330194D02*
Y337780D01*
X161000Y326759D02*
X163600D01*
X111600Y334000D02*
X112900Y335300D01*
X155800Y339080D02*
X158400D01*
X180500Y328059D02*
Y337780D01*
X159700Y328059D02*
Y337780D01*
X179200Y339080D02*
X180500Y337780D01*
X133700Y332400D02*
Y337780D01*
X184400Y326759D02*
X185700Y328059D01*
X150600Y326759D02*
X153200D01*
X166200Y339080D02*
X168800D01*
X145400D02*
X148000D01*
X175300Y337780D02*
X176600Y339080D01*
X153200Y326759D02*
X154500Y328059D01*
X129800Y331100D02*
X132400D01*
X135000Y339080D02*
X137600D01*
X185700Y332700D02*
X187000Y334000D01*
X133700Y337780D02*
X135000Y339080D01*
X118100Y332762D02*
X119400Y331462D01*
X168800Y339080D02*
X170100Y337780D01*
X181800Y326759D02*
X184400D01*
X137600Y339080D02*
X138900Y337780D01*
X187000Y334000D02*
X189934D01*
X180500Y328059D02*
X181800Y326759D01*
X127200Y339080D02*
X128500Y337780D01*
X175300Y328059D02*
Y337780D01*
X163600Y326759D02*
X164900Y328059D01*
X149300D02*
X150600Y326759D01*
X174000D02*
X175300Y328059D01*
X112900Y337780D02*
X114200Y339080D01*
X170100Y328059D02*
Y337780D01*
X158400Y339080D02*
X159700Y337780D01*
X118100Y332762D02*
Y337780D01*
X138900Y330194D02*
X140200Y328894D01*
X119400Y331462D02*
X122000D01*
X148000Y339080D02*
X149300Y337780D01*
X111000Y334000D02*
X111600D01*
X144100Y330194D02*
Y337780D01*
X149300Y328059D02*
Y337780D01*
X154500Y328059D02*
Y337780D01*
X164900D02*
X166200Y339080D01*
X132400Y331100D02*
X133700Y332400D01*
X128500D02*
X129800Y331100D01*
X185700Y328059D02*
Y332700D01*
X142800Y328894D02*
X144100Y330194D01*
Y337780D02*
X145400Y339080D01*
X170100Y328059D02*
X171400Y326759D01*
X123300Y337780D02*
X124600Y339080D01*
X116800D02*
X118100Y337780D01*
X124600Y339080D02*
X127200D01*
X154500Y337780D02*
X155800Y339080D01*
X176600D02*
X179200D01*
X128500Y332400D02*
Y337780D01*
X164900Y328059D02*
Y337780D01*
X140200Y328894D02*
X142800D01*
X114200Y339080D02*
X116800D01*
X122000Y331462D02*
X123300Y332762D01*
X159700Y328059D02*
X161000Y326759D01*
X171400D02*
X174000D01*
X112900Y335300D02*
Y337780D01*
X152200Y358920D02*
X153500Y360220D01*
X115800Y364000D02*
X117100Y362700D01*
X137900Y360220D02*
X139200Y358920D01*
X148300Y360220D02*
X149600Y358920D01*
X153500Y364953D02*
X154800Y366253D01*
X127500Y360220D02*
Y364953D01*
X143100Y360220D02*
Y364953D01*
X122300D02*
X123600Y366253D01*
X128800Y358920D02*
X131400D01*
X132700Y360220D02*
Y364953D01*
X167800Y366253D02*
X169100Y364953D01*
X173000Y358920D02*
X174300Y360220D01*
X141800Y358920D02*
X143100Y360220D01*
X147000Y366253D02*
X148300Y364953D01*
X154800Y366253D02*
X157400D01*
X149600Y358920D02*
X152200D01*
X174300Y360220D02*
Y362700D01*
X148300Y360220D02*
Y364953D01*
X122300Y360220D02*
Y364953D01*
X158700Y360220D02*
X160000Y358920D01*
X118400D02*
X121000D01*
X163900Y364953D02*
X165200Y366253D01*
X153500Y360220D02*
Y364953D01*
X117100Y360220D02*
X118400Y358920D01*
X121000D02*
X122300Y360220D01*
X174300Y362700D02*
X175600Y364000D01*
X169100Y360220D02*
Y364953D01*
X162600Y358920D02*
X163900Y360220D01*
X126200Y366253D02*
X127500Y364953D01*
X157400Y366253D02*
X158700Y364953D01*
X165200Y366253D02*
X167800D01*
X158700Y360220D02*
Y364953D01*
X170400Y358920D02*
X173000D01*
X109000Y364000D02*
X115800D01*
X139200Y358920D02*
X141800D01*
X127500Y360220D02*
X128800Y358920D01*
X134000Y366253D02*
X136600D01*
X117100Y360220D02*
Y362700D01*
X160000Y358920D02*
X162600D01*
X163900Y360220D02*
Y364953D01*
X123600Y366253D02*
X126200D01*
X131400Y358920D02*
X132700Y360220D01*
X137900D02*
Y364953D01*
X132700D02*
X134000Y366253D01*
X143100Y364953D02*
X144400Y366253D01*
X136600D02*
X137900Y364953D01*
X169100Y360220D02*
X170400Y358920D01*
X144400Y366253D02*
X147000D01*
X141800Y344100D02*
X143100Y345400D01*
X127500D02*
Y351800D01*
X118400Y344100D02*
X121000D01*
X149600D02*
X152200D01*
X178200Y353101D02*
X179500Y351800D01*
X128800Y344100D02*
X131400D01*
X152200D02*
X153500Y345400D01*
X143100Y351800D02*
X144400Y353101D01*
X174300Y351800D02*
X175600Y353101D01*
X153500Y345400D02*
Y351800D01*
X158700Y345400D02*
Y351800D01*
X111000Y351000D02*
X115800D01*
X134000Y353101D02*
X136600D01*
X173000Y344100D02*
X174300Y345400D01*
X143100D02*
Y351800D01*
X167800Y353101D02*
X169100Y351800D01*
X137900Y345400D02*
Y351800D01*
X139200Y344100D02*
X141800D01*
X115800Y351000D02*
X117100Y349700D01*
Y345400D02*
X118400Y344100D01*
X163900Y351800D02*
X165200Y353101D01*
X144400D02*
X147000D01*
X179500Y345400D02*
Y351800D01*
X180800Y344100D02*
X183400D01*
X158700Y345400D02*
X160000Y344100D01*
X183400D02*
X184700Y345400D01*
X131400Y344100D02*
X132700Y345400D01*
X127500D02*
X128800Y344100D01*
X175600Y353101D02*
X178200D01*
X160000Y344100D02*
X162600D01*
X169100Y345400D02*
Y351800D01*
X122300D02*
X123600Y353101D01*
X136600D02*
X137900Y351800D01*
X132700D02*
X134000Y353101D01*
X147000D02*
X148300Y351800D01*
X165200Y353101D02*
X167800D01*
X163900Y345400D02*
Y351800D01*
X117100Y345400D02*
Y349700D01*
X123600Y353101D02*
X126200D01*
X184700Y345400D02*
Y349700D01*
X186000Y351000D01*
X170400Y344100D02*
X173000D01*
X153500Y351800D02*
X154800Y353101D01*
X157400D01*
X126200D02*
X127500Y351800D01*
X132700Y345400D02*
Y351800D01*
X148300Y345400D02*
X149600Y344100D01*
X162600D02*
X163900Y345400D01*
X169100D02*
X170400Y344100D01*
X148300Y345400D02*
Y351800D01*
X179500Y345400D02*
X180800Y344100D01*
X122300Y345400D02*
Y351800D01*
X110000Y350000D02*
X111000Y351000D01*
X137900Y345400D02*
X139200Y344100D01*
X174300Y345400D02*
Y351800D01*
X121000Y344100D02*
X122300Y345400D01*
X157400Y353101D02*
X158700Y351800D01*
X186000Y351000D02*
X188862D01*
X214142Y354000D02*
Y359441D01*
X231042Y352700D02*
X233642D01*
X202442D02*
X203742Y354000D01*
X240142D02*
Y359441D01*
X298642Y360741D02*
X301242D01*
X306442Y352700D02*
X307742Y354000D01*
X285642Y352700D02*
X286942Y354000D01*
X197243Y360741D02*
X198542Y359441D01*
X244042Y352700D02*
X245342Y354000D01*
X301242Y360741D02*
X302542Y359441D01*
X194643Y360741D02*
X197243D01*
X181642Y356000D02*
X182943Y357300D01*
X224542Y354000D02*
Y359441D01*
X246642Y360741D02*
X249242D01*
X250542Y359441D01*
X251842Y352700D02*
X254442D01*
X277842Y360741D02*
X280442D01*
X188143Y354400D02*
X189443Y353100D01*
X241442Y352700D02*
X244042D01*
X293442D02*
X296042D01*
X205042Y360741D02*
X207642D01*
X266142Y359441D02*
X267442Y360741D01*
X262242Y352700D02*
X264842D01*
X303842D02*
X306442D01*
X228442Y360741D02*
X229742Y359441D01*
X257042Y360741D02*
X259642D01*
X270042D02*
X271342Y359441D01*
X245342D02*
X246642Y360741D01*
X276542Y359441D02*
X277842Y360741D01*
X255742Y354000D02*
Y359441D01*
X283042Y352700D02*
X285642D01*
X212842D02*
X214142Y354000D01*
X210242Y352700D02*
X212842D01*
X240142Y354000D02*
X241442Y352700D01*
X245342Y354000D02*
Y359441D01*
X297342D02*
X298642Y360741D01*
X250542Y354000D02*
X251842Y352700D01*
X288242Y360741D02*
X290842D01*
X218042D02*
X219342Y359441D01*
X233642Y352700D02*
X234942Y354000D01*
X182943Y359441D02*
X184242Y360741D01*
X302542Y354000D02*
Y359441D01*
X264842Y352700D02*
X266142Y354000D01*
X260942D02*
X262242Y352700D01*
X199842D02*
X202442D01*
X198542Y354000D02*
Y359441D01*
X224542D02*
X225842Y360741D01*
X312942Y357300D02*
Y359441D01*
X238842Y360741D02*
X240142Y359441D01*
X193342D02*
X194643Y360741D01*
X250542Y354000D02*
Y359441D01*
X234942D02*
X236242Y360741D01*
X281742Y354000D02*
Y359441D01*
X229742Y354000D02*
X231042Y352700D01*
X260942Y354000D02*
Y359441D01*
X302542Y354000D02*
X303842Y352700D01*
X193342Y354400D02*
Y359441D01*
X286942D02*
X288242Y360741D01*
X203742Y354000D02*
Y359441D01*
X229742Y354000D02*
Y359441D01*
X182943Y357300D02*
Y359441D01*
X281742Y354000D02*
X283042Y352700D01*
X255742Y359441D02*
X257042Y360741D01*
X225842D02*
X228442D01*
X223242Y352700D02*
X224542Y354000D01*
X198542D02*
X199842Y352700D01*
X312942Y357300D02*
X314242Y356000D01*
X271342Y354000D02*
X272642Y352700D01*
X254442D02*
X255742Y354000D01*
X297342D02*
Y359441D01*
X186842Y360741D02*
X188143Y359441D01*
X207642Y360741D02*
X208942Y359441D01*
X311642Y360741D02*
X312942Y359441D01*
X220642Y352700D02*
X223242D01*
X214142Y359441D02*
X215442Y360741D01*
X219342Y354000D02*
Y359441D01*
X272642Y352700D02*
X275242D01*
X271342Y354000D02*
Y359441D01*
X286942Y354000D02*
Y359441D01*
X309042Y360741D02*
X311642D01*
X192043Y353100D02*
X193342Y354400D01*
X184242Y360741D02*
X186842D01*
X290842D02*
X292142Y359441D01*
X234942Y354000D02*
Y359441D01*
X188143Y354400D02*
Y359441D01*
X280442Y360741D02*
X281742Y359441D01*
X296042Y352700D02*
X297342Y354000D01*
X203742Y359441D02*
X205042Y360741D01*
X208942Y354000D02*
X210242Y352700D01*
X219342Y354000D02*
X220642Y352700D01*
X259642Y360741D02*
X260942Y359441D01*
X307742Y354000D02*
Y359441D01*
X275242Y352700D02*
X276542Y354000D01*
X266142D02*
Y359441D01*
X181042Y356000D02*
X181642D01*
X307742Y359441D02*
X309042Y360741D01*
X276542Y354000D02*
Y359441D01*
X267442Y360741D02*
X270042D01*
X292142Y354000D02*
X293442Y352700D01*
X189443Y353100D02*
X192043D01*
X236242Y360741D02*
X238842D01*
X292142Y354000D02*
Y359441D01*
X208942Y354000D02*
Y359441D01*
X215442Y360741D02*
X218042D01*
X362956Y315860D02*
X364794D01*
X323683Y362996D02*
X325522D01*
X331037Y355642D02*
X332876D01*
X331702Y347114D02*
Y348953D01*
X334714Y351965D01*
X362291Y326227D02*
X364130Y324388D01*
X346409Y334245D02*
X349422Y337257D01*
X339055Y339760D02*
Y341599D01*
X340894Y337922D02*
X342732D01*
X349422Y337257D02*
Y339096D01*
X327360Y359319D02*
Y361157D01*
X353763Y325052D02*
X355602Y323214D01*
X328025Y352630D02*
X331037Y355642D01*
X361117Y317699D02*
Y319537D01*
X324348Y354468D02*
X326186Y352630D01*
X332876Y355642D02*
X334714Y353804D01*
X320924Y362076D02*
X322763D01*
X347583Y340934D02*
X349422Y339096D01*
X353099Y333581D02*
X354937D01*
X331702Y347114D02*
X333540Y345276D01*
X345745Y340934D02*
X347583D01*
X334714Y351965D02*
Y353804D01*
X339055Y339760D02*
X340894Y337922D01*
X326186Y352630D02*
X328025D01*
X320500Y362500D02*
X320924Y362076D01*
X333540Y345276D02*
X335378D01*
X348248Y330568D02*
X350086D01*
X355602Y323214D02*
X357440D01*
X342732Y337922D02*
X345745Y340934D01*
X342068Y344611D02*
Y346450D01*
X346409Y332406D02*
X348248Y330568D01*
X361117Y319537D02*
X364130Y322550D01*
X339055Y341599D02*
X342068Y344611D01*
X354937Y333581D02*
X356776Y331742D01*
X338391Y348288D02*
X340229D01*
X325522Y362996D02*
X327360Y361157D01*
X335378Y345276D02*
X338391Y348288D01*
X360453Y326227D02*
X362291D01*
X350086Y330568D02*
X353099Y333581D01*
X322763Y362076D02*
X323683Y362996D01*
X340229Y348288D02*
X342068Y346450D01*
X324348Y354468D02*
Y356307D01*
X364130Y322550D02*
Y324388D01*
X357440Y323214D02*
X360453Y326227D01*
X324348Y356307D02*
X327360Y359319D01*
X346409Y332406D02*
Y334245D01*
X356776Y329903D02*
Y331742D01*
X361117Y317699D02*
X362956Y315860D01*
X353763Y326891D02*
X356776Y329903D01*
X353763Y325052D02*
Y326891D01*
X340000Y235445D02*
X341300Y236745D01*
X336100D02*
Y249764D01*
X346500Y236745D02*
X347800Y235445D01*
X345200Y251064D02*
X346500Y249764D01*
X351700D02*
X353000Y251064D01*
X347800Y235445D02*
X350400D01*
X356900Y238529D02*
X358200Y237229D01*
X342600Y251064D02*
X345200D01*
X330900Y242204D02*
Y249764D01*
X337400Y235445D02*
X340000D01*
X362100Y239604D02*
X363400Y240904D01*
X341300Y249764D02*
X342600Y251064D01*
X358200Y237229D02*
X360800D01*
X329600Y240904D02*
X330900Y242204D01*
X336100Y236745D02*
X337400Y235445D01*
X351700Y236745D02*
Y249764D01*
X329000Y240904D02*
X329600D01*
X360800Y237229D02*
X362100Y238529D01*
X334800Y251064D02*
X336100Y249764D01*
X353000Y251064D02*
X355600D01*
X350400Y235445D02*
X351700Y236745D01*
X330900Y249764D02*
X332200Y251064D01*
X355600D02*
X356900Y249764D01*
X332200Y251064D02*
X334800D01*
X356900Y238529D02*
Y249764D01*
X363400Y240904D02*
X367719D01*
X346500Y236745D02*
Y249764D01*
X341300Y236745D02*
Y249764D01*
X362100Y238529D02*
Y239604D01*
X314556Y329894D02*
X314556Y331733D01*
X334779Y311510D02*
X336618Y309671D01*
X336618Y307833D02*
X336618Y309671D01*
X310735Y324235D02*
X310735Y326073D01*
X325443Y311366D02*
X329264Y315187D01*
X310735Y324235D02*
X312573Y322397D01*
X337223Y304000D02*
X339084D01*
X318233Y326218D02*
X320071Y326218D01*
X325587Y318864D02*
X327425Y318864D01*
X335923Y305300D02*
X337223Y304000D01*
X308573Y331265D02*
X310879Y333571D01*
X329119Y307689D02*
X332940Y311510D01*
X325443Y309527D02*
X327281Y307689D01*
X321766Y315043D02*
X325587Y318864D01*
X332940Y311510D02*
X334779Y311510D01*
X335923Y307139D02*
X336618Y307833D01*
X306735Y331265D02*
X308573D01*
X321910Y322541D02*
X321910Y324379D01*
X310735Y326073D02*
X314556Y329894D01*
X320071Y326218D02*
X321910Y324379D01*
X318089Y316881D02*
X318089Y318720D01*
X327281Y307689D02*
X329119Y307689D01*
X318089Y318720D02*
X321910Y322541D01*
X329264Y315187D02*
X329264Y317025D01*
X306310Y331690D02*
X306735Y331265D01*
X314412Y322397D02*
X318233Y326218D01*
X312717Y333572D02*
X314556Y331733D01*
X312573Y322397D02*
X314412Y322397D01*
X318089Y316881D02*
X319927Y315043D01*
X325443Y309527D02*
X325443Y311366D01*
X310879Y333571D02*
X312717Y333572D01*
X319927Y315043D02*
X321766Y315043D01*
X327425Y318864D02*
X329264Y317025D01*
X335923Y305300D02*
Y307139D01*
X318278Y340531D02*
X321427Y343680D01*
X321955Y336854D02*
X325104Y340003D01*
X347693Y311115D02*
X350842Y314264D01*
X334824Y322146D02*
X336662Y322146D01*
X347693Y309277D02*
X349532Y307438D01*
X351370Y307438D01*
X332985Y323984D02*
X332985Y325823D01*
X343489Y321618D02*
X343489Y323456D01*
X344016Y314792D02*
X347165Y317941D01*
X350842Y314264D02*
X350842Y316103D01*
X317750Y347357D02*
X319588Y347357D01*
X339812Y325295D02*
X341650Y325295D01*
X313928Y346222D02*
X314352Y345798D01*
X340339Y316630D02*
X340339Y318469D01*
X325632Y331338D02*
X325632Y333177D01*
X340339Y318469D02*
X343489Y321618D01*
X332985Y323984D02*
X334824Y322146D01*
X320116Y336854D02*
X321955Y336854D01*
X349004Y317941D02*
X350842Y316103D01*
X356637Y303513D02*
X356637Y305351D01*
X342178Y314792D02*
X344016Y314792D01*
X334296Y332649D02*
X336135Y330810D01*
X340339Y316630D02*
X342178Y314792D01*
X347165Y317941D02*
X349004Y317941D01*
X314352Y345798D02*
X316191Y345798D01*
X356637Y303513D02*
X358575Y301575D01*
X332985Y325823D02*
X336135Y328972D01*
X341650Y325295D02*
X343489Y323456D01*
X329309Y329500D02*
X332458Y332649D01*
X356637Y305351D02*
X358196Y306910D01*
X332458Y332649D02*
X334296Y332649D01*
X336135Y328972D02*
X336135Y330810D01*
X325632Y331338D02*
X327470Y329500D01*
X356358Y310587D02*
X358196Y308749D01*
X336662Y322146D02*
X339812Y325295D01*
X351370Y307438D02*
X354519Y310587D01*
X319588Y347357D02*
X321427Y345518D01*
X321427Y343680D02*
X321427Y345518D01*
X358196Y306910D02*
X358196Y308749D01*
X326942Y340003D02*
X328781Y338164D01*
X325104Y340003D02*
X326942Y340003D01*
X316191Y345798D02*
X317750Y347357D01*
X318278Y338692D02*
X320116Y336854D01*
X318278Y338692D02*
X318278Y340531D01*
X327470Y329500D02*
X329309Y329500D01*
X328781Y336326D02*
X328781Y338164D01*
X325632Y333177D02*
X328781Y336326D01*
X347693Y309277D02*
X347693Y311115D01*
X354519Y310587D02*
X356358Y310587D01*
X198629Y338220D02*
X199929Y336920D01*
X219429Y338220D02*
Y345487D01*
X199929Y336920D02*
X202529D01*
X225929Y346787D02*
X228529D01*
X238929D02*
X240229Y345487D01*
Y338220D02*
X241529Y336920D01*
X301329Y346787D02*
X302629Y345487D01*
X255829Y338220D02*
Y345487D01*
X259729Y346787D02*
X261029Y345487D01*
X266229D02*
X267529Y346787D01*
X228529D02*
X229829Y345487D01*
X250629Y338220D02*
X251929Y336920D01*
X296129D02*
X297429Y338220D01*
Y345487D02*
X298729Y346787D01*
X210329Y336920D02*
X212929D01*
X302629Y338220D02*
Y345487D01*
X290929Y346787D02*
X292229Y345487D01*
X276629Y338220D02*
Y345487D01*
X283129Y336920D02*
X285729D01*
X209029Y338220D02*
Y345487D01*
Y338220D02*
X210329Y336920D01*
X272729D02*
X275329D01*
X276629Y345487D02*
X277929Y346787D01*
X267529D02*
X270129D01*
X197329D02*
X198629Y345487D01*
X233729Y336920D02*
X235029Y338220D01*
X212929Y336920D02*
X214229Y338220D01*
X293529Y336920D02*
X296129D01*
X235029Y345487D02*
X236329Y346787D01*
X214229Y345487D02*
X215529Y346787D01*
X229829Y338220D02*
X231129Y336920D01*
X298729Y346787D02*
X301329D01*
X246729D02*
X249329D01*
X297429Y338220D02*
Y345487D01*
X281829Y338220D02*
X283129Y336920D01*
X219429Y338220D02*
X220729Y336920D01*
X281829Y338220D02*
Y345487D01*
X292229Y338220D02*
Y345487D01*
X288329Y346787D02*
X290929D01*
X245429Y345487D02*
X246729Y346787D01*
X223329Y336920D02*
X224629Y338220D01*
X264929Y336920D02*
X266229Y338220D01*
X287029D02*
Y345487D01*
X235029Y338220D02*
Y345487D01*
X240229Y338220D02*
Y345487D01*
X194729Y346787D02*
X197329D01*
X250629Y338220D02*
Y345487D01*
X257129Y346787D02*
X259729D01*
X202529Y336920D02*
X203829Y338220D01*
X231129Y336920D02*
X233729D01*
X236329Y346787D02*
X238929D01*
X302629Y338220D02*
X303929Y336920D01*
X285729D02*
X287029Y338220D01*
X266229D02*
Y345487D01*
X220729Y336920D02*
X223329D01*
X255829Y345487D02*
X257129Y346787D01*
X261029Y338220D02*
Y345487D01*
X277929Y346787D02*
X280529D01*
X281829Y345487D01*
X198629Y338220D02*
Y345487D01*
X224629Y338220D02*
Y345487D01*
X251929Y336920D02*
X254529D01*
X249329Y346787D02*
X250629Y345487D01*
X193429Y343300D02*
Y345487D01*
X214229Y338220D02*
Y345487D01*
X270129Y346787D02*
X271429Y345487D01*
X254529Y336920D02*
X255829Y338220D01*
X262329Y336920D02*
X264929D01*
X215529Y346787D02*
X218129D01*
X245429Y338220D02*
Y345487D01*
X287029D02*
X288329Y346787D01*
X275329Y336920D02*
X276629Y338220D01*
X303929Y336920D02*
X306529D01*
X271429Y338220D02*
X272729Y336920D01*
X191529Y342000D02*
X192129D01*
X193429Y343300D01*
X306529Y336920D02*
X307829Y338220D01*
X205129Y346787D02*
X207729D01*
X241529Y336920D02*
X244129D01*
X207729Y346787D02*
X209029Y345487D01*
X292229Y338220D02*
X293529Y336920D01*
X261029Y338220D02*
X262329Y336920D01*
X193429Y345487D02*
X194729Y346787D01*
X203829Y345487D02*
X205129Y346787D01*
X203829Y338220D02*
Y345487D01*
X218129Y346787D02*
X219429Y345487D01*
X224629D02*
X225929Y346787D01*
X244129Y336920D02*
X245429Y338220D01*
X229829D02*
Y345487D01*
X271429Y338220D02*
Y345487D01*
X141424Y299424D02*
Y300909D01*
X150396Y315696D02*
Y317181D01*
X151881Y318666D01*
X147986Y300287D02*
X149471D01*
X143948Y310265D02*
X150956Y303257D01*
X155411Y306227D02*
X156896Y307712D01*
X145433Y313235D02*
X146918D01*
X150956Y301772D02*
Y303257D01*
X156274Y315758D02*
X157759D01*
X138008Y304325D02*
X141424Y300909D01*
X149471Y300287D02*
X150956Y301772D01*
X140978Y307295D02*
X147986Y300287D01*
X143948Y311750D02*
X145433Y313235D01*
X143948Y310265D02*
Y311750D01*
X150396Y315696D02*
X156896Y309196D01*
X139493Y307295D02*
X140978D01*
X146918Y313235D02*
X153926Y306227D01*
X138008Y304325D02*
Y305810D01*
X153926Y306227D02*
X155411D01*
X153366Y318666D02*
X156274Y315758D01*
X156896Y307712D02*
Y309196D01*
X151881Y318666D02*
X153366D01*
X141000Y299000D02*
X141424Y299424D01*
X157759Y315758D02*
X158950Y316950D01*
X138008Y305810D02*
X139493Y307295D01*
X192050Y318050D02*
X193100Y317000D01*
X187850Y320064D02*
X188900Y321114D01*
X170000Y316575D02*
X171050Y317625D01*
X176300Y316575D02*
X178400D01*
X175250Y317625D02*
X176300Y316575D01*
X179450Y317625D02*
Y320064D01*
X171050D02*
X172100Y321114D01*
X174200D01*
X163700D02*
X165800D01*
X161000Y317000D02*
X161600D01*
X162650Y320064D02*
X163700Y321114D01*
X166850Y317625D02*
Y320064D01*
X183650Y317625D02*
X184700Y316575D01*
X161600Y317000D02*
X162650Y318050D01*
X186800Y316575D02*
X187850Y317625D01*
X182600Y321114D02*
X183650Y320064D01*
X191000Y321114D02*
X192050Y320064D01*
X179450D02*
X180500Y321114D01*
X167900Y316575D02*
X170000D01*
X193100Y317000D02*
X195121D01*
X183650Y317625D02*
Y320064D01*
X162650Y318050D02*
Y320064D01*
X174200Y321114D02*
X175250Y320064D01*
X166850Y317625D02*
X167900Y316575D01*
X178400D02*
X179450Y317625D01*
X175250D02*
Y320064D01*
X184700Y316575D02*
X186800D01*
X187850Y317625D02*
Y320064D01*
X165800Y321114D02*
X166850Y320064D01*
X171050Y317625D02*
Y320064D01*
X180500Y321114D02*
X182600D01*
X188900D02*
X191000D01*
X192050Y318050D02*
Y320064D01*
X224257Y330112D02*
X225557Y331412D01*
X193057Y330112D02*
X194357Y331412D01*
X219057Y321303D02*
Y330112D01*
X260657Y321303D02*
Y330112D01*
X256757Y331412D02*
X259357D01*
X203457Y330112D02*
X204757Y331412D01*
X212557Y320003D02*
X213857Y321303D01*
X228157Y331412D02*
X229457Y330112D01*
X272357Y320003D02*
X274957D01*
X220357D02*
X222957D01*
X229457Y321303D02*
Y330112D01*
X271057Y321303D02*
X272357Y320003D01*
X254157D02*
X255457Y321303D01*
X277557Y331412D02*
X280157D01*
X302257Y325300D02*
Y330112D01*
X291857Y321303D02*
X293157Y320003D01*
X302257Y325300D02*
X303557Y324000D01*
X250257Y321303D02*
X251557Y320003D01*
X209957D02*
X212557D01*
X208657Y321303D02*
X209957Y320003D01*
X264557D02*
X265857Y321303D01*
X213857Y330112D02*
X215157Y331412D01*
X251557Y320003D02*
X254157D01*
X293157D02*
X295757D01*
X233357D02*
X234657Y321303D01*
X241157Y320003D02*
X243757D01*
X225557Y331412D02*
X228157D01*
X193057Y325300D02*
Y330112D01*
X199557Y320003D02*
X202157D01*
X269757Y331412D02*
X271057Y330112D01*
X194357Y331412D02*
X196957D01*
X198257Y330112D01*
X207357Y331412D02*
X208657Y330112D01*
X198257Y321303D02*
Y330112D01*
Y321303D02*
X199557Y320003D01*
X276257Y330112D02*
X277557Y331412D01*
X281457Y321303D02*
X282757Y320003D01*
X290557Y331412D02*
X291857Y330112D01*
X297057D02*
X298357Y331412D01*
X202157Y320003D02*
X203457Y321303D01*
Y330112D01*
X208657Y321303D02*
Y330112D01*
X259357Y331412D02*
X260657Y330112D01*
X213857Y321303D02*
Y330112D01*
X248957Y331412D02*
X250257Y330112D01*
X215157Y331412D02*
X217757D01*
X222957Y320003D02*
X224257Y321303D01*
X255457D02*
Y330112D01*
X234657Y321303D02*
Y330112D01*
X243757Y320003D02*
X245057Y321303D01*
X298357Y331412D02*
X300957D01*
X271057Y321303D02*
Y330112D01*
X274957Y320003D02*
X276257Y321303D01*
X280157Y331412D02*
X281457Y330112D01*
X303557Y324000D02*
X304606D01*
X235957Y331412D02*
X238557D01*
X239857Y321303D02*
X241157Y320003D01*
X281457Y321303D02*
Y330112D01*
X267157Y331412D02*
X269757D01*
X265857Y321303D02*
Y330112D01*
X291857Y321303D02*
Y330112D01*
X300957Y331412D02*
X302257Y330112D01*
X295757Y320003D02*
X297057Y321303D01*
X204757Y331412D02*
X207357D01*
X286657Y330112D02*
X287957Y331412D01*
X234657Y330112D02*
X235957Y331412D01*
X285357Y320003D02*
X286657Y321303D01*
X282757Y320003D02*
X285357D01*
X191757Y324000D02*
X193057Y325300D01*
X245057Y330112D02*
X246357Y331412D01*
X224257Y321303D02*
Y330112D01*
X229457Y321303D02*
X230757Y320003D01*
X238557Y331412D02*
X239857Y330112D01*
X265857D02*
X267157Y331412D01*
X246357D02*
X248957D01*
X250257Y321303D02*
Y330112D01*
X255457D02*
X256757Y331412D01*
X276257Y321303D02*
Y330112D01*
X261957Y320003D02*
X264557D01*
X297057Y321303D02*
Y330112D01*
X245057Y321303D02*
Y330112D01*
X230757Y320003D02*
X233357D01*
X191157Y324000D02*
X191757D01*
X287957Y331412D02*
X290557D01*
X219057Y321303D02*
X220357Y320003D01*
X239857Y321303D02*
Y330112D01*
X286657Y321303D02*
Y330112D01*
X217757Y331412D02*
X219057Y330112D01*
X260657Y321303D02*
X261957Y320003D01*
X186363Y297990D02*
Y301715D01*
X253963Y294976D02*
Y301715D01*
X264363D02*
X265663Y303015D01*
X146063Y283920D02*
X148663D01*
X201963Y301715D02*
X203263Y303015D01*
X207163Y294976D02*
X208463Y293676D01*
X174663Y303015D02*
X175963Y301715D01*
X151263Y291134D02*
X153863D01*
X270863Y293676D02*
X273463D01*
X181163Y301715D02*
X182463Y303015D01*
X166863Y283920D02*
X169463D01*
X263063Y293676D02*
X264363Y294976D01*
X149963Y285220D02*
Y289834D01*
X170763Y301715D02*
X172063Y303015D01*
X179863Y296216D02*
X181163Y297516D01*
X175963D02*
Y301715D01*
X269563Y294976D02*
Y301715D01*
X155163Y285220D02*
Y289834D01*
X208463Y293676D02*
X211063D01*
X243563Y301715D02*
X244863Y303015D01*
X137663Y290000D02*
X143463D01*
X191563Y301715D02*
X192863Y303015D01*
X205863D02*
X207163Y301715D01*
X233163Y294976D02*
Y301715D01*
X170763Y285220D02*
Y301715D01*
X248763Y294976D02*
Y301715D01*
X190263Y296690D02*
X191563Y297990D01*
X212363Y301715D02*
X213663Y303015D01*
X159063Y283920D02*
X160363Y285220D01*
X255263Y303015D02*
X257863D01*
X165563Y285220D02*
Y300093D01*
X274763Y299700D02*
X276063Y301000D01*
X248763Y294976D02*
X250063Y293676D01*
X268263Y303015D02*
X269563Y301715D01*
X200663Y283920D02*
X201963Y285220D01*
X196763D02*
X198063Y283920D01*
X144763Y285220D02*
X146063Y283920D01*
X177263Y296216D02*
X179863D01*
X196763Y285220D02*
Y301715D01*
X207163Y294976D02*
Y301715D01*
X144763Y285220D02*
Y288700D01*
X227963Y294976D02*
X229263Y293676D01*
X187663Y296690D02*
X190263D01*
X164263Y301393D02*
X165563Y300093D01*
X172063Y303015D02*
X174663D01*
X239663Y293676D02*
X242263D01*
X213663Y303015D02*
X216263D01*
X161663Y301393D02*
X164263D01*
X259163Y294976D02*
Y301715D01*
X191563Y297990D02*
Y301715D01*
X257863Y303015D02*
X259163Y301715D01*
X216263Y303015D02*
X217563Y301715D01*
X143463Y290000D02*
X144763Y288700D01*
X153863Y291134D02*
X155163Y289834D01*
X224063Y303015D02*
X226663D01*
X253963Y301715D02*
X255263Y303015D01*
X156463Y283920D02*
X159063D01*
X186363Y297990D02*
X187663Y296690D01*
X231863Y293676D02*
X233163Y294976D01*
X227963D02*
Y301715D01*
X217563Y294976D02*
Y301715D01*
X155163Y285220D02*
X156463Y283920D01*
X195463Y303015D02*
X196763Y301715D01*
X198063Y283920D02*
X200663D01*
X160363Y285220D02*
Y300093D01*
X192863Y303015D02*
X195463D01*
X237063D02*
X238363Y301715D01*
X201963Y285220D02*
Y301715D01*
X160363Y300093D02*
X161663Y301393D01*
X222763Y294976D02*
Y301715D01*
X149963Y289834D02*
X151263Y291134D01*
X238363Y294976D02*
X239663Y293676D01*
X233163Y301715D02*
X234463Y303015D01*
X250063Y293676D02*
X252663D01*
X265663Y303015D02*
X268263D01*
X203263D02*
X205863D01*
X218863Y293676D02*
X221463D01*
X276063Y301000D02*
X282209D01*
X165563Y285220D02*
X166863Y283920D01*
X221463Y293676D02*
X222763Y294976D01*
X229263Y293676D02*
X231863D01*
X222763Y301715D02*
X224063Y303015D01*
X238363Y294976D02*
Y301715D01*
X217563Y294976D02*
X218863Y293676D01*
X234463Y303015D02*
X237063D01*
X212363Y294976D02*
Y301715D01*
X273463Y293676D02*
X274763Y294976D01*
X182463Y303015D02*
X185063D01*
X244863D02*
X247463D01*
X248763Y301715D01*
X242263Y293676D02*
X243563Y294976D01*
X226663Y303015D02*
X227963Y301715D01*
X148663Y283920D02*
X149963Y285220D01*
X269563Y294976D02*
X270863Y293676D01*
X175963Y297516D02*
X177263Y296216D01*
X259163Y294976D02*
X260463Y293676D01*
X181163Y297516D02*
Y301715D01*
X211063Y293676D02*
X212363Y294976D01*
X260463Y293676D02*
X263063D01*
X274763Y294976D02*
Y299700D01*
X169463Y283920D02*
X170763Y285220D01*
X252663Y293676D02*
X253963Y294976D01*
X185063Y303015D02*
X186363Y301715D01*
X243563Y294976D02*
Y301715D01*
X264363Y294976D02*
Y301715D01*
X237339Y250817D02*
X238639Y249517D01*
X282838D02*
X284139Y250817D01*
X277638Y271476D02*
X278939Y270176D01*
X293239Y249517D02*
X294538Y250817D01*
X298438Y271476D02*
X299738Y270176D01*
X294538Y250817D02*
Y270176D01*
X289338Y250817D02*
Y270176D01*
X226939Y250817D02*
Y268706D01*
X280238Y249517D02*
X282838D01*
X304938Y268787D02*
X306238Y270087D01*
X254238Y271476D02*
X256838D01*
X220000Y270000D02*
X225639Y270006D01*
X249039Y249517D02*
X251639D01*
X247738Y250817D02*
X249039Y249517D01*
X230839D02*
X232139Y250817D01*
X259438Y249517D02*
X262038D01*
X246439Y271476D02*
X247738Y270176D01*
X258139Y250817D02*
Y270176D01*
X242539Y250817D02*
Y270176D01*
X267239Y271476D02*
X268538Y270176D01*
X301038Y256445D02*
X303638D01*
X304938Y257745D01*
X272439Y249517D02*
X273738Y250817D01*
X225639Y270006D02*
X226939Y268706D01*
X232139Y250817D02*
Y270176D01*
X236039Y271476D02*
X237339Y270176D01*
X252938Y250817D02*
Y270176D01*
X228239Y249517D02*
X230839D01*
X289338Y250817D02*
X290639Y249517D01*
X294538Y270176D02*
X295838Y271476D01*
X278939Y250817D02*
Y270176D01*
Y250817D02*
X280238Y249517D01*
X304938Y257745D02*
Y268787D01*
X273738Y270176D02*
X275039Y271476D01*
X247738Y250817D02*
Y270176D01*
X241239Y249517D02*
X242539Y250817D01*
X268538D02*
Y270176D01*
X295838Y271476D02*
X298438D01*
X232139Y270176D02*
X233439Y271476D01*
X268538Y250817D02*
X269839Y249517D01*
X262038D02*
X263339Y250817D01*
Y270176D02*
X264639Y271476D01*
X263339Y250817D02*
Y270176D01*
X243839Y271476D02*
X246439D01*
X273738Y250817D02*
Y270176D01*
X299738Y257745D02*
Y270176D01*
X251639Y249517D02*
X252938Y250817D01*
X285438Y271476D02*
X288039D01*
X218000Y272000D02*
X220000Y270000D01*
X256838Y271476D02*
X258139Y270176D01*
X288039Y271476D02*
X289338Y270176D01*
X284139Y250817D02*
Y270176D01*
X258139Y250817D02*
X259438Y249517D01*
X290639D02*
X293239D01*
X237339Y250817D02*
Y270176D01*
X284139D02*
X285438Y271476D01*
X238639Y249517D02*
X241239D01*
X226939Y250817D02*
X228239Y249517D01*
X264639Y271476D02*
X267239D01*
X275039D02*
X277638D01*
X308490Y270090D02*
X309090Y270090D01*
X233439Y271476D02*
X236039D01*
X242539Y270176D02*
X243839Y271476D01*
X252938Y270176D02*
X254238Y271476D01*
X299738Y257745D02*
X301038Y256445D01*
X306238Y270087D02*
X308490Y270090D01*
X269839Y249517D02*
X272439D01*
X199332Y272000D02*
X201932D01*
X177232Y250321D02*
Y270700D01*
X194132Y243950D02*
X196732D01*
X201932Y272000D02*
X203232Y270700D01*
X198032D02*
X199332Y272000D01*
X151232Y250785D02*
Y270700D01*
X172032Y250321D02*
Y270700D01*
X182432Y245250D02*
Y270700D01*
X183732Y243950D02*
X186332D01*
X162932Y249885D02*
X165532D01*
X166832Y251185D02*
Y270700D01*
X186332Y243950D02*
X187632Y245250D01*
X192832D02*
Y270700D01*
X160332Y272000D02*
X161632Y270700D01*
X168132Y272000D02*
X170732D01*
X152532Y249485D02*
X155132D01*
X166832Y270700D02*
X168132Y272000D01*
X192832Y245250D02*
X194132Y243950D01*
X170732Y272000D02*
X172032Y270700D01*
X187632D02*
X188932Y272000D01*
X177232Y270700D02*
X178532Y272000D01*
X208432Y245250D02*
Y270700D01*
X149932Y272000D02*
X151232Y270700D01*
X173332Y249021D02*
X175932D01*
X188932Y272000D02*
X191532D01*
X178532D02*
X181132D01*
X209732D02*
X211343D01*
X172032Y250321D02*
X173332Y249021D01*
X204532Y243950D02*
X207132D01*
X155132Y249485D02*
X156432Y250785D01*
X161632Y251185D02*
Y270700D01*
X187632Y245250D02*
Y270700D01*
X203232Y245250D02*
Y270700D01*
Y245250D02*
X204532Y243950D01*
X144132Y272000D02*
X149932D01*
X198032Y245250D02*
Y270700D01*
X156432Y250785D02*
Y270700D01*
X182432Y245250D02*
X183732Y243950D01*
X156432Y270700D02*
X157732Y272000D01*
X208432Y270700D02*
X209732Y272000D01*
X207132Y243950D02*
X208432Y245250D01*
X175932Y249021D02*
X177232Y250321D01*
X157732Y272000D02*
X160332D01*
X181132D02*
X182432Y270700D01*
X191532Y272000D02*
X192832Y270700D01*
X196732Y243950D02*
X198032Y245250D01*
X161632Y251185D02*
X162932Y249885D01*
X165532D02*
X166832Y251185D01*
X151232Y250785D02*
X152532Y249485D01*
X136863Y222000D02*
X138163Y223300D01*
X139463Y224688D02*
X142063D01*
X155063Y212100D02*
X157663D01*
X199263D02*
X200563Y213400D01*
X149863Y224688D02*
X152463D01*
X209663Y212100D02*
X210963Y213400D01*
X195363D02*
X196663Y212100D01*
X178463D02*
X179763Y213400D01*
X184963D02*
X186263Y212100D01*
X200563Y213400D02*
Y223388D01*
X184963Y213400D02*
Y223388D01*
X216163Y215300D02*
X217463Y214000D01*
X196663Y212100D02*
X199263D01*
X136263Y222000D02*
X136863D01*
X158963Y213400D02*
Y223388D01*
X217463Y214000D02*
X219874D01*
X169363Y223388D02*
X170663Y224688D01*
X174563Y213400D02*
Y223388D01*
X181063Y224688D02*
X183663D01*
X207063Y212100D02*
X209663D01*
X160263Y224688D02*
X162863D01*
X148563Y213400D02*
Y223388D01*
X214863Y221406D02*
X216163Y220105D01*
X179763Y213400D02*
Y223388D01*
X204463Y224688D02*
X205763Y223388D01*
X188863Y212100D02*
X190163Y213400D01*
X152463Y224688D02*
X153763Y223388D01*
Y213400D02*
X155063Y212100D01*
X169363Y213400D02*
Y223388D01*
X144663Y212100D02*
X147263D01*
X190163Y213400D02*
Y223388D01*
X175863Y212100D02*
X178463D01*
X143363Y213400D02*
Y223388D01*
X205763Y213400D02*
X207063Y212100D01*
X191463Y224688D02*
X194063D01*
X186263Y212100D02*
X188863D01*
X195363Y213400D02*
Y223388D01*
X170663Y224688D02*
X173263D01*
X138163Y223388D02*
X139463Y224688D01*
X143363Y213400D02*
X144663Y212100D01*
X210963Y213400D02*
Y220105D01*
X194063Y224688D02*
X195363Y223388D01*
X205763Y213400D02*
Y223388D01*
X164163Y213400D02*
X165463Y212100D01*
X201863Y224688D02*
X204463D01*
X212263Y221406D02*
X214863D01*
X210963Y220105D02*
X212263Y221406D01*
X153763Y213400D02*
Y223388D01*
X142063Y224688D02*
X143363Y223388D01*
X183663Y224688D02*
X184963Y223388D01*
X219874Y214000D02*
X219895D01*
X190163Y223388D02*
X191463Y224688D01*
X138163Y223300D02*
Y223388D01*
X168063Y212100D02*
X169363Y213400D01*
X174563D02*
X175863Y212100D01*
X147263D02*
X148563Y213400D01*
X162863Y224688D02*
X164163Y223388D01*
X148563D02*
X149863Y224688D01*
X200563Y223388D02*
X201863Y224688D01*
X165463Y212100D02*
X168063D01*
X173263Y224688D02*
X174563Y223388D01*
X158963D02*
X160263Y224688D01*
X157663Y212100D02*
X158963Y213400D01*
X164163D02*
Y223388D01*
X216163Y215300D02*
Y220105D01*
X179763Y223388D02*
X181063Y224688D01*
X278033Y219220D02*
Y226780D01*
X257233Y219220D02*
Y226780D01*
X226033D02*
X227333Y228080D01*
X231233Y219220D02*
Y226780D01*
X262433Y219220D02*
Y226780D01*
X289733Y228000D02*
X293000D01*
X245533Y217920D02*
X246833Y219220D01*
X267633D02*
Y226780D01*
X224733Y217920D02*
X226033Y219220D01*
X222133Y217920D02*
X224733D01*
X240333Y228080D02*
X241633Y226780D01*
X220833Y219220D02*
Y226700D01*
X261133Y228080D02*
X262433Y226780D01*
X241633Y219220D02*
Y226780D01*
X274133Y217920D02*
X276733D01*
X227333Y228080D02*
X229933D01*
X241633Y219220D02*
X242933Y217920D01*
X248133Y228080D02*
X250733D01*
X229933D02*
X231233Y226780D01*
X283233Y219703D02*
Y226780D01*
X231233Y219220D02*
X232533Y217920D01*
X226033Y219220D02*
Y226780D01*
X262433Y219220D02*
X263733Y217920D01*
X235133D02*
X236433Y219220D01*
X288433Y226700D02*
X289733Y228000D01*
X278033Y226780D02*
X279333Y228080D01*
X232533Y217920D02*
X235133D01*
X236433Y226780D02*
X237733Y228080D01*
X252033Y219220D02*
X253333Y217920D01*
X246833Y219220D02*
Y226780D01*
X287133Y218403D02*
X288433Y219703D01*
X268933Y228080D02*
X271533D01*
X220833Y219220D02*
X222133Y217920D01*
X279333Y228080D02*
X281933D01*
X276733Y217920D02*
X278033Y219220D01*
X242933Y217920D02*
X245533D01*
X237733Y228080D02*
X240333D01*
X236433Y219220D02*
Y226780D01*
X266333Y217920D02*
X267633Y219220D01*
X284533Y218403D02*
X287133D01*
X281933Y228080D02*
X283233Y226780D01*
X257233D02*
X258533Y228080D01*
X272833Y219220D02*
Y226780D01*
Y219220D02*
X274133Y217920D01*
X250733Y228080D02*
X252033Y226780D01*
Y219220D02*
Y226780D01*
X213733Y228000D02*
X219533D01*
X288433Y219703D02*
Y226700D01*
X283233Y219703D02*
X284533Y218403D01*
X258533Y228080D02*
X261133D01*
X267633Y226780D02*
X268933Y228080D01*
X253333Y217920D02*
X255933D01*
X246833Y226780D02*
X248133Y228080D01*
X263733Y217920D02*
X266333D01*
X255933D02*
X257233Y219220D01*
X219533Y228000D02*
X220833Y226700D01*
X271533Y228080D02*
X272833Y226780D01*
X283266Y232220D02*
Y239780D01*
X216966Y241080D02*
X219566D01*
X226066Y239780D02*
X227367Y241080D01*
X229967D01*
X236467Y232220D02*
Y239780D01*
X261166Y241080D02*
X262467Y239780D01*
X279366Y241080D02*
X281966D01*
X288466Y232220D02*
Y237700D01*
X241667Y232220D02*
Y239780D01*
X268966Y241080D02*
X271566D01*
X220867Y232220D02*
Y239780D01*
X235166Y230920D02*
X236467Y232220D01*
X211767Y230920D02*
X214367D01*
X250767Y241080D02*
X252066Y239780D01*
X226066Y232220D02*
Y239780D01*
X209167Y239000D02*
X210467Y237700D01*
X262467Y232220D02*
Y239780D01*
X215667D02*
X216966Y241080D01*
X252066Y232220D02*
X253367Y230920D01*
X272866Y232220D02*
Y239780D01*
X278066D02*
X279366Y241080D01*
X257267Y239780D02*
X258566Y241080D01*
X246866Y239780D02*
X248167Y241080D01*
X241667Y232220D02*
X242966Y230920D01*
X263766D02*
X266366D01*
X287166D02*
X288466Y232220D01*
X236467Y239780D02*
X237766Y241080D01*
X252066Y232220D02*
Y239780D01*
X214367Y230920D02*
X215667Y232220D01*
X229967Y241080D02*
X231266Y239780D01*
X266366Y230920D02*
X267666Y232220D01*
X232567Y230920D02*
X235166D01*
X231266Y232220D02*
X232567Y230920D01*
X274166D02*
X276766D01*
X258566Y241080D02*
X261166D01*
X267666Y232220D02*
Y239780D01*
X245567Y230920D02*
X246866Y232220D01*
X255966Y230920D02*
X257267Y232220D01*
X289766Y239000D02*
X291000D01*
X246866Y232220D02*
Y239780D01*
X220867Y232220D02*
X222167Y230920D01*
X210467Y232220D02*
Y237700D01*
X283266Y232220D02*
X284566Y230920D01*
X215667Y232220D02*
Y239780D01*
X284566Y230920D02*
X287166D01*
X272866Y232220D02*
X274166Y230920D01*
X248167Y241080D02*
X250767D01*
X276766Y230920D02*
X278066Y232220D01*
X203366Y239000D02*
X209167D01*
X237766Y241080D02*
X240366D01*
X231266Y232220D02*
Y239780D01*
X224767Y230920D02*
X226066Y232220D01*
X242966Y230920D02*
X245567D01*
X267666Y239780D02*
X268966Y241080D01*
X219566D02*
X220867Y239780D01*
X210467Y232220D02*
X211767Y230920D01*
X288466Y237700D02*
X289766Y239000D01*
X240366Y241080D02*
X241667Y239780D01*
X281966Y241080D02*
X283266Y239780D01*
X253367Y230920D02*
X255966D01*
X257267Y232220D02*
Y239780D01*
X271566Y241080D02*
X272866Y239780D01*
X262467Y232220D02*
X263766Y230920D01*
X278066Y232220D02*
Y239780D01*
X222167Y230920D02*
X224767D01*
X49732Y203460D02*
X54011Y207739D01*
X38617Y217383D02*
X39186Y216814D01*
X50334Y211416D02*
X52172D01*
X46055Y207137D02*
X50334Y211416D01*
X41024Y216814D02*
X42184Y217975D01*
X44023D01*
X53409Y199783D02*
X53893Y200268D01*
X52172Y211416D02*
X54011Y209578D01*
X53893Y200268D02*
X55732D01*
X44216Y207137D02*
X46055Y207137D01*
X44023Y217975D02*
X45861Y216136D01*
X55732Y200268D02*
X56156Y199844D01*
X42378Y208976D02*
X42378Y210814D01*
X39186Y216814D02*
X41024Y216814D01*
X51570Y199783D02*
X53409Y199783D01*
X49732Y201622D02*
X51570Y199783D01*
X49732Y201622D02*
X49732Y203460D01*
X42378Y210814D02*
X45861Y214298D01*
X42378Y208976D02*
X44216Y207137D01*
X45861Y214298D02*
Y216136D01*
X54011Y207739D02*
Y209578D01*
X84936Y163068D02*
Y164907D01*
X85988Y156767D02*
X86191Y156970D01*
X80676Y166162D02*
X81259Y166745D01*
X82311Y158605D02*
Y160444D01*
X78838Y166162D02*
X80676D01*
X81259Y166745D02*
X83097D01*
X86191Y156970D02*
X88030Y156970D01*
X84150Y156767D02*
X85988D01*
X82311Y158605D02*
X84150Y156767D01*
X83097Y166745D02*
X84936Y164907D01*
X76500Y168500D02*
X78838Y166162D01*
X88030Y156970D02*
X88454Y156546D01*
X82311Y160444D02*
X84936Y163068D01*
X91000Y289893D02*
X92000Y288893D01*
X91703Y315000D02*
X95297D01*
X91000Y314297D02*
X91703Y315000D01*
X91000Y289893D02*
Y314297D01*
X96000Y293000D02*
X97000Y292000D01*
Y283000D02*
X104000Y276000D01*
X97000Y283000D02*
Y292000D01*
X96000Y293000D02*
Y314297D01*
X95297Y315000D02*
X96000Y314297D01*
X92000Y288000D02*
Y288893D01*
X348000Y418000D02*
X368000D01*
X88454Y156546D02*
X102000Y143000D01*
X69000Y176000D02*
X76500Y168500D01*
X32000Y214000D02*
X61000Y185000D01*
X370000Y216000D02*
X385999D01*
X297000Y143000D02*
X370000Y216000D01*
X367719Y240904D02*
X385095D01*
X313904D02*
X329000D01*
X79190Y260000D02*
X80000D01*
X54030Y271000D02*
X61767Y263263D01*
X35000Y279000D02*
X36900D01*
X46900D02*
X54538D01*
X24000Y268000D02*
X35000Y279000D01*
X24000Y198000D02*
X49000Y173000D01*
X36000Y220000D02*
X38617Y217383D01*
X56156Y199844D02*
X108000Y148000D01*
X36000Y220000D02*
Y262000D01*
X24000Y198000D02*
Y268000D01*
X95000Y133000D02*
X302000D01*
X49000Y173000D02*
X55000D01*
X95000Y133000D01*
X99000Y138000D02*
X299000D01*
X52000Y185000D02*
X99000Y138000D01*
X48000Y185000D02*
X52000D01*
X28000Y205000D02*
Y266000D01*
Y205000D02*
X48000Y185000D01*
X32000Y214000D02*
Y264000D01*
X61000Y185000D02*
X65000D01*
X102000Y143000D02*
X297000D01*
X69000Y176000D02*
Y181000D01*
X65000Y185000D02*
X69000Y181000D01*
X108000Y148000D02*
X293000D01*
X302000Y133000D02*
X353000Y184000D01*
X299000Y138000D02*
X353000Y192000D01*
X353000Y184000D02*
X378000D01*
X353000Y192000D02*
X377999D01*
X28000Y266000D02*
X37000Y275000D01*
X54000D01*
X54538Y279000D02*
X65339Y268200D01*
X54000Y275000D02*
X65000Y264000D01*
X98000D01*
X39000Y271000D02*
X54030D01*
X32000Y264000D02*
X39000Y271000D01*
X59000Y243000D02*
X75000D01*
X56000Y246000D02*
X59000Y243000D01*
X75000D02*
X92000Y260000D01*
X56000Y246000D02*
Y263000D01*
X52000Y267000D02*
X56000Y263000D01*
X41000Y267000D02*
X52000D01*
X36000Y262000D02*
X41000Y267000D01*
X86000Y275000D02*
X92000Y269000D01*
X98000Y264000D02*
X102000Y260000D01*
X385095Y240904D02*
X393999Y231999D01*
X102000Y260000D02*
X120000D01*
X124000Y264000D02*
X129000Y259000D01*
X106000Y264000D02*
X124000D01*
X65339Y268200D02*
X71800D01*
X72000Y268000D01*
X120000Y251999D02*
X126000Y245999D01*
X94000Y334000D02*
X101000Y341000D01*
X151000Y323000D02*
X152000Y324000D01*
X128000Y299999D02*
X142000Y314000D01*
X158950Y316950D02*
X159000Y317000D01*
X188862Y351000D02*
X193000D01*
X293000Y148000D02*
X339000Y194000D01*
X55000Y293000D02*
Y301900D01*
Y335894D02*
Y338000D01*
X59272Y342272D01*
X88758Y371758D02*
X90000Y373000D01*
X333000D01*
X55000Y293000D02*
X72001Y275999D01*
X66964Y331964D02*
X67915Y332915D01*
X103500Y368500D02*
X104000Y369000D01*
X66000Y297000D02*
Y311800D01*
X175600Y364000D02*
X319000D01*
X320500Y362500D01*
X76000Y331000D02*
X109000Y364000D01*
Y356000D02*
X181042D01*
X194000Y350000D02*
X310150D01*
X313928Y346222D01*
X193000Y351000D02*
X194000Y350000D01*
X80297Y327297D02*
X109000Y356000D01*
X104000Y369000D02*
X329000D01*
X358575Y301575D02*
X363000Y297150D01*
X109000Y342000D02*
X191529D01*
X360600Y293400D02*
X366400D01*
X304000Y334000D02*
X306310Y331690D01*
X339084Y304000D02*
X346000D01*
X189934Y334000D02*
X304000D01*
X110000D02*
X111000D01*
X106000Y330000D02*
X110000Y334000D01*
X304606Y324000D02*
X308000D01*
X332000Y300000D01*
X339000Y194000D02*
Y194000D01*
X361000Y216000D01*
X309090Y270090D02*
X316000Y277000D01*
X86000Y319000D02*
X94000Y327000D01*
Y334000D01*
X101000Y334000D02*
X109000Y342000D01*
X101000Y286000D02*
X106000Y281000D01*
X101000Y286000D02*
Y334000D01*
X346000Y304000D02*
X358700Y291300D01*
X370300D01*
X332000Y300000D02*
X345000D01*
X356000Y289000D01*
X330000Y295000D02*
X346000D01*
X195121Y317000D02*
X308000D01*
X330000Y295000D01*
X346000D02*
X354000Y287000D01*
X152000Y324000D02*
X191157D01*
X159000Y317000D02*
X161000D01*
X138000Y296000D02*
X141000Y299000D01*
X134000Y312000D02*
X137000Y315000D01*
X123000Y309000D02*
X126000Y312000D01*
X134000D01*
X137000Y315000D02*
Y328000D01*
X131287Y316970D02*
Y328287D01*
X136000Y329000D02*
X137000Y328000D01*
X132000Y329000D02*
X136000D01*
X131287Y328287D02*
X132000Y329000D01*
X113414Y329414D02*
X117637D01*
X111000Y300000D02*
Y327000D01*
X113414Y329414D01*
X127087Y316970D02*
Y328364D01*
X119737Y315920D02*
X121837D01*
X123937Y329414D02*
X126037D01*
X118687Y316970D02*
X119737Y315920D01*
X122887Y316970D02*
Y328364D01*
X130237Y315920D02*
X131287Y316970D01*
X128137Y315920D02*
X130237D01*
X121837D02*
X122887Y316970D01*
Y328364D02*
X123937Y329414D01*
X126037D02*
X127087Y328364D01*
X118687Y316970D02*
Y328364D01*
X127087Y316970D02*
X128137Y315920D01*
X117637Y329414D02*
X118687Y328364D01*
X106000Y291000D02*
Y330000D01*
X159900Y305900D02*
Y312185D01*
X144000Y296000D02*
X153000D01*
X141000Y293000D02*
X144000Y296000D01*
X153000D02*
X155000Y298000D01*
Y301000D01*
X159900Y305900D01*
X217100Y306241D02*
X218400Y304940D01*
X252200D02*
X253500Y306241D01*
X217100D02*
Y312185D01*
X253500Y306241D02*
Y312185D01*
X239200Y304940D02*
X241800D01*
X187200D02*
X189800D01*
X231400D02*
X232700Y306241D01*
X279500Y305469D02*
X280800Y304169D01*
X291200D02*
X293800D01*
X191100Y306241D02*
Y312185D01*
X247000Y313485D02*
X248300Y312185D01*
X185900Y306241D02*
X187200Y304940D01*
X215800Y313485D02*
X217100Y312185D01*
X283400Y304169D02*
X284700Y305469D01*
X171600Y313485D02*
X174200D01*
X236600D02*
X237900Y312185D01*
X232700Y306241D02*
Y312185D01*
X274300D02*
X275600Y313485D01*
X184600D02*
X185900Y312185D01*
X200200Y304940D02*
X201500Y306241D01*
X253500Y312185D02*
X254800Y313485D01*
X185900Y306241D02*
Y312185D01*
X170300D02*
X171600Y313485D01*
X180700Y306241D02*
Y312185D01*
X295100D02*
X296400Y313485D01*
X226200D02*
X227500Y312185D01*
X196300Y306241D02*
Y312185D01*
X284700Y305469D02*
Y312185D01*
X296400Y313485D02*
X299000D01*
X243100Y312185D02*
X244400Y313485D01*
X237900Y306241D02*
Y312185D01*
Y306241D02*
X239200Y304940D01*
X269100Y306241D02*
X270400Y304940D01*
X257400Y313485D02*
X258700Y312185D01*
Y306241D02*
Y312185D01*
X166400Y304222D02*
X169000D01*
X289900Y305469D02*
Y312185D01*
X189800Y304940D02*
X191100Y306241D01*
X295100Y305469D02*
Y312185D01*
X201500Y306241D02*
Y312185D01*
X205400Y313485D02*
X206700Y312185D01*
X299000Y313485D02*
X300300Y312185D01*
X165100Y305522D02*
Y312185D01*
X227500Y306241D02*
X228800Y304940D01*
X286000Y313485D02*
X288600D01*
X213200D02*
X215800D01*
X227500Y306241D02*
Y312185D01*
X191100D02*
X192400Y313485D01*
X161200D02*
X163800D01*
X284700Y312185D02*
X286000Y313485D01*
X218400Y304940D02*
X221000D01*
X201500Y312185D02*
X202800Y313485D01*
X244400D02*
X247000D01*
X175500Y306241D02*
Y312185D01*
X275600Y313485D02*
X278200D01*
X210600Y304940D02*
X211900Y306241D01*
X258700D02*
X260000Y304940D01*
X280800Y304169D02*
X283400D01*
X202800Y313485D02*
X205400D01*
X222300Y312185D02*
X223600Y313485D01*
X179400Y304940D02*
X180700Y306241D01*
X293800Y304169D02*
X295100Y305469D01*
X211900Y306241D02*
Y312185D01*
X170300Y305522D02*
Y312185D01*
X174200Y313485D02*
X175500Y312185D01*
X176800Y304940D02*
X179400D01*
X182000Y313485D02*
X184600D01*
X270400Y304940D02*
X273000D01*
X208000D02*
X210600D01*
X300300Y310300D02*
Y312185D01*
X248300Y306241D02*
Y312185D01*
X263900D02*
X265200Y313485D01*
X197600Y304940D02*
X200200D01*
X234000Y313485D02*
X236600D01*
X274300Y306241D02*
Y312185D01*
X163800Y313485D02*
X165100Y312185D01*
X288600Y313485D02*
X289900Y312185D01*
X221000Y304940D02*
X222300Y306241D01*
X279500Y305469D02*
Y312185D01*
X269100Y306241D02*
Y312185D01*
X249600Y304940D02*
X252200D01*
X260000D02*
X262600D01*
X192400Y313485D02*
X195000D01*
X263900Y306241D02*
Y312185D01*
X228800Y304940D02*
X231400D01*
X300300Y310300D02*
X301600Y309000D01*
X241800Y304940D02*
X243100Y306241D01*
X265200Y313485D02*
X267800D01*
X206700Y306241D02*
X208000Y304940D01*
X195000Y313485D02*
X196300Y312185D01*
X289900Y305469D02*
X291200Y304169D01*
X180700Y312185D02*
X182000Y313485D01*
X223600D02*
X226200D01*
X278200D02*
X279500Y312185D01*
X273000Y304940D02*
X274300Y306241D01*
X262600Y304940D02*
X263900Y306241D01*
X254800Y313485D02*
X257400D01*
X248300Y306241D02*
X249600Y304940D01*
X211900Y312185D02*
X213200Y313485D01*
X165100Y305522D02*
X166400Y304222D01*
X196300Y306241D02*
X197600Y304940D01*
X169000Y304222D02*
X170300Y305522D01*
X243100Y306241D02*
Y312185D01*
X159900D02*
X161200Y313485D01*
X232700Y312185D02*
X234000Y313485D01*
X175500Y306241D02*
X176800Y304940D01*
X206700Y306241D02*
Y312185D01*
X222300Y306241D02*
Y312185D01*
X267800Y313485D02*
X269100Y312185D01*
X301600Y309000D02*
X308030D01*
X115000Y293000D02*
X141000D01*
X308030Y309000D02*
X328280Y288750D01*
X86000Y275000D02*
Y319000D01*
X126000Y296000D02*
X138000D01*
X123000Y299000D02*
Y309000D01*
Y299000D02*
X126000Y296000D01*
X328280Y288750D02*
X346000D01*
X282209Y301000D02*
X309000D01*
X118000Y290000D02*
X137663D01*
X314000Y281000D02*
X354000D01*
X361000Y280000D02*
X361001Y279999D01*
X354000Y281000D02*
X355000Y280000D01*
X361000D01*
X361001Y279999D02*
X369999D01*
X310389Y284611D02*
X314000Y281000D01*
X207250Y280250D02*
X211589Y284589D01*
X123750Y280250D02*
X207250D01*
X211589Y284589D02*
Y290343D01*
X310389Y284611D02*
Y290343D01*
X225889Y291643D02*
X227189Y290343D01*
X253189Y276032D02*
Y290343D01*
X305189Y276032D02*
Y290343D01*
X268789Y276032D02*
X270089Y274732D01*
X242789Y276032D02*
Y290343D01*
X272689Y274732D02*
X273989Y276032D01*
X227189D02*
Y290343D01*
X263589D02*
X264889Y291643D01*
X289589Y276032D02*
X290889Y274732D01*
X216789Y277481D02*
Y290343D01*
X249289Y274732D02*
X251889D01*
X244089Y291643D02*
X246689D01*
X228489Y274732D02*
X231089D01*
X303889D02*
X305189Y276032D01*
X294789Y290343D02*
X296089Y291643D01*
X211589Y290343D02*
X212889Y291643D01*
X218089Y276181D02*
X220689D01*
X221989Y277481D02*
Y290343D01*
X283089Y274732D02*
X284389Y276032D01*
X305189Y290343D02*
X306489Y291643D01*
X227189Y276032D02*
X228489Y274732D01*
X251889D02*
X253189Y276032D01*
X275289Y291643D02*
X277889D01*
X212889D02*
X215489D01*
X298689D02*
X299989Y290343D01*
X258389Y276032D02*
X259689Y274732D01*
X237589Y276032D02*
Y290343D01*
X231089Y274732D02*
X232389Y276032D01*
X294789D02*
Y290343D01*
X270089Y274732D02*
X272689D01*
X241489D02*
X242789Y276032D01*
X236289Y291643D02*
X237589Y290343D01*
X301289Y274732D02*
X303889D01*
X290889D02*
X293489D01*
X258389Y276032D02*
Y290343D01*
X280489Y274732D02*
X283089D01*
X277889Y291643D02*
X279189Y290343D01*
X267489Y291643D02*
X268789Y290343D01*
X259689Y274732D02*
X262289D01*
X309089Y291643D02*
X310389Y290343D01*
X306489Y291643D02*
X309089D01*
X299989Y276032D02*
Y290343D01*
X220689Y276181D02*
X221989Y277481D01*
X223289Y291643D02*
X225889D01*
X216789Y277481D02*
X218089Y276181D01*
X288289Y291643D02*
X289589Y290343D01*
X293489Y274732D02*
X294789Y276032D01*
X279189D02*
X280489Y274732D01*
X247989Y276032D02*
X249289Y274732D01*
X233689Y291643D02*
X236289D01*
X254489D02*
X257089D01*
X296089D02*
X298689D01*
X232389Y290343D02*
X233689Y291643D01*
X284389Y276032D02*
Y290343D01*
X285689Y291643D01*
X232389Y276032D02*
Y290343D01*
X221989D02*
X223289Y291643D01*
X279189Y276032D02*
Y290343D01*
X238889Y274732D02*
X241489D01*
X257089Y291643D02*
X258389Y290343D01*
X264889Y291643D02*
X267489D01*
X247989Y276032D02*
Y290343D01*
X285689Y291643D02*
X288289D01*
X262289Y274732D02*
X263589Y276032D01*
X299989D02*
X301289Y274732D01*
X237589Y276032D02*
X238889Y274732D01*
X263589Y276032D02*
Y290343D01*
X273989Y276032D02*
Y290343D01*
X275289Y291643D01*
X289589Y276032D02*
Y290343D01*
X215489Y291643D02*
X216789Y290343D01*
X246689Y291643D02*
X247989Y290343D01*
X242789D02*
X244089Y291643D01*
X268789Y276032D02*
Y290343D01*
X253189D02*
X254489Y291643D01*
X213000Y277000D02*
X218000Y272000D01*
X137000Y277000D02*
X213000D01*
X316000D02*
X353000D01*
X132000Y272000D02*
X137000Y277000D01*
X353000D02*
X358000Y272000D01*
X212439D02*
X213739Y270700D01*
X211343Y272000D02*
X212439D01*
X142000D02*
X144132D01*
X316500Y264500D02*
Y268500D01*
X320000Y272000D02*
X346000D01*
X316500Y268500D02*
X320000Y272000D01*
X215039Y245996D02*
X297996D01*
X316500Y264500D01*
X213739Y247296D02*
Y270700D01*
Y247296D02*
X215039Y245996D01*
X145000Y239000D02*
X203366D01*
X291000D02*
X298000D01*
X317000Y258000D01*
X319000D01*
X320900Y259900D01*
X142000Y242000D02*
X145000Y239000D01*
X142000Y242000D02*
Y254000D01*
X135750Y228250D02*
X146297D01*
X147000Y228953D02*
Y235000D01*
X146297Y228250D02*
X147000Y228953D01*
X131000Y233000D02*
Y245000D01*
X153000Y228000D02*
X157800D01*
X131000Y233000D02*
X135750Y228250D01*
X147000Y235000D02*
X148000Y236000D01*
X151000D01*
X152000Y229000D02*
Y235000D01*
X151000Y236000D02*
X152000Y235000D01*
Y229000D02*
X153000Y228000D01*
X165600Y227998D02*
X168200D01*
X190300Y229298D02*
Y234519D01*
X191600Y235819D02*
X194200D01*
X190300Y234519D02*
X191600Y235819D01*
X195500Y229298D02*
X196800Y227998D01*
X173400Y235819D02*
X174700Y234519D01*
X160400Y235819D02*
X163000D01*
X170800D02*
X173400D01*
X157800Y228000D02*
X159100Y229300D01*
X183800Y235819D02*
X185100Y234519D01*
X159100Y229300D02*
Y234519D01*
X176000Y227998D02*
X178600D01*
X199400D02*
X200700Y229298D01*
X194200Y235819D02*
X195500Y234519D01*
X202000Y235819D02*
X204600D01*
X159100Y234519D02*
X160400Y235819D01*
X164300Y229298D02*
Y234519D01*
X179900Y229298D02*
Y234519D01*
X186400Y227998D02*
X189000D01*
X205900Y229300D02*
Y234519D01*
X168200Y227998D02*
X169500Y229298D01*
X174700D02*
X176000Y227998D01*
X163000Y235819D02*
X164300Y234519D01*
X174700Y229298D02*
Y234519D01*
X181200Y235819D02*
X183800D01*
X178600Y227998D02*
X179900Y229298D01*
X195500D02*
Y234519D01*
X200700D02*
X202000Y235819D01*
X196800Y227998D02*
X199400D01*
X185100Y229298D02*
Y234519D01*
X205900Y229300D02*
X207200Y228000D01*
X164300Y229298D02*
X165600Y227998D01*
X204600Y235819D02*
X205900Y234519D01*
X185100Y229298D02*
X186400Y227998D01*
X169500Y234519D02*
X170800Y235819D01*
X179900Y234519D02*
X181200Y235819D01*
X189000Y227998D02*
X190300Y229298D01*
X200700D02*
Y234519D01*
X169500Y229298D02*
Y234519D01*
X207200Y228000D02*
X213733D01*
X293000D02*
X294000D01*
X312000Y246000D01*
X315000D01*
X317000Y248000D01*
Y253000D01*
X319000Y255000D02*
X385000D01*
X317000Y253000D02*
X319000Y255000D01*
X219895Y214000D02*
X287000D01*
X136000Y222000D02*
X136263D01*
X126000Y232000D02*
X136000Y222000D01*
X126000Y232000D02*
Y245999D01*
X287000Y214000D02*
X313904Y240904D01*
X120000Y284000D02*
X123750Y280250D01*
X309000Y301000D02*
X326000Y284000D01*
X382000D01*
X320900Y259900D02*
Y266780D01*
X324800Y268080D02*
X326100Y266780D01*
X345600Y268080D02*
X346900Y266780D01*
X327400Y257920D02*
X330000D01*
X331300Y259220D01*
X346900D02*
X348200Y257920D01*
X353400Y268080D02*
X356000D01*
X379400Y263000D02*
X384000D01*
X341700Y266780D02*
X343000Y268080D01*
X320900Y266780D02*
X322200Y268080D01*
X343000D02*
X345600D01*
X326100Y259220D02*
Y266780D01*
X367700Y259220D02*
X369000Y257920D01*
X331300Y259220D02*
Y266780D01*
X378100Y264300D02*
X379400Y263000D01*
X337800Y257920D02*
X340400D01*
X326100Y259220D02*
X327400Y257920D01*
X371600D02*
X372900Y259220D01*
X357300D02*
Y266780D01*
X332600Y268080D02*
X335200D01*
X352100Y259220D02*
Y266780D01*
X363800Y268080D02*
X366400D01*
X336500Y259220D02*
Y266780D01*
X352100D02*
X353400Y268080D01*
X366400D02*
X367700Y266780D01*
X362500D02*
X363800Y268080D01*
X372900Y259220D02*
Y266780D01*
X346900Y259220D02*
Y266780D01*
X362500Y259220D02*
Y266780D01*
X369000Y257920D02*
X371600D01*
X356000Y268080D02*
X357300Y266780D01*
X331300D02*
X332600Y268080D01*
X367700Y259220D02*
Y266780D01*
X350800Y257920D02*
X352100Y259220D01*
X340400Y257920D02*
X341700Y259220D01*
X378100Y264300D02*
Y266780D01*
X361200Y257920D02*
X362500Y259220D01*
X358600Y257920D02*
X361200D01*
X341700Y259220D02*
Y266780D01*
X322200Y268080D02*
X324800D01*
X348200Y257920D02*
X350800D01*
X336500Y259220D02*
X337800Y257920D01*
X374200Y268080D02*
X376800D01*
X372900Y266780D02*
X374200Y268080D01*
X376800D02*
X378100Y266780D01*
X357300Y259220D02*
X358600Y257920D01*
X335200Y268080D02*
X336500Y266780D01*
X389000Y268000D02*
X398000D01*
X384000Y263000D02*
X389000Y268000D01*
X120000Y276000D02*
X142000Y254000D01*
X385000Y255000D02*
X394000Y264000D01*
X100000Y215000D02*
X109000Y206000D01*
X100000Y250303D02*
X105848Y256152D01*
X362000Y232000D02*
X370000Y224000D01*
X375000Y287000D02*
X394000D01*
X407000Y269000D02*
Y274000D01*
X394000Y287000D02*
X407000Y274000D01*
X374900Y286900D02*
X375000Y287000D01*
X372000Y289000D02*
X373000Y290000D01*
X398200D02*
X410000Y278200D01*
X373000Y290000D02*
X375030D01*
X394970D02*
X398200D01*
X375130Y290100D02*
X394870D01*
X394970Y290000D01*
X375030D02*
X375130Y290100D01*
X355130Y286900D02*
X374900D01*
X356000Y289000D02*
X372000D01*
X370300Y291300D02*
X372000Y293000D01*
X390000D02*
X394000Y297000D01*
X372000Y293000D02*
X390000D01*
X354000Y287000D02*
X355030D01*
X355130Y286900D01*
X72000Y284000D02*
Y291000D01*
X66000Y297000D02*
X72000Y291000D01*
X76000Y305000D02*
Y331000D01*
X71000Y300000D02*
X76000Y305000D01*
X80297Y292000D02*
Y327297D01*
X104000Y276000D02*
X109000D01*
X111000Y278000D02*
Y289000D01*
X109000Y276000D02*
X111000Y278000D01*
Y289000D02*
X115000Y293000D01*
Y275000D02*
Y287000D01*
X112000Y272000D02*
X115000Y275000D01*
Y287000D02*
X118000Y290000D01*
X99000Y272000D02*
X112000D01*
X93000Y278000D02*
X99000Y272000D01*
X92000Y278000D02*
X93000D01*
X382000Y284000D02*
X394000Y272000D01*
X410000Y264000D02*
Y278200D01*
X72001Y275999D02*
X80000D01*
X402000Y264000D02*
X407000Y269000D01*
X398000Y268000D02*
X402000Y272000D01*
D86*
X520000Y488500D02*
D03*
X480000D02*
D03*
X720000D02*
D03*
X680000D02*
D03*
D87*
X86000Y480000D02*
D03*
X560000Y24000D02*
D03*
X192000Y470000D02*
D03*
X690000Y430000D02*
D03*
X490000D02*
D03*
X668000D02*
D03*
X468000D02*
D03*
X744000Y424000D02*
D03*
X668000Y470000D02*
D03*
X468000D02*
D03*
X544000Y424000D02*
D03*
X74000Y42000D02*
D03*
X62000D02*
D03*
X118000Y102000D02*
D03*
X130000Y114000D02*
D03*
X714000Y378000D02*
D03*
X726000D02*
D03*
X658000Y306000D02*
D03*
X656000Y470000D02*
D03*
X456000D02*
D03*
X718000Y336000D02*
D03*
X70000Y84000D02*
D03*
X80000D02*
D03*
X708000Y336000D02*
D03*
X646000Y306000D02*
D03*
X142000Y114000D02*
D03*
X174000D02*
D03*
X96000Y458000D02*
D03*
X755000Y500000D02*
D03*
Y520000D02*
D03*
X645000Y500000D02*
D03*
Y520000D02*
D03*
X555000Y500000D02*
D03*
Y520000D02*
D03*
X445000D02*
D03*
Y500000D02*
D03*
X728000Y450000D02*
D03*
X754000Y424000D02*
D03*
X733000D02*
D03*
X656000Y459000D02*
D03*
Y441000D02*
D03*
X528000Y450000D02*
D03*
X554000Y424000D02*
D03*
X533000D02*
D03*
X456000Y459000D02*
D03*
X480000Y430000D02*
D03*
X667000Y326000D02*
D03*
Y314000D02*
D03*
X632000Y306000D02*
D03*
X726000Y350000D02*
D03*
Y366000D02*
D03*
X62000Y54000D02*
D03*
Y72000D02*
D03*
X158000Y114000D02*
D03*
X118000D02*
D03*
X41000Y432000D02*
D03*
X116000Y393000D02*
D03*
X99000D02*
D03*
X82000D02*
D03*
X65000D02*
D03*
X111000Y431000D02*
D03*
X99000D02*
D03*
X82000D02*
D03*
X65000D02*
D03*
X178000Y467000D02*
D03*
X161000D02*
D03*
X144000D02*
D03*
X161000Y505000D02*
D03*
X144000D02*
D03*
X129000D02*
D03*
X178000D02*
D03*
D88*
X325657Y205657D02*
D03*
X314343Y194343D02*
D03*
X316657Y214657D02*
D03*
X305343Y203343D02*
D03*
M02*
