G04*
G04 #@! TF.GenerationSoftware,Altium Limited,Altium Designer,20.0.13 (296)*
G04*
G04 Layer_Color=65535*
%FSLAX44Y44*%
%MOMM*%
G71*
G01*
G75*
%ADD10C,0.2000*%
%ADD11C,0.1500*%
%ADD12C,0.4000*%
%ADD13C,0.1000*%
%ADD14C,0.2540*%
%ADD15C,0.3000*%
G36*
X113000Y88000D02*
Y88000D01*
X106000Y81000D01*
Y88500D01*
X113000Y88000D01*
D02*
G37*
G36*
X133000Y177000D02*
X141000Y185000D01*
Y177000D01*
X133000D01*
D02*
G37*
G36*
X354000Y151000D02*
X361000Y144000D01*
X354000D01*
Y151000D01*
D02*
G37*
G36*
X572000Y255000D02*
X576000Y259000D01*
Y255000D01*
X572000D01*
D02*
G37*
G36*
X376000Y489000D02*
X369000Y496000D01*
X376000D01*
Y489000D01*
D02*
G37*
G36*
X674000Y333000D02*
Y333000D01*
X681000Y340000D01*
Y332500D01*
X674000Y333000D01*
D02*
G37*
G36*
X302021Y328166D02*
X303218D01*
Y326177D01*
X298043D01*
Y328166D01*
X299271D01*
Y332092D01*
X299261D01*
X299209Y332082D01*
X299136Y332071D01*
X299032Y332051D01*
X298897Y332040D01*
X298740Y332019D01*
X298553Y332009D01*
X298240D01*
X298136Y332019D01*
X298043Y332030D01*
Y333946D01*
X298084D01*
X298136Y333936D01*
X298272D01*
X298324Y333946D01*
X298397D01*
X298490Y333956D01*
X298584Y333967D01*
X298688Y333977D01*
X298917Y334008D01*
X299178Y334071D01*
X299448Y334144D01*
X299709Y334248D01*
X299719D01*
X299740Y334258D01*
X299771Y334279D01*
X299823Y334310D01*
X299948Y334373D01*
X300105Y334467D01*
X300271Y334581D01*
X300438Y334717D01*
X300594Y334862D01*
X300719Y335019D01*
X302021D01*
Y328166D01*
D02*
G37*
G36*
X247670Y330322D02*
X247087D01*
X244879Y326104D01*
X242369D01*
X240099Y330322D01*
X239495D01*
Y332228D01*
X243765D01*
Y330322D01*
X243088D01*
X244088Y328020D01*
X245150Y330322D01*
X244546D01*
Y332228D01*
X247670D01*
Y330322D01*
D02*
G37*
G36*
X265905Y327854D02*
X261448D01*
Y330541D01*
X265905D01*
Y327854D01*
D02*
G37*
G36*
X291846Y335008D02*
X291971Y334998D01*
X292127Y334977D01*
X292294Y334956D01*
X292481Y334925D01*
X292669Y334894D01*
X292877Y334841D01*
X293085Y334789D01*
X293294Y334717D01*
X293502Y334633D01*
X293710Y334539D01*
X293908Y334425D01*
X294096Y334300D01*
X294106Y334290D01*
X294137Y334269D01*
X294189Y334227D01*
X294241Y334175D01*
X294314Y334102D01*
X294398Y334019D01*
X294481Y333915D01*
X294575Y333800D01*
X294668Y333675D01*
X294752Y333529D01*
X294835Y333384D01*
X294908Y333217D01*
X294970Y333040D01*
X295012Y332852D01*
X295043Y332644D01*
X295054Y332436D01*
Y332425D01*
Y332405D01*
Y332363D01*
X295043Y332311D01*
Y332248D01*
X295033Y332165D01*
X294991Y331988D01*
X294939Y331780D01*
X294845Y331540D01*
X294731Y331301D01*
X294648Y331186D01*
X294564Y331061D01*
X294554Y331051D01*
X294543Y331030D01*
X294512Y330999D01*
X294460Y330957D01*
X294408Y330895D01*
X294335Y330822D01*
X294241Y330749D01*
X294137Y330655D01*
X294023Y330561D01*
X293887Y330457D01*
X293731Y330353D01*
X293554Y330228D01*
X293367Y330114D01*
X293148Y329978D01*
X292919Y329853D01*
X292669Y329718D01*
X292659Y329707D01*
X292617Y329697D01*
X292565Y329666D01*
X292481Y329624D01*
X292398Y329572D01*
X292294Y329520D01*
X292055Y329395D01*
X291794Y329260D01*
X291544Y329114D01*
X291430Y329041D01*
X291315Y328978D01*
X291221Y328916D01*
X291138Y328853D01*
X291117Y328843D01*
X291075Y328801D01*
X291003Y328739D01*
X290919Y328656D01*
X290826Y328551D01*
X290721Y328437D01*
X290628Y328302D01*
X290544Y328166D01*
X293273Y328166D01*
X293304Y328885D01*
X295106D01*
X295033Y326177D01*
X288128Y326177D01*
Y326188D01*
Y326219D01*
Y326260D01*
Y326312D01*
X288118Y326354D01*
Y326396D01*
Y326427D01*
Y326437D01*
Y326448D01*
Y326489D01*
Y326552D01*
X288128Y326646D01*
X288139Y326750D01*
X288149Y326875D01*
X288160Y327010D01*
X288180Y327166D01*
X288212Y327323D01*
X288243Y327500D01*
X288337Y327864D01*
X288399Y328052D01*
X288472Y328239D01*
X288545Y328427D01*
X288639Y328604D01*
Y328614D01*
X288649Y328624D01*
X288691Y328687D01*
X288753Y328791D01*
X288836Y328916D01*
X288941Y329062D01*
X289066Y329228D01*
X289211Y329405D01*
X289378Y329582D01*
X289389Y329593D01*
X289399Y329603D01*
X289461Y329666D01*
X289566Y329759D01*
X289701Y329884D01*
X289867Y330041D01*
X290065Y330207D01*
X290294Y330374D01*
X290534Y330561D01*
X290544Y330572D01*
X290586Y330603D01*
X290638Y330645D01*
X290721Y330697D01*
X290815Y330770D01*
X290919Y330853D01*
X291148Y331040D01*
X291398Y331238D01*
X291638Y331436D01*
X291752Y331540D01*
X291857Y331634D01*
X291940Y331717D01*
X292013Y331790D01*
X292023Y331811D01*
X292065Y331853D01*
X292117Y331936D01*
X292179Y332030D01*
X292232Y332144D01*
X292284Y332280D01*
X292325Y332415D01*
X292336Y332561D01*
Y332582D01*
Y332623D01*
X292325Y332696D01*
X292304Y332780D01*
X292284Y332884D01*
X292242Y332988D01*
X292190Y333092D01*
X292117Y333186D01*
X292106Y333196D01*
X292075Y333227D01*
X292023Y333269D01*
X291950Y333311D01*
X291846Y333352D01*
X291732Y333394D01*
X291596Y333425D01*
X291440Y333436D01*
X291398D01*
X291357Y333425D01*
X291294Y333415D01*
X291221Y333394D01*
X291138Y333373D01*
X291055Y333331D01*
X290961Y333290D01*
X290867Y333217D01*
X290784Y333144D01*
X290701Y333040D01*
X290628Y332925D01*
X290576Y332790D01*
X290524Y332623D01*
X290492Y332436D01*
X290482Y332228D01*
X288253Y332290D01*
Y332311D01*
Y332352D01*
X288264Y332436D01*
X288274Y332530D01*
X288295Y332655D01*
X288326Y332790D01*
X288358Y332946D01*
X288399Y333113D01*
X288451Y333279D01*
X288524Y333456D01*
X288607Y333633D01*
X288701Y333811D01*
X288805Y333967D01*
X288930Y334123D01*
X289076Y334269D01*
X289243Y334394D01*
X289253Y334404D01*
X289284Y334425D01*
X289336Y334456D01*
X289409Y334487D01*
X289503Y334539D01*
X289607Y334592D01*
X289743Y334644D01*
X289888Y334706D01*
X290045Y334769D01*
X290222Y334821D01*
X290420Y334873D01*
X290628Y334925D01*
X290846Y334956D01*
X291075Y334987D01*
X291325Y335008D01*
X291586Y335019D01*
X291732D01*
X291846Y335008D01*
D02*
G37*
G36*
X274267D02*
X274392Y334998D01*
X274548Y334977D01*
X274715Y334956D01*
X274903Y334925D01*
X275090Y334894D01*
X275298Y334841D01*
X275507Y334789D01*
X275715Y334716D01*
X275923Y334633D01*
X276131Y334539D01*
X276329Y334425D01*
X276517Y334300D01*
X276527Y334290D01*
X276558Y334269D01*
X276611Y334227D01*
X276663Y334175D01*
X276735Y334102D01*
X276819Y334019D01*
X276902Y333915D01*
X276996Y333800D01*
X277090Y333675D01*
X277173Y333529D01*
X277256Y333383D01*
X277329Y333217D01*
X277391Y333040D01*
X277433Y332852D01*
X277464Y332644D01*
X277475Y332436D01*
Y332425D01*
Y332405D01*
Y332363D01*
X277464Y332311D01*
Y332248D01*
X277454Y332165D01*
X277412Y331988D01*
X277360Y331780D01*
X277267Y331540D01*
X277152Y331301D01*
X277069Y331186D01*
X276985Y331061D01*
X276975Y331051D01*
X276965Y331030D01*
X276933Y330999D01*
X276881Y330957D01*
X276829Y330895D01*
X276756Y330822D01*
X276663Y330749D01*
X276558Y330655D01*
X276444Y330561D01*
X276308Y330457D01*
X276152Y330353D01*
X275975Y330228D01*
X275788Y330113D01*
X275569Y329978D01*
X275340Y329853D01*
X275090Y329718D01*
X275080Y329707D01*
X275038Y329697D01*
X274986Y329666D01*
X274903Y329624D01*
X274819Y329572D01*
X274715Y329520D01*
X274476Y329395D01*
X274215Y329260D01*
X273965Y329114D01*
X273851Y329041D01*
X273736Y328978D01*
X273643Y328916D01*
X273559Y328853D01*
X273538Y328843D01*
X273497Y328801D01*
X273424Y328739D01*
X273340Y328656D01*
X273247Y328551D01*
X273143Y328437D01*
X273049Y328302D01*
X272966Y328166D01*
X275694D01*
X275725Y328885D01*
X277527D01*
X277454Y326177D01*
X270550D01*
Y326188D01*
Y326219D01*
Y326260D01*
Y326312D01*
X270539Y326354D01*
Y326396D01*
Y326427D01*
Y326437D01*
Y326448D01*
Y326489D01*
Y326552D01*
X270550Y326646D01*
X270560Y326750D01*
X270570Y326875D01*
X270581Y327010D01*
X270602Y327166D01*
X270633Y327323D01*
X270664Y327500D01*
X270758Y327864D01*
X270820Y328052D01*
X270893Y328239D01*
X270966Y328427D01*
X271060Y328604D01*
Y328614D01*
X271070Y328624D01*
X271112Y328687D01*
X271174Y328791D01*
X271258Y328916D01*
X271362Y329062D01*
X271487Y329228D01*
X271633Y329405D01*
X271799Y329582D01*
X271810Y329593D01*
X271820Y329603D01*
X271882Y329666D01*
X271987Y329759D01*
X272122Y329884D01*
X272289Y330041D01*
X272487Y330207D01*
X272716Y330374D01*
X272955Y330561D01*
X272966Y330572D01*
X273007Y330603D01*
X273059Y330645D01*
X273143Y330697D01*
X273236Y330770D01*
X273340Y330853D01*
X273570Y331040D01*
X273820Y331238D01*
X274059Y331436D01*
X274174Y331540D01*
X274278Y331634D01*
X274361Y331717D01*
X274434Y331790D01*
X274444Y331811D01*
X274486Y331853D01*
X274538Y331936D01*
X274601Y332030D01*
X274653Y332144D01*
X274705Y332280D01*
X274746Y332415D01*
X274757Y332561D01*
Y332582D01*
Y332623D01*
X274746Y332696D01*
X274726Y332780D01*
X274705Y332884D01*
X274663Y332988D01*
X274611Y333092D01*
X274538Y333186D01*
X274528Y333196D01*
X274496Y333227D01*
X274444Y333269D01*
X274371Y333311D01*
X274267Y333352D01*
X274153Y333394D01*
X274017Y333425D01*
X273861Y333436D01*
X273820D01*
X273778Y333425D01*
X273715Y333415D01*
X273643Y333394D01*
X273559Y333373D01*
X273476Y333331D01*
X273382Y333290D01*
X273288Y333217D01*
X273205Y333144D01*
X273122Y333040D01*
X273049Y332925D01*
X272997Y332790D01*
X272945Y332623D01*
X272913Y332436D01*
X272903Y332228D01*
X270674Y332290D01*
Y332311D01*
Y332352D01*
X270685Y332436D01*
X270695Y332530D01*
X270716Y332655D01*
X270747Y332790D01*
X270779Y332946D01*
X270820Y333113D01*
X270872Y333279D01*
X270945Y333456D01*
X271029Y333633D01*
X271122Y333811D01*
X271227Y333967D01*
X271351Y334123D01*
X271497Y334269D01*
X271664Y334394D01*
X271674Y334404D01*
X271705Y334425D01*
X271758Y334456D01*
X271831Y334487D01*
X271924Y334539D01*
X272028Y334592D01*
X272164Y334644D01*
X272309Y334706D01*
X272466Y334769D01*
X272643Y334821D01*
X272841Y334873D01*
X273049Y334925D01*
X273268Y334956D01*
X273497Y334987D01*
X273747Y335008D01*
X274007Y335019D01*
X274153D01*
X274267Y335008D01*
D02*
G37*
G36*
X255876Y332769D02*
X255179D01*
X256834Y328249D01*
X257480D01*
Y326177D01*
X252950D01*
Y328083D01*
X253710D01*
X253377Y329176D01*
X251159D01*
X250773Y328083D01*
X251492D01*
Y326177D01*
X248055D01*
Y328249D01*
X248711D01*
X250336Y332769D01*
X249638D01*
Y334852D01*
X255876D01*
Y332769D01*
D02*
G37*
G36*
X225280Y334841D02*
X225478D01*
X225894Y334821D01*
X225988D01*
X226082Y334810D01*
X226217D01*
X226363Y334800D01*
X226519Y334789D01*
X226675Y334769D01*
X226821Y334758D01*
X226842D01*
X226884Y334748D01*
X226957Y334737D01*
X227050Y334727D01*
X227165Y334716D01*
X227279Y334696D01*
X227529Y334654D01*
X227540D01*
X227571Y334644D01*
X227623Y334633D01*
X227686Y334612D01*
X227758Y334592D01*
X227852Y334560D01*
X228060Y334477D01*
X228290Y334362D01*
X228540Y334217D01*
X228779Y334029D01*
X228904Y333925D01*
X229008Y333811D01*
X229018Y333800D01*
X229029Y333779D01*
X229060Y333748D01*
X229102Y333696D01*
X229144Y333633D01*
X229196Y333550D01*
X229248Y333467D01*
X229300Y333363D01*
X229352Y333259D01*
X229404Y333134D01*
X229498Y332873D01*
X229571Y332571D01*
X229581Y332415D01*
X229591Y332248D01*
Y332238D01*
Y332217D01*
Y332186D01*
Y332134D01*
X229581Y332082D01*
X229571Y332009D01*
X229550Y331842D01*
X229508Y331655D01*
X229445Y331457D01*
X229352Y331238D01*
X229237Y331030D01*
Y331020D01*
X229216Y331009D01*
X229175Y330947D01*
X229091Y330843D01*
X228987Y330728D01*
X228862Y330603D01*
X228706Y330468D01*
X228519Y330343D01*
X228321Y330238D01*
X229518Y328249D01*
X230143D01*
Y326177D01*
X227019D01*
X225124Y329718D01*
X224072D01*
Y328249D01*
X224718D01*
Y326177D01*
X220000D01*
Y328249D01*
X220708D01*
Y332769D01*
X220000D01*
Y334852D01*
X225103D01*
X225280Y334841D01*
D02*
G37*
G36*
X283067Y335008D02*
X283171Y334998D01*
X283307Y334977D01*
X283473Y334956D01*
X283650Y334914D01*
X283838Y334862D01*
X284046Y334800D01*
X284254Y334716D01*
X284484Y334623D01*
X284702Y334508D01*
X284931Y334362D01*
X285150Y334206D01*
X285369Y334019D01*
X285577Y333800D01*
X285587Y333790D01*
X285619Y333748D01*
X285681Y333675D01*
X285744Y333581D01*
X285827Y333456D01*
X285921Y333311D01*
X286014Y333134D01*
X286119Y332946D01*
X286212Y332717D01*
X286306Y332477D01*
X286400Y332207D01*
X286483Y331915D01*
X286556Y331613D01*
X286608Y331280D01*
X286639Y330926D01*
X286650Y330551D01*
Y330541D01*
Y330530D01*
Y330499D01*
Y330457D01*
X286639Y330343D01*
X286629Y330197D01*
X286618Y330020D01*
X286587Y329812D01*
X286556Y329582D01*
X286514Y329333D01*
X286452Y329072D01*
X286379Y328801D01*
X286285Y328531D01*
X286181Y328249D01*
X286056Y327989D01*
X285900Y327729D01*
X285733Y327479D01*
X285535Y327250D01*
X285525Y327239D01*
X285483Y327198D01*
X285421Y327146D01*
X285337Y327073D01*
X285233Y326979D01*
X285108Y326885D01*
X284963Y326781D01*
X284796Y326677D01*
X284608Y326562D01*
X284411Y326458D01*
X284192Y326365D01*
X283963Y326271D01*
X283723Y326198D01*
X283463Y326146D01*
X283192Y326104D01*
X282911Y326094D01*
X282838D01*
X282755Y326104D01*
X282651Y326115D01*
X282515Y326135D01*
X282359Y326156D01*
X282182Y326198D01*
X281994Y326250D01*
X281786Y326312D01*
X281568Y326385D01*
X281349Y326489D01*
X281130Y326604D01*
X280901Y326739D01*
X280682Y326906D01*
X280464Y327094D01*
X280255Y327302D01*
X280245Y327312D01*
X280214Y327354D01*
X280162Y327427D01*
X280089Y327520D01*
X280005Y327645D01*
X279922Y327791D01*
X279828Y327958D01*
X279724Y328156D01*
X279631Y328374D01*
X279526Y328624D01*
X279443Y328885D01*
X279360Y329176D01*
X279287Y329489D01*
X279235Y329822D01*
X279204Y330176D01*
X279193Y330551D01*
Y330561D01*
Y330572D01*
Y330603D01*
Y330645D01*
X279204Y330759D01*
X279214Y330905D01*
X279224Y331082D01*
X279256Y331280D01*
X279287Y331509D01*
X279328Y331759D01*
X279391Y332019D01*
X279464Y332290D01*
X279547Y332561D01*
X279651Y332832D01*
X279776Y333102D01*
X279922Y333363D01*
X280099Y333613D01*
X280287Y333842D01*
X280297Y333852D01*
X280339Y333894D01*
X280401Y333946D01*
X280485Y334029D01*
X280589Y334113D01*
X280714Y334217D01*
X280859Y334321D01*
X281026Y334435D01*
X281213Y334539D01*
X281411Y334644D01*
X281630Y334748D01*
X281859Y334831D01*
X282109Y334914D01*
X282359Y334967D01*
X282630Y335008D01*
X282911Y335019D01*
X282984D01*
X283067Y335008D01*
D02*
G37*
G36*
X234944Y332384D02*
X235059D01*
X235204Y332363D01*
X235382Y332352D01*
X235569Y332321D01*
X235767Y332290D01*
X235986Y332238D01*
X236215Y332186D01*
X236444Y332113D01*
X236683Y332030D01*
X236912Y331926D01*
X237141Y331811D01*
X237360Y331676D01*
X237568Y331519D01*
X237579Y331509D01*
X237610Y331478D01*
X237662Y331426D01*
X237735Y331353D01*
X237818Y331269D01*
X237912Y331155D01*
X238006Y331020D01*
X238110Y330863D01*
X238214Y330697D01*
X238308Y330499D01*
X238412Y330280D01*
X238495Y330041D01*
X238568Y329791D01*
X238631Y329510D01*
X238683Y329207D01*
X238703Y328885D01*
X233934D01*
Y328864D01*
Y328822D01*
X233944Y328749D01*
X233955Y328656D01*
X233976Y328541D01*
X233996Y328416D01*
X234028Y328291D01*
X234080Y328156D01*
X234142Y328010D01*
X234215Y327885D01*
X234298Y327760D01*
X234403Y327645D01*
X234527Y327552D01*
X234673Y327479D01*
X234840Y327437D01*
X235027Y327416D01*
X235090D01*
X235131Y327427D01*
X235246Y327448D01*
X235392Y327500D01*
X235548Y327583D01*
X235621Y327635D01*
X235704Y327697D01*
X235777Y327781D01*
X235840Y327874D01*
X235913Y327979D01*
X235965Y328093D01*
X238558Y327770D01*
X238547Y327750D01*
X238526Y327697D01*
X238485Y327625D01*
X238433Y327531D01*
X238360Y327416D01*
X238277Y327291D01*
X238183Y327166D01*
X238068Y327041D01*
X238058Y327031D01*
X238016Y326989D01*
X237943Y326927D01*
X237860Y326854D01*
X237745Y326760D01*
X237621Y326666D01*
X237475Y326573D01*
X237308Y326479D01*
X237298D01*
X237266Y326458D01*
X237214Y326437D01*
X237152Y326406D01*
X237058Y326365D01*
X236954Y326323D01*
X236839Y326281D01*
X236694Y326240D01*
X236548Y326198D01*
X236381Y326156D01*
X236204Y326115D01*
X236017Y326073D01*
X235808Y326042D01*
X235600Y326021D01*
X235371Y326010D01*
X235142Y326000D01*
X235048D01*
X234944Y326010D01*
X234798D01*
X234621Y326031D01*
X234413Y326042D01*
X234194Y326073D01*
X233955Y326115D01*
X233694Y326156D01*
X233434Y326219D01*
X233174Y326281D01*
X232913Y326365D01*
X232653Y326469D01*
X232403Y326583D01*
X232174Y326719D01*
X231966Y326875D01*
X231955Y326885D01*
X231924Y326916D01*
X231872Y326968D01*
X231799Y327031D01*
X231716Y327125D01*
X231632Y327229D01*
X231539Y327354D01*
X231435Y327489D01*
X231341Y327645D01*
X231237Y327822D01*
X231153Y328010D01*
X231070Y328208D01*
X230997Y328427D01*
X230945Y328666D01*
X230914Y328905D01*
X230903Y329166D01*
Y329187D01*
Y329228D01*
X230914Y329301D01*
X230924Y329395D01*
X230935Y329510D01*
X230956Y329645D01*
X230987Y329801D01*
X231039Y329968D01*
X231091Y330145D01*
X231164Y330332D01*
X231247Y330520D01*
X231351Y330718D01*
X231466Y330915D01*
X231612Y331103D01*
X231768Y331290D01*
X231955Y331467D01*
X231966Y331478D01*
X232007Y331509D01*
X232059Y331551D01*
X232143Y331613D01*
X232247Y331686D01*
X232382Y331759D01*
X232528Y331842D01*
X232695Y331936D01*
X232892Y332019D01*
X233101Y332103D01*
X233330Y332175D01*
X233590Y332248D01*
X233861Y332311D01*
X234142Y332352D01*
X234455Y332384D01*
X234778Y332394D01*
X234850D01*
X234944Y332384D01*
D02*
G37*
G36*
X324167Y364036D02*
X324376Y363994D01*
X324605Y363932D01*
X324855Y363807D01*
X325105Y363661D01*
X325334Y363453D01*
X325355Y363432D01*
X325438Y363349D01*
X325542Y363203D01*
X325646Y363036D01*
X325771Y362807D01*
X325854Y362557D01*
X325938Y362265D01*
X325959Y361953D01*
Y361911D01*
Y361807D01*
X325917Y361641D01*
X325875Y361432D01*
X325813Y361203D01*
X325688Y360953D01*
X325542Y360703D01*
X325334Y360474D01*
X325313Y360453D01*
X325230Y360391D01*
X325084Y360287D01*
X324917Y360183D01*
X324709Y360058D01*
X324438Y359974D01*
X324167Y359891D01*
X323855Y359870D01*
X323709D01*
X323543Y359912D01*
X323334Y359953D01*
X323105Y360016D01*
X322855Y360120D01*
X322605Y360266D01*
X322355Y360474D01*
X322335Y360495D01*
X322272Y360578D01*
X322168Y360724D01*
X322064Y360891D01*
X321939Y361120D01*
X321856Y361370D01*
X321772Y361641D01*
X321751Y361953D01*
Y361995D01*
Y362099D01*
X321793Y362265D01*
X321835Y362474D01*
X321897Y362703D01*
X322001Y362953D01*
X322147Y363203D01*
X322355Y363453D01*
X322376Y363474D01*
X322459Y363557D01*
X322605Y363661D01*
X322772Y363765D01*
X323001Y363890D01*
X323251Y363973D01*
X323543Y364057D01*
X323855Y364077D01*
X324001D01*
X324167Y364036D01*
D02*
G37*
G36*
X103953Y364036D02*
X104161Y363994D01*
X104390Y363932D01*
X104640Y363807D01*
X104890Y363661D01*
X105119Y363453D01*
X105140Y363432D01*
X105224Y363348D01*
X105328Y363203D01*
X105432Y363036D01*
X105557Y362807D01*
X105640Y362557D01*
X105723Y362265D01*
X105744Y361953D01*
Y361911D01*
Y361807D01*
X105702Y361641D01*
X105661Y361432D01*
X105598Y361203D01*
X105473Y360953D01*
X105328Y360703D01*
X105119Y360474D01*
X105098Y360453D01*
X105015Y360391D01*
X104869Y360287D01*
X104703Y360183D01*
X104494Y360058D01*
X104224Y359974D01*
X103953Y359891D01*
X103641Y359870D01*
X103495D01*
X103328Y359912D01*
X103120Y359953D01*
X102891Y360016D01*
X102641Y360120D01*
X102391Y360266D01*
X102141Y360474D01*
X102120Y360495D01*
X102058Y360578D01*
X101953Y360724D01*
X101849Y360891D01*
X101724Y361120D01*
X101641Y361370D01*
X101558Y361641D01*
X101537Y361953D01*
Y361995D01*
Y362099D01*
X101579Y362265D01*
X101620Y362474D01*
X101683Y362703D01*
X101787Y362953D01*
X101933Y363203D01*
X102141Y363453D01*
X102162Y363473D01*
X102245Y363557D01*
X102391Y363661D01*
X102557Y363765D01*
X102787Y363890D01*
X103036Y363973D01*
X103328Y364057D01*
X103641Y364077D01*
X103786D01*
X103953Y364036D01*
D02*
G37*
G36*
X401960Y364057D02*
X402231Y364036D01*
X402543Y363994D01*
X402876Y363932D01*
X403251Y363869D01*
X403647Y363786D01*
X404085Y363682D01*
X404501Y363557D01*
X404938Y363390D01*
X405376Y363203D01*
X405813Y362994D01*
X406251Y362744D01*
X406646Y362453D01*
Y363807D01*
X409583D01*
Y357704D01*
X406646D01*
X406626Y357746D01*
X406584Y357850D01*
X406521Y358017D01*
X406396Y358225D01*
X406271Y358475D01*
X406084Y358745D01*
X405876Y359037D01*
X405647Y359350D01*
X405355Y359662D01*
X405042Y359953D01*
X404688Y360224D01*
X404293Y360474D01*
X403855Y360682D01*
X403376Y360849D01*
X402876Y360953D01*
X402314Y360995D01*
X402210D01*
X402064Y360974D01*
X401898D01*
X401689Y360933D01*
X401439Y360912D01*
X401169Y360849D01*
X400877Y360787D01*
X400564Y360682D01*
X400252Y360578D01*
X399940Y360433D01*
X399627Y360266D01*
X399294Y360058D01*
X399002Y359829D01*
X398711Y359558D01*
X398461Y359245D01*
X398440Y359225D01*
X398398Y359162D01*
X398336Y359079D01*
X398253Y358933D01*
X398169Y358766D01*
X398044Y358579D01*
X397940Y358350D01*
X397815Y358079D01*
X397690Y357787D01*
X397586Y357475D01*
X397461Y357142D01*
X397378Y356767D01*
X397295Y356371D01*
X397232Y355975D01*
X397190Y355538D01*
X397170Y355101D01*
Y355080D01*
Y354996D01*
Y354851D01*
X397190Y354684D01*
X397211Y354455D01*
X397253Y354205D01*
X397295Y353934D01*
X397336Y353643D01*
X397503Y352976D01*
X397607Y352643D01*
X397753Y352289D01*
X397898Y351956D01*
X398086Y351622D01*
X398294Y351310D01*
X398544Y350998D01*
X398565Y350977D01*
X398607Y350935D01*
X398690Y350852D01*
X398794Y350748D01*
X398919Y350643D01*
X399086Y350498D01*
X399273Y350373D01*
X399502Y350227D01*
X399731Y350081D01*
X400002Y349935D01*
X400294Y349790D01*
X400606Y349685D01*
X400939Y349581D01*
X401293Y349498D01*
X401648Y349456D01*
X402043Y349435D01*
X402210D01*
X402335Y349456D01*
X402481Y349477D01*
X402668Y349498D01*
X402856Y349539D01*
X403085Y349581D01*
X403564Y349727D01*
X404064Y349935D01*
X404334Y350060D01*
X404605Y350227D01*
X404855Y350393D01*
X405105Y350602D01*
X405126Y350623D01*
X405168Y350664D01*
X405230Y350727D01*
X405313Y350831D01*
X405418Y350935D01*
X405542Y351081D01*
X405667Y351268D01*
X405813Y351456D01*
X405959Y351685D01*
X406105Y351935D01*
X406271Y352206D01*
X406396Y352497D01*
X406542Y352809D01*
X406667Y353143D01*
X406771Y353518D01*
X406875Y353893D01*
X410312Y352247D01*
Y352226D01*
X410291Y352185D01*
X410249Y352101D01*
X410208Y351997D01*
X410166Y351851D01*
X410083Y351685D01*
X410000Y351518D01*
X409896Y351310D01*
X409666Y350852D01*
X409354Y350352D01*
X408958Y349810D01*
X408500Y349248D01*
X407979Y348686D01*
X407667Y348415D01*
X407355Y348144D01*
X407021Y347894D01*
X406646Y347644D01*
X406271Y347415D01*
X405876Y347186D01*
X405438Y346978D01*
X404980Y346811D01*
X404501Y346644D01*
X404001Y346499D01*
X403480Y346395D01*
X402918Y346311D01*
X402335Y346269D01*
X401731Y346249D01*
X401418D01*
X401293Y346269D01*
X400960Y346290D01*
X400585Y346332D01*
X400127Y346374D01*
X399627Y346457D01*
X399107Y346561D01*
X398544Y346686D01*
X397961Y346853D01*
X397378Y347061D01*
X396795Y347311D01*
X396232Y347582D01*
X395670Y347915D01*
X395170Y348311D01*
X394691Y348748D01*
X394670Y348769D01*
X394587Y348873D01*
X394483Y348998D01*
X394316Y349206D01*
X394150Y349456D01*
X393941Y349748D01*
X393733Y350102D01*
X393504Y350498D01*
X393275Y350935D01*
X393066Y351414D01*
X392858Y351935D01*
X392691Y352497D01*
X392546Y353101D01*
X392421Y353747D01*
X392337Y354413D01*
X392317Y355121D01*
Y355163D01*
Y355246D01*
Y355392D01*
X392337Y355580D01*
X392358Y355830D01*
X392379Y356100D01*
X392421Y356413D01*
X392462Y356746D01*
X392546Y357121D01*
X392608Y357496D01*
X392712Y357912D01*
X392837Y358308D01*
X392983Y358725D01*
X393150Y359141D01*
X393337Y359537D01*
X393545Y359933D01*
X393566Y359953D01*
X393608Y360016D01*
X393671Y360120D01*
X393775Y360266D01*
X393900Y360453D01*
X394045Y360641D01*
X394212Y360849D01*
X394420Y361099D01*
X394649Y361349D01*
X394899Y361599D01*
X395170Y361849D01*
X395462Y362120D01*
X395774Y362370D01*
X396107Y362599D01*
X396482Y362828D01*
X396857Y363036D01*
X396878Y363057D01*
X396961Y363078D01*
X397065Y363140D01*
X397232Y363203D01*
X397420Y363286D01*
X397649Y363369D01*
X397919Y363453D01*
X398211Y363557D01*
X398544Y363661D01*
X398898Y363744D01*
X399273Y363828D01*
X399669Y363911D01*
X400523Y364036D01*
X400981Y364057D01*
X401439Y364077D01*
X401731D01*
X401960Y364057D01*
D02*
G37*
G36*
X171394Y364057D02*
X171665Y364036D01*
X171977Y363994D01*
X172311Y363932D01*
X172685Y363869D01*
X173081Y363786D01*
X173519Y363682D01*
X173935Y363557D01*
X174372Y363390D01*
X174810Y363203D01*
X175247Y362994D01*
X175685Y362744D01*
X176080Y362453D01*
Y363807D01*
X179017D01*
Y357704D01*
X176080D01*
X176059Y357746D01*
X176018Y357850D01*
X175955Y358017D01*
X175830Y358225D01*
X175705Y358475D01*
X175518Y358745D01*
X175310Y359037D01*
X175081Y359350D01*
X174789Y359662D01*
X174477Y359953D01*
X174123Y360224D01*
X173727Y360474D01*
X173289Y360682D01*
X172810Y360849D01*
X172311Y360953D01*
X171748Y360995D01*
X171644D01*
X171498Y360974D01*
X171332D01*
X171123Y360932D01*
X170873Y360912D01*
X170603Y360849D01*
X170311Y360787D01*
X169999Y360682D01*
X169686Y360578D01*
X169374Y360433D01*
X169061Y360266D01*
X168728Y360058D01*
X168437Y359828D01*
X168145Y359558D01*
X167895Y359245D01*
X167874Y359225D01*
X167833Y359162D01*
X167770Y359079D01*
X167687Y358933D01*
X167603Y358766D01*
X167478Y358579D01*
X167374Y358350D01*
X167249Y358079D01*
X167124Y357787D01*
X167020Y357475D01*
X166895Y357142D01*
X166812Y356767D01*
X166729Y356371D01*
X166666Y355975D01*
X166624Y355538D01*
X166604Y355101D01*
Y355080D01*
Y354996D01*
Y354851D01*
X166624Y354684D01*
X166645Y354455D01*
X166687Y354205D01*
X166729Y353934D01*
X166770Y353643D01*
X166937Y352976D01*
X167041Y352643D01*
X167187Y352289D01*
X167333Y351956D01*
X167520Y351622D01*
X167728Y351310D01*
X167978Y350998D01*
X167999Y350977D01*
X168041Y350935D01*
X168124Y350852D01*
X168228Y350747D01*
X168353Y350643D01*
X168520Y350498D01*
X168707Y350373D01*
X168936Y350227D01*
X169165Y350081D01*
X169436Y349935D01*
X169728Y349789D01*
X170040Y349685D01*
X170373Y349581D01*
X170728Y349498D01*
X171082Y349456D01*
X171477Y349435D01*
X171644D01*
X171769Y349456D01*
X171915Y349477D01*
X172102Y349498D01*
X172290Y349539D01*
X172519Y349581D01*
X172998Y349727D01*
X173498Y349935D01*
X173768Y350060D01*
X174039Y350227D01*
X174289Y350393D01*
X174539Y350602D01*
X174560Y350623D01*
X174602Y350664D01*
X174664Y350727D01*
X174747Y350831D01*
X174851Y350935D01*
X174977Y351081D01*
X175101Y351268D01*
X175247Y351456D01*
X175393Y351685D01*
X175539Y351935D01*
X175705Y352206D01*
X175830Y352497D01*
X175976Y352809D01*
X176101Y353143D01*
X176205Y353518D01*
X176310Y353893D01*
X179746Y352247D01*
Y352226D01*
X179725Y352185D01*
X179684Y352101D01*
X179642Y351997D01*
X179600Y351851D01*
X179517Y351685D01*
X179434Y351518D01*
X179329Y351310D01*
X179100Y350852D01*
X178788Y350352D01*
X178392Y349810D01*
X177934Y349248D01*
X177413Y348686D01*
X177101Y348415D01*
X176789Y348144D01*
X176455Y347894D01*
X176080Y347644D01*
X175705Y347415D01*
X175310Y347186D01*
X174872Y346978D01*
X174414Y346811D01*
X173935Y346644D01*
X173435Y346499D01*
X172915Y346395D01*
X172352Y346311D01*
X171769Y346269D01*
X171165Y346249D01*
X170853D01*
X170728Y346269D01*
X170394Y346290D01*
X170019Y346332D01*
X169561Y346374D01*
X169061Y346457D01*
X168541Y346561D01*
X167978Y346686D01*
X167395Y346853D01*
X166812Y347061D01*
X166229Y347311D01*
X165666Y347582D01*
X165104Y347915D01*
X164604Y348311D01*
X164125Y348748D01*
X164104Y348769D01*
X164021Y348873D01*
X163917Y348998D01*
X163750Y349206D01*
X163584Y349456D01*
X163375Y349748D01*
X163167Y350102D01*
X162938Y350498D01*
X162709Y350935D01*
X162500Y351414D01*
X162292Y351935D01*
X162126Y352497D01*
X161980Y353101D01*
X161855Y353747D01*
X161772Y354413D01*
X161751Y355121D01*
Y355163D01*
Y355246D01*
Y355392D01*
X161772Y355580D01*
X161792Y355830D01*
X161813Y356100D01*
X161855Y356413D01*
X161896Y356746D01*
X161980Y357121D01*
X162042Y357496D01*
X162146Y357912D01*
X162271Y358308D01*
X162417Y358725D01*
X162584Y359141D01*
X162771Y359537D01*
X162980Y359933D01*
X163000Y359953D01*
X163042Y360016D01*
X163104Y360120D01*
X163209Y360266D01*
X163334Y360453D01*
X163479Y360641D01*
X163646Y360849D01*
X163854Y361099D01*
X164083Y361349D01*
X164333Y361599D01*
X164604Y361849D01*
X164896Y362120D01*
X165208Y362370D01*
X165541Y362599D01*
X165916Y362828D01*
X166291Y363036D01*
X166312Y363057D01*
X166395Y363078D01*
X166500Y363140D01*
X166666Y363203D01*
X166854Y363286D01*
X167083Y363369D01*
X167353Y363453D01*
X167645Y363557D01*
X167978Y363661D01*
X168332Y363744D01*
X168707Y363828D01*
X169103Y363911D01*
X169957Y364036D01*
X170415Y364057D01*
X170873Y364077D01*
X171165D01*
X171394Y364057D01*
D02*
G37*
G36*
X338497Y358683D02*
X338747Y358641D01*
X339018Y358558D01*
X339330Y358454D01*
X339664Y358308D01*
X339997Y358121D01*
X340330Y357871D01*
X340663Y357558D01*
X340976Y357183D01*
X341267Y356746D01*
X341371Y356475D01*
X341496Y356204D01*
X341580Y355892D01*
X341663Y355580D01*
X341746Y355226D01*
X341788Y354851D01*
X341830Y354455D01*
Y354038D01*
Y349248D01*
X343642D01*
Y346457D01*
X337976D01*
Y353747D01*
Y353768D01*
Y353788D01*
Y353913D01*
X337956Y354080D01*
X337935Y354288D01*
X337914Y354497D01*
X337872Y354726D01*
X337789Y354913D01*
X337706Y355080D01*
X337685Y355101D01*
X337664Y355142D01*
X337581Y355205D01*
X337497Y355267D01*
X337372Y355330D01*
X337227Y355392D01*
X337039Y355434D01*
X336831Y355455D01*
X336727D01*
X336643Y355434D01*
X336435Y355413D01*
X336143Y355350D01*
X335831Y355267D01*
X335456Y355121D01*
X335061Y354934D01*
X334644Y354663D01*
Y349248D01*
X336498D01*
Y346457D01*
X328937D01*
Y349248D01*
X330791D01*
Y355726D01*
X328937D01*
Y358516D01*
X334644D01*
Y357392D01*
X334665Y357412D01*
X334727Y357454D01*
X334810Y357517D01*
X334935Y357600D01*
X335102Y357704D01*
X335290Y357808D01*
X335498Y357933D01*
X335727Y358058D01*
X335998Y358162D01*
X336269Y358287D01*
X336852Y358496D01*
X337185Y358579D01*
X337497Y358641D01*
X337831Y358683D01*
X338164Y358704D01*
X338330D01*
X338497Y358683D01*
D02*
G37*
G36*
X118283Y358683D02*
X118533Y358641D01*
X118803Y358558D01*
X119116Y358454D01*
X119449Y358308D01*
X119782Y358121D01*
X120115Y357871D01*
X120449Y357558D01*
X120761Y357183D01*
X121053Y356746D01*
X121157Y356475D01*
X121282Y356204D01*
X121365Y355892D01*
X121448Y355580D01*
X121532Y355225D01*
X121573Y354851D01*
X121615Y354455D01*
Y354038D01*
Y349248D01*
X123427D01*
Y346457D01*
X117762D01*
Y353747D01*
Y353768D01*
Y353788D01*
Y353913D01*
X117741Y354080D01*
X117720Y354288D01*
X117699Y354496D01*
X117658Y354726D01*
X117575Y354913D01*
X117491Y355080D01*
X117470Y355101D01*
X117450Y355142D01*
X117366Y355205D01*
X117283Y355267D01*
X117158Y355330D01*
X117012Y355392D01*
X116825Y355434D01*
X116616Y355455D01*
X116512D01*
X116429Y355434D01*
X116221Y355413D01*
X115929Y355350D01*
X115617Y355267D01*
X115242Y355121D01*
X114846Y354934D01*
X114430Y354663D01*
Y349248D01*
X116283D01*
Y346457D01*
X108723D01*
Y349248D01*
X110576D01*
Y355725D01*
X108723D01*
Y358516D01*
X114430D01*
Y357392D01*
X114450Y357412D01*
X114513Y357454D01*
X114596Y357517D01*
X114721Y357600D01*
X114888Y357704D01*
X115075Y357808D01*
X115283Y357933D01*
X115513Y358058D01*
X115783Y358162D01*
X116054Y358287D01*
X116637Y358495D01*
X116971Y358579D01*
X117283Y358641D01*
X117616Y358683D01*
X117949Y358704D01*
X118116D01*
X118283Y358683D01*
D02*
G37*
G36*
X450864Y349248D02*
X452843D01*
Y346457D01*
X447011D01*
Y347894D01*
X446990Y347873D01*
X446949Y347832D01*
X446844Y347748D01*
X446719Y347644D01*
X446574Y347519D01*
X446407Y347394D01*
X446199Y347248D01*
X445970Y347103D01*
X445720Y346936D01*
X445449Y346790D01*
X444845Y346540D01*
X444532Y346436D01*
X444199Y346353D01*
X443866Y346311D01*
X443512Y346290D01*
X443408D01*
X443304Y346311D01*
X443137D01*
X442949Y346353D01*
X442720Y346395D01*
X442471Y346436D01*
X442200Y346520D01*
X441908Y346624D01*
X441617Y346728D01*
X441304Y346874D01*
X440992Y347061D01*
X440679Y347269D01*
X440367Y347498D01*
X440075Y347790D01*
X439784Y348102D01*
X439763Y348123D01*
X439721Y348186D01*
X439638Y348290D01*
X439554Y348436D01*
X439450Y348602D01*
X439325Y348831D01*
X439180Y349061D01*
X439055Y349352D01*
X438909Y349664D01*
X438763Y349998D01*
X438638Y350373D01*
X438534Y350748D01*
X438451Y351164D01*
X438367Y351622D01*
X438326Y352081D01*
X438305Y352560D01*
Y352580D01*
Y352685D01*
X438326Y352809D01*
Y352997D01*
X438346Y353226D01*
X438388Y353476D01*
X438430Y353788D01*
X438492Y354101D01*
X438576Y354434D01*
X438680Y354788D01*
X438784Y355163D01*
X438930Y355538D01*
X439117Y355913D01*
X439305Y356288D01*
X439534Y356642D01*
X439804Y356996D01*
X439825Y357017D01*
X439867Y357079D01*
X439950Y357163D01*
X440075Y357288D01*
X440221Y357412D01*
X440409Y357579D01*
X440617Y357746D01*
X440846Y357912D01*
X441096Y358079D01*
X441387Y358246D01*
X441700Y358412D01*
X442012Y358537D01*
X442366Y358662D01*
X442741Y358745D01*
X443137Y358808D01*
X443533Y358829D01*
X443741D01*
X443887Y358808D01*
X444053Y358787D01*
X444262Y358745D01*
X444512Y358683D01*
X444762Y358620D01*
X445032Y358537D01*
X445303Y358433D01*
X445595Y358287D01*
X445886Y358121D01*
X446178Y357933D01*
X446469Y357704D01*
X446740Y357454D01*
X447011Y357163D01*
Y361016D01*
X445136Y361016D01*
Y363807D01*
X450864Y363807D01*
Y349248D01*
D02*
G37*
G36*
X205427Y358683D02*
X205594D01*
X205802Y358641D01*
X206031Y358600D01*
X206281Y358537D01*
X206572Y358475D01*
X206864Y358371D01*
X207176Y358246D01*
X207489Y358079D01*
X207801Y357892D01*
X208114Y357683D01*
X208405Y357412D01*
X208697Y357121D01*
X208968Y356788D01*
X208989Y356767D01*
X209030Y356704D01*
X209093Y356600D01*
X209197Y356454D01*
X209301Y356267D01*
X209405Y356059D01*
X209530Y355809D01*
X209676Y355517D01*
X209801Y355226D01*
X209926Y354871D01*
X210030Y354517D01*
X210155Y354122D01*
X210238Y353726D01*
X210301Y353288D01*
X210342Y352830D01*
X210363Y352372D01*
Y352351D01*
Y352247D01*
Y352122D01*
X210342Y351935D01*
X210322Y351706D01*
X210280Y351435D01*
X210238Y351143D01*
X210176Y350810D01*
X210113Y350477D01*
X210009Y350102D01*
X209905Y349748D01*
X209759Y349373D01*
X209593Y348998D01*
X209405Y348623D01*
X209176Y348269D01*
X208926Y347936D01*
X208905Y347915D01*
X208864Y347852D01*
X208780Y347769D01*
X208676Y347665D01*
X208530Y347540D01*
X208364Y347373D01*
X208155Y347228D01*
X207926Y347061D01*
X207656Y346894D01*
X207385Y346749D01*
X207072Y346603D01*
X206739Y346457D01*
X206364Y346353D01*
X205989Y346269D01*
X205573Y346207D01*
X205135Y346186D01*
X205052D01*
X204948Y346207D01*
X204802D01*
X204636Y346228D01*
X204448Y346269D01*
X204219Y346311D01*
X203969Y346374D01*
X203698Y346457D01*
X203428Y346561D01*
X203136Y346665D01*
X202844Y346811D01*
X202532Y346998D01*
X202220Y347186D01*
X201907Y347415D01*
X201616Y347686D01*
Y343791D01*
X204032D01*
Y341000D01*
X195721D01*
Y343791D01*
X197762D01*
Y355725D01*
X196075D01*
Y358516D01*
X201616D01*
Y356996D01*
X201636Y357017D01*
X201699Y357079D01*
X201782Y357163D01*
X201907Y357267D01*
X202053Y357392D01*
X202220Y357537D01*
X202428Y357683D01*
X202657Y357850D01*
X202928Y358017D01*
X203198Y358162D01*
X203802Y358433D01*
X204136Y358537D01*
X204469Y358641D01*
X204823Y358683D01*
X205198Y358704D01*
X205302D01*
X205427Y358683D01*
D02*
G37*
G36*
X437180Y358683D02*
Y355059D01*
X436805D01*
X436660Y355038D01*
X436326Y355017D01*
X435951Y354976D01*
X435535Y354913D01*
X435139Y354830D01*
X434764Y354726D01*
X434722Y354705D01*
X434618Y354663D01*
X434452Y354559D01*
X434223Y354413D01*
X433993Y354226D01*
X433744Y353976D01*
X433473Y353663D01*
X433244Y353289D01*
Y353268D01*
X433223Y353247D01*
X433181Y353184D01*
X433160Y353101D01*
X433119Y352997D01*
X433056Y352872D01*
X432952Y352560D01*
X432848Y352185D01*
X432744Y351747D01*
X432681Y351268D01*
X432660Y350727D01*
Y349248D01*
X435076D01*
Y346457D01*
X426579D01*
Y349248D01*
X428807D01*
Y355726D01*
X426704D01*
Y358516D01*
X432327D01*
Y355476D01*
X432348Y355517D01*
X432369Y355580D01*
X432390Y355684D01*
X432431Y355788D01*
X432494Y355913D01*
X432640Y356225D01*
X432827Y356579D01*
X433077Y356975D01*
X433410Y357350D01*
X433806Y357725D01*
X433827Y357746D01*
X433868Y357767D01*
X433931Y357808D01*
X434014Y357871D01*
X434118Y357954D01*
X434264Y358037D01*
X434577Y358225D01*
X434993Y358391D01*
X435451Y358558D01*
X435972Y358662D01*
X436243Y358704D01*
X436930D01*
X437180Y358683D01*
D02*
G37*
G36*
X153149Y355725D02*
X151524D01*
X149066Y352830D01*
X151920Y349248D01*
X153544D01*
Y346457D01*
X148900D01*
X146567Y349831D01*
X144026Y346457D01*
X140319D01*
Y349248D01*
X142047D01*
X144651Y352330D01*
X142047Y355725D01*
X140319D01*
Y358516D01*
X144943D01*
X147109Y355205D01*
X149483Y358516D01*
X153149D01*
Y355725D01*
D02*
G37*
G36*
X377550Y358683D02*
X377716Y358662D01*
X377924D01*
X378133Y358620D01*
X378591Y358558D01*
X379112Y358433D01*
X379653Y358287D01*
X380195Y358079D01*
Y358516D01*
X382944D01*
Y355017D01*
X380195D01*
Y355038D01*
X380174Y355080D01*
X380153Y355142D01*
X380111Y355205D01*
X380049Y355309D01*
X379966Y355413D01*
X379861Y355517D01*
X379716Y355642D01*
X379570Y355767D01*
X379383Y355871D01*
X379174Y355975D01*
X378924Y356079D01*
X378633Y356142D01*
X378320Y356204D01*
X377945Y356246D01*
X377550Y356267D01*
X377404D01*
X377300Y356246D01*
X377029Y356225D01*
X376716Y356142D01*
X376404Y356038D01*
X376154Y355871D01*
X376029Y355767D01*
X375946Y355642D01*
X375904Y355496D01*
X375883Y355330D01*
Y355309D01*
Y355267D01*
X375925Y355142D01*
X375967Y355059D01*
X376029Y354976D01*
X376113Y354892D01*
X376217Y354809D01*
X376237D01*
X376300Y354788D01*
X376404Y354747D01*
X376571Y354705D01*
X376800Y354642D01*
X376925Y354601D01*
X377091Y354559D01*
X377279Y354517D01*
X377487Y354476D01*
X377716Y354434D01*
X377966Y354393D01*
X377987D01*
X378070Y354372D01*
X378174Y354351D01*
X378341Y354330D01*
X378508Y354288D01*
X378737Y354247D01*
X378966Y354205D01*
X379216Y354163D01*
X379757Y354038D01*
X380320Y353913D01*
X380840Y353768D01*
X381090Y353705D01*
X381299Y353622D01*
X381320D01*
X381340Y353601D01*
X381403Y353580D01*
X381486Y353559D01*
X381694Y353455D01*
X381944Y353330D01*
X382236Y353143D01*
X382528Y352934D01*
X382819Y352664D01*
X383090Y352351D01*
X383111Y352310D01*
X383194Y352185D01*
X383298Y351997D01*
X383423Y351747D01*
X383548Y351435D01*
X383652Y351060D01*
X383736Y350664D01*
X383756Y350206D01*
Y350185D01*
Y350123D01*
Y350039D01*
X383736Y349914D01*
X383715Y349769D01*
X383694Y349581D01*
X383590Y349185D01*
X383444Y348727D01*
X383340Y348477D01*
X383215Y348248D01*
X383069Y347998D01*
X382902Y347769D01*
X382715Y347519D01*
X382486Y347311D01*
X382465Y347290D01*
X382423Y347269D01*
X382361Y347207D01*
X382257Y347144D01*
X382111Y347061D01*
X381965Y346957D01*
X381778Y346853D01*
X381569Y346749D01*
X381320Y346644D01*
X381049Y346540D01*
X380757Y346457D01*
X380424Y346353D01*
X380091Y346290D01*
X379716Y346228D01*
X379299Y346207D01*
X378883Y346186D01*
X378674D01*
X378529Y346207D01*
X378362D01*
X378154Y346228D01*
X377716Y346290D01*
X377216Y346395D01*
X376737Y346561D01*
X376508Y346665D01*
X376300Y346769D01*
X376113Y346915D01*
X375946Y347061D01*
Y346457D01*
X373134D01*
Y350602D01*
X375946D01*
Y350560D01*
X375967Y350456D01*
X375988Y350310D01*
X376050Y350123D01*
X376154Y349894D01*
X376279Y349664D01*
X376466Y349456D01*
X376716Y349248D01*
X376758Y349227D01*
X376841Y349165D01*
X377008Y349081D01*
X377237Y348998D01*
X377508Y348915D01*
X377820Y348831D01*
X378174Y348769D01*
X378570Y348748D01*
X378737D01*
X378903Y348769D01*
X379112Y348790D01*
X379362Y348831D01*
X379591Y348873D01*
X379841Y348956D01*
X380049Y349061D01*
X380070Y349081D01*
X380132Y349123D01*
X380216Y349185D01*
X380320Y349290D01*
X380424Y349415D01*
X380507Y349560D01*
X380570Y349727D01*
X380591Y349914D01*
Y349935D01*
Y349998D01*
X380570Y350081D01*
X380528Y350185D01*
X380466Y350310D01*
X380382Y350435D01*
X380257Y350539D01*
X380091Y350643D01*
X380070Y350664D01*
X379986Y350685D01*
X379861Y350748D01*
X379674Y350810D01*
X379424Y350893D01*
X379091Y350977D01*
X378674Y351060D01*
X378445Y351102D01*
X378195Y351143D01*
X378154D01*
X378070Y351164D01*
X377924Y351185D01*
X377716Y351227D01*
X377466Y351289D01*
X377196Y351352D01*
X376883Y351414D01*
X376571Y351497D01*
X375883Y351706D01*
X375175Y351956D01*
X374842Y352101D01*
X374529Y352247D01*
X374238Y352414D01*
X373967Y352580D01*
X373946Y352601D01*
X373905Y352622D01*
X373842Y352685D01*
X373759Y352768D01*
X373551Y352976D01*
X373321Y353268D01*
X373092Y353643D01*
X372884Y354080D01*
X372801Y354309D01*
X372738Y354580D01*
X372697Y354851D01*
X372676Y355142D01*
Y355163D01*
Y355205D01*
Y355288D01*
X372697Y355392D01*
X372718Y355517D01*
X372738Y355663D01*
X372822Y356017D01*
X372967Y356413D01*
X373072Y356621D01*
X373196Y356829D01*
X373321Y357058D01*
X373488Y357267D01*
X373676Y357475D01*
X373884Y357663D01*
X373905Y357683D01*
X373946Y357704D01*
X374009Y357767D01*
X374113Y357829D01*
X374238Y357912D01*
X374384Y357996D01*
X374550Y358079D01*
X374759Y358183D01*
X374967Y358287D01*
X375217Y358371D01*
X375488Y358454D01*
X375779Y358537D01*
X376092Y358600D01*
X376404Y358662D01*
X376758Y358683D01*
X377133Y358704D01*
X377404D01*
X377550Y358683D01*
D02*
G37*
G36*
X364532D02*
X364699Y358662D01*
X364907D01*
X365115Y358620D01*
X365574Y358558D01*
X366094Y358433D01*
X366636Y358287D01*
X367177Y358079D01*
Y358516D01*
X369926D01*
Y355017D01*
X367177D01*
Y355038D01*
X367156Y355080D01*
X367136Y355142D01*
X367094Y355205D01*
X367031Y355309D01*
X366948Y355413D01*
X366844Y355517D01*
X366698Y355642D01*
X366552Y355767D01*
X366365Y355871D01*
X366157Y355975D01*
X365907Y356079D01*
X365615Y356142D01*
X365303Y356204D01*
X364928Y356246D01*
X364532Y356267D01*
X364386D01*
X364282Y356246D01*
X364011Y356225D01*
X363699Y356142D01*
X363386Y356038D01*
X363137Y355871D01*
X363012Y355767D01*
X362928Y355642D01*
X362887Y355496D01*
X362866Y355330D01*
Y355309D01*
Y355267D01*
X362907Y355142D01*
X362949Y355059D01*
X363012Y354976D01*
X363095Y354892D01*
X363199Y354809D01*
X363220D01*
X363282Y354788D01*
X363386Y354747D01*
X363553Y354705D01*
X363782Y354642D01*
X363907Y354601D01*
X364074Y354559D01*
X364261Y354517D01*
X364470Y354476D01*
X364699Y354434D01*
X364949Y354393D01*
X364969D01*
X365053Y354372D01*
X365157Y354351D01*
X365324Y354330D01*
X365490Y354288D01*
X365719Y354247D01*
X365948Y354205D01*
X366198Y354163D01*
X366740Y354038D01*
X367302Y353913D01*
X367823Y353768D01*
X368073Y353705D01*
X368281Y353622D01*
X368302D01*
X368323Y353601D01*
X368385Y353580D01*
X368469Y353559D01*
X368677Y353455D01*
X368927Y353330D01*
X369218Y353143D01*
X369510Y352934D01*
X369802Y352664D01*
X370072Y352351D01*
X370093Y352310D01*
X370177Y352185D01*
X370281Y351997D01*
X370406Y351747D01*
X370531Y351435D01*
X370635Y351060D01*
X370718Y350664D01*
X370739Y350206D01*
Y350185D01*
Y350123D01*
Y350039D01*
X370718Y349914D01*
X370697Y349769D01*
X370676Y349581D01*
X370572Y349185D01*
X370426Y348727D01*
X370322Y348477D01*
X370197Y348248D01*
X370051Y347998D01*
X369885Y347769D01*
X369697Y347519D01*
X369468Y347311D01*
X369448Y347290D01*
X369406Y347269D01*
X369343Y347207D01*
X369239Y347144D01*
X369093Y347061D01*
X368948Y346957D01*
X368760Y346853D01*
X368552Y346749D01*
X368302Y346644D01*
X368031Y346540D01*
X367740Y346457D01*
X367406Y346353D01*
X367073Y346290D01*
X366698Y346228D01*
X366282Y346207D01*
X365865Y346186D01*
X365657D01*
X365511Y346207D01*
X365344D01*
X365136Y346228D01*
X364699Y346290D01*
X364199Y346395D01*
X363720Y346561D01*
X363491Y346665D01*
X363282Y346769D01*
X363095Y346915D01*
X362928Y347061D01*
Y346457D01*
X360117D01*
Y350602D01*
X362928D01*
Y350560D01*
X362949Y350456D01*
X362970Y350310D01*
X363032Y350123D01*
X363137Y349894D01*
X363262Y349664D01*
X363449Y349456D01*
X363699Y349248D01*
X363741Y349227D01*
X363824Y349165D01*
X363991Y349081D01*
X364220Y348998D01*
X364490Y348915D01*
X364803Y348831D01*
X365157Y348769D01*
X365553Y348748D01*
X365719D01*
X365886Y348769D01*
X366094Y348790D01*
X366344Y348831D01*
X366573Y348873D01*
X366823Y348956D01*
X367031Y349061D01*
X367052Y349081D01*
X367115Y349123D01*
X367198Y349185D01*
X367302Y349290D01*
X367406Y349415D01*
X367490Y349560D01*
X367552Y349727D01*
X367573Y349914D01*
Y349935D01*
Y349998D01*
X367552Y350081D01*
X367510Y350185D01*
X367448Y350310D01*
X367365Y350435D01*
X367240Y350539D01*
X367073Y350643D01*
X367052Y350664D01*
X366969Y350685D01*
X366844Y350748D01*
X366656Y350810D01*
X366407Y350893D01*
X366073Y350977D01*
X365657Y351060D01*
X365428Y351102D01*
X365178Y351143D01*
X365136D01*
X365053Y351164D01*
X364907Y351185D01*
X364699Y351227D01*
X364449Y351289D01*
X364178Y351352D01*
X363866Y351414D01*
X363553Y351497D01*
X362866Y351706D01*
X362158Y351956D01*
X361824Y352101D01*
X361512Y352247D01*
X361220Y352414D01*
X360950Y352580D01*
X360929Y352601D01*
X360887Y352622D01*
X360825Y352685D01*
X360741Y352768D01*
X360533Y352976D01*
X360304Y353268D01*
X360075Y353643D01*
X359867Y354080D01*
X359783Y354309D01*
X359721Y354580D01*
X359679Y354851D01*
X359658Y355142D01*
Y355163D01*
Y355205D01*
Y355288D01*
X359679Y355392D01*
X359700Y355517D01*
X359721Y355663D01*
X359804Y356017D01*
X359950Y356413D01*
X360054Y356621D01*
X360179Y356829D01*
X360304Y357058D01*
X360471Y357267D01*
X360658Y357475D01*
X360866Y357663D01*
X360887Y357683D01*
X360929Y357704D01*
X360991Y357767D01*
X361096Y357829D01*
X361220Y357912D01*
X361366Y357996D01*
X361533Y358079D01*
X361741Y358183D01*
X361949Y358287D01*
X362199Y358371D01*
X362470Y358454D01*
X362762Y358537D01*
X363074Y358600D01*
X363386Y358662D01*
X363741Y358683D01*
X364115Y358704D01*
X364386D01*
X364532Y358683D01*
D02*
G37*
G36*
X311879D02*
X312045Y358662D01*
X312254D01*
X312462Y358620D01*
X312920Y358558D01*
X313441Y358433D01*
X313983Y358287D01*
X314524Y358079D01*
Y358516D01*
X317273D01*
Y355017D01*
X314524D01*
Y355038D01*
X314503Y355080D01*
X314482Y355142D01*
X314441Y355205D01*
X314378Y355309D01*
X314295Y355413D01*
X314191Y355517D01*
X314045Y355642D01*
X313899Y355767D01*
X313712Y355871D01*
X313503Y355975D01*
X313254Y356079D01*
X312962Y356142D01*
X312649Y356204D01*
X312275Y356246D01*
X311879Y356267D01*
X311733D01*
X311629Y356246D01*
X311358Y356225D01*
X311046Y356142D01*
X310733Y356038D01*
X310483Y355871D01*
X310359Y355767D01*
X310275Y355642D01*
X310233Y355496D01*
X310213Y355330D01*
Y355309D01*
Y355267D01*
X310254Y355142D01*
X310296Y355059D01*
X310359Y354976D01*
X310442Y354892D01*
X310546Y354809D01*
X310567D01*
X310629Y354788D01*
X310733Y354747D01*
X310900Y354705D01*
X311129Y354642D01*
X311254Y354601D01*
X311421Y354559D01*
X311608Y354517D01*
X311816Y354476D01*
X312045Y354434D01*
X312295Y354393D01*
X312316D01*
X312400Y354372D01*
X312504Y354351D01*
X312670Y354330D01*
X312837Y354288D01*
X313066Y354247D01*
X313295Y354205D01*
X313545Y354163D01*
X314087Y354038D01*
X314649Y353913D01*
X315170Y353768D01*
X315420Y353705D01*
X315628Y353622D01*
X315649D01*
X315670Y353601D01*
X315732Y353580D01*
X315815Y353559D01*
X316024Y353455D01*
X316274Y353330D01*
X316565Y353143D01*
X316857Y352934D01*
X317148Y352664D01*
X317419Y352351D01*
X317440Y352310D01*
X317523Y352185D01*
X317627Y351997D01*
X317752Y351747D01*
X317877Y351435D01*
X317981Y351060D01*
X318065Y350664D01*
X318086Y350206D01*
Y350185D01*
Y350123D01*
Y350039D01*
X318065Y349914D01*
X318044Y349769D01*
X318023Y349581D01*
X317919Y349185D01*
X317773Y348727D01*
X317669Y348477D01*
X317544Y348248D01*
X317398Y347998D01*
X317232Y347769D01*
X317044Y347519D01*
X316815Y347311D01*
X316794Y347290D01*
X316753Y347269D01*
X316690Y347207D01*
X316586Y347144D01*
X316440Y347061D01*
X316294Y346957D01*
X316107Y346853D01*
X315899Y346749D01*
X315649Y346644D01*
X315378Y346540D01*
X315086Y346457D01*
X314753Y346353D01*
X314420Y346290D01*
X314045Y346228D01*
X313629Y346207D01*
X313212Y346186D01*
X313004D01*
X312858Y346207D01*
X312691D01*
X312483Y346228D01*
X312045Y346290D01*
X311546Y346395D01*
X311067Y346561D01*
X310837Y346665D01*
X310629Y346769D01*
X310442Y346915D01*
X310275Y347061D01*
Y346457D01*
X307463D01*
Y350602D01*
X310275D01*
Y350560D01*
X310296Y350456D01*
X310317Y350310D01*
X310379Y350123D01*
X310483Y349894D01*
X310608Y349664D01*
X310796Y349456D01*
X311046Y349248D01*
X311087Y349227D01*
X311171Y349165D01*
X311337Y349081D01*
X311567Y348998D01*
X311837Y348915D01*
X312150Y348831D01*
X312504Y348769D01*
X312899Y348748D01*
X313066D01*
X313233Y348769D01*
X313441Y348790D01*
X313691Y348831D01*
X313920Y348873D01*
X314170Y348956D01*
X314378Y349061D01*
X314399Y349081D01*
X314462Y349123D01*
X314545Y349185D01*
X314649Y349290D01*
X314753Y349415D01*
X314837Y349560D01*
X314899Y349727D01*
X314920Y349914D01*
Y349935D01*
Y349998D01*
X314899Y350081D01*
X314857Y350185D01*
X314795Y350310D01*
X314711Y350435D01*
X314587Y350539D01*
X314420Y350643D01*
X314399Y350664D01*
X314316Y350685D01*
X314191Y350748D01*
X314003Y350810D01*
X313753Y350893D01*
X313420Y350977D01*
X313004Y351060D01*
X312775Y351102D01*
X312525Y351143D01*
X312483D01*
X312400Y351164D01*
X312254Y351185D01*
X312045Y351227D01*
X311796Y351289D01*
X311525Y351352D01*
X311212Y351414D01*
X310900Y351497D01*
X310213Y351706D01*
X309505Y351956D01*
X309171Y352101D01*
X308859Y352247D01*
X308567Y352414D01*
X308297Y352580D01*
X308276Y352601D01*
X308234Y352622D01*
X308172Y352685D01*
X308088Y352768D01*
X307880Y352976D01*
X307651Y353268D01*
X307422Y353643D01*
X307213Y354080D01*
X307130Y354309D01*
X307068Y354580D01*
X307026Y354851D01*
X307005Y355142D01*
Y355163D01*
Y355205D01*
Y355288D01*
X307026Y355392D01*
X307047Y355517D01*
X307068Y355663D01*
X307151Y356017D01*
X307297Y356413D01*
X307401Y356621D01*
X307526Y356829D01*
X307651Y357058D01*
X307817Y357267D01*
X308005Y357475D01*
X308213Y357663D01*
X308234Y357683D01*
X308276Y357704D01*
X308338Y357767D01*
X308442Y357829D01*
X308567Y357912D01*
X308713Y357996D01*
X308880Y358079D01*
X309088Y358183D01*
X309296Y358287D01*
X309546Y358371D01*
X309817Y358454D01*
X310109Y358537D01*
X310421Y358600D01*
X310733Y358662D01*
X311087Y358683D01*
X311462Y358704D01*
X311733D01*
X311879Y358683D01*
D02*
G37*
G36*
X418393Y358808D02*
X418581D01*
X418977Y358787D01*
X419435Y358725D01*
X419914Y358662D01*
X420393Y358558D01*
X420851Y358433D01*
X420872D01*
X420893Y358412D01*
X420955Y358391D01*
X421039Y358371D01*
X421247Y358266D01*
X421497Y358162D01*
X421767Y358017D01*
X422038Y357829D01*
X422309Y357642D01*
X422538Y357412D01*
X422559Y357392D01*
X422621Y357308D01*
X422725Y357183D01*
X422850Y357017D01*
X422976Y356809D01*
X423100Y356579D01*
X423225Y356309D01*
X423330Y356038D01*
X423350Y355996D01*
X423371Y355892D01*
X423413Y355726D01*
X423455Y355476D01*
X423496Y355142D01*
X423538Y354726D01*
X423559Y354476D01*
X423579Y354226D01*
Y353955D01*
Y353643D01*
Y349248D01*
X425517D01*
Y346457D01*
X419726D01*
Y347415D01*
X419706Y347394D01*
X419664Y347373D01*
X419580Y347311D01*
X419455Y347248D01*
X419310Y347165D01*
X419143Y347061D01*
X418956Y346957D01*
X418727Y346853D01*
X418227Y346644D01*
X417685Y346457D01*
X417081Y346332D01*
X416748Y346311D01*
X416436Y346290D01*
X416269D01*
X416144Y346311D01*
X415977Y346332D01*
X415790Y346353D01*
X415602Y346374D01*
X415373Y346415D01*
X414894Y346540D01*
X414374Y346728D01*
X414103Y346832D01*
X413853Y346978D01*
X413582Y347123D01*
X413332Y347311D01*
X413311Y347332D01*
X413270Y347353D01*
X413207Y347415D01*
X413124Y347498D01*
X413041Y347603D01*
X412915Y347728D01*
X412811Y347873D01*
X412686Y348040D01*
X412457Y348436D01*
X412249Y348894D01*
X412166Y349144D01*
X412103Y349435D01*
X412062Y349727D01*
X412041Y350039D01*
Y350060D01*
Y350123D01*
Y350206D01*
X412062Y350331D01*
X412082Y350477D01*
X412103Y350643D01*
X412207Y351060D01*
X412374Y351497D01*
X412478Y351747D01*
X412603Y351997D01*
X412770Y352226D01*
X412957Y352476D01*
X413166Y352705D01*
X413395Y352934D01*
X413415Y352955D01*
X413457Y352976D01*
X413540Y353039D01*
X413644Y353122D01*
X413790Y353205D01*
X413936Y353309D01*
X414144Y353414D01*
X414353Y353539D01*
X414603Y353643D01*
X414873Y353747D01*
X415165Y353851D01*
X415477Y353934D01*
X415811Y354018D01*
X416165Y354080D01*
X416540Y354101D01*
X416935Y354122D01*
X417144D01*
X417269Y354101D01*
X417394Y354080D01*
X417560D01*
X417748Y354038D01*
X418143Y353976D01*
X418622Y353851D01*
X419143Y353705D01*
X419726Y353497D01*
Y354226D01*
Y354247D01*
Y354268D01*
Y354393D01*
X419685Y354559D01*
X419643Y354767D01*
X419580Y355017D01*
X419455Y355267D01*
X419310Y355517D01*
X419101Y355746D01*
X419081Y355767D01*
X418997Y355850D01*
X418852Y355934D01*
X418664Y356059D01*
X418414Y356163D01*
X418143Y356267D01*
X417810Y356329D01*
X417435Y356350D01*
X417310D01*
X417227Y356329D01*
X416977Y356309D01*
X416665Y356225D01*
X416311Y356121D01*
X415936Y355955D01*
X415561Y355726D01*
X415373Y355580D01*
X415207Y355413D01*
X412124Y355955D01*
X412145Y355996D01*
X412187Y356079D01*
X412270Y356225D01*
X412395Y356413D01*
X412561Y356621D01*
X412791Y356871D01*
X413041Y357121D01*
X413353Y357392D01*
X413707Y357663D01*
X414144Y357912D01*
X414603Y358162D01*
X415144Y358371D01*
X415748Y358558D01*
X416415Y358704D01*
X417144Y358787D01*
X417956Y358829D01*
X418247D01*
X418393Y358808D01*
D02*
G37*
G36*
X218674Y358808D02*
X218861D01*
X219257Y358787D01*
X219715Y358725D01*
X220194Y358662D01*
X220673Y358558D01*
X221131Y358433D01*
X221152D01*
X221173Y358412D01*
X221235Y358391D01*
X221319Y358371D01*
X221527Y358266D01*
X221777Y358162D01*
X222048Y358017D01*
X222318Y357829D01*
X222589Y357642D01*
X222818Y357412D01*
X222839Y357392D01*
X222902Y357308D01*
X223006Y357183D01*
X223131Y357017D01*
X223256Y356809D01*
X223381Y356579D01*
X223506Y356309D01*
X223610Y356038D01*
X223631Y355996D01*
X223652Y355892D01*
X223693Y355725D01*
X223735Y355476D01*
X223776Y355142D01*
X223818Y354726D01*
X223839Y354476D01*
X223860Y354226D01*
Y353955D01*
Y353643D01*
Y349248D01*
X225797D01*
Y346457D01*
X220007D01*
Y347415D01*
X219986Y347394D01*
X219944Y347373D01*
X219861Y347311D01*
X219736Y347248D01*
X219590Y347165D01*
X219423Y347061D01*
X219236Y346957D01*
X219007Y346853D01*
X218507Y346644D01*
X217966Y346457D01*
X217361Y346332D01*
X217028Y346311D01*
X216716Y346290D01*
X216549D01*
X216424Y346311D01*
X216258Y346332D01*
X216070Y346353D01*
X215883Y346374D01*
X215653Y346415D01*
X215175Y346540D01*
X214654Y346728D01*
X214383Y346832D01*
X214133Y346978D01*
X213862Y347123D01*
X213612Y347311D01*
X213592Y347332D01*
X213550Y347353D01*
X213487Y347415D01*
X213404Y347498D01*
X213321Y347603D01*
X213196Y347728D01*
X213092Y347873D01*
X212967Y348040D01*
X212738Y348436D01*
X212529Y348894D01*
X212446Y349144D01*
X212383Y349435D01*
X212342Y349727D01*
X212321Y350039D01*
Y350060D01*
Y350123D01*
Y350206D01*
X212342Y350331D01*
X212363Y350477D01*
X212383Y350643D01*
X212488Y351060D01*
X212654Y351497D01*
X212759Y351747D01*
X212883Y351997D01*
X213050Y352226D01*
X213237Y352476D01*
X213446Y352705D01*
X213675Y352934D01*
X213696Y352955D01*
X213737Y352976D01*
X213821Y353039D01*
X213925Y353122D01*
X214071Y353205D01*
X214216Y353309D01*
X214425Y353414D01*
X214633Y353539D01*
X214883Y353643D01*
X215154Y353747D01*
X215445Y353851D01*
X215758Y353934D01*
X216091Y354017D01*
X216445Y354080D01*
X216820Y354101D01*
X217216Y354122D01*
X217424D01*
X217549Y354101D01*
X217674Y354080D01*
X217840D01*
X218028Y354038D01*
X218424Y353976D01*
X218903Y353851D01*
X219423Y353705D01*
X220007Y353497D01*
Y354226D01*
Y354247D01*
Y354268D01*
Y354392D01*
X219965Y354559D01*
X219923Y354767D01*
X219861Y355017D01*
X219736Y355267D01*
X219590Y355517D01*
X219382Y355746D01*
X219361Y355767D01*
X219278Y355850D01*
X219132Y355934D01*
X218944Y356059D01*
X218694Y356163D01*
X218424Y356267D01*
X218090Y356329D01*
X217715Y356350D01*
X217591D01*
X217507Y356329D01*
X217257Y356309D01*
X216945Y356225D01*
X216591Y356121D01*
X216216Y355955D01*
X215841Y355725D01*
X215653Y355580D01*
X215487Y355413D01*
X212404Y355955D01*
X212425Y355996D01*
X212467Y356079D01*
X212550Y356225D01*
X212675Y356413D01*
X212842Y356621D01*
X213071Y356871D01*
X213321Y357121D01*
X213633Y357392D01*
X213987Y357662D01*
X214425Y357912D01*
X214883Y358162D01*
X215424Y358371D01*
X216028Y358558D01*
X216695Y358704D01*
X217424Y358787D01*
X218236Y358829D01*
X218528D01*
X218674Y358808D01*
D02*
G37*
G36*
X187827D02*
X188015D01*
X188410Y358787D01*
X188869Y358725D01*
X189348Y358662D01*
X189827Y358558D01*
X190285Y358433D01*
X190306D01*
X190327Y358412D01*
X190389Y358391D01*
X190473Y358371D01*
X190681Y358266D01*
X190931Y358162D01*
X191201Y358017D01*
X191472Y357829D01*
X191743Y357642D01*
X191972Y357412D01*
X191993Y357392D01*
X192055Y357308D01*
X192160Y357183D01*
X192285Y357017D01*
X192409Y356809D01*
X192535Y356579D01*
X192659Y356309D01*
X192764Y356038D01*
X192784Y355996D01*
X192805Y355892D01*
X192847Y355725D01*
X192889Y355476D01*
X192930Y355142D01*
X192972Y354726D01*
X192993Y354476D01*
X193013Y354226D01*
Y353955D01*
Y353643D01*
Y349248D01*
X194951D01*
Y346457D01*
X189160D01*
Y347415D01*
X189139Y347394D01*
X189098Y347373D01*
X189014Y347311D01*
X188890Y347248D01*
X188744Y347165D01*
X188577Y347061D01*
X188390Y346957D01*
X188161Y346853D01*
X187661Y346644D01*
X187119Y346457D01*
X186515Y346332D01*
X186182Y346311D01*
X185870Y346290D01*
X185703D01*
X185578Y346311D01*
X185411Y346332D01*
X185224Y346353D01*
X185036Y346374D01*
X184807Y346415D01*
X184328Y346540D01*
X183808Y346728D01*
X183537Y346832D01*
X183287Y346978D01*
X183016Y347123D01*
X182766Y347311D01*
X182745Y347332D01*
X182704Y347353D01*
X182641Y347415D01*
X182558Y347498D01*
X182474Y347603D01*
X182350Y347728D01*
X182245Y347873D01*
X182120Y348040D01*
X181891Y348436D01*
X181683Y348894D01*
X181600Y349144D01*
X181537Y349435D01*
X181496Y349727D01*
X181475Y350039D01*
Y350060D01*
Y350123D01*
Y350206D01*
X181496Y350331D01*
X181516Y350477D01*
X181537Y350643D01*
X181641Y351060D01*
X181808Y351497D01*
X181912Y351747D01*
X182037Y351997D01*
X182204Y352226D01*
X182391Y352476D01*
X182600Y352705D01*
X182829Y352934D01*
X182849Y352955D01*
X182891Y352976D01*
X182974Y353039D01*
X183079Y353122D01*
X183224Y353205D01*
X183370Y353309D01*
X183578Y353414D01*
X183787Y353539D01*
X184037Y353643D01*
X184307Y353747D01*
X184599Y353851D01*
X184911Y353934D01*
X185245Y354017D01*
X185599Y354080D01*
X185974Y354101D01*
X186369Y354122D01*
X186578D01*
X186703Y354101D01*
X186828Y354080D01*
X186994D01*
X187182Y354038D01*
X187577Y353976D01*
X188056Y353851D01*
X188577Y353705D01*
X189160Y353497D01*
Y354226D01*
Y354247D01*
Y354268D01*
Y354392D01*
X189119Y354559D01*
X189077Y354767D01*
X189014Y355017D01*
X188890Y355267D01*
X188744Y355517D01*
X188535Y355746D01*
X188515Y355767D01*
X188431Y355850D01*
X188286Y355934D01*
X188098Y356059D01*
X187848Y356163D01*
X187577Y356267D01*
X187244Y356329D01*
X186869Y356350D01*
X186744D01*
X186661Y356329D01*
X186411Y356309D01*
X186099Y356225D01*
X185744Y356121D01*
X185370Y355955D01*
X184995Y355725D01*
X184807Y355580D01*
X184641Y355413D01*
X181558Y355955D01*
X181579Y355996D01*
X181621Y356079D01*
X181704Y356225D01*
X181829Y356413D01*
X181996Y356621D01*
X182225Y356871D01*
X182474Y357121D01*
X182787Y357392D01*
X183141Y357662D01*
X183578Y357912D01*
X184037Y358162D01*
X184578Y358371D01*
X185182Y358558D01*
X185849Y358704D01*
X186578Y358787D01*
X187390Y358829D01*
X187682D01*
X187827Y358808D01*
D02*
G37*
G36*
X303423Y349248D02*
X305360D01*
Y346457D01*
X299570Y346457D01*
Y347477D01*
X299549Y347457D01*
X299486Y347436D01*
X299403Y347373D01*
X299278Y347290D01*
X299111Y347207D01*
X298924Y347103D01*
X298716Y346998D01*
X298466Y346894D01*
X297945Y346665D01*
X297341Y346478D01*
X297029Y346395D01*
X296716Y346332D01*
X296383Y346311D01*
X296050Y346290D01*
X295883D01*
X295758Y346311D01*
X295612D01*
X295446Y346332D01*
X295050Y346415D01*
X294613Y346519D01*
X294154Y346686D01*
X293696Y346936D01*
X293488Y347082D01*
X293300Y347248D01*
Y347269D01*
X293259Y347290D01*
X293217Y347353D01*
X293155Y347436D01*
X293071Y347540D01*
X292988Y347644D01*
X292905Y347790D01*
X292821Y347957D01*
X292717Y348144D01*
X292634Y348352D01*
X292467Y348831D01*
X292363Y349394D01*
X292342Y349685D01*
X292321Y350019D01*
Y355725D01*
X290509D01*
Y358516D01*
X296154D01*
Y350998D01*
Y350956D01*
Y350852D01*
X296175Y350706D01*
X296195Y350518D01*
X296279Y350102D01*
X296341Y349914D01*
X296425Y349769D01*
X296445Y349748D01*
X296487Y349727D01*
X296549Y349664D01*
X296654Y349623D01*
X296779Y349560D01*
X296966Y349498D01*
X297174Y349477D01*
X297424Y349456D01*
X297466D01*
X297591Y349477D01*
X297799Y349498D01*
X298070Y349560D01*
X298382Y349664D01*
X298736Y349810D01*
X299153Y350019D01*
X299570Y350310D01*
Y355725D01*
X297716D01*
Y358516D01*
X303423Y358516D01*
Y349248D01*
D02*
G37*
G36*
X137174Y349248D02*
X139111D01*
Y346457D01*
X133321D01*
Y347477D01*
X133300Y347457D01*
X133237Y347436D01*
X133154Y347373D01*
X133029Y347290D01*
X132862Y347207D01*
X132675Y347103D01*
X132466Y346998D01*
X132217Y346894D01*
X131696Y346665D01*
X131092Y346478D01*
X130779Y346395D01*
X130467Y346332D01*
X130134Y346311D01*
X129801Y346290D01*
X129634D01*
X129509Y346311D01*
X129363D01*
X129197Y346332D01*
X128801Y346415D01*
X128363Y346519D01*
X127905Y346686D01*
X127447Y346936D01*
X127239Y347082D01*
X127051Y347248D01*
Y347269D01*
X127010Y347290D01*
X126968Y347352D01*
X126905Y347436D01*
X126822Y347540D01*
X126739Y347644D01*
X126656Y347790D01*
X126572Y347957D01*
X126468Y348144D01*
X126385Y348352D01*
X126218Y348831D01*
X126114Y349394D01*
X126093Y349685D01*
X126072Y350019D01*
Y355725D01*
X124260D01*
Y358516D01*
X129905D01*
Y350997D01*
Y350956D01*
Y350852D01*
X129925Y350706D01*
X129946Y350518D01*
X130030Y350102D01*
X130092Y349914D01*
X130175Y349769D01*
X130196Y349748D01*
X130238Y349727D01*
X130300Y349664D01*
X130405Y349623D01*
X130529Y349560D01*
X130717Y349498D01*
X130925Y349477D01*
X131175Y349456D01*
X131217D01*
X131342Y349477D01*
X131550Y349498D01*
X131821Y349560D01*
X132133Y349664D01*
X132487Y349810D01*
X132904Y350019D01*
X133321Y350310D01*
Y355725D01*
X131467D01*
Y358516D01*
X137174D01*
Y349248D01*
D02*
G37*
G36*
X325750Y349248D02*
X327542D01*
Y346457D01*
X320064D01*
Y349248D01*
X321897D01*
Y355726D01*
X320064D01*
Y358516D01*
X325750D01*
Y349248D01*
D02*
G37*
G36*
X281866Y363786D02*
X282136D01*
X282449Y363765D01*
X283074Y363723D01*
X283740Y363682D01*
X284344Y363598D01*
X284636Y363557D01*
X284886Y363494D01*
X284907D01*
X284948Y363473D01*
X285011Y363453D01*
X285094Y363432D01*
X285344Y363328D01*
X285657Y363182D01*
X285990Y362994D01*
X286365Y362724D01*
X286760Y362390D01*
X287114Y361995D01*
X287135Y361974D01*
X287156Y361932D01*
X287198Y361870D01*
X287260Y361786D01*
X287323Y361682D01*
X287406Y361536D01*
X287593Y361224D01*
X287760Y360807D01*
X287906Y360349D01*
X288010Y359828D01*
X288052Y359537D01*
Y359245D01*
Y359225D01*
Y359141D01*
X288031Y358995D01*
X288010Y358829D01*
X287968Y358620D01*
X287927Y358391D01*
X287843Y358121D01*
X287739Y357850D01*
X287614Y357558D01*
X287448Y357246D01*
X287260Y356954D01*
X287031Y356663D01*
X286740Y356371D01*
X286427Y356121D01*
X286052Y355871D01*
X285615Y355663D01*
X285657Y355642D01*
X285740Y355601D01*
X285906Y355538D01*
X286094Y355434D01*
X286344Y355309D01*
X286594Y355142D01*
X286885Y354934D01*
X287177Y354705D01*
X287448Y354434D01*
X287739Y354142D01*
X287989Y353788D01*
X288239Y353414D01*
X288427Y352997D01*
X288593Y352539D01*
X288676Y352039D01*
X288718Y351497D01*
Y351477D01*
Y351414D01*
Y351331D01*
X288697Y351206D01*
Y351060D01*
X288676Y350893D01*
X288593Y350498D01*
X288489Y350039D01*
X288302Y349539D01*
X288072Y349040D01*
X287906Y348790D01*
X287739Y348561D01*
X287718Y348540D01*
X287698Y348498D01*
X287635Y348436D01*
X287573Y348352D01*
X287364Y348144D01*
X287073Y347894D01*
X286719Y347623D01*
X286281Y347332D01*
X285781Y347082D01*
X285240Y346894D01*
X285219D01*
X285177Y346874D01*
X285073Y346853D01*
X284969Y346832D01*
X284802Y346790D01*
X284615Y346749D01*
X284386Y346707D01*
X284136Y346686D01*
X283844Y346644D01*
X283532Y346603D01*
X283178Y346561D01*
X282803Y346519D01*
X282386Y346499D01*
X281949Y346478D01*
X281470Y346457D01*
X273055D01*
Y349394D01*
X275180D01*
Y360870D01*
X273055D01*
Y363807D01*
X281616D01*
X281866Y363786D01*
D02*
G37*
G36*
X248812Y349248D02*
X250540D01*
Y346457D01*
X243063D01*
Y349248D01*
X244958D01*
Y361016D01*
X243063D01*
Y363807D01*
X248812D01*
Y349248D01*
D02*
G37*
G36*
X105536Y349248D02*
X107327D01*
Y346457D01*
X99850D01*
Y349248D01*
X101683D01*
Y355725D01*
X99850D01*
Y358516D01*
X105536D01*
Y349248D01*
D02*
G37*
G36*
X92539Y360870D02*
X89998D01*
Y349394D01*
X95122D01*
Y354747D01*
X98496D01*
Y346457D01*
X83000D01*
Y349394D01*
X85478D01*
Y360870D01*
X83000D01*
Y363807D01*
X92539D01*
Y360870D01*
D02*
G37*
G36*
X232483Y357142D02*
X232503Y357163D01*
X232545Y357225D01*
X232628Y357308D01*
X232733Y357412D01*
X232878Y357537D01*
X233045Y357683D01*
X233232Y357829D01*
X233441Y357996D01*
X233691Y358142D01*
X233941Y358287D01*
X234524Y358558D01*
X234857Y358683D01*
X235190Y358766D01*
X235544Y358808D01*
X235898Y358829D01*
X236003D01*
X236127Y358808D01*
X236273D01*
X236481Y358766D01*
X236711Y358745D01*
X236961Y358683D01*
X237231Y358600D01*
X237523Y358516D01*
X237835Y358391D01*
X238148Y358246D01*
X238460Y358079D01*
X238773Y357871D01*
X239085Y357642D01*
X239377Y357371D01*
X239668Y357058D01*
X239689Y357038D01*
X239731Y356975D01*
X239793Y356871D01*
X239897Y356746D01*
X240002Y356579D01*
X240126Y356350D01*
X240272Y356121D01*
X240397Y355850D01*
X240543Y355538D01*
X240668Y355184D01*
X240793Y354830D01*
X240897Y354413D01*
X241001Y353997D01*
X241064Y353539D01*
X241105Y353059D01*
X241126Y352560D01*
Y352518D01*
Y352435D01*
Y352268D01*
X241105Y352080D01*
X241084Y351831D01*
X241043Y351539D01*
X241001Y351227D01*
X240939Y350893D01*
X240876Y350518D01*
X240772Y350144D01*
X240647Y349769D01*
X240522Y349373D01*
X240335Y348998D01*
X240147Y348623D01*
X239918Y348290D01*
X239668Y347957D01*
X239647Y347936D01*
X239606Y347894D01*
X239522Y347811D01*
X239398Y347707D01*
X239272Y347561D01*
X239085Y347436D01*
X238898Y347269D01*
X238668Y347123D01*
X238419Y346978D01*
X238127Y346811D01*
X237835Y346686D01*
X237502Y346561D01*
X237169Y346436D01*
X236794Y346353D01*
X236398Y346311D01*
X236003Y346290D01*
X235919D01*
X235815Y346311D01*
X235669D01*
X235503Y346332D01*
X235294Y346374D01*
X235065Y346415D01*
X234815Y346478D01*
X234545Y346561D01*
X234274Y346665D01*
X233982Y346790D01*
X233670Y346957D01*
X233378Y347123D01*
X233066Y347332D01*
X232774Y347582D01*
X232483Y347852D01*
Y346457D01*
X226526D01*
Y349248D01*
X228629D01*
Y361016D01*
X226526D01*
Y363807D01*
X232483D01*
Y357142D01*
D02*
G37*
G36*
X351869Y358808D02*
X352035Y358787D01*
X352244Y358766D01*
X352473Y358745D01*
X352743Y358704D01*
X353285Y358579D01*
X353889Y358391D01*
X354201Y358266D01*
X354493Y358121D01*
X354785Y357954D01*
X355076Y357767D01*
X355097Y357746D01*
X355139Y357725D01*
X355222Y357663D01*
X355326Y357579D01*
X355451Y357475D01*
X355597Y357350D01*
X355909Y357058D01*
X356263Y356684D01*
X356597Y356225D01*
X356930Y355726D01*
X357055Y355455D01*
X357180Y355163D01*
Y355142D01*
X357201Y355101D01*
X357242Y355017D01*
X357284Y354892D01*
X357326Y354747D01*
X357367Y354580D01*
X357430Y354372D01*
X357492Y354163D01*
X357534Y353913D01*
X357596Y353643D01*
X357701Y353060D01*
X357763Y352414D01*
X357784Y351706D01*
X348786D01*
Y351685D01*
Y351643D01*
X348807Y351539D01*
Y351435D01*
X348828Y351289D01*
X348869Y351143D01*
X348953Y350789D01*
X349078Y350393D01*
X349244Y350019D01*
X349494Y349644D01*
X349640Y349498D01*
X349807Y349352D01*
X349827D01*
X349848Y349331D01*
X349973Y349248D01*
X350161Y349144D01*
X350411Y349019D01*
X350723Y348894D01*
X351056Y348790D01*
X351431Y348706D01*
X351827Y348686D01*
X351973D01*
X352077Y348706D01*
X352202Y348727D01*
X352348Y348769D01*
X352702Y348873D01*
X353118Y349040D01*
X353368Y349144D01*
X353597Y349290D01*
X353847Y349456D01*
X354118Y349644D01*
X354368Y349852D01*
X354639Y350102D01*
X357638Y349123D01*
X357617Y349081D01*
X357555Y348998D01*
X357430Y348852D01*
X357284Y348665D01*
X357076Y348436D01*
X356826Y348186D01*
X356534Y347936D01*
X356201Y347665D01*
X355805Y347373D01*
X355368Y347123D01*
X354889Y346874D01*
X354347Y346644D01*
X353764Y346457D01*
X353139Y346311D01*
X352473Y346228D01*
X351744Y346186D01*
X351598D01*
X351431Y346207D01*
X351223D01*
X350952Y346228D01*
X350640Y346269D01*
X350286Y346332D01*
X349911Y346395D01*
X349515Y346478D01*
X349119Y346603D01*
X348703Y346728D01*
X348286Y346894D01*
X347870Y347082D01*
X347474Y347311D01*
X347099Y347561D01*
X346745Y347853D01*
X346724Y347873D01*
X346662Y347936D01*
X346578Y348019D01*
X346474Y348165D01*
X346328Y348331D01*
X346183Y348540D01*
X346016Y348769D01*
X345870Y349040D01*
X345704Y349352D01*
X345537Y349685D01*
X345391Y350039D01*
X345245Y350435D01*
X345141Y350852D01*
X345058Y351310D01*
X344995Y351789D01*
X344975Y352289D01*
Y352331D01*
Y352414D01*
X344995Y352560D01*
Y352747D01*
X345037Y352997D01*
X345079Y353268D01*
X345120Y353580D01*
X345204Y353913D01*
X345308Y354288D01*
X345433Y354663D01*
X345579Y355038D01*
X345745Y355434D01*
X345953Y355830D01*
X346203Y356225D01*
X346495Y356600D01*
X346808Y356954D01*
X346828Y356975D01*
X346891Y357038D01*
X346995Y357121D01*
X347141Y357246D01*
X347328Y357392D01*
X347536Y357558D01*
X347807Y357725D01*
X348099Y357892D01*
X348411Y358058D01*
X348765Y358246D01*
X349161Y358391D01*
X349578Y358537D01*
X350015Y358662D01*
X350494Y358745D01*
X350994Y358808D01*
X351515Y358829D01*
X351723D01*
X351869Y358808D01*
D02*
G37*
G36*
X259038Y358808D02*
X259205Y358787D01*
X259413Y358766D01*
X259642Y358745D01*
X259913Y358704D01*
X260455Y358579D01*
X261059Y358391D01*
X261371Y358266D01*
X261663Y358121D01*
X261954Y357954D01*
X262246Y357767D01*
X262267Y357746D01*
X262308Y357725D01*
X262392Y357662D01*
X262496Y357579D01*
X262621Y357475D01*
X262766Y357350D01*
X263079Y357058D01*
X263433Y356684D01*
X263766Y356225D01*
X264100Y355725D01*
X264224Y355455D01*
X264349Y355163D01*
Y355142D01*
X264370Y355101D01*
X264412Y355017D01*
X264454Y354892D01*
X264495Y354747D01*
X264537Y354580D01*
X264599Y354372D01*
X264662Y354163D01*
X264704Y353913D01*
X264766Y353643D01*
X264870Y353059D01*
X264933Y352414D01*
X264953Y351706D01*
X255956D01*
Y351685D01*
Y351643D01*
X255977Y351539D01*
Y351435D01*
X255997Y351289D01*
X256039Y351143D01*
X256122Y350789D01*
X256247Y350393D01*
X256414Y350019D01*
X256664Y349644D01*
X256810Y349498D01*
X256976Y349352D01*
X256997D01*
X257018Y349331D01*
X257143Y349248D01*
X257330Y349144D01*
X257580Y349019D01*
X257893Y348894D01*
X258226Y348790D01*
X258601Y348706D01*
X258997Y348686D01*
X259142D01*
X259247Y348706D01*
X259371Y348727D01*
X259517Y348769D01*
X259871Y348873D01*
X260288Y349040D01*
X260538Y349144D01*
X260767Y349290D01*
X261017Y349456D01*
X261288Y349644D01*
X261538Y349852D01*
X261808Y350102D01*
X264808Y349123D01*
X264787Y349081D01*
X264724Y348998D01*
X264599Y348852D01*
X264454Y348665D01*
X264245Y348436D01*
X263995Y348186D01*
X263704Y347936D01*
X263370Y347665D01*
X262975Y347373D01*
X262537Y347123D01*
X262058Y346874D01*
X261517Y346644D01*
X260934Y346457D01*
X260309Y346311D01*
X259642Y346228D01*
X258913Y346186D01*
X258768D01*
X258601Y346207D01*
X258393D01*
X258122Y346228D01*
X257809Y346269D01*
X257455Y346332D01*
X257080Y346395D01*
X256685Y346478D01*
X256289Y346603D01*
X255872Y346728D01*
X255456Y346894D01*
X255039Y347082D01*
X254644Y347311D01*
X254269Y347561D01*
X253915Y347852D01*
X253894Y347873D01*
X253831Y347936D01*
X253748Y348019D01*
X253644Y348165D01*
X253498Y348331D01*
X253352Y348540D01*
X253186Y348769D01*
X253040Y349040D01*
X252873Y349352D01*
X252707Y349685D01*
X252561Y350039D01*
X252415Y350435D01*
X252311Y350852D01*
X252227Y351310D01*
X252165Y351789D01*
X252144Y352289D01*
Y352331D01*
Y352414D01*
X252165Y352560D01*
Y352747D01*
X252207Y352997D01*
X252248Y353268D01*
X252290Y353580D01*
X252373Y353913D01*
X252477Y354288D01*
X252602Y354663D01*
X252748Y355038D01*
X252915Y355434D01*
X253123Y355830D01*
X253373Y356225D01*
X253665Y356600D01*
X253977Y356954D01*
X253998Y356975D01*
X254060Y357038D01*
X254165Y357121D01*
X254310Y357246D01*
X254498Y357392D01*
X254706Y357558D01*
X254977Y357725D01*
X255268Y357892D01*
X255581Y358058D01*
X255935Y358246D01*
X256331Y358391D01*
X256747Y358537D01*
X257185Y358662D01*
X257664Y358745D01*
X258164Y358808D01*
X258684Y358829D01*
X258892D01*
X259038Y358808D01*
D02*
G37*
%LPC*%
G36*
X252304Y332644D02*
X251492Y330249D01*
X253044D01*
X252304Y332644D01*
D02*
G37*
G36*
X224634Y332946D02*
X224072D01*
Y331301D01*
X224686D01*
X224842Y331311D01*
X225009D01*
X225165Y331322D01*
X225322Y331332D01*
X225384D01*
X225436Y331342D01*
X225446D01*
X225488Y331353D01*
X225540Y331363D01*
X225603Y331384D01*
X225676Y331415D01*
X225749Y331457D01*
X225832Y331519D01*
X225905Y331582D01*
X225915Y331592D01*
X225936Y331624D01*
X225967Y331665D01*
X226009Y331728D01*
X226040Y331801D01*
X226071Y331894D01*
X226092Y331998D01*
X226103Y332113D01*
Y332123D01*
Y332165D01*
X226092Y332228D01*
X226082Y332300D01*
X226050Y332394D01*
X226019Y332477D01*
X225967Y332561D01*
X225905Y332644D01*
X225894Y332655D01*
X225874Y332675D01*
X225832Y332717D01*
X225769Y332759D01*
X225707Y332800D01*
X225624Y332842D01*
X225519Y332873D01*
X225415Y332894D01*
X225405D01*
X225363Y332905D01*
X225280Y332915D01*
X225176Y332925D01*
X225030D01*
X224853Y332936D01*
X224634Y332946D01*
D02*
G37*
G36*
X282984Y333175D02*
X282890D01*
X282848Y333165D01*
X282765Y333154D01*
X282682Y333113D01*
X282578Y333061D01*
X282463Y332967D01*
X282359Y332852D01*
X282307Y332769D01*
X282255Y332686D01*
Y332675D01*
X282244Y332665D01*
X282234Y332634D01*
X282213Y332582D01*
X282192Y332519D01*
X282172Y332446D01*
X282151Y332352D01*
X282130Y332238D01*
X282109Y332103D01*
X282088Y331946D01*
X282067Y331780D01*
X282047Y331582D01*
X282026Y331363D01*
X282015Y331113D01*
X282005Y330843D01*
Y330551D01*
Y330530D01*
Y330478D01*
Y330395D01*
Y330291D01*
X282015Y330166D01*
Y330009D01*
X282026Y329853D01*
X282036Y329687D01*
X282067Y329322D01*
X282109Y328978D01*
X282140Y328822D01*
X282172Y328676D01*
X282213Y328541D01*
X282255Y328437D01*
Y328427D01*
X282265Y328416D01*
X282297Y328364D01*
X282349Y328281D01*
X282432Y328187D01*
X282526Y328093D01*
X282640Y328020D01*
X282776Y327958D01*
X282848Y327947D01*
X282921Y327937D01*
X282942D01*
X282994Y327947D01*
X283067Y327968D01*
X283171Y327999D01*
X283276Y328062D01*
X283390Y328156D01*
X283442Y328218D01*
X283494Y328291D01*
X283546Y328364D01*
X283588Y328458D01*
Y328468D01*
X283598Y328479D01*
X283609Y328520D01*
X283629Y328562D01*
X283640Y328624D01*
X283661Y328708D01*
X283682Y328801D01*
X283713Y328916D01*
X283734Y329051D01*
X283755Y329197D01*
X283775Y329374D01*
X283786Y329562D01*
X283807Y329770D01*
X283817Y330009D01*
X283827Y330270D01*
Y330551D01*
Y330572D01*
Y330624D01*
Y330707D01*
Y330811D01*
X283817Y330947D01*
Y331103D01*
X283807Y331259D01*
X283796Y331436D01*
X283765Y331801D01*
X283744Y331978D01*
X283723Y332144D01*
X283692Y332311D01*
X283661Y332457D01*
X283619Y332582D01*
X283577Y332686D01*
Y332696D01*
X283567Y332707D01*
X283536Y332759D01*
X283473Y332842D01*
X283400Y332936D01*
X283307Y333019D01*
X283192Y333102D01*
X283057Y333154D01*
X282984Y333175D01*
D02*
G37*
G36*
X234840Y331020D02*
X234767D01*
X234694Y330999D01*
X234600Y330978D01*
X234496Y330936D01*
X234392Y330874D01*
X234288Y330780D01*
X234194Y330666D01*
X234184Y330645D01*
X234163Y330603D01*
X234121Y330530D01*
X234080Y330426D01*
X234038Y330301D01*
X233996Y330145D01*
X233976Y329978D01*
X233965Y329791D01*
Y329780D01*
Y329749D01*
X233976Y329676D01*
X235735D01*
Y329687D01*
Y329707D01*
X235746Y329770D01*
Y329843D01*
Y329864D01*
Y329884D01*
Y329895D01*
Y329905D01*
Y329968D01*
X235735Y330061D01*
X235715Y330166D01*
X235683Y330301D01*
X235642Y330436D01*
X235579Y330572D01*
X235496Y330697D01*
X235486Y330707D01*
X235454Y330749D01*
X235392Y330801D01*
X235319Y330863D01*
X235225Y330915D01*
X235111Y330967D01*
X234986Y331009D01*
X234840Y331020D01*
D02*
G37*
G36*
X444616Y355726D02*
X444512D01*
X444428Y355705D01*
X444220Y355684D01*
X443970Y355621D01*
X443699Y355517D01*
X443408Y355350D01*
X443116Y355121D01*
X442991Y354996D01*
X442866Y354830D01*
X442845Y354788D01*
X442783Y354663D01*
X442679Y354476D01*
X442575Y354205D01*
X442450Y353872D01*
X442366Y353476D01*
X442283Y353039D01*
X442262Y352518D01*
Y352497D01*
Y352455D01*
Y352393D01*
Y352289D01*
X442283Y352185D01*
X442304Y352039D01*
X442346Y351726D01*
X442408Y351372D01*
X442512Y350977D01*
X442658Y350602D01*
X442866Y350227D01*
X442887Y350185D01*
X442970Y350081D01*
X443116Y349935D01*
X443324Y349769D01*
X443574Y349602D01*
X443866Y349456D01*
X444220Y349352D01*
X444428Y349331D01*
X444637Y349310D01*
X444678D01*
X444803Y349331D01*
X444970Y349352D01*
X445199Y349415D01*
X445470Y349498D01*
X445761Y349623D01*
X446053Y349810D01*
X446324Y350060D01*
X446365Y350102D01*
X446449Y350206D01*
X446553Y350393D01*
X446698Y350643D01*
X446824Y350998D01*
X446886Y351185D01*
X446949Y351414D01*
X446990Y351664D01*
X447032Y351914D01*
X447053Y352206D01*
Y352518D01*
Y352539D01*
Y352601D01*
Y352685D01*
X447032Y352810D01*
Y352934D01*
X447011Y353101D01*
X446969Y353476D01*
X446865Y353872D01*
X446740Y354288D01*
X446553Y354663D01*
X446428Y354830D01*
X446303Y354976D01*
X446261Y355017D01*
X446178Y355101D01*
X446011Y355205D01*
X445803Y355350D01*
X445553Y355496D01*
X445282Y355601D01*
X444949Y355684D01*
X444616Y355726D01*
D02*
G37*
G36*
X204011Y355601D02*
X203907D01*
X203823Y355580D01*
X203636Y355559D01*
X203386Y355496D01*
X203094Y355413D01*
X202803Y355267D01*
X202511Y355059D01*
X202240Y354788D01*
X202220Y354747D01*
X202136Y354642D01*
X202032Y354455D01*
X201907Y354184D01*
X201782Y353851D01*
X201678Y353434D01*
X201595Y352955D01*
X201574Y352393D01*
Y352372D01*
Y352331D01*
Y352247D01*
X201595Y352164D01*
Y352039D01*
X201616Y351893D01*
X201657Y351560D01*
X201740Y351206D01*
X201865Y350810D01*
X202011Y350435D01*
X202240Y350081D01*
X202282Y350039D01*
X202365Y349956D01*
X202511Y349810D01*
X202719Y349664D01*
X202969Y349498D01*
X203282Y349352D01*
X203636Y349269D01*
X204032Y349227D01*
X204073D01*
X204198Y349248D01*
X204406Y349269D01*
X204636Y349331D01*
X204906Y349414D01*
X205198Y349560D01*
X205469Y349748D01*
X205739Y349998D01*
X205760Y350039D01*
X205844Y350144D01*
X205948Y350331D01*
X206073Y350602D01*
X206198Y350935D01*
X206302Y351352D01*
X206385Y351851D01*
X206406Y352435D01*
Y352455D01*
Y352497D01*
Y352580D01*
Y352705D01*
X206385Y352830D01*
X206364Y352976D01*
X206323Y353330D01*
X206239Y353705D01*
X206135Y354101D01*
X205968Y354476D01*
X205739Y354809D01*
X205719Y354851D01*
X205614Y354934D01*
X205469Y355059D01*
X205281Y355205D01*
X205031Y355350D01*
X204740Y355476D01*
X204406Y355559D01*
X204011Y355601D01*
D02*
G37*
G36*
X417477Y351789D02*
X417373D01*
X417248Y351768D01*
X417081Y351747D01*
X416894Y351685D01*
X416706Y351622D01*
X416498Y351518D01*
X416290Y351393D01*
X416269Y351372D01*
X416206Y351331D01*
X416123Y351227D01*
X416019Y351123D01*
X415915Y350956D01*
X415831Y350768D01*
X415769Y350539D01*
X415748Y350269D01*
Y350248D01*
Y350164D01*
X415769Y350039D01*
X415811Y349894D01*
X415852Y349706D01*
X415915Y349519D01*
X416019Y349331D01*
X416165Y349144D01*
X416185Y349123D01*
X416248Y349081D01*
X416331Y348998D01*
X416477Y348915D01*
X416623Y348831D01*
X416831Y348748D01*
X417039Y348706D01*
X417289Y348686D01*
X417394D01*
X417477Y348706D01*
X417706Y348748D01*
X417998Y348852D01*
X418352Y348998D01*
X418560Y349102D01*
X418768Y349206D01*
X418997Y349352D01*
X419226Y349519D01*
X419476Y349706D01*
X419726Y349935D01*
Y350914D01*
X419706Y350935D01*
X419664Y350956D01*
X419580Y350998D01*
X419497Y351060D01*
X419372Y351123D01*
X419226Y351185D01*
X418914Y351352D01*
X418560Y351518D01*
X418185Y351643D01*
X417810Y351747D01*
X417477Y351789D01*
D02*
G37*
G36*
X217757Y351789D02*
X217653D01*
X217528Y351768D01*
X217361Y351747D01*
X217174Y351685D01*
X216987Y351622D01*
X216778Y351518D01*
X216570Y351393D01*
X216549Y351372D01*
X216487Y351331D01*
X216403Y351227D01*
X216299Y351122D01*
X216195Y350956D01*
X216112Y350768D01*
X216049Y350539D01*
X216028Y350269D01*
Y350248D01*
Y350164D01*
X216049Y350039D01*
X216091Y349894D01*
X216133Y349706D01*
X216195Y349519D01*
X216299Y349331D01*
X216445Y349144D01*
X216466Y349123D01*
X216528Y349081D01*
X216612Y348998D01*
X216757Y348915D01*
X216903Y348831D01*
X217111Y348748D01*
X217320Y348706D01*
X217570Y348686D01*
X217674D01*
X217757Y348706D01*
X217986Y348748D01*
X218278Y348852D01*
X218632Y348998D01*
X218840Y349102D01*
X219049Y349206D01*
X219278Y349352D01*
X219507Y349519D01*
X219757Y349706D01*
X220007Y349935D01*
Y350914D01*
X219986Y350935D01*
X219944Y350956D01*
X219861Y350998D01*
X219778Y351060D01*
X219653Y351122D01*
X219507Y351185D01*
X219194Y351352D01*
X218840Y351518D01*
X218465Y351643D01*
X218090Y351747D01*
X217757Y351789D01*
D02*
G37*
G36*
X186911D02*
X186807D01*
X186682Y351768D01*
X186515Y351747D01*
X186328Y351685D01*
X186140Y351622D01*
X185932Y351518D01*
X185724Y351393D01*
X185703Y351372D01*
X185640Y351331D01*
X185557Y351227D01*
X185453Y351122D01*
X185349Y350956D01*
X185266Y350768D01*
X185203Y350539D01*
X185182Y350269D01*
Y350248D01*
Y350164D01*
X185203Y350039D01*
X185245Y349894D01*
X185286Y349706D01*
X185349Y349519D01*
X185453Y349331D01*
X185599Y349144D01*
X185620Y349123D01*
X185682Y349081D01*
X185765Y348998D01*
X185911Y348915D01*
X186057Y348831D01*
X186265Y348748D01*
X186474Y348706D01*
X186723Y348686D01*
X186828D01*
X186911Y348706D01*
X187140Y348748D01*
X187432Y348852D01*
X187786Y348998D01*
X187994Y349102D01*
X188202Y349206D01*
X188431Y349352D01*
X188661Y349519D01*
X188910Y349706D01*
X189160Y349935D01*
Y350914D01*
X189139Y350935D01*
X189098Y350956D01*
X189014Y350998D01*
X188931Y351060D01*
X188806Y351122D01*
X188661Y351185D01*
X188348Y351352D01*
X187994Y351518D01*
X187619Y351643D01*
X187244Y351747D01*
X186911Y351789D01*
D02*
G37*
G36*
X281095Y360870D02*
X279700D01*
Y356954D01*
X281178D01*
X281428Y356975D01*
X281699Y357017D01*
X282012Y357058D01*
X282345Y357142D01*
X282636Y357246D01*
X282907Y357392D01*
X282928Y357412D01*
X283011Y357475D01*
X283115Y357600D01*
X283240Y357767D01*
X283344Y357975D01*
X283449Y358246D01*
X283532Y358579D01*
X283553Y358975D01*
Y358995D01*
Y359016D01*
Y359141D01*
X283511Y359329D01*
X283470Y359558D01*
X283407Y359787D01*
X283282Y360037D01*
X283136Y360245D01*
X282928Y360433D01*
X282907Y360453D01*
X282803Y360495D01*
X282657Y360578D01*
X282449Y360662D01*
X282157Y360724D01*
X281782Y360807D01*
X281345Y360849D01*
X281095Y360870D01*
D02*
G37*
G36*
X280970Y354017D02*
X279700D01*
Y349394D01*
X281262D01*
X281387Y349414D01*
X281553D01*
X281928Y349456D01*
X282324Y349519D01*
X282720Y349602D01*
X283095Y349706D01*
X283240Y349789D01*
X283386Y349873D01*
X283407Y349894D01*
X283490Y349977D01*
X283594Y350102D01*
X283740Y350289D01*
X283865Y350518D01*
X283969Y350831D01*
X284053Y351206D01*
X284074Y351643D01*
Y351664D01*
Y351706D01*
Y351768D01*
X284053Y351851D01*
X284032Y352080D01*
X283990Y352372D01*
X283886Y352664D01*
X283761Y352976D01*
X283574Y353247D01*
X283324Y353476D01*
X283282Y353497D01*
X283178Y353559D01*
X283011Y353643D01*
X282740Y353747D01*
X282428Y353851D01*
X282012Y353934D01*
X281532Y353997D01*
X280970Y354017D01*
D02*
G37*
G36*
X234836Y355705D02*
X234795D01*
X234669Y355684D01*
X234482Y355663D01*
X234253Y355601D01*
X234003Y355517D01*
X233711Y355371D01*
X233420Y355184D01*
X233149Y354913D01*
X233128Y354871D01*
X233045Y354767D01*
X232920Y354580D01*
X232795Y354309D01*
X232670Y353955D01*
X232607Y353768D01*
X232545Y353539D01*
X232503Y353288D01*
X232462Y353018D01*
X232441Y352726D01*
Y352414D01*
Y352393D01*
Y352351D01*
Y352268D01*
X232462Y352164D01*
Y352039D01*
X232483Y351893D01*
X232524Y351581D01*
X232607Y351206D01*
X232712Y350810D01*
X232878Y350435D01*
X233087Y350102D01*
X233128Y350060D01*
X233211Y349977D01*
X233357Y349852D01*
X233545Y349706D01*
X233795Y349539D01*
X234107Y349414D01*
X234440Y349331D01*
X234815Y349290D01*
X234857D01*
X234982Y349310D01*
X235169Y349331D01*
X235399Y349394D01*
X235669Y349477D01*
X235940Y349623D01*
X236211Y349810D01*
X236481Y350081D01*
X236502Y350123D01*
X236586Y350227D01*
X236690Y350435D01*
X236836Y350706D01*
X236961Y351039D01*
X237065Y351477D01*
X237148Y351997D01*
X237169Y352580D01*
Y352601D01*
Y352643D01*
Y352726D01*
Y352830D01*
X237148Y352955D01*
X237127Y353101D01*
X237086Y353455D01*
X237002Y353830D01*
X236898Y354226D01*
X236731Y354580D01*
X236523Y354913D01*
X236502Y354955D01*
X236419Y355038D01*
X236273Y355163D01*
X236086Y355309D01*
X235836Y355455D01*
X235544Y355580D01*
X235211Y355663D01*
X234836Y355705D01*
D02*
G37*
G36*
X351306Y356267D02*
X351223D01*
X351119Y356246D01*
X350973Y356225D01*
X350806Y356184D01*
X350619Y356142D01*
X350411Y356059D01*
X350202Y355975D01*
X349994Y355830D01*
X349765Y355684D01*
X349557Y355476D01*
X349369Y355246D01*
X349203Y354976D01*
X349057Y354642D01*
X348932Y354268D01*
X348849Y353851D01*
X353910D01*
Y353872D01*
Y353893D01*
X353868Y354018D01*
X353826Y354205D01*
X353764Y354434D01*
X353639Y354705D01*
X353514Y354996D01*
X353327Y355288D01*
X353097Y355559D01*
X353077Y355580D01*
X352972Y355663D01*
X352827Y355788D01*
X352639Y355913D01*
X352369Y356038D01*
X352077Y356163D01*
X351723Y356246D01*
X351306Y356267D01*
D02*
G37*
G36*
X258476Y356267D02*
X258393D01*
X258288Y356246D01*
X258143Y356225D01*
X257976Y356184D01*
X257789Y356142D01*
X257580Y356059D01*
X257372Y355975D01*
X257164Y355830D01*
X256935Y355684D01*
X256726Y355476D01*
X256539Y355246D01*
X256372Y354976D01*
X256227Y354642D01*
X256101Y354268D01*
X256018Y353851D01*
X261079D01*
Y353872D01*
Y353893D01*
X261038Y354017D01*
X260996Y354205D01*
X260934Y354434D01*
X260809Y354705D01*
X260684Y354996D01*
X260496Y355288D01*
X260267Y355559D01*
X260246Y355580D01*
X260142Y355663D01*
X259996Y355788D01*
X259809Y355913D01*
X259538Y356038D01*
X259247Y356163D01*
X258892Y356246D01*
X258476Y356267D01*
D02*
G37*
%LPD*%
D10*
X100000Y444000D02*
G03*
X100000Y444000I-1000J0D01*
G01*
X520000Y476000D02*
G03*
X520070Y476366I1000J0D01*
G01*
X720000Y476000D02*
G03*
X720070Y476366I1000J0D01*
G01*
X515300Y432000D02*
G03*
X515300Y432000I-1000J0D01*
G01*
X715300D02*
G03*
X715300Y432000I-1000J0D01*
G01*
X576000Y259000D02*
Y297000D01*
X542000D02*
X576000D01*
X542000Y255000D02*
Y297000D01*
Y255000D02*
X572000D01*
X576000Y259000D01*
X572000Y255000D02*
X576000D01*
Y259000D01*
X369000Y496000D02*
X376000Y489000D01*
X369000Y496000D02*
X376000D01*
Y489000D02*
Y496000D01*
Y496000D02*
Y496000D01*
X264000D02*
X371000D01*
X264000Y404000D02*
Y496000D01*
Y404000D02*
X376000D01*
Y491000D01*
X132000Y177000D02*
X141000D01*
Y185000D01*
X133000Y177000D02*
X141000D01*
Y185000D02*
Y302500D01*
X59000Y177000D02*
X133000D01*
X59000Y177500D02*
Y302500D01*
Y303000D02*
X141000D01*
X133000Y177000D02*
X141000Y185000D01*
X354000Y151000D02*
X361000Y144000D01*
X354000Y151000D02*
Y296000D01*
X506000D01*
Y144000D02*
Y296000D01*
X361000Y144000D02*
X506000D01*
X354000D02*
X361000D01*
X354000D02*
Y151000D01*
X681000Y332500D02*
Y381500D01*
X649000D02*
X681000D01*
X649000Y332500D02*
Y381500D01*
Y332500D02*
X681000D01*
X674000Y333000D02*
X681000Y340000D01*
X674000Y333000D02*
Y333000D01*
X106000Y39500D02*
Y88500D01*
Y39500D02*
X138000D01*
Y88500D01*
X106000D02*
X138000D01*
X106000Y81000D02*
X113000Y88000D01*
Y88000D01*
X102000Y449000D02*
Y461000D01*
X132000Y449000D02*
Y461000D01*
X706000Y38250D02*
X802790D01*
X706000D02*
Y48860D01*
Y73000D02*
Y108000D01*
Y132550D02*
Y157750D01*
X727030D02*
X747840D01*
X763990D02*
X806330D01*
X820000Y135390D02*
Y143600D01*
X506100Y24000D02*
Y76000D01*
X554000Y24000D02*
Y76000D01*
X539000Y524650D02*
Y537800D01*
X461000D02*
X539000D01*
X461000Y524650D02*
Y537800D01*
X539000Y481500D02*
Y494650D01*
X520000Y481500D02*
X539000D01*
X461000D02*
X480000D01*
X461000D02*
Y494650D01*
X777002Y332001D02*
X829002D01*
X777002Y208001D02*
X829002D01*
X739000Y524650D02*
Y537800D01*
X661000D02*
X739000D01*
X661000Y524650D02*
Y537800D01*
X739000Y481500D02*
Y494650D01*
X720000Y481500D02*
X739000D01*
X661000D02*
X680000D01*
X661000D02*
Y494650D01*
X497300Y435000D02*
X509300D01*
X497300Y465000D02*
X509300D01*
X697300Y435000D02*
X709300D01*
X697300Y465000D02*
X709300D01*
X296000Y124000D02*
Y150000D01*
X351000D01*
X296000Y124000D02*
X320000D01*
Y110000D02*
Y124000D01*
Y110000D02*
X351000D01*
Y150000D01*
X598000Y284000D02*
X657000D01*
Y259000D02*
Y284000D01*
X633000Y259000D02*
X657000D01*
X633000Y247000D02*
Y259000D01*
X598000Y247000D02*
X633000D01*
X598000D02*
Y284000D01*
X457000Y370000D02*
Y408000D01*
X516000D01*
Y382000D02*
Y408000D01*
X489000Y382000D02*
X516000D01*
X489000Y370000D02*
Y382000D01*
X457000Y370000D02*
X489000D01*
X208000Y434000D02*
Y462000D01*
X244000D01*
Y430000D02*
Y462000D01*
X236000Y430000D02*
X244000D01*
X236000Y404000D02*
Y430000D01*
X208000Y404000D02*
X236000D01*
X208000D02*
Y434000D01*
X149000Y244000D02*
Y321000D01*
Y244000D02*
X181000D01*
Y274000D01*
X199000D01*
Y310000D01*
X181000D02*
X199000D01*
X181000D02*
Y321000D01*
X149000D02*
X181000D01*
X331000Y86000D02*
X454000D01*
Y14000D02*
Y86000D01*
X331000Y14000D02*
X454000D01*
X331000D02*
Y86000D01*
X570000Y18000D02*
Y80000D01*
X598000D01*
Y18000D02*
Y80000D01*
X570000Y18000D02*
X598000D01*
X766000Y338000D02*
Y402000D01*
Y338000D02*
X838000D01*
Y402000D01*
X766000D02*
X838000D01*
X189000Y258000D02*
X192000Y261000D01*
X189000D02*
X192000D01*
X189000Y258000D02*
Y261000D01*
X199000Y251000D01*
Y251000D02*
Y251000D01*
Y251000D02*
X227000D01*
Y238000D02*
Y251000D01*
Y238000D02*
X243000D01*
Y210000D02*
Y238000D01*
X227000Y210000D02*
X243000D01*
X227000Y178000D02*
Y210000D01*
X199000Y178000D02*
X227000D01*
X199000D02*
Y251000D01*
X323000Y77000D02*
X329000D01*
X327000Y75000D02*
X329000Y77000D01*
X327000Y75000D02*
Y79000D01*
X329000Y77000D01*
X315000Y69000D02*
X323000Y77000D01*
X315000Y69000D02*
Y69000D01*
X218000Y16000D02*
Y69000D01*
Y16000D02*
X315000D01*
X218000Y69000D02*
X315000D01*
Y16000D02*
Y69000D01*
X570000Y110394D02*
Y103730D01*
X571333Y102397D01*
X573999D01*
X575332Y103730D01*
Y110394D01*
X577997Y102397D02*
Y107729D01*
X580663Y110394D01*
X583329Y107729D01*
Y102397D01*
Y106396D01*
X577997D01*
X585995Y102397D02*
Y110394D01*
X589994D01*
X591326Y109061D01*
Y106396D01*
X589994Y105063D01*
X585995D01*
X588661D02*
X591326Y102397D01*
X593992Y110394D02*
X599324D01*
X596658D01*
Y102397D01*
X570000Y88000D02*
X572666D01*
X571333D01*
Y95997D01*
X570000Y94664D01*
X576665Y88000D02*
X579330D01*
X577997D01*
Y95997D01*
X576665Y94664D01*
X588661Y95997D02*
X583329D01*
Y91999D01*
X585995Y93332D01*
X587328D01*
X588661Y91999D01*
Y89333D01*
X587328Y88000D01*
X584662D01*
X583329Y89333D01*
X596658Y88000D02*
X591326D01*
X596658Y93332D01*
Y94664D01*
X595325Y95997D01*
X592659D01*
X591326Y94664D01*
X599324D02*
X600657Y95997D01*
X603323D01*
X604655Y94664D01*
Y89333D01*
X603323Y88000D01*
X600657D01*
X599324Y89333D01*
Y94664D01*
X607321D02*
X608654Y95997D01*
X611320D01*
X612653Y94664D01*
Y89333D01*
X611320Y88000D01*
X608654D01*
X607321Y89333D01*
Y94664D01*
X770003Y50998D02*
Y47999D01*
Y49499D01*
X777501D01*
X779000Y47999D01*
Y46500D01*
X777501Y45000D01*
X770003Y53997D02*
X779000D01*
Y59995D01*
X771502Y68992D02*
X770003Y67493D01*
Y64494D01*
X771502Y62994D01*
X777501D01*
X779000Y64494D01*
Y67493D01*
X777501Y68992D01*
X770003Y77989D02*
Y74990D01*
Y76490D01*
X777501D01*
X779000Y74990D01*
Y73491D01*
X777501Y71991D01*
X770003Y80988D02*
X779000D01*
Y86986D01*
X771502Y95983D02*
X770003Y94484D01*
Y91485D01*
X771502Y89985D01*
X777501D01*
X779000Y91485D01*
Y94484D01*
X777501Y95983D01*
X770003Y104981D02*
Y101981D01*
Y103481D01*
X777501D01*
X779000Y101981D01*
Y100482D01*
X777501Y98982D01*
X770003Y107980D02*
X779000D01*
Y113978D01*
X771502Y122975D02*
X770003Y121475D01*
Y118476D01*
X771502Y116977D01*
X777501D01*
X779000Y118476D01*
Y121475D01*
X777501Y122975D01*
X770003Y131972D02*
Y128973D01*
Y130472D01*
X777501D01*
X779000Y128973D01*
Y127473D01*
X777501Y125974D01*
X770003Y134971D02*
X779000D01*
Y140969D01*
X771502Y149966D02*
X770003Y148467D01*
Y145468D01*
X771502Y143968D01*
X777501D01*
X779000Y145468D01*
Y148467D01*
X777501Y149966D01*
X626335Y429332D02*
X625003Y427999D01*
Y425333D01*
X626335Y424000D01*
X631667D01*
X633000Y425333D01*
Y427999D01*
X631667Y429332D01*
X625003Y435996D02*
Y433330D01*
X626335Y431997D01*
X631667D01*
X633000Y433330D01*
Y435996D01*
X631667Y437329D01*
X626335D01*
X625003Y435996D01*
X633000Y439995D02*
X625003D01*
X633000Y445326D01*
X625003D01*
X633000Y447992D02*
X625003D01*
X633000Y453324D01*
X625003D01*
Y461321D02*
Y455990D01*
X633000D01*
Y461321D01*
X629001Y455990D02*
Y458656D01*
X626335Y469319D02*
X625003Y467986D01*
Y465320D01*
X626335Y463987D01*
X631667D01*
X633000Y465320D01*
Y467986D01*
X631667Y469319D01*
X625003Y471984D02*
Y477316D01*
Y474650D01*
X633000D01*
X625003Y487979D02*
Y493311D01*
Y490645D01*
X633000D01*
X625003Y499976D02*
Y497310D01*
X626335Y495977D01*
X631667D01*
X633000Y497310D01*
Y499976D01*
X631667Y501308D01*
X626335D01*
X625003Y499976D01*
X633000Y511972D02*
X625003D01*
Y515970D01*
X626335Y517303D01*
X629001D01*
X630334Y515970D01*
Y511972D01*
X626335Y525301D02*
X625003Y523968D01*
Y521302D01*
X626335Y519969D01*
X631667D01*
X633000Y521302D01*
Y523968D01*
X631667Y525301D01*
X268332Y119997D02*
X265666D01*
X266999D01*
Y113333D01*
X265666Y112000D01*
X264333D01*
X263000Y113333D01*
X270997Y119997D02*
X276329D01*
X273663D01*
Y112000D01*
X278995D02*
Y117332D01*
X281661Y119997D01*
X284326Y117332D01*
Y112000D01*
Y115999D01*
X278995D01*
X292324Y118665D02*
X290991Y119997D01*
X288325D01*
X286992Y118665D01*
Y113333D01*
X288325Y112000D01*
X290991D01*
X292324Y113333D01*
Y115999D01*
X289658D01*
X300321Y118665D02*
X298988Y119997D01*
X296323D01*
X294990Y118665D01*
Y117332D01*
X296323Y115999D01*
X298988D01*
X300321Y114666D01*
Y113333D01*
X298988Y112000D01*
X296323D01*
X294990Y113333D01*
X308319Y119997D02*
X302987D01*
Y112000D01*
X308319D01*
X302987Y115999D02*
X305653D01*
X310984Y119997D02*
Y112000D01*
X316316D01*
X636000Y255997D02*
Y248000D01*
X639999D01*
X641332Y249333D01*
Y250666D01*
X639999Y251999D01*
X636000D01*
X639999D01*
X641332Y253332D01*
Y254664D01*
X639999Y255997D01*
X636000D01*
X643997Y248000D02*
Y255997D01*
X646663Y253332D01*
X649329Y255997D01*
Y248000D01*
X657326Y254664D02*
X655994Y255997D01*
X653328D01*
X651995Y254664D01*
Y253332D01*
X653328Y251999D01*
X655994D01*
X657326Y250666D01*
Y249333D01*
X655994Y248000D01*
X653328D01*
X651995Y249333D01*
X492000Y378997D02*
Y373666D01*
X494666Y371000D01*
X497332Y373666D01*
Y378997D01*
X499997D02*
Y371000D01*
X503996D01*
X505329Y372333D01*
Y377664D01*
X503996Y378997D01*
X499997D01*
X507995D02*
Y371000D01*
X511994D01*
X513326Y372333D01*
Y377664D01*
X511994Y378997D01*
X507995D01*
X521324D02*
X515992D01*
Y374999D01*
X518658D01*
X515992D01*
Y371000D01*
X523990Y378997D02*
Y372333D01*
X525323Y371000D01*
X527988D01*
X529321Y372333D01*
Y378997D01*
X537319Y377664D02*
X535986Y378997D01*
X533320D01*
X531987Y377664D01*
Y376332D01*
X533320Y374999D01*
X535986D01*
X537319Y373666D01*
Y372333D01*
X535986Y371000D01*
X533320D01*
X531987Y372333D01*
X545316Y378997D02*
X539985D01*
Y371000D01*
X545316D01*
X539985Y374999D02*
X542650D01*
X196003Y407332D02*
Y402000D01*
X200001D01*
Y404666D01*
Y402000D01*
X204000D01*
X196003Y409997D02*
X204000D01*
Y415329D01*
Y417995D02*
X198668D01*
X196003Y420661D01*
X198668Y423326D01*
X204000D01*
X200001D01*
Y417995D01*
X197335Y431324D02*
X196003Y429991D01*
Y427325D01*
X197335Y425992D01*
X198668D01*
X200001Y427325D01*
Y429991D01*
X201334Y431324D01*
X202667D01*
X204000Y429991D01*
Y427325D01*
X202667Y425992D01*
X196003Y433990D02*
X204000D01*
X200001D01*
Y439321D01*
X196003D01*
X204000D01*
X196003Y449985D02*
X204000D01*
X201334Y452650D01*
X204000Y455316D01*
X196003D01*
X204000Y457982D02*
X196003D01*
Y461981D01*
X197335Y463313D01*
X200001D01*
X201334Y461981D01*
Y457982D01*
X206000Y94000D02*
X208666D01*
X207333D01*
Y101997D01*
X206000Y100665D01*
X212665Y101997D02*
Y96666D01*
X215330Y94000D01*
X217996Y96666D01*
Y101997D01*
X220662Y100665D02*
X221995Y101997D01*
X224661D01*
X225993Y100665D01*
Y99332D01*
X224661Y97999D01*
X225993Y96666D01*
Y95333D01*
X224661Y94000D01*
X221995D01*
X220662Y95333D01*
Y96666D01*
X221995Y97999D01*
X220662Y99332D01*
Y100665D01*
X221995Y97999D02*
X224661D01*
X584000Y296000D02*
X586666D01*
X585333D01*
Y303997D01*
X584000Y302665D01*
X590664Y303997D02*
Y298666D01*
X593330Y296000D01*
X595996Y298666D01*
Y303997D01*
X598662Y302665D02*
X599995Y303997D01*
X602661D01*
X603994Y302665D01*
Y297333D01*
X602661Y296000D01*
X599995D01*
X598662Y297333D01*
Y302665D01*
X8000Y406665D02*
X9333Y407997D01*
X11999D01*
X13332Y406665D01*
Y405332D01*
X11999Y403999D01*
X10666D01*
X11999D01*
X13332Y402666D01*
Y401333D01*
X11999Y400000D01*
X9333D01*
X8000Y401333D01*
X15997Y407997D02*
Y402666D01*
X18663Y400000D01*
X21329Y402666D01*
Y407997D01*
X23995Y406665D02*
X25328Y407997D01*
X27994D01*
X29326Y406665D01*
Y405332D01*
X27994Y403999D01*
X26661D01*
X27994D01*
X29326Y402666D01*
Y401333D01*
X27994Y400000D01*
X25328D01*
X23995Y401333D01*
X13332Y450664D02*
X11999Y451997D01*
X9333D01*
X8000Y450664D01*
Y445333D01*
X9333Y444000D01*
X11999D01*
X13332Y445333D01*
Y447999D01*
X10666D01*
X15997Y444000D02*
Y451997D01*
X21329Y444000D01*
Y451997D01*
X23995D02*
Y444000D01*
X27994D01*
X29326Y445333D01*
Y450664D01*
X27994Y451997D01*
X23995D01*
X574003Y62000D02*
Y67332D01*
Y64666D01*
X582000D01*
X574003Y69997D02*
X582000Y75329D01*
X574003D02*
X582000Y69997D01*
X594000Y62000D02*
X586003D01*
Y65999D01*
X587336Y67332D01*
X590001D01*
X591334Y65999D01*
Y62000D01*
Y64666D02*
X594000Y67332D01*
X586003Y69997D02*
X594000Y75329D01*
X586003D02*
X594000Y69997D01*
X587336Y27332D02*
X586003Y25999D01*
Y23333D01*
X587336Y22000D01*
X592667D01*
X594000Y23333D01*
Y25999D01*
X592667Y27332D01*
X590001D01*
Y24666D01*
X594000Y29997D02*
X586003D01*
X594000Y35329D01*
X586003D01*
Y37995D02*
X594000D01*
Y41994D01*
X592667Y43327D01*
X587336D01*
X586003Y41994D01*
Y37995D01*
X575336Y22000D02*
X574003Y23333D01*
Y25999D01*
X575336Y27332D01*
X576668D01*
X578001Y25999D01*
Y24666D01*
Y25999D01*
X579334Y27332D01*
X580667D01*
X582000Y25999D01*
Y23333D01*
X580667Y22000D01*
X574003Y29997D02*
X579334D01*
X582000Y32663D01*
X579334Y35329D01*
X574003D01*
X575336Y37995D02*
X574003Y39328D01*
Y41994D01*
X575336Y43327D01*
X576668D01*
X578001Y41994D01*
Y40661D01*
Y41994D01*
X579334Y43327D01*
X580667D01*
X582000Y41994D01*
Y39328D01*
X580667Y37995D01*
X789332Y413997D02*
X786666D01*
X787999D01*
Y407333D01*
X786666Y406000D01*
X785333D01*
X784000Y407333D01*
X791997Y413997D02*
X797329D01*
X794663D01*
Y406000D01*
X799995D02*
Y411332D01*
X802661Y413997D01*
X805327Y411332D01*
Y406000D01*
Y409999D01*
X799995D01*
X813324Y412664D02*
X811991Y413997D01*
X809325D01*
X807992Y412664D01*
Y407333D01*
X809325Y406000D01*
X811991D01*
X813324Y407333D01*
Y409999D01*
X810658D01*
X812000Y378000D02*
Y385997D01*
X817332Y378000D01*
Y385997D01*
X825329Y384664D02*
X823996Y385997D01*
X821330D01*
X819997Y384664D01*
Y379333D01*
X821330Y378000D01*
X823996D01*
X825329Y379333D01*
X817332Y396665D02*
X815999Y397997D01*
X813333D01*
X812000Y396665D01*
Y391333D01*
X813333Y390000D01*
X815999D01*
X817332Y391333D01*
Y393999D01*
X814666D01*
X819997Y390000D02*
Y397997D01*
X825329Y390000D01*
Y397997D01*
X827995D02*
Y390000D01*
X831993D01*
X833326Y391333D01*
Y396665D01*
X831993Y397997D01*
X827995D01*
X817332Y372664D02*
X815999Y373997D01*
X813333D01*
X812000Y372664D01*
Y367333D01*
X813333Y366000D01*
X815999D01*
X817332Y367333D01*
Y369999D01*
X814666D01*
X819997Y366000D02*
Y373997D01*
X825329Y366000D01*
Y373997D01*
X827995D02*
Y366000D01*
X831994D01*
X833326Y367333D01*
Y372664D01*
X831994Y373997D01*
X827995D01*
X817332Y360664D02*
X815999Y361997D01*
X813333D01*
X812000Y360664D01*
Y355333D01*
X813333Y354000D01*
X815999D01*
X817332Y355333D01*
Y357999D01*
X814666D01*
X819997Y354000D02*
Y361997D01*
X825329Y354000D01*
Y361997D01*
X827995D02*
Y354000D01*
X831994D01*
X833326Y355333D01*
Y360664D01*
X831994Y361997D01*
X827995D01*
X812000Y348665D02*
X813333Y349997D01*
X815999D01*
X817332Y348665D01*
Y347332D01*
X815999Y345999D01*
X814666D01*
X815999D01*
X817332Y344666D01*
Y343333D01*
X815999Y342000D01*
X813333D01*
X812000Y343333D01*
X819997Y349997D02*
Y344666D01*
X822663Y342000D01*
X825329Y344666D01*
Y349997D01*
X827995Y348665D02*
X829328Y349997D01*
X831994D01*
X833326Y348665D01*
Y347332D01*
X831994Y345999D01*
X830661D01*
X831994D01*
X833326Y344666D01*
Y343333D01*
X831994Y342000D01*
X829328D01*
X827995Y343333D01*
X770000Y349997D02*
X775332D01*
X772666D01*
Y342000D01*
X777997D02*
Y349997D01*
X780663Y347332D01*
X783329Y349997D01*
Y342000D01*
X791326Y348665D02*
X789994Y349997D01*
X787328D01*
X785995Y348665D01*
Y347332D01*
X787328Y345999D01*
X789994D01*
X791326Y344666D01*
Y343333D01*
X789994Y342000D01*
X787328D01*
X785995Y343333D01*
X770000Y361997D02*
X775332D01*
X772666D01*
Y354000D01*
X783329Y360664D02*
X781996Y361997D01*
X779330D01*
X777997Y360664D01*
Y355333D01*
X779330Y354000D01*
X781996D01*
X783329Y355333D01*
X785995Y361997D02*
Y354000D01*
Y356666D01*
X791326Y361997D01*
X787328Y357999D01*
X791326Y354000D01*
X770000Y373997D02*
X775332D01*
X772666D01*
Y366000D01*
X777997Y373997D02*
Y366000D01*
X781996D01*
X783329Y367333D01*
Y372664D01*
X781996Y373997D01*
X777997D01*
X789994D02*
X787328D01*
X785995Y372664D01*
Y367333D01*
X787328Y366000D01*
X789994D01*
X791326Y367333D01*
Y372664D01*
X789994Y373997D01*
X770000Y385997D02*
X775332D01*
X772666D01*
Y378000D01*
X777997Y385997D02*
Y378000D01*
X781996D01*
X783329Y379333D01*
Y384664D01*
X781996Y385997D01*
X777997D01*
X785995D02*
X788661D01*
X787328D01*
Y378000D01*
X785995D01*
X788661D01*
X770000Y390000D02*
Y397997D01*
X773999D01*
X775332Y396665D01*
Y393999D01*
X773999Y392666D01*
X770000D01*
X772666D02*
X775332Y390000D01*
X783329Y396665D02*
X781996Y397997D01*
X779330D01*
X777997Y396665D01*
Y395332D01*
X779330Y393999D01*
X781996D01*
X783329Y392666D01*
Y391333D01*
X781996Y390000D01*
X779330D01*
X777997Y391333D01*
X785995Y397997D02*
X791326D01*
X788661D01*
Y390000D01*
X34668Y156666D02*
X33335Y157999D01*
X30670D01*
X29337Y156666D01*
Y151334D01*
X30670Y150001D01*
X33335D01*
X34668Y151334D01*
X41333Y150001D02*
Y157999D01*
X37334Y154000D01*
X42666D01*
X45332Y157999D02*
X50663D01*
Y156666D01*
X45332Y151334D01*
Y150001D01*
X360336Y138999D02*
Y132334D01*
X361668Y131001D01*
X364334D01*
X365667Y132334D01*
Y138999D01*
X372332Y131001D02*
Y138999D01*
X368333Y135000D01*
X373665D01*
X143336Y171999D02*
Y165334D01*
X144668Y164001D01*
X147334D01*
X148667Y165334D01*
Y171999D01*
X156664D02*
X151333D01*
Y168000D01*
X153999Y169333D01*
X155332D01*
X156664Y168000D01*
Y165334D01*
X155332Y164001D01*
X152666D01*
X151333Y165334D01*
X527668Y294999D02*
X533000Y287001D01*
Y294999D02*
X527668Y287001D01*
X535666D02*
X538332D01*
X536999D01*
Y294999D01*
X535666Y293666D01*
X362336Y507999D02*
Y501334D01*
X363668Y500001D01*
X366334D01*
X367667Y501334D01*
Y507999D01*
X375664D02*
X372999Y506666D01*
X370333Y504000D01*
Y501334D01*
X371666Y500001D01*
X374332D01*
X375664Y501334D01*
Y502667D01*
X374332Y504000D01*
X370333D01*
X680335Y326999D02*
Y320334D01*
X681668Y319001D01*
X684334D01*
X685667Y320334D01*
Y326999D01*
X688333Y325666D02*
X689666Y326999D01*
X692332D01*
X693664Y325666D01*
Y324333D01*
X692332Y323000D01*
X690999D01*
X692332D01*
X693664Y321667D01*
Y320334D01*
X692332Y319001D01*
X689666D01*
X688333Y320334D01*
X86335Y99999D02*
Y93334D01*
X87668Y92001D01*
X90334D01*
X91667Y93334D01*
Y99999D01*
X99664Y92001D02*
X94333D01*
X99664Y97333D01*
Y98666D01*
X98332Y99999D01*
X95666D01*
X94333Y98666D01*
X102668Y487999D02*
Y481334D01*
X104001Y480001D01*
X106667D01*
X108000Y481334D01*
Y487999D01*
X110666Y480001D02*
X113332D01*
X111999D01*
Y487999D01*
X110666Y486666D01*
X311999Y44337D02*
X304001D01*
Y48335D01*
X305334Y49668D01*
X308000D01*
X309333Y48335D01*
Y44337D01*
Y47003D02*
X311999Y49668D01*
X304001Y57666D02*
X305334Y55000D01*
X308000Y52334D01*
X310666D01*
X311999Y53667D01*
Y56333D01*
X310666Y57666D01*
X309333D01*
X308000Y56333D01*
Y52334D01*
X304001Y60332D02*
Y65663D01*
X305334D01*
X310666Y60332D01*
X311999D01*
X300999Y44337D02*
X293001D01*
Y48335D01*
X294334Y49668D01*
X297000D01*
X298333Y48335D01*
Y44337D01*
Y47003D02*
X300999Y49668D01*
X293001Y57666D02*
X294334Y55000D01*
X297000Y52334D01*
X299666D01*
X300999Y53667D01*
Y56333D01*
X299666Y57666D01*
X298333D01*
X297000Y56333D01*
Y52334D01*
X293001Y65663D02*
X294334Y62997D01*
X297000Y60332D01*
X299666D01*
X300999Y61665D01*
Y64330D01*
X299666Y65663D01*
X298333D01*
X297000Y64330D01*
Y60332D01*
X288999Y44337D02*
X281001D01*
Y48335D01*
X282334Y49668D01*
X285000D01*
X286333Y48335D01*
Y44337D01*
Y47003D02*
X288999Y49668D01*
X281001Y57666D02*
X282334Y55000D01*
X285000Y52334D01*
X287666D01*
X288999Y53667D01*
Y56333D01*
X287666Y57666D01*
X286333D01*
X285000Y56333D01*
Y52334D01*
X281001Y65663D02*
Y60332D01*
X285000D01*
X283667Y62997D01*
Y64330D01*
X285000Y65663D01*
X287666D01*
X288999Y64330D01*
Y61665D01*
X287666Y60332D01*
X276999Y44337D02*
X269001D01*
Y48335D01*
X270334Y49668D01*
X273000D01*
X274333Y48335D01*
Y44337D01*
Y47003D02*
X276999Y49668D01*
X269001Y57666D02*
X270334Y55000D01*
X273000Y52334D01*
X275666D01*
X276999Y53667D01*
Y56333D01*
X275666Y57666D01*
X274333D01*
X273000Y56333D01*
Y52334D01*
X276999Y64330D02*
X269001D01*
X273000Y60332D01*
Y65663D01*
X264999Y44337D02*
X257001D01*
Y48335D01*
X258334Y49668D01*
X261000D01*
X262333Y48335D01*
Y44337D01*
Y47003D02*
X264999Y49668D01*
X257001Y57666D02*
X258334Y55000D01*
X261000Y52334D01*
X263666D01*
X264999Y53667D01*
Y56333D01*
X263666Y57666D01*
X262333D01*
X261000Y56333D01*
Y52334D01*
X258334Y60332D02*
X257001Y61665D01*
Y64330D01*
X258334Y65663D01*
X259667D01*
X261000Y64330D01*
Y62997D01*
Y64330D01*
X262333Y65663D01*
X263666D01*
X264999Y64330D01*
Y61665D01*
X263666Y60332D01*
X252999Y44337D02*
X245001D01*
Y48335D01*
X246334Y49668D01*
X249000D01*
X250333Y48335D01*
Y44337D01*
Y47003D02*
X252999Y49668D01*
X245001Y57666D02*
X246334Y55000D01*
X249000Y52334D01*
X251666D01*
X252999Y53667D01*
Y56333D01*
X251666Y57666D01*
X250333D01*
X249000Y56333D01*
Y52334D01*
X252999Y65663D02*
Y60332D01*
X247667Y65663D01*
X246334D01*
X245001Y64330D01*
Y61665D01*
X246334Y60332D01*
X240999Y44337D02*
X233001D01*
Y48335D01*
X234334Y49668D01*
X237000D01*
X238333Y48335D01*
Y44337D01*
Y47003D02*
X240999Y49668D01*
X233001Y57666D02*
X234334Y55000D01*
X237000Y52334D01*
X239666D01*
X240999Y53667D01*
Y56333D01*
X239666Y57666D01*
X238333D01*
X237000Y56333D01*
Y52334D01*
X240999Y60332D02*
Y62997D01*
Y61665D01*
X233001D01*
X234334Y60332D01*
X228999Y44337D02*
X221001D01*
Y48335D01*
X222334Y49668D01*
X225000D01*
X226333Y48335D01*
Y44337D01*
Y47003D02*
X228999Y49668D01*
X221001Y57666D02*
X222334Y55000D01*
X225000Y52334D01*
X227666D01*
X228999Y53667D01*
Y56333D01*
X227666Y57666D01*
X226333D01*
X225000Y56333D01*
Y52334D01*
X222334Y60332D02*
X221001Y61665D01*
Y64330D01*
X222334Y65663D01*
X227666D01*
X228999Y64330D01*
Y61665D01*
X227666Y60332D01*
X222334D01*
X726337Y184001D02*
Y191999D01*
X730335D01*
X731668Y190666D01*
Y188000D01*
X730335Y186667D01*
X726337D01*
X729003D02*
X731668Y184001D01*
X739666Y191999D02*
X734334D01*
Y188000D01*
X737000Y189333D01*
X738333D01*
X739666Y188000D01*
Y185334D01*
X738333Y184001D01*
X735667D01*
X734334Y185334D01*
X742332D02*
X743664Y184001D01*
X746330D01*
X747663Y185334D01*
Y190666D01*
X746330Y191999D01*
X743664D01*
X742332Y190666D01*
Y189333D01*
X743664Y188000D01*
X747663D01*
X638337Y156001D02*
Y163999D01*
X642336D01*
X643668Y162666D01*
Y160000D01*
X642336Y158667D01*
X638337D01*
X641003D02*
X643668Y156001D01*
X651666Y163999D02*
X646334D01*
Y160000D01*
X649000Y161333D01*
X650333D01*
X651666Y160000D01*
Y157334D01*
X650333Y156001D01*
X647667D01*
X646334Y157334D01*
X654332Y162666D02*
X655665Y163999D01*
X658330D01*
X659663Y162666D01*
Y161333D01*
X658330Y160000D01*
X659663Y158667D01*
Y157334D01*
X658330Y156001D01*
X655665D01*
X654332Y157334D01*
Y158667D01*
X655665Y160000D01*
X654332Y161333D01*
Y162666D01*
X655665Y160000D02*
X658330D01*
X638337Y24001D02*
Y31999D01*
X642336D01*
X643668Y30666D01*
Y28000D01*
X642336Y26667D01*
X638337D01*
X641003D02*
X643668Y24001D01*
X651666Y31999D02*
X646334D01*
Y28000D01*
X649000Y29333D01*
X650333D01*
X651666Y28000D01*
Y25334D01*
X650333Y24001D01*
X647667D01*
X646334Y25334D01*
X654332Y31999D02*
X659663D01*
Y30666D01*
X654332Y25334D01*
Y24001D01*
X638337Y138001D02*
Y145999D01*
X642336D01*
X643668Y144666D01*
Y142000D01*
X642336Y140667D01*
X638337D01*
X641003D02*
X643668Y138001D01*
X651666Y145999D02*
X646334D01*
Y142000D01*
X649000Y143333D01*
X650333D01*
X651666Y142000D01*
Y139334D01*
X650333Y138001D01*
X647667D01*
X646334Y139334D01*
X659663Y145999D02*
X656997Y144666D01*
X654332Y142000D01*
Y139334D01*
X655665Y138001D01*
X658330D01*
X659663Y139334D01*
Y140667D01*
X658330Y142000D01*
X654332D01*
X638337Y50001D02*
Y57999D01*
X642336D01*
X643668Y56666D01*
Y54000D01*
X642336Y52667D01*
X638337D01*
X641003D02*
X643668Y50001D01*
X651666Y57999D02*
X646334D01*
Y54000D01*
X649000Y55333D01*
X650333D01*
X651666Y54000D01*
Y51334D01*
X650333Y50001D01*
X647667D01*
X646334Y51334D01*
X659663Y57999D02*
X654332D01*
Y54000D01*
X656997Y55333D01*
X658330D01*
X659663Y54000D01*
Y51334D01*
X658330Y50001D01*
X655665D01*
X654332Y51334D01*
X638337Y81001D02*
Y88999D01*
X642336D01*
X643668Y87666D01*
Y85000D01*
X642336Y83667D01*
X638337D01*
X641003D02*
X643668Y81001D01*
X651666Y88999D02*
X646334D01*
Y85000D01*
X649000Y86333D01*
X650333D01*
X651666Y85000D01*
Y82334D01*
X650333Y81001D01*
X647667D01*
X646334Y82334D01*
X658330Y81001D02*
Y88999D01*
X654332Y85000D01*
X659663D01*
X638337Y120001D02*
Y127999D01*
X642336D01*
X643668Y126666D01*
Y124000D01*
X642336Y122667D01*
X638337D01*
X641003D02*
X643668Y120001D01*
X651666Y127999D02*
X646334D01*
Y124000D01*
X649000Y125333D01*
X650333D01*
X651666Y124000D01*
Y121334D01*
X650333Y120001D01*
X647667D01*
X646334Y121334D01*
X654332Y126666D02*
X655665Y127999D01*
X658330D01*
X659663Y126666D01*
Y125333D01*
X658330Y124000D01*
X656997D01*
X658330D01*
X659663Y122667D01*
Y121334D01*
X658330Y120001D01*
X655665D01*
X654332Y121334D01*
X753337Y183001D02*
Y190999D01*
X757336D01*
X758668Y189666D01*
Y187000D01*
X757336Y185667D01*
X753337D01*
X756003D02*
X758668Y183001D01*
X766666Y190999D02*
X761334D01*
Y187000D01*
X764000Y188333D01*
X765333D01*
X766666Y187000D01*
Y184334D01*
X765333Y183001D01*
X762667D01*
X761334Y184334D01*
X774663Y183001D02*
X769332D01*
X774663Y188333D01*
Y189666D01*
X773330Y190999D01*
X770665D01*
X769332Y189666D01*
X638337Y169001D02*
Y176999D01*
X642336D01*
X643668Y175666D01*
Y173000D01*
X642336Y171667D01*
X638337D01*
X641003D02*
X643668Y169001D01*
X651666Y176999D02*
X646334D01*
Y173000D01*
X649000Y174333D01*
X650333D01*
X651666Y173000D01*
Y170334D01*
X650333Y169001D01*
X647667D01*
X646334Y170334D01*
X654332Y169001D02*
X656997D01*
X655665D01*
Y176999D01*
X654332Y175666D01*
X638337Y37001D02*
Y44999D01*
X642336D01*
X643668Y43666D01*
Y41000D01*
X642336Y39667D01*
X638337D01*
X641003D02*
X643668Y37001D01*
X651666Y44999D02*
X646334D01*
Y41000D01*
X649000Y42333D01*
X650333D01*
X651666Y41000D01*
Y38334D01*
X650333Y37001D01*
X647667D01*
X646334Y38334D01*
X654332Y43666D02*
X655665Y44999D01*
X658330D01*
X659663Y43666D01*
Y38334D01*
X658330Y37001D01*
X655665D01*
X654332Y38334D01*
Y43666D01*
X638337Y63001D02*
Y70999D01*
X642336D01*
X643668Y69666D01*
Y67000D01*
X642336Y65667D01*
X638337D01*
X641003D02*
X643668Y63001D01*
X650333D02*
Y70999D01*
X646334Y67000D01*
X651666D01*
X654332Y64334D02*
X655665Y63001D01*
X658330D01*
X659663Y64334D01*
Y69666D01*
X658330Y70999D01*
X655665D01*
X654332Y69666D01*
Y68333D01*
X655665Y67000D01*
X659663D01*
X638337Y94001D02*
Y101999D01*
X642336D01*
X643668Y100666D01*
Y98000D01*
X642336Y96667D01*
X638337D01*
X641003D02*
X643668Y94001D01*
X650333D02*
Y101999D01*
X646334Y98000D01*
X651666D01*
X654332Y100666D02*
X655665Y101999D01*
X658330D01*
X659663Y100666D01*
Y99333D01*
X658330Y98000D01*
X659663Y96667D01*
Y95334D01*
X658330Y94001D01*
X655665D01*
X654332Y95334D01*
Y96667D01*
X655665Y98000D01*
X654332Y99333D01*
Y100666D01*
X655665Y98000D02*
X658330D01*
X638337Y106001D02*
Y113999D01*
X642336D01*
X643668Y112666D01*
Y110000D01*
X642336Y108667D01*
X638337D01*
X641003D02*
X643668Y106001D01*
X650333D02*
Y113999D01*
X646334Y110000D01*
X651666D01*
X654332Y113999D02*
X659663D01*
Y112666D01*
X654332Y107334D01*
Y106001D01*
X559999Y99337D02*
X552001D01*
Y103336D01*
X553334Y104668D01*
X556000D01*
X557333Y103336D01*
Y99337D01*
Y102003D02*
X559999Y104668D01*
Y111333D02*
X552001D01*
X556000Y107334D01*
Y112666D01*
X552001Y120663D02*
X553334Y117997D01*
X556000Y115332D01*
X558666D01*
X559999Y116664D01*
Y119330D01*
X558666Y120663D01*
X557333D01*
X556000Y119330D01*
Y115332D01*
X508999Y99337D02*
X501001D01*
Y103336D01*
X502334Y104668D01*
X505000D01*
X506333Y103336D01*
Y99337D01*
Y102003D02*
X508999Y104668D01*
Y111333D02*
X501001D01*
X505000Y107334D01*
Y112666D01*
X501001Y120663D02*
Y115332D01*
X505000D01*
X503667Y117997D01*
Y119330D01*
X505000Y120663D01*
X507666D01*
X508999Y119330D01*
Y116664D01*
X507666Y115332D01*
X478999Y24337D02*
X471001D01*
Y28335D01*
X472334Y29668D01*
X475000D01*
X476333Y28335D01*
Y24337D01*
Y27003D02*
X478999Y29668D01*
Y36333D02*
X471001D01*
X475000Y32334D01*
Y37666D01*
X478999Y44330D02*
X471001D01*
X475000Y40332D01*
Y45663D01*
X482999Y339337D02*
X475001D01*
Y343335D01*
X476334Y344668D01*
X479000D01*
X480333Y343335D01*
Y339337D01*
Y342003D02*
X482999Y344668D01*
Y351333D02*
X475001D01*
X479000Y347334D01*
Y352666D01*
X476334Y355332D02*
X475001Y356665D01*
Y359330D01*
X476334Y360663D01*
X477667D01*
X479000Y359330D01*
Y357997D01*
Y359330D01*
X480333Y360663D01*
X481666D01*
X482999Y359330D01*
Y356665D01*
X481666Y355332D01*
X495999Y339337D02*
X488001D01*
Y343335D01*
X489334Y344668D01*
X492000D01*
X493333Y343335D01*
Y339337D01*
Y342003D02*
X495999Y344668D01*
Y351333D02*
X488001D01*
X492000Y347334D01*
Y352666D01*
X495999Y360663D02*
Y355332D01*
X490667Y360663D01*
X489334D01*
X488001Y359330D01*
Y356665D01*
X489334Y355332D01*
X705670Y317001D02*
Y324999D01*
X709668D01*
X711001Y323666D01*
Y321000D01*
X709668Y319667D01*
X705670D01*
X708335D02*
X711001Y317001D01*
X717666D02*
Y324999D01*
X713667Y321000D01*
X718999D01*
X721665Y317001D02*
X724330D01*
X722997D01*
Y324999D01*
X721665Y323666D01*
X698337Y201001D02*
Y208999D01*
X702336D01*
X703668Y207666D01*
Y205000D01*
X702336Y203667D01*
X698337D01*
X701003D02*
X703668Y201001D01*
X710333D02*
Y208999D01*
X706334Y205000D01*
X711666D01*
X714332Y207666D02*
X715665Y208999D01*
X718330D01*
X719663Y207666D01*
Y202334D01*
X718330Y201001D01*
X715665D01*
X714332Y202334D01*
Y207666D01*
X698337Y279001D02*
Y286999D01*
X702336D01*
X703668Y285666D01*
Y283000D01*
X702336Y281667D01*
X698337D01*
X701003D02*
X703668Y279001D01*
X706334Y285666D02*
X707667Y286999D01*
X710333D01*
X711666Y285666D01*
Y284333D01*
X710333Y283000D01*
X709000D01*
X710333D01*
X711666Y281667D01*
Y280334D01*
X710333Y279001D01*
X707667D01*
X706334Y280334D01*
X714332D02*
X715665Y279001D01*
X718330D01*
X719663Y280334D01*
Y285666D01*
X718330Y286999D01*
X715665D01*
X714332Y285666D01*
Y284333D01*
X715665Y283000D01*
X719663D01*
X698337Y228001D02*
Y235999D01*
X702336D01*
X703668Y234666D01*
Y232000D01*
X702336Y230667D01*
X698337D01*
X701003D02*
X703668Y228001D01*
X706334Y234666D02*
X707667Y235999D01*
X710333D01*
X711666Y234666D01*
Y233333D01*
X710333Y232000D01*
X709000D01*
X710333D01*
X711666Y230667D01*
Y229334D01*
X710333Y228001D01*
X707667D01*
X706334Y229334D01*
X714332Y234666D02*
X715665Y235999D01*
X718330D01*
X719663Y234666D01*
Y233333D01*
X718330Y232000D01*
X719663Y230667D01*
Y229334D01*
X718330Y228001D01*
X715665D01*
X714332Y229334D01*
Y230667D01*
X715665Y232000D01*
X714332Y233333D01*
Y234666D01*
X715665Y232000D02*
X718330D01*
X698337Y254001D02*
Y261999D01*
X702336D01*
X703668Y260666D01*
Y258000D01*
X702336Y256667D01*
X698337D01*
X701003D02*
X703668Y254001D01*
X706334Y260666D02*
X707667Y261999D01*
X710333D01*
X711666Y260666D01*
Y259333D01*
X710333Y258000D01*
X709000D01*
X710333D01*
X711666Y256667D01*
Y255334D01*
X710333Y254001D01*
X707667D01*
X706334Y255334D01*
X714332Y261999D02*
X719663D01*
Y260666D01*
X714332Y255334D01*
Y254001D01*
X514999Y339337D02*
X507001D01*
Y343335D01*
X508334Y344668D01*
X511000D01*
X512333Y343335D01*
Y339337D01*
Y342003D02*
X514999Y344668D01*
X508334Y347334D02*
X507001Y348667D01*
Y351333D01*
X508334Y352666D01*
X509667D01*
X511000Y351333D01*
Y350000D01*
Y351333D01*
X512333Y352666D01*
X513666D01*
X514999Y351333D01*
Y348667D01*
X513666Y347334D01*
X507001Y360663D02*
X508334Y357998D01*
X511000Y355332D01*
X513666D01*
X514999Y356665D01*
Y359330D01*
X513666Y360663D01*
X512333D01*
X511000Y359330D01*
Y355332D01*
X698337Y215001D02*
Y222999D01*
X702336D01*
X703668Y221666D01*
Y219000D01*
X702336Y217667D01*
X698337D01*
X701003D02*
X703668Y215001D01*
X706334Y221666D02*
X707667Y222999D01*
X710333D01*
X711666Y221666D01*
Y220333D01*
X710333Y219000D01*
X709000D01*
X710333D01*
X711666Y217667D01*
Y216334D01*
X710333Y215001D01*
X707667D01*
X706334Y216334D01*
X719663Y222999D02*
X714332D01*
Y219000D01*
X716997Y220333D01*
X718330D01*
X719663Y219000D01*
Y216334D01*
X718330Y215001D01*
X715665D01*
X714332Y216334D01*
X698337Y293001D02*
Y300999D01*
X702336D01*
X703668Y299666D01*
Y297000D01*
X702336Y295667D01*
X698337D01*
X701003D02*
X703668Y293001D01*
X706334Y299666D02*
X707667Y300999D01*
X710333D01*
X711666Y299666D01*
Y298333D01*
X710333Y297000D01*
X709000D01*
X710333D01*
X711666Y295667D01*
Y294334D01*
X710333Y293001D01*
X707667D01*
X706334Y294334D01*
X718330Y293001D02*
Y300999D01*
X714332Y297000D01*
X719663D01*
X698337Y241001D02*
Y248999D01*
X702336D01*
X703668Y247666D01*
Y245000D01*
X702336Y243667D01*
X698337D01*
X701003D02*
X703668Y241001D01*
X706334Y247666D02*
X707667Y248999D01*
X710333D01*
X711666Y247666D01*
Y246333D01*
X710333Y245000D01*
X709000D01*
X710333D01*
X711666Y243667D01*
Y242334D01*
X710333Y241001D01*
X707667D01*
X706334Y242334D01*
X714332Y247666D02*
X715665Y248999D01*
X718330D01*
X719663Y247666D01*
Y246333D01*
X718330Y245000D01*
X716997D01*
X718330D01*
X719663Y243667D01*
Y242334D01*
X718330Y241001D01*
X715665D01*
X714332Y242334D01*
X698337Y267001D02*
Y274999D01*
X702336D01*
X703668Y273666D01*
Y271000D01*
X702336Y269667D01*
X698337D01*
X701003D02*
X703668Y267001D01*
X706334Y273666D02*
X707667Y274999D01*
X710333D01*
X711666Y273666D01*
Y272333D01*
X710333Y271000D01*
X709000D01*
X710333D01*
X711666Y269667D01*
Y268334D01*
X710333Y267001D01*
X707667D01*
X706334Y268334D01*
X719663Y267001D02*
X714332D01*
X719663Y272333D01*
Y273666D01*
X718330Y274999D01*
X715665D01*
X714332Y273666D01*
X813670Y176001D02*
Y183999D01*
X817668D01*
X819001Y182666D01*
Y180000D01*
X817668Y178667D01*
X813670D01*
X816336D02*
X819001Y176001D01*
X821667Y182666D02*
X823000Y183999D01*
X825666D01*
X826999Y182666D01*
Y181333D01*
X825666Y180000D01*
X824333D01*
X825666D01*
X826999Y178667D01*
Y177334D01*
X825666Y176001D01*
X823000D01*
X821667Y177334D01*
X829665Y176001D02*
X832330D01*
X830997D01*
Y183999D01*
X829665Y182666D01*
X527999Y339337D02*
X520001D01*
Y343335D01*
X521334Y344668D01*
X524000D01*
X525333Y343335D01*
Y339337D01*
Y342003D02*
X527999Y344668D01*
X521334Y347334D02*
X520001Y348667D01*
Y351333D01*
X521334Y352666D01*
X522667D01*
X524000Y351333D01*
Y350000D01*
Y351333D01*
X525333Y352666D01*
X526666D01*
X527999Y351333D01*
Y348667D01*
X526666Y347334D01*
X521334Y355332D02*
X520001Y356665D01*
Y359330D01*
X521334Y360663D01*
X526666D01*
X527999Y359330D01*
Y356665D01*
X526666Y355332D01*
X521334D01*
X211337Y408001D02*
Y415999D01*
X215336D01*
X216668Y414666D01*
Y412000D01*
X215336Y410667D01*
X211337D01*
X214003D02*
X216668Y408001D01*
X224666D02*
X219334D01*
X224666Y413333D01*
Y414666D01*
X223333Y415999D01*
X220667D01*
X219334Y414666D01*
X227332Y409334D02*
X228664Y408001D01*
X231330D01*
X232663Y409334D01*
Y414666D01*
X231330Y415999D01*
X228664D01*
X227332Y414666D01*
Y413333D01*
X228664Y412000D01*
X232663D01*
X415337Y386001D02*
Y393999D01*
X419336D01*
X420668Y392666D01*
Y390000D01*
X419336Y388667D01*
X415337D01*
X418003D02*
X420668Y386001D01*
X428666D02*
X423334D01*
X428666Y391333D01*
Y392666D01*
X427333Y393999D01*
X424667D01*
X423334Y392666D01*
X431332D02*
X432664Y393999D01*
X435330D01*
X436663Y392666D01*
Y391333D01*
X435330Y390000D01*
X436663Y388667D01*
Y387334D01*
X435330Y386001D01*
X432664D01*
X431332Y387334D01*
Y388667D01*
X432664Y390000D01*
X431332Y391333D01*
Y392666D01*
X432664Y390000D02*
X435330D01*
X211337Y420001D02*
Y427999D01*
X215336D01*
X216668Y426666D01*
Y424000D01*
X215336Y422667D01*
X211337D01*
X214003D02*
X216668Y420001D01*
X224666D02*
X219334D01*
X224666Y425333D01*
Y426666D01*
X223333Y427999D01*
X220667D01*
X219334Y426666D01*
X227332Y427999D02*
X232663D01*
Y426666D01*
X227332Y421334D01*
Y420001D01*
X423999Y399337D02*
X416001D01*
Y403335D01*
X417334Y404668D01*
X420000D01*
X421333Y403335D01*
Y399337D01*
Y402003D02*
X423999Y404668D01*
Y412666D02*
Y407334D01*
X418667Y412666D01*
X417334D01*
X416001Y411333D01*
Y408667D01*
X417334Y407334D01*
X416001Y420663D02*
X417334Y417997D01*
X420000Y415332D01*
X422666D01*
X423999Y416665D01*
Y419330D01*
X422666Y420663D01*
X421333D01*
X420000Y419330D01*
Y415332D01*
X422999Y445337D02*
X415001D01*
Y449336D01*
X416334Y450668D01*
X419000D01*
X420333Y449336D01*
Y445337D01*
Y448003D02*
X422999Y450668D01*
Y458666D02*
Y453334D01*
X417667Y458666D01*
X416334D01*
X415001Y457333D01*
Y454667D01*
X416334Y453334D01*
X415001Y466663D02*
Y461332D01*
X419000D01*
X417667Y463997D01*
Y465330D01*
X419000Y466663D01*
X421666D01*
X422999Y465330D01*
Y462665D01*
X421666Y461332D01*
X202337Y240001D02*
Y247999D01*
X206336D01*
X207668Y246666D01*
Y244000D01*
X206336Y242667D01*
X202337D01*
X205003D02*
X207668Y240001D01*
X215666D02*
X210334D01*
X215666Y245333D01*
Y246666D01*
X214333Y247999D01*
X211667D01*
X210334Y246666D01*
X222330Y240001D02*
Y247999D01*
X218332Y244000D01*
X223663D01*
X202337Y199001D02*
Y206999D01*
X206336D01*
X207668Y205666D01*
Y203000D01*
X206336Y201667D01*
X202337D01*
X205003D02*
X207668Y199001D01*
X215666D02*
X210334D01*
X215666Y204333D01*
Y205666D01*
X214333Y206999D01*
X211667D01*
X210334Y205666D01*
X218332D02*
X219664Y206999D01*
X222330D01*
X223663Y205666D01*
Y204333D01*
X222330Y203000D01*
X220997D01*
X222330D01*
X223663Y201667D01*
Y200334D01*
X222330Y199001D01*
X219664D01*
X218332Y200334D01*
X92999Y150337D02*
X85001D01*
Y154335D01*
X86334Y155668D01*
X89000D01*
X90333Y154335D01*
Y150337D01*
Y153003D02*
X92999Y155668D01*
Y163666D02*
Y158334D01*
X87667Y163666D01*
X86334D01*
X85001Y162333D01*
Y159667D01*
X86334Y158334D01*
Y166332D02*
X85001Y167665D01*
Y170330D01*
X86334Y171663D01*
X91666D01*
X92999Y170330D01*
Y167665D01*
X91666Y166332D01*
X86334D01*
X26003Y222001D02*
Y229999D01*
X30002D01*
X31335Y228666D01*
Y226000D01*
X30002Y224667D01*
X26003D01*
X28669D02*
X31335Y222001D01*
X34001D02*
X36666D01*
X35334D01*
Y229999D01*
X34001Y228666D01*
X40665Y223334D02*
X41998Y222001D01*
X44664D01*
X45997Y223334D01*
Y228666D01*
X44664Y229999D01*
X41998D01*
X40665Y228666D01*
Y227333D01*
X41998Y226000D01*
X45997D01*
X511999Y385003D02*
X504001D01*
Y389002D01*
X505334Y390335D01*
X508000D01*
X509333Y389002D01*
Y385003D01*
Y387669D02*
X511999Y390335D01*
Y393001D02*
Y395666D01*
Y394334D01*
X504001D01*
X505334Y393001D01*
Y399665D02*
X504001Y400998D01*
Y403664D01*
X505334Y404997D01*
X506667D01*
X508000Y403664D01*
X509333Y404997D01*
X510666D01*
X511999Y403664D01*
Y400998D01*
X510666Y399665D01*
X509333D01*
X508000Y400998D01*
X506667Y399665D01*
X505334D01*
X508000Y400998D02*
Y403664D01*
X499999Y385003D02*
X492001D01*
Y389002D01*
X493334Y390335D01*
X496000D01*
X497333Y389002D01*
Y385003D01*
Y387669D02*
X499999Y390335D01*
Y393001D02*
Y395666D01*
Y394334D01*
X492001D01*
X493334Y393001D01*
X492001Y399665D02*
Y404997D01*
X493334D01*
X498666Y399665D01*
X499999D01*
X515003Y258001D02*
Y265999D01*
X519002D01*
X520335Y264666D01*
Y262000D01*
X519002Y260667D01*
X515003D01*
X517669D02*
X520335Y258001D01*
X523001D02*
X525666D01*
X524333D01*
Y265999D01*
X523001Y264666D01*
X534997Y265999D02*
X532331Y264666D01*
X529665Y262000D01*
Y259334D01*
X530998Y258001D01*
X533664D01*
X534997Y259334D01*
Y260667D01*
X533664Y262000D01*
X529665D01*
X332999Y155003D02*
X325001D01*
Y159002D01*
X326334Y160335D01*
X329000D01*
X330333Y159002D01*
Y155003D01*
Y157669D02*
X332999Y160335D01*
Y163001D02*
Y165667D01*
Y164334D01*
X325001D01*
X326334Y163001D01*
X325001Y174997D02*
Y169665D01*
X329000D01*
X327667Y172331D01*
Y173664D01*
X329000Y174997D01*
X331666D01*
X332999Y173664D01*
Y170998D01*
X331666Y169665D01*
X634003Y262001D02*
Y269999D01*
X638002D01*
X639335Y268666D01*
Y266000D01*
X638002Y264667D01*
X634003D01*
X636669D02*
X639335Y262001D01*
X642001D02*
X644667D01*
X643334D01*
Y269999D01*
X642001Y268666D01*
X652664Y262001D02*
Y269999D01*
X648665Y266000D01*
X653997D01*
X634003Y273001D02*
Y280999D01*
X638002D01*
X639335Y279666D01*
Y277000D01*
X638002Y275667D01*
X634003D01*
X636669D02*
X639335Y273001D01*
X642001D02*
X644667D01*
X643334D01*
Y280999D01*
X642001Y279666D01*
X648665D02*
X649998Y280999D01*
X652664D01*
X653997Y279666D01*
Y278333D01*
X652664Y277000D01*
X651331D01*
X652664D01*
X653997Y275667D01*
Y274334D01*
X652664Y273001D01*
X649998D01*
X648665Y274334D01*
X602106Y227202D02*
Y235199D01*
X606105D01*
X607438Y233867D01*
Y231201D01*
X606105Y229868D01*
X602106D01*
X604772D02*
X607438Y227202D01*
X610103D02*
X612769D01*
X611436D01*
Y235199D01*
X610103Y233867D01*
X622100Y227202D02*
X616768D01*
X622100Y232534D01*
Y233867D01*
X620767Y235199D01*
X618101D01*
X616768Y233867D01*
X318999Y127336D02*
X311001D01*
Y131335D01*
X312334Y132668D01*
X315000D01*
X316333Y131335D01*
Y127336D01*
Y130002D02*
X318999Y132668D01*
Y135334D02*
Y137999D01*
Y136666D01*
X311001D01*
X312334Y135334D01*
X318999Y141998D02*
Y144664D01*
Y143331D01*
X311001D01*
X312334Y141998D01*
X306999Y127003D02*
X299001D01*
Y131002D01*
X300334Y132335D01*
X303000D01*
X304333Y131002D01*
Y127003D01*
Y129669D02*
X306999Y132335D01*
Y135001D02*
Y137667D01*
Y136334D01*
X299001D01*
X300334Y135001D01*
Y141665D02*
X299001Y142998D01*
Y145664D01*
X300334Y146997D01*
X305666D01*
X306999Y145664D01*
Y142998D01*
X305666Y141665D01*
X300334D01*
X639336Y403001D02*
Y410999D01*
X643334D01*
X644667Y409666D01*
Y407000D01*
X643334Y405667D01*
X639336D01*
X642001D02*
X644667Y403001D01*
X647333Y404334D02*
X648666Y403001D01*
X651332D01*
X652664Y404334D01*
Y409666D01*
X651332Y410999D01*
X648666D01*
X647333Y409666D01*
Y408333D01*
X648666Y407000D01*
X652664D01*
X573335Y345001D02*
Y352999D01*
X577334D01*
X578667Y351666D01*
Y349000D01*
X577334Y347667D01*
X573335D01*
X576001D02*
X578667Y345001D01*
X581333Y351666D02*
X582666Y352999D01*
X585332D01*
X586665Y351666D01*
Y350333D01*
X585332Y349000D01*
X586665Y347667D01*
Y346334D01*
X585332Y345001D01*
X582666D01*
X581333Y346334D01*
Y347667D01*
X582666Y349000D01*
X581333Y350333D01*
Y351666D01*
X582666Y349000D02*
X585332D01*
X674335Y403001D02*
Y410999D01*
X678334D01*
X679667Y409666D01*
Y407000D01*
X678334Y405667D01*
X674335D01*
X677001D02*
X679667Y403001D01*
X682333Y410999D02*
X687664D01*
Y409666D01*
X682333Y404334D01*
Y403001D01*
X592336Y326001D02*
Y333999D01*
X596334D01*
X597667Y332666D01*
Y330000D01*
X596334Y328667D01*
X592336D01*
X595001D02*
X597667Y326001D01*
X605664Y333999D02*
X602999Y332666D01*
X600333Y330000D01*
Y327334D01*
X601666Y326001D01*
X604332D01*
X605664Y327334D01*
Y328667D01*
X604332Y330000D01*
X600333D01*
X40335Y470001D02*
Y477999D01*
X44334D01*
X45667Y476666D01*
Y474000D01*
X44334Y472667D01*
X40335D01*
X43001D02*
X45667Y470001D01*
X53664Y477999D02*
X48333D01*
Y474000D01*
X50999Y475333D01*
X52332D01*
X53664Y474000D01*
Y471334D01*
X52332Y470001D01*
X49666D01*
X48333Y471334D01*
X198335Y67001D02*
Y74999D01*
X202334D01*
X203667Y73666D01*
Y71000D01*
X202334Y69667D01*
X198335D01*
X201001D02*
X203667Y67001D01*
X210332D02*
Y74999D01*
X206333Y71000D01*
X211665D01*
X40335Y458001D02*
Y465999D01*
X44334D01*
X45667Y464666D01*
Y462000D01*
X44334Y460667D01*
X40335D01*
X43001D02*
X45667Y458001D01*
X48333Y464666D02*
X49666Y465999D01*
X52332D01*
X53664Y464666D01*
Y463333D01*
X52332Y462000D01*
X50999D01*
X52332D01*
X53664Y460667D01*
Y459334D01*
X52332Y458001D01*
X49666D01*
X48333Y459334D01*
X131335Y11001D02*
Y18999D01*
X135334D01*
X136667Y17666D01*
Y15000D01*
X135334Y13667D01*
X131335D01*
X134001D02*
X136667Y11001D01*
X144664D02*
X139333D01*
X144664Y16333D01*
Y17666D01*
X143332Y18999D01*
X140666D01*
X139333Y17666D01*
X179668Y81001D02*
Y88999D01*
X183667D01*
X185000Y87666D01*
Y85000D01*
X183667Y83667D01*
X179668D01*
X182334D02*
X185000Y81001D01*
X187666D02*
X190332D01*
X188999D01*
Y88999D01*
X187666Y87666D01*
X157668Y389999D02*
Y382001D01*
X163000D01*
X165666D02*
X168332D01*
X166999D01*
Y389999D01*
X165666Y388666D01*
X797667Y169999D02*
X795001D01*
X796334D01*
Y163334D01*
X795001Y162001D01*
X793668D01*
X792336Y163334D01*
X805665Y169999D02*
X800333D01*
Y166000D01*
X802999Y167333D01*
X804332D01*
X805665Y166000D01*
Y163334D01*
X804332Y162001D01*
X801666D01*
X800333Y163334D01*
X492667Y69999D02*
X490001D01*
X491334D01*
Y63334D01*
X490001Y62001D01*
X488668D01*
X487336Y63334D01*
X499332Y62001D02*
Y69999D01*
X495333Y66000D01*
X500664D01*
X436667Y513999D02*
X434001D01*
X435334D01*
Y507334D01*
X434001Y506001D01*
X432668D01*
X431335Y507334D01*
X439333Y512666D02*
X440666Y513999D01*
X443332D01*
X444664Y512666D01*
Y511333D01*
X443332Y510000D01*
X441999D01*
X443332D01*
X444664Y508667D01*
Y507334D01*
X443332Y506001D01*
X440666D01*
X439333Y507334D01*
X786667Y202999D02*
X784001D01*
X785334D01*
Y196334D01*
X784001Y195001D01*
X782668D01*
X781336Y196334D01*
X794665Y195001D02*
X789333D01*
X794665Y200333D01*
Y201666D01*
X793332Y202999D01*
X790666D01*
X789333Y201666D01*
X764000Y513999D02*
X761334D01*
X762667D01*
Y507334D01*
X761334Y506001D01*
X760001D01*
X758668Y507334D01*
X766666Y506001D02*
X769332D01*
X767999D01*
Y513999D01*
X766666Y512666D01*
X541667Y417999D02*
X536335D01*
Y414000D01*
X539001D01*
X536335D01*
Y410001D01*
X549664D02*
X544333D01*
X549664Y415333D01*
Y416666D01*
X548332Y417999D01*
X545666D01*
X544333Y416666D01*
X744000Y416999D02*
X738668D01*
Y413000D01*
X741334D01*
X738668D01*
Y409001D01*
X746666D02*
X749332D01*
X747999D01*
Y416999D01*
X746666Y415666D01*
X304001Y18335D02*
X311999D01*
Y22334D01*
X310666Y23667D01*
X305334D01*
X304001Y22334D01*
Y18335D01*
X311999Y26333D02*
Y28999D01*
Y27666D01*
X304001D01*
X305334Y26333D01*
Y32998D02*
X304001Y34330D01*
Y36996D01*
X305334Y38329D01*
X310666D01*
X311999Y36996D01*
Y34330D01*
X310666Y32998D01*
X305334D01*
X293001Y18335D02*
X300999D01*
Y22334D01*
X299666Y23667D01*
X294334D01*
X293001Y22334D01*
Y18335D01*
X299666Y26333D02*
X300999Y27666D01*
Y30332D01*
X299666Y31665D01*
X294334D01*
X293001Y30332D01*
Y27666D01*
X294334Y26333D01*
X295667D01*
X297000Y27666D01*
Y31665D01*
X281001Y18335D02*
X288999D01*
Y22334D01*
X287666Y23667D01*
X282334D01*
X281001Y22334D01*
Y18335D01*
X282334Y26333D02*
X281001Y27666D01*
Y30332D01*
X282334Y31665D01*
X283667D01*
X285000Y30332D01*
X286333Y31665D01*
X287666D01*
X288999Y30332D01*
Y27666D01*
X287666Y26333D01*
X286333D01*
X285000Y27666D01*
X283667Y26333D01*
X282334D01*
X285000Y27666D02*
Y30332D01*
X269001Y18335D02*
X276999D01*
Y22334D01*
X275666Y23667D01*
X270334D01*
X269001Y22334D01*
Y18335D01*
Y26333D02*
Y31665D01*
X270334D01*
X275666Y26333D01*
X276999D01*
X257001Y18335D02*
X264999D01*
Y22334D01*
X263666Y23667D01*
X258334D01*
X257001Y22334D01*
Y18335D01*
Y31665D02*
X258334Y28999D01*
X261000Y26333D01*
X263666D01*
X264999Y27666D01*
Y30332D01*
X263666Y31665D01*
X262333D01*
X261000Y30332D01*
Y26333D01*
X245001Y18335D02*
X252999D01*
Y22334D01*
X251666Y23667D01*
X246334D01*
X245001Y22334D01*
Y18335D01*
Y31665D02*
Y26333D01*
X249000D01*
X247667Y28999D01*
Y30332D01*
X249000Y31665D01*
X251666D01*
X252999Y30332D01*
Y27666D01*
X251666Y26333D01*
X233001Y18335D02*
X240999D01*
Y22334D01*
X239666Y23667D01*
X234334D01*
X233001Y22334D01*
Y18335D01*
X240999Y30332D02*
X233001D01*
X237000Y26333D01*
Y31665D01*
X221001Y18335D02*
X228999D01*
Y22334D01*
X227666Y23667D01*
X222334D01*
X221001Y22334D01*
Y18335D01*
X222334Y26333D02*
X221001Y27666D01*
Y30332D01*
X222334Y31665D01*
X223667D01*
X225000Y30332D01*
Y28999D01*
Y30332D01*
X226333Y31665D01*
X227666D01*
X228999Y30332D01*
Y27666D01*
X227666Y26333D01*
X498335Y427999D02*
Y420001D01*
X502334D01*
X503667Y421334D01*
Y426666D01*
X502334Y427999D01*
X498335D01*
X511665Y420001D02*
X506333D01*
X511665Y425333D01*
Y426666D01*
X510332Y427999D01*
X507666D01*
X506333Y426666D01*
X699668Y428999D02*
Y421001D01*
X703667D01*
X705000Y422334D01*
Y427666D01*
X703667Y428999D01*
X699668D01*
X707666Y421001D02*
X710332D01*
X708999D01*
Y428999D01*
X707666Y427666D01*
X749668Y25666D02*
X748335Y26999D01*
X745670D01*
X744337Y25666D01*
Y20334D01*
X745670Y19001D01*
X748335D01*
X749668Y20334D01*
X757666Y26999D02*
X752334D01*
Y23000D01*
X755000Y24333D01*
X756333D01*
X757666Y23000D01*
Y20334D01*
X756333Y19001D01*
X753667D01*
X752334Y20334D01*
X760332Y25666D02*
X761665Y26999D01*
X764330D01*
X765663Y25666D01*
Y24333D01*
X764330Y23000D01*
X765663Y21667D01*
Y20334D01*
X764330Y19001D01*
X761665D01*
X760332Y20334D01*
Y21667D01*
X761665Y23000D01*
X760332Y24333D01*
Y25666D01*
X761665Y23000D02*
X764330D01*
X444334Y446668D02*
X443001Y445336D01*
Y442670D01*
X444334Y441337D01*
X449666D01*
X450999Y442670D01*
Y445336D01*
X449666Y446668D01*
X443001Y454666D02*
Y449334D01*
X447000D01*
X445667Y452000D01*
Y453333D01*
X447000Y454666D01*
X449666D01*
X450999Y453333D01*
Y450667D01*
X449666Y449334D01*
X443001Y457332D02*
Y462663D01*
X444334D01*
X449666Y457332D01*
X450999D01*
X643334Y446668D02*
X642001Y445336D01*
Y442670D01*
X643334Y441337D01*
X648666D01*
X649999Y442670D01*
Y445336D01*
X648666Y446668D01*
X642001Y454666D02*
Y449334D01*
X646000D01*
X644667Y452000D01*
Y453333D01*
X646000Y454666D01*
X648666D01*
X649999Y453333D01*
Y450667D01*
X648666Y449334D01*
X642001Y462663D02*
X643334Y459997D01*
X646000Y457332D01*
X648666D01*
X649999Y458665D01*
Y461330D01*
X648666Y462663D01*
X647333D01*
X646000Y461330D01*
Y457332D01*
X400668Y436666D02*
X399336Y437999D01*
X396670D01*
X395337Y436666D01*
Y431334D01*
X396670Y430001D01*
X399336D01*
X400668Y431334D01*
X408666Y437999D02*
X403334D01*
Y434000D01*
X406000Y435333D01*
X407333D01*
X408666Y434000D01*
Y431334D01*
X407333Y430001D01*
X404667D01*
X403334Y431334D01*
X416663Y437999D02*
X411332D01*
Y434000D01*
X413997Y435333D01*
X415330D01*
X416663Y434000D01*
Y431334D01*
X415330Y430001D01*
X412664D01*
X411332Y431334D01*
X386668Y493666D02*
X385336Y494999D01*
X382670D01*
X381337Y493666D01*
Y488334D01*
X382670Y487001D01*
X385336D01*
X386668Y488334D01*
X394666Y494999D02*
X389334D01*
Y491000D01*
X392000Y492333D01*
X393333D01*
X394666Y491000D01*
Y488334D01*
X393333Y487001D01*
X390667D01*
X389334Y488334D01*
X401330Y487001D02*
Y494999D01*
X397332Y491000D01*
X402663D01*
X243668Y496666D02*
X242335Y497999D01*
X239670D01*
X238337Y496666D01*
Y491334D01*
X239670Y490001D01*
X242335D01*
X243668Y491334D01*
X251666Y497999D02*
X246334D01*
Y494000D01*
X249000Y495333D01*
X250333D01*
X251666Y494000D01*
Y491334D01*
X250333Y490001D01*
X247667D01*
X246334Y491334D01*
X254332Y496666D02*
X255665Y497999D01*
X258330D01*
X259663Y496666D01*
Y495333D01*
X258330Y494000D01*
X256997D01*
X258330D01*
X259663Y492667D01*
Y491334D01*
X258330Y490001D01*
X255665D01*
X254332Y491334D01*
X244668Y404666D02*
X243335Y405999D01*
X240670D01*
X239337Y404666D01*
Y399334D01*
X240670Y398001D01*
X243335D01*
X244668Y399334D01*
X252666Y405999D02*
X247334D01*
Y402000D01*
X250000Y403333D01*
X251333D01*
X252666Y402000D01*
Y399334D01*
X251333Y398001D01*
X248667D01*
X247334Y399334D01*
X260663Y398001D02*
X255332D01*
X260663Y403333D01*
Y404666D01*
X259330Y405999D01*
X256665D01*
X255332Y404666D01*
X322001Y515666D02*
X320668Y516999D01*
X318003D01*
X316670Y515666D01*
Y510334D01*
X318003Y509001D01*
X320668D01*
X322001Y510334D01*
X329999Y516999D02*
X324667D01*
Y513000D01*
X327333Y514333D01*
X328666D01*
X329999Y513000D01*
Y510334D01*
X328666Y509001D01*
X326000D01*
X324667Y510334D01*
X332664Y509001D02*
X335330D01*
X333997D01*
Y516999D01*
X332664Y515666D01*
X207668Y233666D02*
X206336Y234999D01*
X203670D01*
X202337Y233666D01*
Y228334D01*
X203670Y227001D01*
X206336D01*
X207668Y228334D01*
X215666Y234999D02*
X210334D01*
Y231000D01*
X213000Y232333D01*
X214333D01*
X215666Y231000D01*
Y228334D01*
X214333Y227001D01*
X211667D01*
X210334Y228334D01*
X218332Y233666D02*
X219664Y234999D01*
X222330D01*
X223663Y233666D01*
Y228334D01*
X222330Y227001D01*
X219664D01*
X218332Y228334D01*
Y233666D01*
X233334Y218668D02*
X232001Y217335D01*
Y214670D01*
X233334Y213337D01*
X238666D01*
X239999Y214670D01*
Y217335D01*
X238666Y218668D01*
X239999Y225333D02*
X232001D01*
X236000Y221334D01*
Y226666D01*
X238666Y229332D02*
X239999Y230665D01*
Y233330D01*
X238666Y234663D01*
X233334D01*
X232001Y233330D01*
Y230665D01*
X233334Y229332D01*
X234667D01*
X236000Y230665D01*
Y234663D01*
X207668Y219666D02*
X206336Y220999D01*
X203670D01*
X202337Y219666D01*
Y214334D01*
X203670Y213001D01*
X206336D01*
X207668Y214334D01*
X214333Y213001D02*
Y220999D01*
X210334Y217000D01*
X215666D01*
X218332Y219666D02*
X219664Y220999D01*
X222330D01*
X223663Y219666D01*
Y218333D01*
X222330Y217000D01*
X223663Y215667D01*
Y214334D01*
X222330Y213001D01*
X219664D01*
X218332Y214334D01*
Y215667D01*
X219664Y217000D01*
X218332Y218333D01*
Y219666D01*
X219664Y217000D02*
X222330D01*
X207668Y187666D02*
X206336Y188999D01*
X203670D01*
X202337Y187666D01*
Y182334D01*
X203670Y181001D01*
X206336D01*
X207668Y182334D01*
X214333Y181001D02*
Y188999D01*
X210334Y185000D01*
X215666D01*
X223663Y188999D02*
X220997Y187666D01*
X218332Y185000D01*
Y182334D01*
X219664Y181001D01*
X222330D01*
X223663Y182334D01*
Y183667D01*
X222330Y185000D01*
X218332D01*
X117668Y155666D02*
X116335Y156999D01*
X113670D01*
X112337Y155666D01*
Y150334D01*
X113670Y149001D01*
X116335D01*
X117668Y150334D01*
X124333Y149001D02*
Y156999D01*
X120334Y153000D01*
X125666D01*
X133663Y156999D02*
X128332D01*
Y153000D01*
X130997Y154333D01*
X132330D01*
X133663Y153000D01*
Y150334D01*
X132330Y149001D01*
X129664D01*
X128332Y150334D01*
X167334Y184668D02*
X166001Y183335D01*
Y180670D01*
X167334Y179337D01*
X172666D01*
X173999Y180670D01*
Y183335D01*
X172666Y184668D01*
X173999Y191333D02*
X166001D01*
X170000Y187334D01*
Y192666D01*
X173999Y199330D02*
X166001D01*
X170000Y195332D01*
Y200663D01*
X26334Y284668D02*
X25001Y283335D01*
Y280670D01*
X26334Y279337D01*
X31666D01*
X32999Y280670D01*
Y283335D01*
X31666Y284668D01*
X32999Y291333D02*
X25001D01*
X29000Y287334D01*
Y292666D01*
X26334Y295332D02*
X25001Y296665D01*
Y299330D01*
X26334Y300663D01*
X27667D01*
X29000Y299330D01*
Y297997D01*
Y299330D01*
X30333Y300663D01*
X31666D01*
X32999Y299330D01*
Y296665D01*
X31666Y295332D01*
X34668Y316666D02*
X33335Y317999D01*
X30670D01*
X29337Y316666D01*
Y311334D01*
X30670Y310001D01*
X33335D01*
X34668Y311334D01*
X41333Y310001D02*
Y317999D01*
X37334Y314000D01*
X42666D01*
X50663Y310001D02*
X45332D01*
X50663Y315333D01*
Y316666D01*
X49330Y317999D01*
X46665D01*
X45332Y316666D01*
X120001Y330666D02*
X118668Y331999D01*
X116003D01*
X114670Y330666D01*
Y325334D01*
X116003Y324001D01*
X118668D01*
X120001Y325334D01*
X126666Y324001D02*
Y331999D01*
X122667Y328000D01*
X127999D01*
X130665Y324001D02*
X133330D01*
X131997D01*
Y331999D01*
X130665Y330666D01*
X27334Y179668D02*
X26001Y178335D01*
Y175670D01*
X27334Y174337D01*
X32666D01*
X33999Y175670D01*
Y178335D01*
X32666Y179668D01*
X33999Y186333D02*
X26001D01*
X30000Y182334D01*
Y187666D01*
X27334Y190332D02*
X26001Y191665D01*
Y194330D01*
X27334Y195663D01*
X32666D01*
X33999Y194330D01*
Y191665D01*
X32666Y190332D01*
X27334D01*
X62668Y334666D02*
X61336Y335999D01*
X58670D01*
X57337Y334666D01*
Y329334D01*
X58670Y328001D01*
X61336D01*
X62668Y329334D01*
X65334Y334666D02*
X66667Y335999D01*
X69333D01*
X70666Y334666D01*
Y333333D01*
X69333Y332000D01*
X68000D01*
X69333D01*
X70666Y330667D01*
Y329334D01*
X69333Y328001D01*
X66667D01*
X65334Y329334D01*
X73332D02*
X74665Y328001D01*
X77330D01*
X78663Y329334D01*
Y334666D01*
X77330Y335999D01*
X74665D01*
X73332Y334666D01*
Y333333D01*
X74665Y332000D01*
X78663D01*
X552668Y319666D02*
X551335Y320999D01*
X548670D01*
X547337Y319666D01*
Y314334D01*
X548670Y313001D01*
X551335D01*
X552668Y314334D01*
X555334Y319666D02*
X556667Y320999D01*
X559333D01*
X560666Y319666D01*
Y318333D01*
X559333Y317000D01*
X558000D01*
X559333D01*
X560666Y315667D01*
Y314334D01*
X559333Y313001D01*
X556667D01*
X555334Y314334D01*
X563332Y319666D02*
X564664Y320999D01*
X567330D01*
X568663Y319666D01*
Y318333D01*
X567330Y317000D01*
X568663Y315667D01*
Y314334D01*
X567330Y313001D01*
X564664D01*
X563332Y314334D01*
Y315667D01*
X564664Y317000D01*
X563332Y318333D01*
Y319666D01*
X564664Y317000D02*
X567330D01*
X554668Y236666D02*
X553335Y237999D01*
X550670D01*
X549337Y236666D01*
Y231334D01*
X550670Y230001D01*
X553335D01*
X554668Y231334D01*
X557334Y236666D02*
X558667Y237999D01*
X561333D01*
X562666Y236666D01*
Y235333D01*
X561333Y234000D01*
X560000D01*
X561333D01*
X562666Y232667D01*
Y231334D01*
X561333Y230001D01*
X558667D01*
X557334Y231334D01*
X565332Y237999D02*
X570663D01*
Y236666D01*
X565332Y231334D01*
Y230001D01*
X573335Y366666D02*
X572002Y367999D01*
X569336D01*
X568003Y366666D01*
Y361334D01*
X569336Y360001D01*
X572002D01*
X573335Y361334D01*
X576001Y360001D02*
X578666D01*
X577334D01*
Y367999D01*
X576001Y366666D01*
X587997Y367999D02*
X582665D01*
Y364000D01*
X585331Y365333D01*
X586664D01*
X587997Y364000D01*
Y361334D01*
X586664Y360001D01*
X583998D01*
X582665Y361334D01*
X644335Y297666D02*
X643002Y298999D01*
X640336D01*
X639003Y297666D01*
Y292334D01*
X640336Y291001D01*
X643002D01*
X644335Y292334D01*
X647001Y291001D02*
X649666D01*
X648334D01*
Y298999D01*
X647001Y297666D01*
X657664Y291001D02*
Y298999D01*
X653665Y295000D01*
X658997D01*
X711324Y387790D02*
X709991Y389123D01*
X707325D01*
X705992Y387790D01*
Y382459D01*
X707325Y381126D01*
X709991D01*
X711324Y382459D01*
X713989Y381126D02*
X716655D01*
X715322D01*
Y389123D01*
X713989Y387790D01*
X720654D02*
X721987Y389123D01*
X724653D01*
X725986Y387790D01*
Y386458D01*
X724653Y385125D01*
X723320D01*
X724653D01*
X725986Y383792D01*
Y382459D01*
X724653Y381126D01*
X721987D01*
X720654Y382459D01*
X172335Y47666D02*
X171002Y48999D01*
X168336D01*
X167003Y47666D01*
Y42334D01*
X168336Y41001D01*
X171002D01*
X172335Y42334D01*
X175001Y41001D02*
X177666D01*
X176334D01*
Y48999D01*
X175001Y47666D01*
X186997Y41001D02*
X181665D01*
X186997Y46333D01*
Y47666D01*
X185664Y48999D01*
X182998D01*
X181665Y47666D01*
X101668Y112666D02*
X100335Y113999D01*
X97669D01*
X96336Y112666D01*
Y107334D01*
X97669Y106001D01*
X100335D01*
X101668Y107334D01*
X104333Y106001D02*
X106999D01*
X105667D01*
Y113999D01*
X104333Y112666D01*
X110998Y106001D02*
X113664D01*
X112331D01*
Y113999D01*
X110998Y112666D01*
X105335Y17666D02*
X104002Y18999D01*
X101336D01*
X100003Y17666D01*
Y12334D01*
X101336Y11001D01*
X104002D01*
X105335Y12334D01*
X108001Y11001D02*
X110667D01*
X109334D01*
Y18999D01*
X108001Y17666D01*
X114665D02*
X115998Y18999D01*
X118664D01*
X119997Y17666D01*
Y12334D01*
X118664Y11001D01*
X115998D01*
X114665Y12334D01*
Y17666D01*
X52667Y65666D02*
X51334Y66999D01*
X48668D01*
X47336Y65666D01*
Y60334D01*
X48668Y59001D01*
X51334D01*
X52667Y60334D01*
X55333D02*
X56666Y59001D01*
X59332D01*
X60665Y60334D01*
Y65666D01*
X59332Y66999D01*
X56666D01*
X55333Y65666D01*
Y64333D01*
X56666Y63000D01*
X60665D01*
X61334Y377667D02*
X60001Y376334D01*
Y373668D01*
X61334Y372336D01*
X66666D01*
X67999Y373668D01*
Y376334D01*
X66666Y377667D01*
X61334Y380333D02*
X60001Y381666D01*
Y384332D01*
X61334Y385664D01*
X62667D01*
X64000Y384332D01*
X65333Y385664D01*
X66666D01*
X67999Y384332D01*
Y381666D01*
X66666Y380333D01*
X65333D01*
X64000Y381666D01*
X62667Y380333D01*
X61334D01*
X64000Y381666D02*
Y384332D01*
X79334Y377667D02*
X78001Y376334D01*
Y373668D01*
X79334Y372336D01*
X84666D01*
X85999Y373668D01*
Y376334D01*
X84666Y377667D01*
X78001Y380333D02*
Y385664D01*
X79334D01*
X84666Y380333D01*
X85999D01*
X96334Y377667D02*
X95001Y376334D01*
Y373668D01*
X96334Y372336D01*
X101666D01*
X102999Y373668D01*
Y376334D01*
X101666Y377667D01*
X95001Y385664D02*
X96334Y382999D01*
X99000Y380333D01*
X101666D01*
X102999Y381666D01*
Y384332D01*
X101666Y385664D01*
X100333D01*
X99000Y384332D01*
Y380333D01*
X113334Y377667D02*
X112001Y376334D01*
Y373668D01*
X113334Y372336D01*
X118666D01*
X119999Y373668D01*
Y376334D01*
X118666Y377667D01*
X112001Y385664D02*
Y380333D01*
X116000D01*
X114667Y382999D01*
Y384332D01*
X116000Y385664D01*
X118666D01*
X119999Y384332D01*
Y381666D01*
X118666Y380333D01*
X126334Y515667D02*
X125001Y514334D01*
Y511668D01*
X126334Y510336D01*
X131666D01*
X132999Y511668D01*
Y514334D01*
X131666Y515667D01*
X132999Y522332D02*
X125001D01*
X129000Y518333D01*
Y523665D01*
X141334Y515667D02*
X140001Y514334D01*
Y511668D01*
X141334Y510336D01*
X146666D01*
X147999Y511668D01*
Y514334D01*
X146666Y515667D01*
X141334Y518333D02*
X140001Y519666D01*
Y522332D01*
X141334Y523665D01*
X142667D01*
X144000Y522332D01*
Y520999D01*
Y522332D01*
X145333Y523665D01*
X146666D01*
X147999Y522332D01*
Y519666D01*
X146666Y518333D01*
X158334Y515667D02*
X157001Y514334D01*
Y511668D01*
X158334Y510336D01*
X163666D01*
X164999Y511668D01*
Y514334D01*
X163666Y515667D01*
X164999Y523665D02*
Y518333D01*
X159667Y523665D01*
X158334D01*
X157001Y522332D01*
Y519666D01*
X158334Y518333D01*
X175334Y515667D02*
X174001Y514334D01*
Y511668D01*
X175334Y510336D01*
X180666D01*
X181999Y511668D01*
Y514334D01*
X180666Y515667D01*
X181999Y518333D02*
Y520999D01*
Y519666D01*
X174001D01*
X175334Y518333D01*
D11*
X852000Y41000D02*
G03*
X860000Y49000I0J8000D01*
G01*
Y147190D02*
G03*
X852000Y155190I-8000J0D01*
G01*
X840000Y48905D02*
Y147095D01*
X828000Y41000D02*
X852000D01*
X828000Y155190D02*
X852000D01*
X860000Y49000D02*
Y147190D01*
D12*
X505000Y17000D02*
G03*
X505000Y17000I-2000J0D01*
G01*
X838002Y205001D02*
G03*
X838002Y205001I-2000J0D01*
G01*
D13*
X202500Y99000D02*
G03*
X202500Y99000I-7500J0D01*
G01*
X623500Y301000D02*
G03*
X623500Y301000I-7500J0D01*
G01*
X48500Y403000D02*
G03*
X48500Y403000I-7500J0D01*
G01*
Y447000D02*
G03*
X48500Y447000I-7500J0D01*
G01*
X438500Y56500D02*
X451500D01*
Y83500D01*
X438500D02*
X451500D01*
X438500Y56500D02*
Y83500D01*
X423500Y56500D02*
X436500D01*
Y83500D01*
X423500D02*
X436500D01*
X423500Y56500D02*
Y83500D01*
X408500Y56500D02*
X421500D01*
Y83500D01*
X408500D02*
X421500D01*
X408500Y56500D02*
Y83500D01*
X393500Y56500D02*
X406500D01*
Y83500D01*
X393500D02*
X406500D01*
X393500Y56500D02*
Y83500D01*
X378500Y56500D02*
X391500D01*
Y83500D01*
X378500D02*
X391500D01*
X378500Y56500D02*
Y83500D01*
X363500Y56500D02*
X376500D01*
Y83500D01*
X363500D02*
X376500D01*
X363500Y56500D02*
Y83500D01*
X348500Y56500D02*
X361500D01*
Y83500D01*
X348500D02*
X361500D01*
X348500Y56500D02*
Y83500D01*
X333499Y56500D02*
X346499D01*
Y83500D01*
X333499D02*
X346499D01*
X333499Y56500D02*
Y83500D01*
X750500Y167500D02*
Y180500D01*
X723500D02*
X750500D01*
X723500Y167500D02*
Y180500D01*
Y167500D02*
X750500D01*
X694500Y153500D02*
Y166500D01*
X667500D02*
X694500D01*
X667500Y153500D02*
Y166500D01*
Y153500D02*
X694500D01*
X694499Y21501D02*
Y34501D01*
X667499D02*
X694499D01*
X667499Y21501D02*
Y34501D01*
Y21501D02*
X694499D01*
X694500Y135500D02*
Y148500D01*
X667500D02*
X694500D01*
X667500Y135500D02*
Y148500D01*
Y135500D02*
X694500D01*
X694500Y47500D02*
Y60500D01*
X667500D02*
X694500D01*
X667500Y47500D02*
Y60500D01*
Y47500D02*
X694500D01*
X694499Y78501D02*
Y91501D01*
X667499D02*
X694499D01*
X667499Y78501D02*
Y91501D01*
Y78501D02*
X694499D01*
X694500Y117500D02*
Y130500D01*
X667500D02*
X694500D01*
X667500Y117500D02*
Y130500D01*
Y117500D02*
X694500D01*
X750500Y167500D02*
Y180500D01*
Y167500D02*
X777500D01*
Y180500D01*
X750500D02*
X777500D01*
X694500Y166500D02*
Y179500D01*
X667500D02*
X694500D01*
X667500Y166500D02*
Y179500D01*
Y166500D02*
X694500D01*
Y34500D02*
Y47500D01*
X667500D02*
X694500D01*
X667500Y34500D02*
Y47500D01*
Y34500D02*
X694500D01*
Y60500D02*
Y73500D01*
X667500D02*
X694500D01*
X667500Y60500D02*
Y73500D01*
Y60500D02*
X694500D01*
Y91500D02*
Y104500D01*
X667500D02*
X694500D01*
X667500Y91500D02*
Y104500D01*
Y91500D02*
X694500D01*
Y104500D02*
Y117500D01*
X667500D02*
X694500D01*
X667500Y104500D02*
Y117500D01*
Y104500D02*
X694500D01*
X536500Y97500D02*
X549500D01*
Y124500D01*
X536500D02*
X549500D01*
X536500Y97500D02*
Y124500D01*
X511500Y97500D02*
X524500D01*
Y124500D01*
X511500D02*
X524500D01*
X511500Y97500D02*
Y124500D01*
X482500Y21500D02*
X495500D01*
Y48500D01*
X482500D02*
X495500D01*
X482500Y21500D02*
Y48500D01*
X472500Y336500D02*
X485500D01*
X472500Y309500D02*
Y336500D01*
Y309500D02*
X485500D01*
Y336500D01*
X485500D02*
X498500D01*
X485500Y309500D02*
Y336500D01*
Y309500D02*
X498500D01*
Y336500D01*
X754500Y314500D02*
Y327500D01*
X727500D02*
X754500D01*
X727500Y314500D02*
Y327500D01*
Y314500D02*
X754500D01*
Y199500D02*
Y212500D01*
X727500D02*
X754500D01*
X727500Y199500D02*
Y212500D01*
Y199500D02*
X754500D01*
Y277500D02*
Y290500D01*
X727500D02*
X754500D01*
X727500Y277500D02*
Y290500D01*
Y277500D02*
X754500D01*
Y225500D02*
Y238500D01*
X727500D02*
X754500D01*
X727500Y225500D02*
Y238500D01*
Y225500D02*
X754500D01*
Y251500D02*
Y264500D01*
X727500D02*
X754500D01*
X727500Y251500D02*
Y264500D01*
Y251500D02*
X754500D01*
X504500Y336500D02*
X517500D01*
X504500Y309500D02*
Y336500D01*
Y309500D02*
X517500D01*
Y336500D01*
X754500Y212500D02*
Y225500D01*
X727500D02*
X754500D01*
X727500Y212500D02*
Y225500D01*
Y212500D02*
X754500D01*
Y290500D02*
Y303500D01*
X727500D02*
X754500D01*
X727500Y290500D02*
Y303500D01*
Y290500D02*
X754500D01*
Y238500D02*
Y251500D01*
X727500D02*
X754500D01*
X727500Y238500D02*
Y251500D01*
Y238500D02*
X754500D01*
Y264500D02*
Y277500D01*
X727500D02*
X754500D01*
X727500Y264500D02*
Y277500D01*
Y264500D02*
X754500D01*
X834500Y186500D02*
Y199500D01*
X807500D02*
X834500D01*
X807500Y186500D02*
Y199500D01*
Y186500D02*
X834500D01*
X517500Y336500D02*
X530500D01*
X517500Y309500D02*
Y336500D01*
Y309500D02*
X530500D01*
Y336500D01*
X215500Y433500D02*
Y446500D01*
Y433500D02*
X242500D01*
Y446500D01*
X215500D02*
X242500D01*
X412500Y383500D02*
Y396500D01*
X385500D02*
X412500D01*
X385500Y383500D02*
Y396500D01*
Y383500D02*
X412500D01*
X242500Y447500D02*
Y460500D01*
X215500D02*
X242500D01*
X215500Y447500D02*
Y460500D01*
Y447500D02*
X242500D01*
X399500Y396500D02*
X412500D01*
Y423500D01*
X399500D02*
X412500D01*
X399500Y396500D02*
Y423500D01*
X399500Y442500D02*
X412500D01*
Y469500D01*
X399500D02*
X412500D01*
X399500Y442500D02*
Y469500D01*
X178500Y305500D02*
Y318500D01*
X151500D02*
X178500D01*
X151500Y305500D02*
Y318500D01*
Y305500D02*
X178500D01*
X151500Y264500D02*
Y277500D01*
Y264500D02*
X178500D01*
Y277500D01*
X151500D02*
X178500D01*
X69500Y146500D02*
X82500D01*
Y173500D01*
X69500D02*
X82500D01*
X69500Y146500D02*
Y173500D01*
X22500Y205500D02*
Y218500D01*
Y205500D02*
X49500D01*
Y218500D01*
X22500D02*
X49500D01*
X473500Y399500D02*
X486500D01*
X473500Y372500D02*
Y399500D01*
Y372500D02*
X486500D01*
Y399500D01*
X459500Y372500D02*
X472500D01*
Y399500D01*
X459500D02*
X472500D01*
X459500Y372500D02*
Y399500D01*
X540500Y268500D02*
Y281500D01*
X513500D02*
X540500D01*
X513500Y268500D02*
Y281500D01*
Y268500D02*
X540500D01*
X627500Y249500D02*
Y262500D01*
X600500D02*
X627500D01*
X600500Y249500D02*
Y262500D01*
Y249500D02*
X627500D01*
X600500Y262500D02*
Y275500D01*
Y262500D02*
X627500D01*
Y275500D01*
X600500D02*
X627500D01*
X627500Y206500D02*
Y219500D01*
X600500D02*
X627500D01*
X600500Y206500D02*
Y219500D01*
Y206500D02*
X627500D01*
X632500Y386500D02*
Y399500D01*
Y386500D02*
X659500D01*
Y399500D01*
X632500D02*
X659500D01*
X595500Y343500D02*
Y356500D01*
Y343500D02*
X622500D01*
Y356500D01*
X595500D02*
X622500D01*
X691500Y386500D02*
Y399500D01*
X664500D02*
X691500D01*
X664500Y386500D02*
Y399500D01*
Y386500D02*
X691500D01*
X609500Y343500D02*
X622500D01*
X609500Y316500D02*
Y343500D01*
Y316500D02*
X622500D01*
Y343500D01*
X61500Y461500D02*
Y474500D01*
Y461500D02*
X88500D01*
Y474500D01*
X61500D02*
X88500D01*
X191500Y64500D02*
Y77500D01*
X164500D02*
X191500D01*
X164500Y64500D02*
Y77500D01*
Y64500D02*
X191500D01*
X61500Y448500D02*
Y461500D01*
Y448500D02*
X88500D01*
Y461500D01*
X61500D02*
X88500D01*
X122500Y21500D02*
Y34500D01*
Y21500D02*
X149500D01*
Y34500D01*
X122500D02*
X149500D01*
X164500Y77500D02*
X177500D01*
Y104500D01*
X164500D02*
X177500D01*
X164500Y77500D02*
Y104500D01*
X527000Y474000D02*
X559000D01*
X527000Y428000D02*
Y474000D01*
Y428000D02*
X559000D01*
Y474000D01*
X727000Y474000D02*
X759000D01*
X727000Y428000D02*
Y474000D01*
Y428000D02*
X759000D01*
Y474000D01*
X439000Y16000D02*
X451000D01*
X439000D02*
Y45000D01*
X445000Y43500D02*
Y46500D01*
X443500Y45000D02*
X446500D01*
X451000Y16000D02*
Y45000D01*
X424000Y16000D02*
X436000D01*
X424000D02*
Y45000D01*
X430000Y43500D02*
Y46500D01*
X428500Y45000D02*
X431500D01*
X436000Y16000D02*
Y45000D01*
X409000Y16000D02*
X421000D01*
X409000D02*
Y45000D01*
X415000Y43500D02*
Y46500D01*
X413500Y45000D02*
X416500D01*
X421000Y16000D02*
Y45000D01*
X394000Y16000D02*
X406000D01*
X394000D02*
Y45000D01*
X400000Y43500D02*
Y46500D01*
X398500Y45000D02*
X401500D01*
X406000Y16000D02*
Y45000D01*
X379000Y16000D02*
X391000D01*
X379000D02*
Y45000D01*
X385000Y43500D02*
Y46500D01*
X383500Y45000D02*
X386500D01*
X391000Y16000D02*
Y45000D01*
X364000Y16000D02*
X376000D01*
X364000D02*
Y45000D01*
X370000Y43500D02*
Y46500D01*
X368500Y45000D02*
X371500D01*
X376000Y16000D02*
Y45000D01*
X349000Y16000D02*
X361000D01*
X349000D02*
Y45000D01*
X355000Y43500D02*
Y46500D01*
X353500Y45000D02*
X356500D01*
X361000Y16000D02*
Y45000D01*
X333998Y16000D02*
X345998D01*
X333998D02*
Y45000D01*
X339998Y43500D02*
Y46500D01*
X338498Y45000D02*
X341498D01*
X345998Y16000D02*
Y45000D01*
X801500Y14500D02*
Y31500D01*
X770500D02*
X801500D01*
X770500Y14500D02*
Y31500D01*
Y14500D02*
X801500D01*
X459500Y465500D02*
X476500D01*
X459500Y434500D02*
Y465500D01*
Y434500D02*
X476500D01*
Y465500D01*
X659500D02*
X676500D01*
X659500Y434500D02*
Y465500D01*
Y434500D02*
X676500D01*
Y465500D01*
X380500Y432500D02*
X393500D01*
Y407500D02*
Y432500D01*
X380500Y407500D02*
X393500D01*
X380500D02*
Y432500D01*
X380500Y458500D02*
X393500D01*
X380500D02*
Y483500D01*
X393500D01*
Y458500D02*
Y483500D01*
X245500Y460500D02*
X258500D01*
X245500D02*
Y485500D01*
X258500D01*
Y460500D02*
Y485500D01*
X245500Y434500D02*
X258500D01*
Y409500D02*
Y434500D01*
X245500Y409500D02*
X258500D01*
X245500D02*
Y434500D01*
X313500Y504500D02*
Y521500D01*
X282500D02*
X313500D01*
X282500Y504500D02*
Y521500D01*
Y504500D02*
X313500D01*
X152500Y292500D02*
Y305500D01*
X177500D01*
Y292500D02*
Y305500D01*
X152500Y292500D02*
X177500D01*
X179500Y307500D02*
X196500D01*
X179500Y276500D02*
Y307500D01*
Y276500D02*
X196500D01*
Y307500D01*
X177500Y278500D02*
Y291500D01*
X152500Y278500D02*
X177500D01*
X152500D02*
Y291500D01*
X177500D01*
X54500Y148500D02*
X67500D01*
X54500D02*
Y173500D01*
X67500D01*
Y148500D02*
Y173500D01*
X176500Y246500D02*
Y259500D01*
X151500Y246500D02*
X176500D01*
X151500D02*
Y259500D01*
X176500D01*
X111500Y160500D02*
Y173500D01*
X136500D01*
Y160500D02*
Y173500D01*
X111500Y160500D02*
X136500D01*
X150500Y176500D02*
X163500D01*
X150500D02*
Y201500D01*
X163500D01*
Y176500D02*
Y201500D01*
X35500Y276500D02*
X48500D01*
X35500D02*
Y301500D01*
X48500D01*
Y276500D02*
Y301500D01*
X53500Y307500D02*
Y320500D01*
X78500D01*
Y307500D02*
Y320500D01*
X53500Y307500D02*
X78500D01*
X136500D02*
Y320500D01*
X111500Y307500D02*
X136500D01*
X111500D02*
Y320500D01*
X136500D01*
X36500Y172500D02*
X49500D01*
X36500D02*
Y197500D01*
X49500D01*
Y172500D02*
Y197500D01*
X81500Y338500D02*
X98500D01*
X81500Y307500D02*
Y338500D01*
Y307500D02*
X98500D01*
Y338500D01*
X546500Y297500D02*
Y310500D01*
X571500D01*
Y297500D02*
Y310500D01*
X546500Y297500D02*
X571500D01*
Y241500D02*
Y254500D01*
X546500Y241500D02*
X571500D01*
X546500D02*
Y254500D01*
X571500D01*
X622500Y356500D02*
Y369500D01*
X597500Y356500D02*
X622500D01*
X597500D02*
Y369500D01*
X622500D01*
X663500Y311500D02*
Y328500D01*
X632500D02*
X663500D01*
X632500Y311500D02*
Y328500D01*
Y311500D02*
X663500D01*
X704500Y373500D02*
X721500D01*
X704500Y342500D02*
Y373500D01*
Y342500D02*
X721500D01*
Y373500D01*
X164500Y51500D02*
Y64500D01*
X189500D01*
Y51500D02*
Y64500D01*
X164500Y51500D02*
X189500D01*
X123500Y92500D02*
Y109500D01*
Y92500D02*
X154500D01*
Y109500D01*
X123500D02*
X154500D01*
X122500Y21500D02*
Y34500D01*
X97500Y21500D02*
X122500D01*
X97500D02*
Y34500D01*
X122500D01*
X65500Y47500D02*
X82500D01*
Y78500D01*
X65500D02*
X82500D01*
X65500Y47500D02*
Y78500D01*
X56500Y427500D02*
X73500D01*
X56500Y396500D02*
Y427500D01*
Y396500D02*
X73500D01*
Y427500D01*
X90500D01*
X73500Y396500D02*
Y427500D01*
Y396500D02*
X90500D01*
Y427500D01*
X90500D02*
X107500D01*
X90500Y396500D02*
Y427500D01*
Y396500D02*
X107500D01*
Y427500D01*
X107500D02*
X124500D01*
X107500Y396500D02*
Y427500D01*
Y396500D02*
X124500D01*
Y427500D01*
X122500Y476500D02*
X135500D01*
X122500D02*
Y501500D01*
X135500D01*
Y476500D02*
Y501500D01*
X152500D01*
X135500Y470500D02*
Y501500D01*
Y470500D02*
X152500D01*
Y501500D01*
X152500D02*
X169500D01*
X152500Y470500D02*
Y501500D01*
Y470500D02*
X169500D01*
Y501500D01*
X186500D01*
X169500Y470500D02*
Y501500D01*
Y470500D02*
X186500D01*
Y501500D01*
X335500Y152500D02*
X348500D01*
Y179500D01*
X335500D02*
X348500D01*
X335500Y152500D02*
Y179500D01*
X335500Y115500D02*
X348500D01*
Y142500D01*
X335500D02*
X348500D01*
X335500Y115500D02*
Y142500D01*
X322500Y142500D02*
X335500D01*
X322500Y115500D02*
Y142500D01*
Y115500D02*
X335500D01*
Y142500D01*
D14*
X137000Y398000D02*
Y448000D01*
X187000Y398000D02*
Y448000D01*
D15*
X404664Y137331D02*
X402998Y138997D01*
X399666D01*
X398000Y137331D01*
Y135665D01*
X399666Y133998D01*
X402998D01*
X404664Y132332D01*
Y130666D01*
X402998Y129000D01*
X399666D01*
X398000Y130666D01*
X407997Y129000D02*
Y135665D01*
X411329Y138997D01*
X414661Y135665D01*
Y129000D01*
Y133998D01*
X407997D01*
X417994Y129000D02*
Y138997D01*
X421326Y135665D01*
X424658Y138997D01*
Y129000D01*
X427990Y130666D02*
X429656Y129000D01*
X432989D01*
X434655Y130666D01*
Y137331D01*
X432989Y138997D01*
X429656D01*
X427990Y137331D01*
Y135665D01*
X429656Y133998D01*
X434655D01*
X437987Y129000D02*
Y138997D01*
X444652Y129000D01*
Y138997D01*
X447984Y129000D02*
X451316D01*
X449650D01*
Y138997D01*
X447984Y137331D01*
X462979Y129000D02*
X456315D01*
X462979Y135665D01*
Y137331D01*
X461313Y138997D01*
X457981D01*
X456315Y137331D01*
X222000Y383000D02*
X225332D01*
X223666D01*
Y392997D01*
X222000Y391331D01*
X236995Y383000D02*
X230331D01*
X236995Y389664D01*
Y391331D01*
X235329Y392997D01*
X231997D01*
X230331Y391331D01*
X240327D02*
X241994Y392997D01*
X245326D01*
X246992Y391331D01*
Y389664D01*
X245326Y387998D01*
X246992Y386332D01*
Y384666D01*
X245326Y383000D01*
X241994D01*
X240327Y384666D01*
Y386332D01*
X241994Y387998D01*
X240327Y389664D01*
Y391331D01*
X241994Y387998D02*
X245326D01*
X250324Y383000D02*
Y392997D01*
X253656Y389664D01*
X256989Y392997D01*
Y383000D01*
X260321Y392997D02*
Y383000D01*
X265319D01*
X266985Y384666D01*
Y386332D01*
X265319Y387998D01*
X260321D01*
X265319D01*
X266985Y389664D01*
Y391331D01*
X265319Y392997D01*
X260321D01*
X280315Y383000D02*
Y392997D01*
X286979Y383000D01*
Y392997D01*
X290311Y383000D02*
Y389664D01*
X293644Y392997D01*
X296976Y389664D01*
Y383000D01*
Y387998D01*
X290311D01*
X300308Y383000D02*
Y392997D01*
X306973Y383000D01*
Y392997D01*
X310305D02*
Y383000D01*
X315303D01*
X316969Y384666D01*
Y391331D01*
X315303Y392997D01*
X310305D01*
X336963D02*
X330298D01*
Y387998D01*
X333631D01*
X330298D01*
Y383000D01*
X340295Y392997D02*
Y383000D01*
X346960D01*
X350292D02*
Y389664D01*
X353624Y392997D01*
X356956Y389664D01*
Y383000D01*
Y387998D01*
X350292D01*
X366953Y391331D02*
X365287Y392997D01*
X361955D01*
X360289Y391331D01*
Y389664D01*
X361955Y387998D01*
X365287D01*
X366953Y386332D01*
Y384666D01*
X365287Y383000D01*
X361955D01*
X360289Y384666D01*
X370285Y392997D02*
Y383000D01*
Y387998D01*
X376950D01*
Y392997D01*
Y383000D01*
X58664Y130000D02*
X52000D01*
X58664Y136664D01*
Y138331D01*
X56998Y139997D01*
X53666D01*
X52000Y138331D01*
X68661Y139997D02*
X61997D01*
Y134998D01*
X65329Y136664D01*
X66995D01*
X68661Y134998D01*
Y131666D01*
X66995Y130000D01*
X63663D01*
X61997Y131666D01*
X78658Y139997D02*
X75326Y138331D01*
X71994Y134998D01*
Y131666D01*
X73660Y130000D01*
X76992D01*
X78658Y131666D01*
Y133332D01*
X76992Y134998D01*
X71994D01*
X81990Y130000D02*
Y139997D01*
X85323Y136664D01*
X88655Y139997D01*
Y130000D01*
X91987Y139997D02*
Y130000D01*
X96986D01*
X98652Y131666D01*
Y133332D01*
X96986Y134998D01*
X91987D01*
X96986D01*
X98652Y136664D01*
Y138331D01*
X96986Y139997D01*
X91987D01*
X111981D02*
Y130000D01*
X116979D01*
X118645Y131666D01*
Y138331D01*
X116979Y139997D01*
X111981D01*
X121978D02*
Y130000D01*
X126976D01*
X128642Y131666D01*
Y138331D01*
X126976Y139997D01*
X121978D01*
X131974Y130000D02*
Y139997D01*
X136973D01*
X138639Y138331D01*
Y134998D01*
X136973Y133332D01*
X131974D01*
X135307D02*
X138639Y130000D01*
X148636D02*
X141971D01*
X148636Y136664D01*
Y138331D01*
X146969Y139997D01*
X143637D01*
X141971Y138331D01*
X151968Y134998D02*
X158632D01*
X168629Y139997D02*
X161965D01*
Y134998D01*
X165297Y136664D01*
X166963D01*
X168629Y134998D01*
Y131666D01*
X166963Y130000D01*
X163631D01*
X161965Y131666D01*
X171961Y138331D02*
X173627Y139997D01*
X176960D01*
X178626Y138331D01*
Y136664D01*
X176960Y134998D01*
X175294D01*
X176960D01*
X178626Y133332D01*
Y131666D01*
X176960Y130000D01*
X173627D01*
X171961Y131666D01*
X181958Y138331D02*
X183624Y139997D01*
X186957D01*
X188623Y138331D01*
Y136664D01*
X186957Y134998D01*
X185290D01*
X186957D01*
X188623Y133332D01*
Y131666D01*
X186957Y130000D01*
X183624D01*
X181958Y131666D01*
X609003Y427000D02*
X617334D01*
X619000Y428666D01*
Y431998D01*
X617334Y433665D01*
X609003D01*
X610669Y443661D02*
X609003Y441995D01*
Y438663D01*
X610669Y436997D01*
X612336D01*
X614002Y438663D01*
Y441995D01*
X615668Y443661D01*
X617334D01*
X619000Y441995D01*
Y438663D01*
X617334Y436997D01*
X609003Y446993D02*
X619000D01*
Y451992D01*
X617334Y453658D01*
X615668D01*
X614002Y451992D01*
Y446993D01*
Y451992D01*
X612336Y453658D01*
X610669D01*
X609003Y451992D01*
Y446993D01*
Y466987D02*
X619000D01*
Y471986D01*
X617334Y473652D01*
X610669D01*
X609003Y471986D01*
Y466987D01*
Y483648D02*
Y476984D01*
X619000D01*
Y483648D01*
X614002Y476984D02*
Y480316D01*
X609003Y486981D02*
X615668D01*
X619000Y490313D01*
X615668Y493645D01*
X609003D01*
Y496977D02*
Y500310D01*
Y498644D01*
X619000D01*
Y496977D01*
Y500310D01*
X610669Y511973D02*
X609003Y510307D01*
Y506974D01*
X610669Y505308D01*
X617334D01*
X619000Y506974D01*
Y510307D01*
X617334Y511973D01*
X609003Y521969D02*
Y515305D01*
X619000D01*
Y521969D01*
X614002Y515305D02*
Y518637D01*
X565003Y435000D02*
X573334D01*
X575000Y436666D01*
Y439998D01*
X573334Y441665D01*
X565003D01*
X566669Y451661D02*
X565003Y449995D01*
Y446663D01*
X566669Y444997D01*
X568335D01*
X570002Y446663D01*
Y449995D01*
X571668Y451661D01*
X573334D01*
X575000Y449995D01*
Y446663D01*
X573334Y444997D01*
X565003Y454994D02*
X575000D01*
Y459992D01*
X573334Y461658D01*
X571668D01*
X570002Y459992D01*
Y454994D01*
Y459992D01*
X568335Y461658D01*
X566669D01*
X565003Y459992D01*
Y454994D01*
Y474987D02*
X575000D01*
X570002D01*
Y481652D01*
X565003D01*
X575000D01*
X565003Y489982D02*
Y486650D01*
X566669Y484984D01*
X573334D01*
X575000Y486650D01*
Y489982D01*
X573334Y491648D01*
X566669D01*
X565003Y489982D01*
X566669Y501645D02*
X565003Y499979D01*
Y496647D01*
X566669Y494981D01*
X568335D01*
X570002Y496647D01*
Y499979D01*
X571668Y501645D01*
X573334D01*
X575000Y499979D01*
Y496647D01*
X573334Y494981D01*
X565003Y504977D02*
Y511642D01*
Y508310D01*
X575000D01*
M02*
